<?xml version="1.0" standalone="no"?>
<!DOCTYPE svg PUBLIC "-//W3C//DTD SVG 20010904//EN"
 "http://www.w3.org/TR/2001/REC-SVG-20010904/DTD/svg10.dtd">
<svg version="1.0" xmlns="http://www.w3.org/2000/svg"
 width="403.000000pt" height="403.000000pt" viewBox="0 0 403.000000 403.000000"
 preserveAspectRatio="xMidYMid meet">
<metadata>
Created by potrace 1.11, written by Peter Selinger 2001-2013
</metadata>
<g transform="translate(0.000000,403.000000) scale(0.100000,-0.100000)"
fill="#000000" stroke="none">
<path d="M530 2012 l0 -454 188 4 c209 6 255 16 334 73 68 50 101 123 96 214
-5 86 -37 140 -105 175 l-47 23 29 16 c126 65 147 267 36 346 -67 48 -104 55
-323 57 l-208 1 0 -455z m358 302 c90 -35 87 -158 -4 -204 -16 -8 -64 -16
-106 -18 l-78 -4 0 114 c0 63 3 118 7 121 13 13 143 7 181 -9z m12 -376 c54
-28 72 -59 67 -116 -9 -84 -91 -130 -204 -116 l-53 6 0 57 c0 31 -3 86 -7 124
l-6 67 79 0 c63 0 89 -5 124 -22z"/>
<path d="M1375 2029 c-82 -237 -151 -437 -153 -445 -3 -11 13 -14 81 -14 l85
0 29 88 30 87 170 3 171 2 32 -90 33 -90 93 0 c52 0 94 1 94 3 0 1 -71 200
-158 442 l-157 440 -100 3 -100 2 -150 -431z m307 36 c32 -93 58 -173 58 -177
0 -5 -54 -8 -120 -8 -89 0 -120 3 -120 13 0 6 25 84 55 172 30 88 55 169 56
180 1 25 -2 33 71 -180z"/>
<path d="M2140 2015 l0 -445 85 0 85 0 0 185 0 185 145 0 145 0 0 70 0 69
-142 3 -143 3 -3 118 -3 117 156 0 155 0 0 70 0 70 -240 0 -240 0 0 -445z"/>
<path d="M2946 2358 c-20 -57 -90 -256 -155 -443 l-119 -340 76 -3 c41 -2 80
-1 87 2 6 2 24 43 41 90 l29 86 172 0 171 0 7 -32 c3 -18 16 -61 28 -95 l22
-63 97 0 c54 0 98 3 98 8 0 7 -99 283 -178 492 -21 58 -63 171 -92 253 l-52
147 -98 0 -98 0 -36 -102z m212 -355 c22 -61 38 -114 34 -117 -7 -8 -242 -8
-242 0 0 3 20 63 44 133 25 69 53 153 62 186 l17 60 22 -75 c13 -41 41 -125
63 -187z"/>
<path d="M1441 1279 c-31 -9 -33 -13 -27 -41 3 -18 7 -33 9 -34 1 -2 22 2 46
8 37 9 46 8 69 -9 54 -40 36 -98 -67 -220 -50 -59 -61 -78 -61 -107 l0 -36
130 0 130 0 0 41 0 42 -75 -6 c-41 -3 -75 -3 -75 0 0 3 23 33 50 68 85 107
106 174 74 240 -27 57 -112 80 -203 54z"/>
<path d="M1830 1272 c-42 -23 -76 -70 -91 -126 -17 -61 -7 -183 19 -233 47
-91 169 -106 249 -31 36 34 58 104 58 188 0 93 -24 161 -67 192 -43 30 -122
35 -168 10z m118 -73 c54 -58 38 -256 -23 -289 -34 -18 -72 -5 -91 33 -37 69
-17 252 28 270 30 12 68 6 86 -14z"/>
<path d="M2156 1264 c-50 -18 -48 -16 -41 -58 l7 -35 35 14 c20 8 37 15 39 15
2 0 4 -81 4 -180 l0 -180 40 0 40 0 0 220 0 220 -42 -1 c-24 0 -61 -7 -82 -15z"/>
<path d="M2350 1245 l0 -35 91 0 c83 0 90 -2 83 -17 -12 -28 -101 -295 -108
-325 -6 -27 -5 -28 38 -28 45 0 45 0 56 43 6 23 31 103 56 177 25 74 48 154
51 178 l5 42 -136 0 -136 0 0 -35z"/>
</g>
</svg>
