<?xml version="1.0" encoding="UTF-8" standalone="no"?>
<!-- Created with Inkscape (http://www.inkscape.org/) -->

<svg
   xmlns:dc="http://purl.org/dc/elements/1.1/"
   xmlns:cc="http://creativecommons.org/ns#"
   xmlns:rdf="http://www.w3.org/1999/02/22-rdf-syntax-ns#"
   xmlns:svg="http://www.w3.org/2000/svg"
   xmlns="http://www.w3.org/2000/svg"
   xmlns:sodipodi="http://sodipodi.sourceforge.net/DTD/sodipodi-0.dtd"
   xmlns:inkscape="http://www.inkscape.org/namespaces/inkscape"
   id="svg2"
   version="1.1"
   inkscape:version="0.48.5 r10040"
   width="575.62634"
   height="439.33499"
   xml:space="preserve"
   sodipodi:docname="logo_utrecht.ai"><metadata
     id="metadata8"><rdf:RDF><cc:Work
         rdf:about=""><dc:format>image/svg+xml</dc:format><dc:type
           rdf:resource="http://purl.org/dc/dcmitype/StillImage" /><dc:title></dc:title></cc:Work></rdf:RDF></metadata><defs
     id="defs6"><clipPath
       clipPathUnits="userSpaceOnUse"
       id="clipPath16"><path
         d="M 0,480 640,480 640,0 0,0 0,480 z"
         id="path18"
         inkscape:connector-curvature="0" /></clipPath></defs><sodipodi:namedview
     pagecolor="#ffffff"
     bordercolor="#666666"
     borderopacity="1"
     objecttolerance="10"
     gridtolerance="10"
     guidetolerance="10"
     inkscape:pageopacity="0"
     inkscape:pageshadow="2"
     inkscape:window-width="1920"
     inkscape:window-height="1011"
     id="namedview4"
     showgrid="false"
     fit-margin-top="0"
     fit-margin-left="0"
     fit-margin-right="0"
     fit-margin-bottom="0"
     inkscape:zoom="0.39333333"
     inkscape:cx="291.6777"
     inkscape:cy="223.96975"
     inkscape:window-x="-8"
     inkscape:window-y="-8"
     inkscape:window-maximized="1"
     inkscape:current-layer="g10" /><g
     id="g10"
     inkscape:groupmode="layer"
     inkscape:label="logo_utrecht"
     transform="matrix(1.25,0,0,-1.25,-108.3223,515.36525)"><g
       id="g12"><g
         id="g14"
         clip-path="url(#clipPath16)"><g
           id="g20"
           transform="translate(237.9619,350.501)"><path
             d="m 0,0 -0.055,0.024 -0.11,0.055 -2.04,0.779 -0.748,0.271 c 3.308,-5.396 -3.132,-4.128 -3.132,-4.128 1.48,-0.979 2.556,-2.052 2.556,-2.052 0,0 6.243,-4.303 -1.934,-8.045 l 0,-35.747 0,-0.726 c 2.2,-0.071 3.964,-0.482 4.5,-0.672 l 0.032,-0.034 c 0.221,-0.082 1.729,-0.972 2.786,-1.792 0.353,-0.264 0.703,-0.55 0.91,-0.75 0.055,-0.031 0.086,-0.031 0.086,-0.074 0,0 0.612,-0.571 1.151,-1.394 0.06,-0.115 0.168,-0.266 0.238,-0.375 0,-0.075 0.067,-0.182 0.118,-0.238 0,-0.041 0.02,-0.086 0.048,-0.128 0.028,-0.078 0.052,-0.151 0.088,-0.207 l 0,-0.023 c 0.022,-0.08 0.069,-0.145 0.069,-0.2 0.08,-0.182 0.141,-0.44 0.189,-0.812 0,-0.152 0.058,-0.252 0.092,-0.357 0.056,-0.435 0.084,-0.925 0.108,-1.567 l 0,-0.092 0,-0.08 c 0,-0.144 -0.024,-0.374 -0.033,-0.622 C 4.9,-59.117 4.847,-59.188 4.81,-59.27 4.752,-59.546 4.618,-59.82 4.378,-60.013 4.352,-60.068 4.294,-60.166 4.209,-60.179 4.188,-60.207 4.17,-60.207 4.154,-60.275 l -0.092,-0.017 c -0.042,-0.028 -0.06,-0.033 -0.134,-0.069 0,0 -0.118,-0.047 -0.21,-0.063 -0.078,-0.055 -0.812,-0.347 -2.413,-0.062 0,0 -0.081,-0.221 0.047,-0.541 0.035,-0.012 0.058,-0.067 0.058,-0.067 0.026,-0.079 0.05,-0.155 0.05,-0.155 0.049,-0.063 0.049,-0.079 0.082,-0.149 0.014,-0.067 0.105,-0.131 0.149,-0.217 0.011,-0.057 0.089,-0.086 0.089,-0.086 0.048,-0.084 0.059,-0.127 0.075,-0.152 0.092,-0.051 0.124,-0.129 0.187,-0.18 0,0 0.016,-0.031 0.06,-0.048 0.033,-0.064 0.132,-0.138 0.204,-0.237 0,0 0.056,-0.057 0.127,-0.11 0.387,-0.317 1.665,-1.551 1.945,-2.163 0,0 0.043,-0.055 0.08,-0.13 0.185,-0.273 0.527,-0.82 0.654,-1.054 0.025,-0.053 0.044,-0.06 0.044,-0.06 0,0 0.247,-0.498 0.482,-1.109 0.082,-0.241 0.154,-0.509 0.232,-0.782 l 0,-0.012 0,-0.074 c 0.025,-0.094 0.057,-0.159 0.057,-0.203 0,0 0,-0.055 0.023,-0.137 0,0 0.01,-0.035 0.01,-0.09 0.033,-0.052 0.033,-0.083 0.058,-0.163 0,-0.065 0,-0.197 0.022,-0.248 0.019,-0.177 0.05,-0.37 0.075,-0.552 0.091,-0.582 0.155,-1.252 0.155,-1.971 l 0,-0.15 c -0.017,-0.121 -0.048,-0.402 -0.088,-0.726 -0.044,-0.111 -0.044,-0.206 -0.067,-0.312 l 0,-0.024 C 6.09,-72.521 6.059,-72.656 6.018,-72.76 5.927,-73.189 5.748,-73.606 5.494,-73.942 l -0.062,-0.075 c -0.029,-0.04 -0.076,-0.119 -0.126,-0.163 -0.062,-0.086 -0.15,-0.178 -0.218,-0.24 0,0 -0.2,-0.284 -0.682,-0.498 -0.455,-0.236 -1.177,-0.444 -2.14,-0.342 0,0 -1.129,0.082 -2.71,0.86 -0.115,0.09 -0.246,0.147 -0.383,0.22 l 0,-0.24 c -0.024,-0.157 -0.024,-0.344 -0.024,-0.504 0,-0.23 0,-0.442 0.024,-0.752 0,-0.157 0.014,-0.32 0.014,-0.498 0.041,-0.383 0.086,-0.75 0.123,-1.108 0.015,-0.043 0.015,-0.075 0.015,-0.075 l 0,-0.062 c 0.182,-1.248 0.404,-2.347 0.61,-3.467 0.041,-0.173 0.065,-0.372 0.09,-0.569 0.024,-0.022 0.058,-0.087 0.058,-0.134 0.024,-0.22 0.052,-0.41 0.09,-0.638 0.014,-0.146 0.049,-0.284 0.073,-0.419 0.032,-0.229 0.055,-0.441 0.074,-0.687 0.035,-0.212 0.076,-0.364 0.076,-0.446 l 0,-0.098 c 0,-0.264 -0.076,-1.959 -0.703,-3.026 l 0,0.018 c -1.192,-1.401 -4.867,-1.452 -5.156,-1.452 l -0.018,0 0,-15.158 0.007,0 0.011,0 0,-1.338 c 0.338,-22.559 17.729,-32.712 17.729,-32.712 1.037,-0.734 2.031,-1.429 3.081,-2.099 6.742,-4.388 13.462,-7.785 19.418,-10.251 12.216,-5.168 21.285,-6.699 21.285,-6.699 1.696,-0.497 3.425,-0.92 5.213,-1.254 15.092,-2.826 33.191,-0.198 33.191,-0.198 5.332,1.083 9.604,2.223 12.774,3.143 1.698,0.496 3.057,0.906 4.154,1.257 1.272,0.424 2.1,0.758 2.509,0.917 0.212,0.064 0.279,0.102 0.279,0.102 0.038,0.044 0.07,0.044 0.07,0.044 3.627,1.062 6.883,2.143 9.822,3.253 11.069,4.178 17.801,8.544 20.166,10.207 0.646,0.428 0.951,0.703 0.951,0.703 9.454,7.205 12.8,11.976 13.684,13.342 0.141,0.295 0.21,0.389 0.21,0.389 2.943,4.538 4.53,9.916 5.249,14.279 0.27,1.658 0.468,3.188 0.58,4.449 l 0,-0.022 c 0,0 0,1.291 0.078,2.602 l 0,0.043 0,0.107 c 0,0.119 0,0.241 0.022,0.356 0.019,0.714 0.057,1.39 0.009,1.82 0,0.07 0,0.116 -0.009,0.134 l 0.009,7.767 0,5.178 c 0,0 -1.002,-0.926 -4.565,-0.587 l 0,-1.185 0,-0.477 0,-12.394 c 0,-16.606 -10.227,-24.488 -10.227,-24.488 l 0.144,0.163 L 6.41,4.899 l 0,-0.129 0,-0.198 0,-0.117 0,-0.026 0.31,-2.25 0,-1.638 -0.024,-0.553 0,-0.058 -0.024,-0.102 C 6.66,-0.288 6.66,-0.397 6.604,-0.52 6.514,-0.804 6.41,-1.206 6.222,-1.538 l 0,-0.031 c -0.04,-0.065 -0.132,-0.23 -0.295,-0.403 0,0 -0.032,-0.02 -0.057,-0.049 l 0,-0.015 C 5.7,-2.167 5.464,-2.304 5.168,-2.344 c 0,0 -0.108,0 -0.183,-0.024 l -0.033,0 -0.142,0 c 0,0 -0.058,0 -0.058,0.024 l -0.156,0 -0.033,0 C 4.494,-2.312 4.434,-2.312 4.434,-2.312 4.352,-2.304 4.24,-2.257 4.17,-2.236 4.062,-2.225 4.012,-2.178 3.928,-2.167 3.64,-2.036 3.28,-1.886 2.851,-1.634 l -0.031,0.04 -1.04,0.636 -0.556,0.346 c 0,0 -0.334,0.225 -0.662,0.408 -0.108,0.032 -0.166,0.062 -0.284,0.079 L 0,0 z m 165.373,-3.772 c -4.043,-0.191 -4.881,1.298 -4.881,1.298 -0.046,-1.298 -0.046,-3.503 -0.046,-5.534 l 0,-3.403 0,-1.096 0,-1.014 0,-35.51 0,-0.009 0,-0.6 c 0,0 1.539,0.473 4.296,0.609 l 0.279,0 0,0.024 0,35.028 0,0.322 c -9.357,3.208 0.352,9.885 0.352,9.885 M 13.325,9.549 l 0.214,0 1.784,0 120.947,0 5.569,0 2.789,0.017 c -0.072,0.69 0.024,2.198 1.47,4.55 l -7.945,0 -0.744,0 -0.839,0 -117.156,0 -4.091,0 -0.053,0 -0.063,0 -0.933,0 -2.058,0 c 0.59,-1.228 1.109,-2.861 1.109,-4.54 l 0,-0.027 z"
             style="fill:#cc0000;fill-opacity:1;fill-rule:nonzero;stroke:none"
             id="path22"
             inkscape:connector-curvature="0" /></g><g
           id="g24"
           transform="translate(156.1924,353.71)"><path
             d="m 0,0 c 4.291,-2.387 9.524,-4.985 14.083,-7.413 3.557,-1.937 8.589,-3.84 10.919,-4.982 5.601,-2.631 12.306,-4.763 17.494,-6.74 6.544,-2.5 11.817,-4.429 17.28,-7.354 -0.319,1.862 -0.812,3.804 -1.437,5.928 -1.293,4.362 -15.37,9.316 -27.416,13.684 -6.751,2.437 -12.861,5.015 -15.794,6.381 -4.603,2.186 -8.631,5.22 -13.413,7.565 -2.656,1.37 -5.655,3.975 -7.483,5.16 -2.656,1.741 -7.126,4.591 -10.386,7.353 -3.097,2.638 -5.47,5.859 -8.578,8.597 -0.878,-2.664 -1.542,-6.438 -0.816,-7.878 C -20.499,9.905 -9.759,5.412 0,0"
             style="fill:#cc0000;fill-opacity:1;fill-rule:nonzero;stroke:none"
             id="path26"
             inkscape:connector-curvature="0" /></g><g
           id="g28"
           transform="translate(135.002,355.0894)"><path
             d="m 0,0 c 5.106,-4.346 11.177,-7.705 17.44,-10.891 7.504,-3.84 15.339,-7.298 23.588,-10.338 4.681,-1.721 9.507,-4.323 14.202,-6.131 3.089,-1.14 5.867,-1.889 8.852,-3.181 5.37,-2.351 10.538,-4.93 16.072,-7.329 1.558,-0.694 3.073,-2.274 3.91,-2.588 1.513,-0.204 -0.703,7.475 -1.361,8.093 -1.535,1.197 -11.419,6.031 -14.935,7.196 -6.407,2.171 -15.276,5.644 -21.403,8.265 -2.731,1.178 -6.875,3.294 -9.847,4.754 C 31.061,-9.502 23.44,-6.034 17.44,-2.914 13.321,-0.75 10.118,1.535 6.238,4.018 -1.309,8.83 -4.522,14.397 -5.033,14.075 -5.619,12.496 -6.247,7.176 -5.255,5.589 -4.569,4.491 -1.668,1.342 0,0"
             style="fill:#cc0000;fill-opacity:1;fill-rule:nonzero;stroke:none"
             id="path30"
             inkscape:connector-curvature="0" /></g><g
           id="g32"
           transform="translate(177.0884,374.042)"><path
             d="M 0,0 C -0.88,0.08 -0.356,2.373 1.688,2.188 2.368,2.176 4.836,1.216 5.867,0.994 8.816,0.396 1.196,0.664 0,0 M 4.969,-7.199 C 4.481,-6.935 4.174,-5.924 5.365,-5.138 5.929,-5.582 5.563,-7.413 4.969,-7.199 M 1.6,-6.495 c -1.139,0.038 -2.027,0.328 -2.152,0.867 -0.222,0.592 -0.68,1.113 0.228,1.424 0.574,0.214 2.065,0.543 2.994,0.292 1.688,-0.357 0.042,-2.605 -1.07,-2.583 m -1.86,32.468 c 9.161,-4.089 -0.444,-5.766 -6.399,-5.836 2.499,-1.433 6.151,-2.737 7.12,-5.421 0.735,4.674 7.552,6.892 16.177,2.176 2.34,-1.24 7.062,-5.366 0.298,-6.115 C 18.094,9.081 19.848,9.211 19.595,6.119 19.01,-0.403 4.63,3.396 0.699,5.639 -0.552,6.375 -1.5,7.879 -2.702,8.803 -2.991,7.611 -2.652,6.487 -2.958,4.65 -3.296,2.455 -4.654,0.664 -5.162,-1.717 c -1.35,-6.769 7.443,-8.406 12.977,-8.565 0.609,-0.531 0.663,-1.533 0.645,-2.462 -0.036,-1.402 0.381,-2.152 2.273,-1.957 1.283,1.065 0.493,4.743 -0.218,6.598 -0.73,1.899 -3.296,-1.022 -3.406,2.064 -0.098,3.779 2.898,-0.52 2.08,5.508 -0.25,1.448 0.648,1.525 1.935,0.785 0.102,-1.004 -0.059,-1.552 -0.609,-2.684 -0.45,-0.972 -0.869,-1.774 -0.73,-2.708 8.945,-4.397 21.406,-8.33 27.287,3.421 C 38.11,0.396 37.835,2.65 36.744,4.422 35.667,6.173 33.836,7.363 31.383,7.611 28.901,7.875 27.038,8.148 24.727,6.375 31.58,4.877 30.54,-0.923 23.755,-1.717 22.029,-1.914 18.918,-2.32 17.624,-0.986 17.685,-0.76 17.874,0 17.874,0 c 5.091,2.101 3.867,3.396 4.673,8.59 0.272,2.037 2.092,3.557 1.456,6.359 -0.721,3.446 -11.276,7.571 -16.188,8.324 -1.542,0.284 -1.948,2.548 -3.185,3.446 -3.872,2.883 -11.545,3.355 -16.633,3.43 -5.987,0.13 -5.987,-0.844 -4.925,-2.422 1.504,-2.218 10.376,1.092 16.668,-1.754"
             style="fill:#cc0000;fill-opacity:1;fill-rule:nonzero;stroke:none"
             id="path34"
             inkscape:connector-curvature="0" /></g><g
           id="g36"
           transform="translate(135.1499,328.7246)"><path
             d="m 0,0 c -3.688,1.975 -9.68,6.129 -11.554,7.571 -1.382,1.081 -4.676,3.715 -6.631,5.183 -2.91,2.282 -6.276,6.911 -5.72,4.4 1.014,-3.517 2.718,-7.137 5.12,-10.661 2.387,-3.449 6.584,-7.092 10.29,-9.579 2.29,-1.514 5.775,-3.131 7.713,-5.018 1.66,-1.641 3.476,-6.623 3.934,-9.086 4.236,-20.21 -6.085,-35.958 -13.475,-47.529 -1.839,-2.917 -4.527,-5.761 -5.779,-9.32 -2.606,-7.494 1.114,-17.817 10.423,-14.185 8.41,5.109 3.556,12.729 7.853,21.048 2.618,5.121 6.849,3.007 7.951,5.639 0.797,1.772 1.906,4.701 3.07,7.14 2.462,5.171 6.521,12.453 7.815,16.05 0.839,1.793 1.828,11.226 1.279,13.343 -0.161,0.618 -3.429,2.216 -4.437,2.958 3.822,-12.149 -1.088,-21.377 -7.96,-30.041 -1.629,-2.085 -3.246,-5.83 -3.718,-7.544 -3.48,-0.212 -7.239,-4.776 -8.022,-6.432 -2.387,-4.77 -1.165,-11.882 -3.555,-16.54 -0.996,-1.869 -5.026,-3.378 -6.647,-0.96 -1.328,2.001 -1.24,6.962 -0.223,9.305 1.746,4.128 5.436,7.325 7.564,11.012 4.642,7.942 9.244,17.297 11.297,27.416 C 8,-28.984 7.44,-21.484 5.846,-14.367 5.112,-11.197 3.524,-8.064 2.297,-5.266 1.628,-3.757 0.738,-1.291 0,0"
             style="fill:#cc0000;fill-opacity:1;fill-rule:nonzero;stroke:none"
             id="path38"
             inkscape:connector-curvature="0" /></g><g
           id="g40"
           transform="translate(147.1411,383.3691)"><path
             d="M 0,0 C 2.45,-2.466 3.212,-2.218 1.935,0.959 1.504,2.077 2.014,3.53 1.702,4.168 1.315,4.946 0,5.349 -0.747,5.903 c -2.624,1.813 -4.408,5.652 -3.437,10.016 0.538,2.333 0.715,3.558 2.439,2.929 C -0.548,18.45 1.74,15.734 2.45,14.681 5.044,10.81 4.13,8.291 4.33,4.695 4.45,1.94 5.044,-1.085 7.594,-4.677 c 0.407,-0.595 1.797,-1.957 1.71,-1.202 -0.077,0.713 0.473,4.964 0.993,5.632 0.642,0.887 2.582,4.55 2.958,7.337 0.394,3.843 -0.904,7.354 -2.732,10.224 C 7.847,21.557 6.181,22.307 0.841,22.085 -0.272,22.003 -2.588,21.957 -3.178,21.494 -6.055,18.77 -7.949,14.649 -7.102,9.811 -6.331,5.192 -2.775,2.698 0,0"
             style="fill:#cc0000;fill-opacity:1;fill-rule:nonzero;stroke:none"
             id="path42"
             inkscape:connector-curvature="0" /></g><g
           id="g44"
           transform="translate(140.9961,376.1426)"><path
             d="m 0,0 c 6.875,-6.149 14.976,-11.155 23.272,-16.19 3.841,-2.303 11.076,-6.048 12.012,-6.243 0.644,-0.279 2.549,-0.998 3.943,-1.664 1.468,-0.846 21.614,-8.563 23.817,-9.241 2.802,-0.869 6.64,-3.386 6.81,-3.054 -1.269,4.18 -3.592,6.484 -6.36,9.065 -2.891,2.638 -7.314,4.828 -11.572,6.016 -3.709,0.995 -8.019,3.052 -12.221,4.509 C 28.325,-12.777 18.532,-6.013 9.576,0.709 7.885,1.958 5.873,4.154 4.279,5.51 c -2.377,2.002 -5.006,4.011 -6.474,6.857 -0.957,1.788 -0.92,5.139 -1.477,7.373 -1.63,-1.976 -3.41,-5.616 -3.931,-8.111 C -7.911,10.037 -7.911,9.134 -6.441,7.11 -4.146,3.95 -0.399,0.317 0,0"
             style="fill:#cc0000;fill-opacity:1;fill-rule:nonzero;stroke:none"
             id="path46"
             inkscape:connector-curvature="0" /></g><g
           id="g48"
           transform="translate(178.6362,303.4658)"><path
             d="m 0,0 c 3.687,-0.105 10.573,-0.408 17.502,-1.247 2.337,0.141 -5.669,3.246 -9.178,4.46 -4.205,1.386 -8.462,2.956 -12.618,4.402 -7.33,2.531 -12.813,4.63 -20.21,7.203 -4.653,1.646 -7.196,3.582 -9.323,4.923 -0.589,0.356 -4.679,3.73 -4.165,1.946 0.607,-1.586 1.228,-2.21 2.554,-4.789 C -30.547,5.511 -13.173,0.4 0,0"
             style="fill:#cc0000;fill-opacity:1;fill-rule:nonzero;stroke:none"
             id="path50"
             inkscape:connector-curvature="0" /></g><g
           id="g52"
           transform="translate(133.1406,333.3521)"><path
             d="m 0,0 c -0.213,1.819 -2.313,5.356 -2.924,6.623 -1.122,2.332 -1.357,3.343 -1.94,4.91 -1.448,0.781 -4.299,3.312 -6.167,4.658 -5.44,3.887 -9.313,10.171 -12.269,13.454 -0.572,-0.133 -1.125,-5.113 -0.746,-6.603 C -21.664,15.113 -14.731,9.469 0,0"
             style="fill:#cc0000;fill-opacity:1;fill-rule:nonzero;stroke:none"
             id="path54"
             inkscape:connector-curvature="0" /></g><g
           id="g56"
           transform="translate(509.3291,358.7266)"><path
             d="M 0,0 C -0.271,-2.625 -1.307,-6.741 -1.424,-8.685 -0.567,-9.911 12.242,4.034 13.234,8.82 13.639,10.701 11.403,14.274 10.289,15.811 9.066,13.603 7.986,11.203 6.383,9.197 0.421,1.746 0.276,2.527 0,0"
             style="fill:#cc0000;fill-opacity:1;fill-rule:nonzero;stroke:none"
             id="path58"
             inkscape:connector-curvature="0" /></g><g
           id="g60"
           transform="translate(509.8467,372.4634)"><path
             d="M 0,0 C 0.219,-1.736 0.331,-3.852 0.476,-5.77 0.963,-6.66 5.865,1.659 6.264,2.431 8.111,6.168 5.682,8.352 2.92,9.928 1.699,8.542 0.779,6.616 0.423,5.945 -0.543,4.512 -0.48,3.637 0,0"
             style="fill:#cc0000;fill-opacity:1;fill-rule:nonzero;stroke:none"
             id="path62"
             inkscape:connector-curvature="0" /></g><g
           id="g64"
           transform="translate(503.9629,355.6538)"><path
             d="m 0,0 c -12.223,-11.547 -39.065,-22.284 -47.91,-25.469 -10.055,-3.663 -19.906,-8.246 -29.547,-12.509 -2.068,-0.89 -13.047,-6.259 -13.494,-7.553 -0.301,-0.906 -0.201,-6.402 -0.201,-6.402 9.966,5.198 20.518,9.914 30.375,14.489 7.231,3.272 15.699,5.353 23.499,8.059 10.606,3.676 20.412,8.425 29.143,13.979 3.456,2.195 5.845,4.76 7.029,7.723 C -0.081,-5.153 0.146,-2.148 0,0"
             style="fill:#cc0000;fill-opacity:1;fill-rule:nonzero;stroke:none"
             id="path66"
             inkscape:connector-curvature="0" /></g><g
           id="g68"
           transform="translate(488.0605,315.5996)"><path
             d="M 0,0 C 2.483,2.802 4.332,5.882 5.368,10.153 -7.118,1.359 -22.583,-2.436 -37.553,-7.732 c -4.95,-1.747 -16.638,-6.252 -13.228,-5.648 10.199,1.697 19.68,0.11 27.854,2.119 C -12.701,-8.797 -5.732,-6.382 0,0"
             style="fill:#cc0000;fill-opacity:1;fill-rule:nonzero;stroke:none"
             id="path70"
             inkscape:connector-curvature="0" /></g><g
           id="g72"
           transform="translate(509.3291,380.417)"><path
             d="M 0,0 C 0.849,1.773 2.589,4.67 -2.456,5.772 -3.987,6.1 -4.067,5.096 -2.166,2.804 -1.286,1.816 -1.183,-1.057 0,0"
             style="fill:#cc0000;fill-opacity:1;fill-rule:nonzero;stroke:none"
             id="path74"
             inkscape:connector-curvature="0" /></g><g
           id="g76"
           transform="translate(125.4561,380.5288)"><path
             d="M 0,0 C 0.626,0 0.856,1.547 1.048,1.993 1.638,3.165 2.441,4.469 2.668,5.135 2.82,5.583 2.561,5.553 2.333,5.789 2.265,5.797 -1.126,5.264 -1.501,3.722 -1.733,2.724 -1.166,-0.044 0,0"
             style="fill:#cc0000;fill-opacity:1;fill-rule:nonzero;stroke:none"
             id="path78"
             inkscape:connector-curvature="0" /></g><g
           id="g80"
           transform="translate(164.1143,327.4741)"><path
             d="m 0,0 c 10.057,-3.716 19.946,-6.36 23.229,-7.832 2.997,-1.358 7.283,-3.205 10.272,-4.535 8.4,-3.766 17.154,-7.91 23.423,-11.539 0.827,-0.248 0.229,6.593 -1.972,7.848 -3.279,1.875 -11.536,6.26 -18.29,9.204 C 30.01,-3.908 22.846,-1.018 16.108,1.993 13.006,3.351 10.37,4.222 7.208,5.4 5.056,6.213 2.459,7.321 -0.234,8.51 c -17.808,6.378 -27.538,14.833 -30.187,16.599 -0.568,0.46 -2.756,2.579 -3.477,2.817 -0.403,-0.056 -0.08,-2.736 0,-3.16 0.769,-4.245 1.897,-6.362 4.151,-8.827 2.603,-2.811 7.371,-5.305 11.555,-7.572 C -11.285,4.535 -6.181,2.258 0,0"
             style="fill:#cc0000;fill-opacity:1;fill-rule:nonzero;stroke:none"
             id="path82"
             inkscape:connector-curvature="0" /></g><g
           id="g84"
           transform="translate(123.7227,367.0688)"><path
             d="m 0,0 c 0.568,1.369 0.595,3.733 0.869,6.777 0.213,3.48 -0.614,4.961 -1.715,6.529 -0.803,1.104 -0.962,2.257 -1.719,2.016 C -3.757,14.45 -6.08,12.822 -6.243,11.134 -6.435,9.528 -5.183,7.053 -4.205,5.333 -3.197,3.623 -0.391,-0.232 0,0"
             style="fill:#cc0000;fill-opacity:1;fill-rule:nonzero;stroke:none"
             id="path86"
             inkscape:connector-curvature="0" /></g><g
           id="g88"
           transform="translate(485.5742,273.7119)"><path
             d="m 0,0 c 2.093,-4.4 3.282,-7.628 3.425,-7.744 0.805,-0.536 2.02,-0.402 2.966,-0.732 2.075,-0.855 4.236,-2.883 5.127,-4.884 3.101,-6.962 0.233,-19.453 9.058,-20.854 3.345,-0.498 5.832,0.867 7.342,2.21 1.795,1.607 2.716,5.401 2.22,9.198 -2.13,7.743 -6.217,11.202 -9.131,16.186 -7.2,10.15 -17.981,35.474 -7.511,52.551 1.782,2.969 6.635,4.382 9.547,6.37 3.049,2.064 6.197,5.308 8.578,8.087 1.287,1.481 6.974,10.733 5.141,12.273 -4.981,-4.753 -10.518,-9.225 -16.186,-13.223 -2.114,-1.52 -5.744,-2.672 -7.346,-4.686 -1.759,-2.195 -2.223,-5.32 -3.415,-8.1 -9.061,-20.138 0.179,-45.106 10.52,-58.815 1.802,-2.362 10.03,-13.56 3.937,-17.41 -1.925,-1.183 -4.888,0.281 -5.649,1.725 -2.133,4.098 -1.136,11.783 -3.16,16.434 -0.879,1.872 -3.309,4.794 -5.209,5.636 -0.735,0.34 -1.539,0.194 -2.283,0.662 -0.838,0.558 -1.857,3.34 -2.753,4.675 -3.001,4.709 -7.656,10.045 -9.925,16.955 -1.225,3.83 -1.752,8.055 -0.701,12.74 0.221,0.992 0.844,2.207 1.278,3.164 0.858,1.11 -5.238,-1.858 -5.182,-3.564 0.081,-3.176 0.524,-6.931 0.892,-10.151 C -8.007,14.356 -3.3,6.886 0,0"
             style="fill:#cc0000;fill-opacity:1;fill-rule:nonzero;stroke:none"
             id="path90"
             inkscape:connector-curvature="0" /></g><g
           id="g92"
           transform="translate(113.6025,363.1167)"><path
             d="m 0,0 c 3.211,-4.683 9.274,-10.743 12.456,-12.833 0,-0.066 -0.53,2.93 -1.082,6.232 -0.196,1.335 -0.11,2.766 -1.124,4.783 C 8.507,0.766 2.999,5.661 1.428,11.18 0.07,12.276 -2.222,6.127 -2.125,4.311 -1.902,3.257 -0.897,1.39 0,0"
             style="fill:#cc0000;fill-opacity:1;fill-rule:nonzero;stroke:none"
             id="path94"
             inkscape:connector-curvature="0" /></g><g
           id="g96"
           transform="translate(474.5752,387.7715)"><path
             d="m 0,0 c 0.784,-2.258 3.203,-4.95 2.912,-7.611 -0.333,-2.904 0.436,-3.931 2.451,-0.95 5.25,7.807 0.394,12.043 4.77,18.484 1.465,2.186 4.187,5.949 5.728,3.785 1.529,-5.041 0.831,-8.41 -0.584,-10.226 -1.792,-2.34 -4.664,-2.778 -4.761,-7.003 -0.076,-1.967 -0.383,-3.076 0.709,-2.598 2.028,2.041 5.623,5.136 7.341,8.21 2.171,3.786 0.459,12.719 -2.304,14.458 -1.425,0.875 -5.082,1.49 -7.949,1.134 C 5.591,17.288 4.299,15.608 2.651,13.508 0.26,10.333 -2.056,5.478 0,0"
             style="fill:#cc0000;fill-opacity:1;fill-rule:nonzero;stroke:none"
             id="path98"
             inkscape:connector-curvature="0" /></g><g
           id="g100"
           transform="translate(482.7764,376.1426)"><path
             d="m 0,0 c -10.313,-7.765 -20.415,-13.172 -29.769,-17.036 -7.88,-3.242 -15.728,-4.461 -22.051,-9.065 -3.328,-2.406 -9.256,-10.747 -7.885,-10.545 11.426,5.373 24.433,9.646 36.049,14.803 13.579,6.107 24.863,14.225 35.54,23.191 1.944,1.665 5.794,5.73 6.112,7.819 0.521,3.544 -2.199,8.486 -3.681,10.573 C 13.113,19.192 14.068,13.761 12.104,11.395 10.224,9.126 2.314,1.749 0,0"
             style="fill:#cc0000;fill-opacity:1;fill-rule:nonzero;stroke:none"
             id="path102"
             inkscape:connector-curvature="0" /></g><g
           id="g104"
           transform="translate(274.5469,368.2954)"><path
             d="M 0,0 12.104,4.888 0,9.707 -12.079,4.888 0,0 z"
             style="fill:#cc0000;fill-opacity:1;fill-rule:nonzero;stroke:none"
             id="path106"
             inkscape:connector-curvature="0" /></g><g
           id="g108"
           transform="translate(504.1973,341.479)"><path
             d="M 0,0 C -1.263,-2.827 -2.168,-5.379 -3.425,-8.127 -3.492,-9.6 17.546,4.399 20.082,12.821 20.767,15.037 20.49,19.384 19.851,21.518 17.683,18.673 15.134,15.146 12.745,12.464 7.168,6.362 2.401,5.354 0,0"
             style="fill:#cc0000;fill-opacity:1;fill-rule:nonzero;stroke:none"
             id="path110"
             inkscape:connector-curvature="0" /></g><g
           id="g112"
           transform="translate(492.9404,359.1069)"><path
             d="m 0,0 c -18.539,-11.628 -39.686,-21.201 -61.78,-29.187 -2.872,-1.037 -14.672,-6.63 -15.058,-7.491 -0.983,-2.211 -1.808,-5.286 -1.73,-7.797 4.595,2.667 13.255,6.956 19.977,9.676 20.819,8.407 42.993,15.091 60.01,27.185 3.478,2.45 7.441,4.676 9.838,8.087 1.654,2.417 0.896,7.263 0,9.792 C 7.665,6.899 4.213,2.68 0,0"
             style="fill:#cc0000;fill-opacity:1;fill-rule:nonzero;stroke:none"
             id="path114"
             inkscape:connector-curvature="0" /></g><g
           id="g116"
           transform="translate(489.2324,369.5273)"><path
             d="m 0,0 c -3.121,-2.218 -17.693,-11.795 -25.012,-15.52 -9.305,-4.69 -19.674,-8.341 -28.762,-11.447 -4.914,-1.658 -15.026,-6.813 -15.394,-8.325 -0.637,-2.144 -1.852,-4.949 -2.141,-7.014 11.685,5.442 14.639,6.268 27.103,10.684 4.572,1.639 13.851,5.775 15.443,6.509 8.281,3.742 16.105,8.472 22.418,11.755 9.76,4.789 18.418,12.942 20.434,17.633 1.192,2.858 0.248,5.775 -0.603,8.302 C 13.205,12.07 6.856,4.801 0,0"
             style="fill:#cc0000;fill-opacity:1;fill-rule:nonzero;stroke:none"
             id="path118"
             inkscape:connector-curvature="0" /></g><g
           id="g120"
           transform="translate(328.4717,372.5039)"><path
             d="m 0,0 c -1.467,-1.42 -5.935,-2.384 -11.021,-2.123 -6.195,0.205 -11.596,0.703 -11.753,2.675 -0.057,0.639 0.808,1.272 2.162,1.784 2.374,0.87 6.264,1.5 9.841,1.39 C -5.769,3.596 0.271,3.122 0.523,1.081 0.523,0.71 0.336,0.348 0,0 m -12.474,6.707 c -4.849,-0.346 -9.661,-1.186 -12.768,-3.166 -1.957,-1.245 -1.957,-3.549 -1.957,-3.463 0.307,-1.39 2.955,-2.744 4.188,-3.21 7.001,-2.486 18.166,-2.02 24.243,1.009 1.645,0.84 4.213,2.305 2.449,4.877 -1.82,2.74 -10.998,4.319 -16.155,3.953"
             style="fill:#cc0000;fill-opacity:1;fill-rule:nonzero;stroke:none"
             id="path122"
             inkscape:connector-curvature="0" /></g><g
           id="g124"
           transform="translate(452.0107,375.0361)"><path
             d="M 0,0 C 1.013,0.222 3.511,1.182 4.156,1.194 6.201,1.379 6.709,-0.914 5.851,-0.994 4.618,-0.331 -2.928,-0.598 0,0 M 6.405,-6.623 C 6.262,-7.161 5.37,-7.451 4.269,-7.489 3.157,-7.511 1.496,-5.263 3.19,-4.906 4.099,-4.655 5.604,-4.984 6.162,-5.198 7.063,-5.509 6.674,-6.03 6.405,-6.623 M 0.854,-8.193 C 0.276,-8.407 -0.1,-6.576 0.517,-6.132 1.652,-6.918 1.384,-7.929 0.854,-8.193 m -4.825,2.061 c 0.148,0.934 -0.24,1.736 -0.693,2.708 -0.572,1.132 -0.72,1.68 -0.6,2.684 C -4,0 -3.1,-0.077 -3.318,-1.525 c -0.844,-6.028 2.183,-1.729 2.015,-5.508 -0.046,-3.086 -2.668,-0.165 -3.361,-2.064 -0.72,-1.856 -1.499,-5.533 -0.251,-6.598 1.951,-0.195 2.368,0.555 2.331,1.957 -0.052,0.928 0.037,1.93 0.588,2.462 5.553,0.159 14.335,1.796 12.971,8.565 -0.453,2.38 -1.82,4.172 -2.158,6.367 C 8.521,5.493 8.827,6.617 8.566,7.809 7.346,6.885 6.438,5.381 5.109,4.645 c -3.884,-2.243 -18.253,-6.042 -18.85,0.48 -0.271,3.092 1.456,2.961 2.666,4.658 -6.789,0.749 -2.029,4.875 0.28,6.114 8.624,4.717 15.413,2.499 16.165,-2.175 1.019,2.684 4.62,3.987 7.109,5.421 -5.926,0.069 -15.496,1.747 -6.394,5.836 6.309,2.846 15.184,-0.464 16.722,1.753 1.025,1.579 1.025,2.553 -4.957,2.423 C 12.75,29.08 5.109,28.607 1.225,25.725 0,24.827 -0.411,22.563 -1.996,22.279 -6.884,21.526 -17.414,17.4 -18.142,13.955 c -0.643,-2.802 1.185,-4.322 1.464,-6.359 0.76,-5.194 -0.466,-6.49 4.657,-8.59 0,0 0.181,-0.76 0.259,-0.986 -1.3,-1.334 -4.411,-0.928 -6.139,-0.731 -6.805,0.794 -7.864,6.594 -1.012,8.092 -2.289,1.773 -4.176,1.659 -6.592,1.236 -2.43,-0.388 -4.321,-1.438 -5.374,-3.189 -1.112,-1.772 -1.415,-4.168 -0.383,-6.272 6.02,-11.234 18.402,-7.685 27.291,-3.288"
             style="fill:#cc0000;fill-opacity:1;fill-rule:nonzero;stroke:none"
             id="path126"
             inkscape:connector-curvature="0" /></g><g
           id="g128"
           transform="translate(359.0635,368.2954)"><path
             d="M 0,0 12.07,4.888 0,9.707 -12.128,4.888 0,0 z"
             style="fill:#cc0000;fill-opacity:1;fill-rule:nonzero;stroke:none"
             id="path130"
             inkscape:connector-curvature="0" /></g><g
           id="g132"
           transform="translate(232.895,406.3862)"><path
             d="M 0,0 C 1.538,0 3.971,0.261 5.368,0 9.374,-2.822 6.527,-10.626 9.445,-15.322 3.039,-11.802 -3.116,-4.449 0,0 m 31.728,0.644 c 1.187,0 14.935,0.344 18.197,0.344 -0.555,-4.163 -0.555,-15.202 7.411,-19.13 -10.333,-0.856 -9.86,1.541 -12.731,9.071 -1.352,-0.018 -3.468,0 -5.773,-0.241 -1.772,-7.212 -0.825,-9.698 -12.363,-9.303 4.548,4.855 8.748,7.089 5.259,19.259 m 44.973,-7.961 c 0.364,2.632 -0.164,5.485 -0.512,7.578 0.087,1.182 15.607,1.578 15.476,0.727 -1.725,-14.175 5.37,-17.315 7.856,-19.342 -7.878,-0.775 -11.462,0.822 -12.766,8.573 -2.695,0 -3.652,0.099 -5.629,-0.261 -0.734,-7.909 -4.104,-8.956 -11.995,-8.312 3.482,2.66 6.807,5.616 7.57,11.037 m 41.66,0.946 c 0.188,3.49 -0.93,4.848 0.497,7.359 5.779,0 17.653,0.694 17.148,-1.209 -2.67,-10.065 0.994,-15.08 5.398,-18.394 -10.019,-0.234 -10.986,3.415 -11.48,9.078 -1.859,1.018 -3.66,0.802 -6.394,0.466 -2.488,-6.23 -1.134,-9.643 -11.982,-9.196 -3.59,-0.535 6.325,2.921 6.813,11.896 m 42.459,3.276 c 0.913,1.312 2.278,2.171 4.583,2.163 4.756,-0.129 2.479,-5.932 2.654,-5.376 -0.274,-0.79 -0.763,-1.578 -1.22,-2.312 -2.006,-2.558 -4.905,-4.856 -7.544,-6.068 0.689,3.404 0.195,8.38 1.527,11.593 m -3.492,-40.502 c -0.64,-0.477 -2.29,-1.003 -2.951,-1.232 l -0.961,0.462 c 0.397,1.604 0.951,3.43 2.49,3.708 2.378,0.404 2.767,-1.94 1.422,-2.938 m 8.607,-2.215 c 0.902,0.183 1.435,-0.149 2.182,-0.26 1.402,-3.52 -2.128,-5.152 -5.129,-6.371 l -0.997,0.255 c 0.285,2.596 1.771,5.946 3.944,6.376 m 8.787,-3.67 c 5.766,0.776 1.118,-5.545 -2.665,-5.928 -4.798,-0.397 0.736,5.648 2.665,5.928 m -3.919,-16.657 c -4.524,0.197 1.107,5.064 3.449,5.123 5.543,0.19 2.204,-5.406 -3.449,-5.123 m -160.242,25.48 c 2.82,1.194 4.498,-2.439 3.948,-4.17 -1.891,0 -5.766,1.863 -3.948,4.17 M 6.372,-52.676 c -2.156,0.885 -5.931,1.884 -6.846,3.911 -0.668,1.405 0.379,2.851 0.703,2.953 3.497,1.099 7.731,-5.584 6.143,-6.864 m -9.579,-13.463 c -1.542,-0.041 -4.16,0.587 -4.91,1.307 -1.353,1.314 -1.393,3.473 1.504,3.816 1.94,0.253 4.492,-1.578 5.353,-3.064 0.675,-1.159 0.21,-2.048 -1.947,-2.059 m -6.112,15.661 c 0.334,0.297 0.527,0.866 0.998,0.996 2.914,0.844 6.243,-2.664 6.631,-4.421 0.051,-0.301 0,-1.507 0,-1.507 -2.779,-0.723 -8.02,1.53 -7.629,4.932 m -12.266,9.08 c -1.466,-2.581 -0.508,-5.384 -0.22,-8.594 -2.242,-1.52 -3.998,-3.28 -5.625,-5.418 0.379,-0.337 1.204,-1.565 1.705,-1.659 1.11,-0.236 1.556,0.572 1.95,0.967 1.324,1.039 4.672,4.339 5.523,5.262 0.806,0.904 0.114,2.378 -0.228,3.465 -1.161,4.565 1.72,5.502 3.03,5.743 2.199,0.375 3.462,-0.284 4.91,1.445 0.667,0.826 0.131,2.124 0.253,2.965 0.414,4.118 5.084,4.347 7.844,2.448 1.637,-1.169 3.82,-1.391 5.609,0.323 2.036,1.965 5.509,1.397 7.145,-1.805 -3.241,-0.768 -4.953,-2.451 -4.943,-4.652 -2.318,0.896 -3.664,0.54 -5.139,0 -2.574,-0.965 -3.684,-2.805 -5.14,-4.904 -0.82,0.104 -1.818,0.423 -2.914,0.205 -2.596,-0.354 -5.107,-3.039 -4.921,-5.379 0.245,-2.625 2.38,-4.201 3.911,-5.611 3.14,-2.848 -1.811,-1.72 -2.695,-4.166 -0.786,-2.291 1.213,-5.109 -1.572,-4.883 -2.3,0.186 -3.501,3.92 -5.024,2.902 -0.285,-0.774 -0.9,-4.978 0.236,-4.552 1.607,0.794 2.906,-0.905 4.405,-1.074 2.287,-0.188 3.53,0.636 4.65,0.648 1.066,0.02 2.716,-1.039 4.039,-1.424 1.266,-0.373 3.896,0.1 4.4,0.165 8.177,3.742 1.934,8.045 1.934,8.045 0,0 -1.077,1.073 -2.556,2.052 0,0 6.44,-1.268 3.132,4.128 l 0.748,-0.271 2.04,-0.78 c 0,0 0.619,-0.25 0.726,-0.282 0.329,-0.193 0.785,-0.442 1.219,-0.754 l 1.04,-0.636 0.031,-0.04 c 0.429,-0.252 0.789,-0.402 1.077,-0.534 0.084,-0.01 0.134,-0.057 0.242,-0.068 0.07,-0.022 0.181,-0.068 0.251,-0.076 0,0 0.073,0 0.142,-0.032 l 0.033,0 0.156,0 c 0,-0.024 0.057,-0.024 0.057,-0.024 l 0.119,0 0.057,0 c 0.075,0.024 0.115,0.024 0.115,0.024 l 0.068,0 c 0.296,0.04 0.532,0.176 0.702,0.308 l 0,0.015 c 0.024,0.029 0.043,0.049 0.043,0.049 0.105,0.098 0.202,0.242 0.309,0.402 l 0,0.032 c 0.188,0.332 0.292,0.734 0.382,1.018 0.056,0.123 0.056,0.232 0.068,0.348 l 0.024,0.03 0,0.13 0.024,0.553 0,1.637 -0.31,2.25 0,0.026 0,0.069 0,0.049 0,0.197 c -0.082,1.026 -0.188,1.824 -0.45,2.825 3.649,-0.027 3.854,-3.555 5.385,-2.933 0.892,0.794 1.461,2.838 1.98,4.914 0,1.68 -0.519,3.313 -1.088,4.541 l -0.021,0 c 0,0 -2.369,3.435 -2.719,4.547 -0.417,1.228 -0.417,2.48 -1.274,3.58 -0.652,0.778 -2.881,2.404 -2.979,3.486 -0.212,2.162 -0.234,6.685 1.084,6.789 25.921,0.24 118.556,0.674 141.069,0.636 3.165,-0.046 5.182,-1.236 5.11,-1.508 0.072,-1.332 0.796,-4.493 0.274,-6.103 -0.33,-1.008 -2.375,-2.033 -2.929,-2.989 -0.822,-1.222 -1.213,-4.494 -1.961,-5.872 0,0 -0.027,-0.036 -0.042,-0.051 -0.624,-1.126 -1.751,-2.479 -1.751,-2.479 l -7.708,0 c -0.329,0 -0.654,-0.036 -0.981,-0.036 l 0.744,0 7.945,0 c -1.446,-2.352 -1.542,-3.86 -1.47,-4.55 l 0.024,0 c 0,0 0.244,-1.66 0.752,-3.415 0.258,-0.652 0.618,-1.149 1.196,-1.308 1.46,-0.226 3.697,3.052 7.412,2.751 -0.172,-2.367 -0.709,-9.666 1.453,-9.279 1.61,0.327 3.398,2.822 4.981,2.16 -1.056,-1.346 -0.607,-2.349 0,-2.925 l 0,-5.558 0,5.534 c 0,0 0.884,-1.49 4.927,-1.298 0,0 -9.709,-6.677 -0.352,-9.885 2.362,0.388 4.574,1.414 6.368,1.658 2.503,0.382 3.496,-0.674 5.631,-0.212 1.708,0.362 4.618,0.362 4.911,2.17 0.242,1.456 -0.925,2.872 -1.222,3.689 -2.407,-1.439 -3.91,-4.494 -5.86,-3.18 0.967,2.602 -0.175,6.518 -2.956,6.872 -3.027,0.356 4.005,3.601 3.904,8.328 -0.035,2.488 -2.768,5.334 -7.589,4.405 -1.126,1.604 -2.628,4.011 -4.422,4.904 -1.559,0.784 -4.074,0.325 -5.615,0 -1.387,2.36 -2.453,3.299 -5.18,4.413 -0.336,-0.821 0.972,5.099 6.139,2.69 1.037,-0.471 1.678,-1.736 2.936,-1.957 3.794,-0.709 5.685,3.718 9.575,1.449 l 0.252,-0.24 c 0.438,-0.357 2.254,-3.14 1.47,-5.634 1.687,-2.81 3.979,-0.472 6.367,-1.692 l 0.232,-0.25 c 4.075,-3.208 0,-5.048 0.959,-8.603 0.534,-1.75 4.477,-3.712 5.669,-5.153 1.976,-2.312 4.601,-0.46 3.188,1.484 -1.004,1.445 -4.508,3.177 -4.888,4.919 -0.324,1.388 0.836,2.505 0.993,3.41 0.552,5.692 -3.781,7.689 -8.863,8.113 -1.204,3.898 -1.97,6.175 -5.631,7.617 -4.965,1.847 -5.449,-1.054 -8.101,-1.244 0,0 -5.738,2.018 -6.101,2.175 -0.744,0.415 -0.978,9.168 -1.469,10.31 4.914,2.148 11.474,7.061 12.49,12.73 0.574,3.128 0.252,8.325 0,11.275 -3.687,-0.491 -9.28,0.574 -12.998,-0.491 -7.464,-2.123 -0.68,-18.173 -10.983,-19.357 -4.492,-0.509 -6.708,2.206 -8.151,4.902 -3.632,7.015 1.735,12.766 2.251,15.205 -2.968,0.244 -23.824,0.743 -31.846,0.743 -0.118,-0.46 3.95,-7.726 1.059,-14.753 -1.532,-3.555 -7.695,-9.795 -14.153,-1.93 -2.155,2.69 -2.667,7.198 -1.908,11.298 0.414,2.063 1.515,2.677 1.967,5.385 C 91.552,5.796 76.48,5.948 69.375,5.665 69.932,3.438 71.096,2.124 71.562,0 73.008,-6.835 69.644,-14.14 63.971,-14.688 57.732,-15.28 53.654,-8.104 54.424,-1.706 54.705,0.943 55.75,2.949 56.106,5.665 45.905,5.301 35.01,5.407 25.246,5.163 26.04,0.066 30.695,-4.993 26.089,-11.746 22.807,-16.601 13.48,-17.153 12.638,-7.317 12.314,-3.303 12.027,1.39 8.439,4.532 4.085,4.664 -0.474,4.31 -4.667,4.31 c -2.7,-14.79 3.171,-16.862 11.275,-23.411 l 0,-10.055 c -1.754,-0.57 -5.398,-2.693 -7.082,-2.43 -0.688,0.088 -3.079,3.474 -8.206,0.902 -3.021,-1.492 -4.622,-4.857 -5.294,-7.525 -2.964,-0.06 -6.216,-0.86 -7.611,-3.189"
             style="fill:#cc0000;fill-opacity:1;fill-rule:nonzero;stroke:none"
             id="path134"
             inkscape:connector-curvature="0" /></g><g
           id="g136"
           transform="translate(497.0918,146.126)"><path
             d="m 0,0 c -10.537,1.743 -19.485,13.956 -24.261,18.867 -3.533,3.67 -10.194,5.935 -9.309,7.332 4.192,1.66 8.376,4.065 13.213,4.704 3.849,0.465 6.392,-1.268 8.545,-2.305 -0.869,-0.817 -1.125,-1.303 -1.708,-2.399 -0.852,-1.65 -1.36,-4.972 -0.948,-7.057 0.347,-1.65 1.088,-3.27 1.969,-4.417 3.552,-4.758 1.66,2.813 6.372,2.925 0.871,0.04 2.352,-0.28 2.707,-0.754 2.97,-3.928 -5.527,-10.229 4.376,-16.166 1.333,1.61 2.065,4.111 3.69,5.397 1.583,1.274 3.557,0.75 5.892,1.506 2.436,0.748 4.138,2.624 5.862,4.118 0.895,0.822 1.979,1.074 3.195,0.266 1.896,-1.249 1.749,-5.456 2.931,-7.325 3.469,0.979 7.215,2.607 7.85,6.323 0.632,3.753 -0.056,4.409 1.953,6.399 2.628,2.57 8.32,3.721 12.013,4.408 C 38.125,8.626 20.866,-3.423 0,0 m -20.593,0.534 c -2.684,4.973 -5.953,9.543 -10.77,12.489 -5.777,3.443 -15.312,2.449 -22.275,5.132 -0.139,0.037 -0.234,0.083 -0.387,0.135 -7.112,2.995 -9.108,11.657 -15.827,14.8 -4.733,2.234 -2.287,3.834 1.222,5.125 7.437,2.841 12.182,1.187 17.187,-0.411 0.057,-0.066 0.082,-0.066 0.122,-0.066 0.227,-0.068 0.472,-0.12 0.735,-0.223 l 0,0.011 c 2.021,-0.662 4.134,-1.257 6.502,-1.494 4.854,-0.508 10.767,0.185 14.426,1.483 1.456,0.501 3.471,2.532 4.913,2.673 1.468,0.205 0.264,-1.698 0.141,-2.042 -3.786,-7.334 -11.988,-10.733 -22.947,-9.981 l 0,-0.709 c 10.959,-3.369 32.335,-11.055 26.958,-26.922 m -45.543,9.277 c -1.193,-1.852 -3.46,-5.019 -6.123,-5.119 -0.625,0 -0.177,1.097 0.217,2.416 1.423,3.087 1.162,6.569 0,9.578 -3.397,8.946 -14.059,9.817 -23.576,12.191 -3.59,0.906 -7.047,2.686 -9.849,4.538 -3.131,2.358 -5.336,5.38 -9.747,7.164 0.392,0.413 1.983,0.922 2.563,0.849 1.63,-0.241 2.504,-1.528 3.818,-1.956 5.391,-1.854 14.392,3.012 17.666,4.899 1.728,0.973 3.162,2.973 5.647,3.147 2.963,0.263 5.299,-1.659 4.379,-4.639 -0.779,-2.518 -3.188,-3.139 -4.379,-5.364 2.744,-1.07 6.069,-1.561 8.812,-2.695 8.514,-3.605 17.231,-14.368 10.572,-25.009 m -48.084,38.741 c 1.622,0.302 2.939,-0.091 3.439,-1.034 0.252,-0.418 0.29,-0.685 0.483,-1.444 -2.525,-0.771 -4.462,-1.924 -6.358,-3.195 -0.75,2.084 -0.256,5.116 2.436,5.673 m -4.673,7.321 c -0.233,1.58 -0.219,3.541 1.261,4.666 0.8,0.64 2.659,1.452 3.906,1.452 1.268,0 3.235,-0.821 3.428,-1.95 0.151,-0.663 -0.397,-2.079 -0.483,-2.7 -3.122,-0.204 -5.534,-0.418 -8.112,-1.468 M -75.96,38.215 c -6.395,-0.868 -0.216,6.54 0.246,6.632 4.775,0.85 4.519,-5.973 -0.246,-6.632 m -33.594,14.764 c 0.277,2.538 5.803,2.538 3.673,8.55 -0.357,1.066 -0.838,1.456 -1.482,2.227 2.513,0.885 3.443,0.885 5.657,-0.513 1.92,-1.252 12.334,-10.707 14.695,-4.156 1.33,3.765 4.291,7.562 11.507,8.055 0.597,1.722 1.553,8.021 1.682,9.148 -2.577,0.527 -13.054,4.299 -13.532,17.341 -0.379,10.966 10.902,19.603 23.157,20.09 5.627,0.232 10.619,-1.66 14.201,-3.702 5.817,-3.313 4.869,-8.519 14.681,-7.581 4.392,0.422 1.049,-7.15 0.276,-8.323 -2.547,-3.766 -7.85,-5.321 -13.256,-6.621 -4.965,-1.159 -11.018,1.867 -12.226,-0.224 -4.602,-8.014 3.823,-21.901 4.167,-29.403 0.29,-6.869 -3.584,-12.615 -8.112,-14.722 -2.081,-1.023 -3.853,-0.502 -3.661,-0.502 -1.004,5.211 -4.609,6.272 -10.294,5.399 -0.156,0.552 -0.575,1.026 -0.747,2.203 0.048,1.323 1.044,2.835 1.493,4.168 -8.388,-0.34 -18.261,-12.154 -27.443,-9.566 -1.311,0.379 -0.763,1.46 -1.021,2.934 -0.344,2.305 -3.594,3.027 -3.415,5.198 m 62.477,64.187 c 6.264,-1.729 10.194,-1.041 12.038,-7.147 0.381,0 0.253,-1.087 0.253,-1.459 -0.181,-1.881 -2.065,-3.724 -4.689,-3.16 -2.585,0.598 -3.414,4.007 -2.921,7.101 -3.133,2.198 -6.481,4.291 -9.569,6.609 1.801,-0.571 3.377,-1.541 4.888,-1.944 M -9.32,20.334 c -2.198,-2.92 -2.276,-0.317 -2.411,-0.473 -0.254,2.73 1.736,5.68 5.076,6.128 1.063,0.138 2.288,-0.139 2.504,-0.738 1.58,-5.035 -4.172,-3.429 -5.169,-4.917 M -3.663,50.72 C -1.678,46.437 0.346,43.321 4.87,41.688 5.905,41.277 7.337,40.795 8.319,40.4 7.894,38.17 7.755,35.269 7.371,33.09 c -4.006,2.093 -9.85,5.258 -14.255,1.477 -0.796,-0.712 -1.58,-1.838 -2.147,-2.702 -2.097,0.551 -12.701,2.828 -13.055,3.949 -0.549,1.856 1.257,6.382 0.252,9.302 -2.504,-0.966 -3.56,-2.572 -5.833,-3.428 -6.289,-2.416 -14.657,-1.991 -21.401,0.051 -2.773,0.825 -5.344,1.985 -7.286,3.377 2.184,4.632 5.981,7.955 4.389,14.925 -1.613,7.055 -8.789,14.317 -6.342,22.552 4.137,0.949 9.311,0.077 13.743,1.22 3.713,0.993 5.716,3.591 8.3,4.666 l 0.502,0.284 c 0.85,0 -0.33,0 0.24,-0.284 0,0 0.659,-0.724 0,-0.724 -0.366,-2.31 -0.846,-4.757 -0.993,-7.092 -0.573,-7.106 0.261,-13.541 2.212,-18.853 l -0.096,-0.063 c 0.096,-0.197 0.233,-0.418 0.288,-0.622 0.096,-0.151 0.12,-0.342 0.155,-0.53 l 0.091,0.02 c 4.672,-11.5 15.125,-16.973 30.202,-9.895 M 2.729,14.212 C 8.303,14.824 0.161,5.665 0,5.37 c -1.702,2.883 -1.58,8.396 2.729,8.842 m 20.788,2.21 c 5.784,0.664 3.724,-5.459 2.219,-7.597 -0.183,-0.199 -0.62,-0.543 -0.808,-0.543 -0.22,-0.029 -0.167,0.371 -0.199,0.543 -0.021,1.51 0.116,2.815 -0.497,3.946 -0.532,1.088 -1.933,1.989 -2.684,3.175 0.584,0.084 1.505,0.455 1.969,0.476 m -161.293,-1.697 c -8.095,7.498 -13.583,14.216 -30.634,12.986 -3.045,-0.218 -5.055,-0.316 -8.049,-1.568 -2.11,-1.002 -3.501,-1.1 -5.542,-0.788 -1.265,0.245 -2.781,0.674 -4.857,1.226 -10.869,2.973 -22.211,-0.454 -26.149,-2.942 -2.258,-1.416 -7.093,-5.113 -8.163,-6.779 -0.349,-0.394 -0.641,-0.757 -1.58,-1.81 -0.412,0.819 -0.593,1.81 -0.188,6.034 0.912,6.004 6.455,11.527 10.229,14.44 7.183,5.607 16.593,7.506 28.372,8.562 0.819,0.064 2.774,0.068 3.599,0.159 3.119,0.204 5.871,0.384 8.456,-0.091 14.091,-1.907 27.725,-7.647 33.345,-19.621 1.242,-2.875 1.943,-6.295 1.161,-9.808 m -150.704,2.189 c -1.52,-5.499 -1.222,-7.028 0.188,-9.609 1.453,-2.564 1.833,-4.127 -1.688,-2.01 -10.304,6.068 -9.091,18.792 0.813,26.202 5.588,4.191 12.224,4.812 14.197,6.241 0.162,0.69 -3.144,2.491 -4.039,4.048 -1.282,2.249 -0.701,5.262 2.331,5.732 3.34,0.634 6.17,-2.135 7.932,-3.241 3.053,-1.951 13.77,-7.815 18.159,-3.938 2.664,2.304 6.188,0.653 5.074,-0.439 -7.467,-2.462 -9.31,-7.484 -14.991,-9.754 -9.324,-3.254 -25.333,-4.069 -27.976,-13.232 m -16.149,2.456 c -2.483,-1.296 -5.095,-2.028 -8.107,-2.526 -1.5,-0.239 -3.093,-0.481 -4.86,-0.634 -10.175,-1.105 -16.585,-4.999 -21.946,-16.21 -0.508,-1.002 -4.548,7.251 3.593,16.245 4.696,5.276 16.241,8.366 21.855,11.498 0.149,0.038 0.273,0.116 0.403,0.186 l -0.403,0 c -10.835,-0.419 -20.307,3.404 -22.407,13.004 4.214,-3.129 9.272,-4.195 16.186,-4.901 1.859,-0.191 3.611,0.021 5.388,0.413 0.084,0 0.138,0.017 0.236,0.062 l 0.214,0 0,0.041 c 3.012,0.684 6.031,1.847 9.352,2.545 6.77,1.39 13.499,0.794 16.207,-2.586 2.079,-2.606 -1.354,-2.987 -2.942,-4.148 -4.981,-3.562 -7.196,-10.085 -12.769,-12.989 M -354.742,2.34 c -7.348,-4.368 -21.726,-2.438 -27.259,-0.336 -14.31,5.442 -22.314,16.122 -22.836,20.27 0.032,0.911 4.953,-1.79 7.101,-1.94 4.829,-0.317 5.66,-2.883 6.24,-3.438 0.701,-1.378 0.057,-4.323 1.094,-6.128 1.647,-3.204 3.873,-5.261 7.729,-5.497 0.324,1.558 -0.455,2.688 1.946,6.127 2.999,4.226 4.583,-0.169 5.745,-1.09 1.134,-0.712 1.813,-2.055 6.079,-2.443 3.034,-0.232 5.664,-1.436 6.961,-6.887 1.428,-0.444 7.469,5.583 5.088,10.302 -0.932,1.972 -1.178,3.842 -0.083,5.736 0.509,0.954 4.093,1.537 5.834,-1.311 1.354,-2.241 1.376,-2.848 2.731,-1.223 3.722,5.243 3.012,10.717 -0.557,13.877 -2.209,1.158 2.47,2.337 5.969,2.767 2.028,0.207 8.132,-0.79 11.585,-2.961 1.851,-1.321 6.761,-1.808 4.302,-3.176 -2.877,-1.35 -9.428,-5.84 -11.711,-8.744 -6.122,-7.992 -12.154,-11.662 -15.958,-13.905 m -31.757,14.346 c 2.053,0.728 5.019,-0.22 4.691,-1.013 -2.535,-2.27 -3.025,-3.371 -3.42,-7.047 -1.271,-0.325 -5.197,6.556 -1.271,8.06 m 21.963,-2.327 c 2.882,1.961 8.557,-5.896 4.524,-8.989 -1.264,-0.822 -0.94,1.595 -2.712,3.455 -1.977,2.055 -3.995,4.032 -1.812,5.534 m 16.41,4.903 c -0.085,0 -0.509,-0.642 -0.621,-0.642 -0.838,0 -2.494,2.826 -3.678,2.864 -2.575,0.094 -4.982,-0.257 -4.148,3.281 0.015,0.19 1.046,1.396 1.219,1.434 4.053,1.34 7.105,-5.115 7.228,-6.937 m -19.721,13.576 c -0.494,2.345 -1.614,6.837 -0.385,7.957 1.786,0.482 4.901,1.769 6.498,3.214 2.132,1.89 2.88,2.32 4.327,5.493 0.179,0.521 0.47,1.374 0.834,1.738 13.98,-7.839 26.97,-1.174 31.367,11.553 l 0.012,-0.02 c 0.051,0.158 0.108,0.372 0.151,0.506 0.216,0.631 0.421,1.264 0.577,1.898 1.811,7.477 0.302,17.009 -0.74,23.817 2.866,-0.71 3.526,-2.659 5.901,-3.689 5.01,-2.156 11.681,-2.21 17.354,-2.21 0.618,-1.493 0.488,-2.154 0.243,-3.675 -0.079,-0.541 -0.201,-1.489 -0.243,-1.706 -0.06,-0.309 -0.215,-0.758 -0.215,-0.758 -0.191,-0.943 -1.234,-4.152 -1.234,-4.152 -3.014,-8.78 -8.717,-16.788 -1.725,-25.741 0.655,-0.87 1.522,-1.719 0.241,-2.692 -0.546,-0.43 -1.644,-0.779 -2.228,-0.97 -2.486,-0.917 -5.178,-1.856 -8.055,-2.51 -5.211,-1.216 -10.997,-1.591 -17.656,0.797 -2.278,0.796 -3.323,2.511 -5.859,3.428 -0.883,-3.026 0.912,-9.226 0.245,-9.592 -3.197,-1.706 -5.787,-1.578 -9.304,-2.472 -1.146,-0.266 -2.55,-0.903 -4.075,-0.854 -1.103,1.929 -2.205,3.29 -4.757,4.309 -3.329,1.368 -7.94,-1.614 -11.274,-3.669 m 83.641,5.399 c -2.554,0.269 -4.038,1.65 -4.16,3.451 -0.32,3.564 4.95,4.095 4.866,1.633 -0.007,-1.03 0.823,-1.972 1.689,-2.96 1.624,-1.839 -0.524,-2.234 -2.395,-2.124 m -36.109,63.977 c 4.156,1.065 5.244,4.436 8.069,6.593 3.231,2.498 8.046,4.538 13.257,4.914 8.661,0.654 14.783,-2.898 19.468,-6.217 10.947,-7.829 8.021,-28.084 -6.721,-30.335 0,-1.259 -0.269,-8.819 2.447,-10.97 1.346,-0.142 3.778,0.507 7.117,-2.218 4.1,-3.386 2.592,-5.107 4.16,-6.371 4.201,-3.402 11.371,4.05 13.472,5.633 1.022,0.738 3.77,1.934 5.41,1.243 0.226,-0.131 0.376,-0.907 0.467,-1.043 -0.467,-0.591 -0.824,-0.858 -1.208,-1.687 -1.144,-2.171 -0.97,-4.833 0.335,-6.022 1.796,-1.61 3.532,-2.316 3.085,-3.5 -0.064,-0.714 -1.336,-1.514 -2.661,-2.724 -1.584,-1.436 -0.584,-4.881 -1.729,-4.663 -13.109,-1.205 -17.206,8.923 -27.488,9.317 1.981,-2.988 1.356,-3.854 0.749,-6.122 -3.056,0.655 -5.755,0.451 -7.836,-0.979 -1.728,-1.128 -2.111,-2.945 -2.45,-4.941 -4.903,1.279 -7.053,2.861 -9.336,6.634 -7.635,12.927 3.877,19.176 3.207,33.09 0,0 0.493,6.145 -2.69,6.145 -3.213,0 -8.407,-1.527 -13.496,0 -3.286,1.003 -10.716,3.467 -11.985,8.822 -2.401,9.767 1.506,4.181 6.357,5.401 m -1.946,13.003 c 2.289,2.193 4.378,-0.179 15.402,4.875 -3.525,-2.871 -10.776,-6.858 -10.737,-7.129 1.699,-12.869 -15.429,-7.911 -4.665,2.254 m 72.028,-54.949 c 0.183,0.789 1.88,1.661 2.702,1.723 3.962,0.467 6.646,-3.117 5.905,-6.118 -2.621,1.073 -4.873,1.656 -7.602,0.98 -0.393,0.768 -1.359,1.95 -1.005,3.415 m 6.87,-17.123 c -2.25,1.132 -4.138,1.971 -6.87,2.694 0.258,0.994 0.146,1.122 0.545,1.679 0.115,0.32 0.573,0.943 0.931,1.034 4.147,0.95 5.129,-2.961 5.394,-5.407 m -37.254,79.899 c 1.754,0.039 2.392,-1.042 2.935,-2.448 1.497,-3.825 1.753,-5.507 -0.283,-4.709 -1.066,0.434 -3.34,2.368 -3.714,4.353 -0.214,1.048 0.16,2.348 1.062,2.804 m 13.214,3.682 c 2.81,0.419 5.262,-6.998 4.417,-7.373 -3.478,-1.474 -8.912,6.653 -4.417,7.373 m 4.417,23.74 c 4.043,0.807 5.758,-2.169 5.636,-2.693 0.076,-1.623 -2.47,0.73 -4.543,-0.372 -2.64,-1.452 -2.494,1.956 -1.093,3.065 m 5.898,-13.193 c 1.014,-1.441 1.634,-3.943 0.742,-4.468 -0.882,-0.584 -6.195,2.74 -7.291,6.091 -0.478,1.5 0.434,1.536 1.244,1.536 3.043,-0.415 3.92,-1.285 5.305,-3.159 m 173.301,-21.607 c 0.154,1.744 0.989,7.302 3.386,7.378 0.509,0.008 1.025,-0.456 1.233,-0.762 2.272,-3.076 -2.523,-5.803 -4.619,-6.616 m -12.055,3.687 c -3.635,-0.391 0.181,7.013 1.444,7.373 5.327,1.373 2.743,-6.946 -1.444,-7.373 m -7.823,13.452 c -1.77,2.968 1.126,7.051 4.398,7.627 0.725,0.128 1.929,-0.23 2.204,-0.261 0,0 0.236,-1.275 0,-1.926 -0.798,-2.315 -4.213,-4.608 -6.602,-5.44 m 1.723,16.452 c 0.54,0.383 1.434,1.104 2.192,1.209 3.562,0.662 3.148,-1.629 2.923,-3.392 -2.278,0.283 -8.512,-0.181 -5.115,2.183 M 49.73,29.436 c -2.581,-3.275 -8.989,-5.623 -13.954,-5.623 0.333,6.333 -4.846,8.798 -6.379,13.702 -1.144,3.798 1.06,7.086 1.476,9.548 0.776,4.406 -3.001,4.342 -3.917,6.861 -0.568,1.556 0.285,4.22 0,5.629 -0.217,1.106 -2.469,2.203 -5.408,3.432 -5.148,-4.408 -9.55,-4.579 -13.465,-2.717 -0.926,0.515 -2.272,1.561 -2.493,2.717 -0.545,4.399 3.369,9.783 4.704,12.995 0.957,2.293 0.98,5.536 1.704,7.833 9.687,1.869 15.421,8.621 13.985,20.022 -0.391,3.209 -1.944,6.194 -3.231,8.517 -1.575,2.737 -3.257,5.367 -4.957,7.986 -3.753,5.162 -7.292,10.185 -9.952,16.154 -4.996,11.281 -4.421,28.619 1.938,37.746 0.102,0.198 3.135,3.394 1.744,3.199 -0.987,-0.104 -3.275,-1.607 -4.154,-2.215 -3.058,-2.014 -4.878,-7.299 -5.658,-11.499 -0.4,-2.182 -0.62,-4.352 -0.876,-6.328 -0.225,-2.107 0.119,-5.117 0.357,-6.929 C 2.61,140.617 5.418,135.182 9.029,128.045 13.226,119.78 24.532,110.133 23.185,96.98 21.792,88.395 13.161,86.954 5.59,87.494 6.205,83.813 6.817,79.184 6.167,74.989 5.398,70.904 2.053,67.198 2.949,61.529 c 0,0 0.996,-10.553 19.827,-3.919 0.741,-3.197 1.241,-5.333 2.696,-7.108 2.4,-2.988 2.046,0.903 0.511,-5.655 -0.722,-2.904 0,-6.737 0.724,-8.815 1.257,-3.616 3.613,-6.123 4.606,-9.871 -0.147,0.038 -0.157,-2.898 -1.669,-6.571 -4.456,0.381 -11.492,0.394 -14.45,-1.435 -3.884,-2.401 -1.212,-5.384 -5.413,-5.647 -0.964,0 -0.722,1.851 -1.184,2.679 C 6.944,18.074 3.681,18.658 0,19.59 c 0.701,6.571 0.346,7.498 -2.97,11.536 2.619,1.634 5.162,1.037 7.84,-0.513 1.947,-1.059 2.973,-2.015 5.157,-2.902 0.984,2.435 -0.017,6.674 1.247,9.547 2.113,4.832 2.708,6.585 0.251,6.86 -5.138,0.637 -8.211,1.395 -10.569,5.63 -4.447,8.119 -1.088,5.769 -6.601,3.477 -12.364,-5.183 -16.872,0.415 -20.588,3.414 -1.701,1.794 -2.96,4.339 -3.978,7.406 -1.912,6.077 -2.392,14.088 -1.668,21.481 0.665,6.374 2.92,14.809 1.472,23.034 -0.627,3.628 -3.38,8.37 -6.363,9.807 -2.798,1.413 -6.433,1.277 -9.555,2.229 -8.068,2.372 -14.674,11.987 -10.518,21.081 3.125,6.826 10.759,10.046 10.759,12.735 -1.213,0.008 -2.984,0 -5.416,-0.268 -3.369,-5.613 -20.443,-17.893 -25.457,-21.064 3.006,-4.784 0.158,-8.832 0.485,-7.862 -5.136,5.755 -8.325,-3.216 -10.539,-2.44 -1.236,6.443 -2.06,6.809 -7.108,9.805 0.859,4.152 2.791,7.543 -0.167,10.698 l 0.058,1.429 c 0.436,1.713 0.623,3.603 0.623,5.991 2.277,0.857 7.542,-5.502 8.333,-4.752 5.201,2.03 11.125,7.199 22.777,11.883 7.509,3.061 15.198,6.085 22.784,8.817 12.28,4.467 32.743,10.231 39.2,19.364 1.385,1.904 1.705,4.207 2.49,6.603 -0.461,0.622 -9.08,-5.786 -17.88,-9.8 -7.322,-3.304 -20.191,-6.986 -27.244,-9.682 -9.768,-3.675 -19.837,-7.421 -28.897,-11.871 -6.954,-3.377 -9.878,-5.865 -11.782,-6.962 -2.311,-1.349 0.44,-2.72 -1.448,-3.6 -2.181,2.447 -6.056,4.001 -8.836,4.667 l 0,-0.024 -0.28,0 c -2.757,-0.136 -4.296,-0.609 -4.296,-0.609 l 0,0.6 0,-0.047 -0.045,-0.553 c 0,0 -0.425,-0.307 -1.057,-0.703 -1.49,-1.1 -4.134,-2.352 -5.117,-3.804 -1.002,-1.874 -1.16,-4.907 -0.532,-5.803 0.61,-0.896 2.606,-0.987 3.229,-1.041 -2.273,-1.801 -4.707,-4.784 -5.157,-8.346 -0.952,-8.493 7.269,-3.3 7.868,-5.587 0.997,-3.892 -1.781,-6.451 -1.238,-10.813 0.113,-0.873 0.821,-1.7 1.315,-2.411 0.222,-0.308 0.734,-0.415 0.734,-0.415 3.563,-0.339 4.565,0.587 4.565,0.587 4.902,3.017 3.342,1.944 4.42,2.711 4.179,-0.27 1.754,-3.601 0.744,-4.411 -0.632,-0.495 -3.894,-1.82 -1.226,-2.46 4.046,-0.473 5.852,-1.712 11.013,1.761 3.648,2.399 6.909,8.238 7.126,13.931 0.154,0.019 -0.346,3.923 -0.217,4.122 0.079,0.392 10.789,8.595 11.005,8.379 1.203,-1.242 -2.74,-13.706 5.628,-21.549 5.281,-5.009 -6.516,2.025 -20.57,-4.397 -6.451,-2.965 -10.479,-7.222 -13.748,-13.266 -6.658,-12.41 1.802,-22.179 11.06,-26.448 -0.212,-4.78 0.405,-4.588 -0.768,-5.415 -1.056,-0.628 -2.477,-0.256 -3.681,-0.735 -6.73,-2.576 -5.2,-8.131 -9.099,-7.093 -5.118,1.354 -7.77,8.629 -14.733,7.635 -2.982,-0.498 -3.847,-2.78 -6.179,-3.987 -1.601,-0.845 -2.144,-0.682 -1.558,0.075 -2.365,-1.663 -9.097,-6.029 -20.166,-10.207 1.972,0.529 3.995,0.932 5.905,1.065 1.394,0.155 5.19,0.346 6.37,-0.712 0.849,-0.726 1.209,-3.878 2.227,-3.929 0,0 7.254,4.903 5.389,0 -1.252,-1.159 -7.726,-3.008 -3.949,-11.281 5.324,-3.186 10.585,-6.668 14.48,-12.259 5.74,-8.204 3.257,-18.132 -4.187,-22.752 3.715,10.754 -0.444,21.404 -11.502,23.264 -5.486,0.947 -10.547,0.858 -14.937,2.685 -5.886,2.533 -10.099,6.984 -15.466,9.807 -4.259,2.266 -9.546,3.27 -13.938,5.396 0,0 -18.098,-2.628 -33.191,0.198 0.606,-0.155 1.466,-0.198 2.074,-0.372 -5.94,-2.146 -12.371,-4.065 -17.446,-7.176 -4.145,-2.549 -7.807,-6.173 -12.698,-8.076 -4.433,-1.741 -9.336,-1.23 -14.506,-2.462 -10.526,-2.495 -15.481,-11.68 -11.519,-23.264 -6.666,4.046 -9.421,13.641 -4.902,21.803 3.434,6.072 10.169,9.944 16.184,13.42 0.229,0.71 0.296,1.386 0.237,1.543 0.392,4.032 -0.161,4.494 -0.442,5.575 -0.699,1.204 -2.124,3.32 -4.698,3.951 -0.03,0.876 -0.604,1.5 0.286,1.949 1.198,0.746 2.714,-1.001 3.875,-1.456 3.613,-1.165 2.512,4.054 5.917,4.148 4.102,0.11 7.736,-0.593 11.14,-1.63 -5.956,2.466 -12.676,5.863 -19.418,10.251 -1.199,0.182 -2.826,0.359 -4.218,0.446 -0.266,1.737 -3.055,4.414 -7.629,3.987 -5.074,-0.554 -7.075,-7.103 -14.696,-7.635 -2.736,4.623 -4.735,7.253 -10.528,7.635 -0.625,0.828 -1.469,4.259 -0.757,5.608 -0.404,-0.809 6.527,3.501 9.337,6.608 11.586,12.603 -2.289,29.925 -13.005,33.837 -6.003,2.132 -13.338,1.409 -20.341,1.949 4.535,7.203 7.653,11.847 5.896,23.51 1.995,-0.932 10.806,-6.703 11.527,-8.353 0.687,-1.681 -0.227,-4.505 0,-6.086 0.613,-4.733 3.991,-10.626 7.823,-13.003 3.294,-2.073 8.767,-2.484 11.511,0 -3.236,1.051 -5.305,4.438 -2.175,6.119 0.826,-0.572 1.5,-1.161 2.434,-1.705 0.648,-0.411 2.39,-1.189 4.011,-1.61 0.289,0 3.964,0.051 5.156,1.452 l 0,-0.018 c 0.627,1.067 0.703,2.762 0.703,3.026 l 0,0.098 c -0.041,0.138 -0.041,0.312 -0.076,0.446 -0.019,0.246 -0.042,0.458 -0.074,0.687 -0.024,0.135 -0.059,0.273 -0.073,0.419 -0.038,0.228 -0.065,0.418 -0.089,0.638 0,0.047 -0.035,0.112 -0.059,0.134 -0.025,0.197 -0.049,0.396 -0.09,0.569 -0.206,1.089 -0.46,2.274 -0.61,3.467 l 0,0.023 c 0,0.039 0,0.071 -0.015,0.114 -0.036,0.358 -0.082,0.725 -0.122,1.108 0,0.178 -0.015,0.341 -0.015,0.498 -0.024,0.31 -0.024,0.522 -0.024,0.752 0,0.16 0,0.347 0.024,0.504 l 0,0.24 c 0.137,-0.073 0.269,-0.13 0.383,-0.22 1.581,-0.778 2.71,-0.86 2.71,-0.86 0.964,-0.102 1.685,0.106 2.14,0.342 0.347,0.154 0.654,0.427 0.9,0.738 0.05,0.044 0.097,0.123 0.126,0.163 l 0.032,0.075 c 0.284,0.336 0.463,0.753 0.554,1.182 0.041,0.104 0.072,0.239 0.097,0.372 l 0,0.024 c 0.023,0.106 0.023,0.201 0.067,0.312 0.04,0.204 0.04,0.482 0.088,0.726 l 0,0.079 c 0,0.79 -0.064,1.46 -0.155,2.042 -0.025,0.182 -0.056,0.375 -0.075,0.552 -0.022,0.051 -0.022,0.183 -0.022,0.248 -0.025,0.08 -0.025,0.111 -0.057,0.163 0,0.055 -0.011,0.078 -0.011,0.078 -0.023,0.094 -0.023,0.149 -0.023,0.149 0,0.044 -0.032,0.109 -0.057,0.167 l 0,0.11 0,0.012 c -0.078,0.282 -0.162,0.541 -0.232,0.782 -0.235,0.611 -0.482,1.077 -0.482,1.077 0,0 -0.019,0.039 -0.044,0.092 -0.192,0.386 -0.408,0.706 -0.654,1.054 -0.036,0.075 -0.08,0.13 -0.08,0.13 -0.28,0.612 -1.558,1.846 -1.945,2.163 -0.127,0.141 -0.249,0.209 -0.331,0.347 -0.044,0.017 -0.044,0.048 -0.044,0.048 -0.078,0.051 -0.111,0.129 -0.202,0.18 -0.017,0.025 -0.028,0.068 -0.076,0.104 0,0 -0.078,0.077 -0.088,0.134 -0.044,0.086 -0.136,0.15 -0.15,0.217 -0.033,0.07 -0.033,0.086 -0.057,0.149 0,0 -0.049,0.076 -0.075,0.116 0,0 -0.023,0.094 -0.058,0.106 -0.128,0.32 -0.047,0.541 -0.047,0.541 1.041,-0.15 1.857,-0.15 2.413,0.062 0.092,0.016 0.136,0.052 0.136,0.052 0.148,0.047 0.166,0.052 0.166,0.052 l 0.134,0.045 c 0.016,0.068 0.035,0.068 0.056,0.096 0.085,0.013 0.142,0.111 0.168,0.166 0.24,0.193 0.375,0.467 0.432,0.743 0.037,0.082 0.091,0.153 0.11,0.284 0.008,0.197 0.032,0.398 0.032,0.622 l 0,0.056 0,0.116 c -0.024,0.642 -0.051,1.132 -0.108,1.567 -0.034,0.105 -0.091,0.205 -0.091,0.357 -0.049,0.372 -0.11,0.63 -0.189,0.812 0,0.055 -0.048,0.12 -0.07,0.2 l 0,0.023 c -0.036,0.056 -0.06,0.129 -0.088,0.207 -0.028,0.042 -0.048,0.087 -0.048,0.128 -0.051,0.056 -0.118,0.163 -0.118,0.238 -0.07,0.109 -0.178,0.26 -0.238,0.375 -0.539,0.823 -1.151,1.394 -1.151,1.394 0,0.043 -0.031,0.043 -0.086,0.074 -0.293,0.249 -0.63,0.542 -0.909,0.75 -1.058,0.82 -2.566,1.71 -2.764,1.792 l -0.055,0.034 c -0.536,0.19 -2.3,0.601 -4.5,0.672 -1.53,0.023 -3.567,-0.189 -4.979,-0.672 -2.304,-0.87 -3.906,-2.354 -5.165,-3.433 -0.658,-0.473 -1.255,0 -0.851,2.582 0.193,1.262 -7.118,4.819 -8.973,5.801 -6.399,3.389 -11.589,6.019 -17.937,8.689 -4.08,1.718 -11.423,4.469 -16.096,6.106 -7.52,2.677 -15.433,4.511 -22.526,7.724 -3.294,1.466 -8.597,4.04 -12.923,6.597 -5.053,2.967 -8.52,5.51 -7.899,4.416 0.544,-1.669 1.126,-4.506 2.822,-6.863 1.816,-2.558 7.177,-6.327 10.011,-7.942 6.565,-3.641 16.396,-6.951 26.359,-10.195 9.145,-2.949 18.521,-6.829 27.189,-10.776 4.767,-2.138 9.536,-4.966 14.22,-7.583 1.582,-0.88 5.132,-3.39 7.107,-3.308 0.718,0.032 2.498,2.348 3.484,3.025 0.975,0.615 2.528,1.641 3.253,1.987 2.25,1.051 -0.514,-1.948 1.61,-7.072 -0.486,-0.483 -0.907,-1.186 -1.254,-1.733 -1.852,-2.716 -0.022,-6.818 0.982,-9.573 -3.146,-1.328 -4.855,-2.608 -5.909,-4.94 -1.886,-4.051 0.047,-5.993 -3.552,-3.623 -2.062,1.379 -1.879,3.763 -5.859,2.576 -1.9,-0.541 -2.49,-2.293 -3.165,1.946 -0.22,1.265 0.77,3.391 1.097,4.775 -7.443,5.283 -15.606,10.579 -21.828,17.149 -2.621,2.817 -2.159,4.665 -9.312,3.946 11.017,-8.819 13.482,-13.558 12.521,-20.834 -0.423,-3.145 -2.718,-6.284 -4.693,-8.078 -1.207,-1.131 -3.138,-3.534 -4.61,-4.19 -5.586,-2.427 -12.253,-1.206 -15.449,-5.887 -5.691,-8.319 -2.014,-22.605 -1.192,-32.583 0.414,-6.228 -0.136,-12.29 -1.606,-17.351 -0.676,-2.292 -1.505,-4.432 -2.582,-6.207 -3.848,-6.211 -11.707,-10.578 -21.319,-6.582 -1.76,0.718 -2.664,1.852 -4.919,2.698 -2.182,-5.249 -3.849,-7.356 -7.094,-9.559 -2.627,-1.721 -7.36,-1.11 -7.609,-2.197 -0.521,-2.271 1.051,-4.17 1.472,-5.65 0.734,-2.668 1.444,-8.083 0.49,-9.427 0.647,-0.636 1.22,-1.012 1.974,-0.483 2.366,1.666 5.904,5.599 10.513,4.277 0.858,-0.242 1.853,-0.494 1.486,-1.233 -4.094,-4.347 -4.094,-5.276 -2.938,-11.007 -1.566,-1.689 -3.137,-0.258 -5.758,-1.964 -2.341,-1.469 -3.194,-3.216 -3.583,-5.132 -0.182,-1.006 -1.951,-0.749 -1.951,-0.749 -0.905,1.088 -1.037,2.184 -1.705,3.672 -0.573,1.258 -1.496,2.209 -3.076,2.628 -3.837,1.088 -10.124,2.061 -13.598,0.796 -0.882,-0.221 -2.103,4.443 -1.701,7.133 0.214,1.78 1.189,3.307 1.701,4.11 0.403,0.567 3.249,4.782 3.651,8.974 0.207,1.75 0.119,4.476 -0.237,5.396 -0.258,0.714 -2.044,3.678 -1.215,4.132 3.072,2.172 3.873,4.627 4.63,8.752 2.05,-0.438 3.388,-1.047 4.912,-1.495 5.852,-1.7 13.893,-1.083 14.738,4.909 0.574,3.971 -0.88,7.267 -1.709,9.797 -1.63,4.879 -2.202,11.562 -0.487,16.913 -8.766,-1.941 -17.623,1.684 -17.658,13.003 -0.052,8.723 6.394,14.429 9.792,20.068 3.498,5.807 8.479,14.276 10.923,22.274 2.123,7.025 2.387,20.963 -2.57,29.478 -1.366,2.262 -3.932,3.222 -6.391,4.35 1.477,-2.87 3.589,-5.239 4.659,-8.312 3.406,-9.957 2.75,-19.495 0.536,-26.764 -3.032,-9.971 -9.237,-16.893 -14.005,-25.183 -2.641,-4.53 -6.945,-9.747 -6.155,-17.422 0.988,-9.474 6.325,-13.563 14.732,-15.67 0,-3.334 1.079,-5.737 1.962,-8.046 1.026,-2.763 4.452,-9.71 3.687,-13.251 0,0 -1.005,-3.315 -6.644,-3.083 -5.814,0.236 -8.272,3.76 -9.046,3.81 -0.865,0.078 -3.127,-1.714 -3.807,-2.112 -2.236,-1.13 -0.884,-2.328 -0.953,-5.021 -0.096,-0.872 -0.9,-2.935 -1.849,-3.552 -1.916,-1.153 -3.693,-3.048 -2.47,-5.495 1.006,-2.038 1.933,-4.65 1.484,-8.084 -0.584,-3.947 -3.407,-5.83 -5.143,-8.715 -2.787,-4.471 -0.356,-6.177 -1.998,-6.451 -3.31,-0.174 -7.965,1.652 -10.757,3.643 -1.36,0.985 -3.835,3.084 -2.944,0 1.101,-3.817 2.606,-7.321 3.938,-10.042 4.518,-8.375 16.974,-21.702 42.341,-20.399 5.549,0.048 14.927,2.165 20.37,4.567 1.363,0.862 3.06,-6.929 4.914,-5.766 2.569,11.872 14.464,13.833 26.857,15.464 1.249,0.186 2.475,0.341 3.673,0.471 4.111,0.551 4.44,1.732 8.173,2.731 2.91,-6.229 5.957,-10.238 10.812,-11.498 7.862,-2.2 4.59,0.438 3.987,2.453 -1.245,4.312 -1.049,8.935 3.094,12.213 3.268,2.587 14.435,5.459 19.847,4.172 -0.994,-8.76 2.383,-13.54 7.603,-17.425 1.16,-0.819 2.511,-2.259 4.126,-2.523 0.499,-0.082 1.446,0.098 1.446,0.098 0.207,2.203 -1.314,4.381 -1.652,7.125 -1.118,8.931 5.263,11.826 11.765,13.46 3.335,0.83 9.046,1.345 12.762,0.506 -0.754,-6.743 0.961,-12.887 4.163,-16.936 0.324,2.174 0.628,5.038 1.718,6.644 3.076,4.599 10.135,10.338 17.13,10.797 6.518,0.382 13.015,-1.221 18.151,-2.243 0.497,-0.098 1.037,-0.098 1.553,-0.158 l 0,-0.054 c 0.172,-0.009 0.336,0 0.458,-0.009 0.34,-0.02 0.696,-0.074 1.071,-0.093 l 0.284,-0.083 c 5.108,-0.234 9.701,1.465 14.499,2.383 11.439,2.098 22.369,-3.224 26.963,-10.803 0.833,-1.545 0.876,-1.601 1.413,-3.597 l 0.811,-2.558 c 2.907,4.662 3.431,9.677 3.431,16.958 3.774,0.951 10.179,0.266 14.209,-0.754 8.77,-2.237 13.11,-9.393 8.339,-18.899 0.092,-0.008 -1.37,-2.286 1.97,-1.686 7.339,1.262 12.624,11.492 11.528,19.85 0.896,0.218 2.778,0.715 4.379,0.452 9.184,-1.047 21.98,-4.541 18.615,-15.649 l -1.204,-4.653 c 9.688,-0.556 14.462,8.599 15.945,11.984 0.585,1.798 1.301,-0.279 5.679,-1.755 l 0,-0.017 c 0.318,-0.084 0.655,-0.167 0.927,-0.273 0.132,-0.014 0.251,-0.069 0.399,-0.107 l 0,0.027 c 0.845,-0.21 1.713,-0.416 2.81,-0.551 13.086,-1.684 26.743,-2.527 29.114,-15.953 2.584,1.25 3.258,3.644 4.681,5.898 11.586,-5.366 32.044,-5.814 44.557,-0.543 6.709,2.611 12.862,8.229 16.938,13.53 1.64,2.108 3.298,5.217 4.193,7.866 0.355,1.107 2.303,6.363 1.195,7.358"
             style="fill:#cc0000;fill-opacity:1;fill-rule:nonzero;stroke:none"
             id="path138"
             inkscape:connector-curvature="0" /></g><g
           id="g140"
           transform="translate(128.4863,75.4873)"><path
             d="m 0,0 c -5.19,-2.306 -10.515,-3.15 -16.961,-3.218 -15.113,0 -23.925,10.244 -23.983,24.983 0,14.718 8.87,24.963 23.924,24.963 6.112,0 11.436,-0.723 16.559,-1.903 l 0,-7.495 c -4.663,1.652 -9.532,3.094 -15.116,3.094 -11.568,0 -15.249,-9.341 -15.249,-18.535 0,-10.186 4.671,-18.735 15.911,-18.735 5.719,0 10.445,1.574 14.848,3.938 L -0.067,0 0,0 z"
             style="fill:#cc0000;fill-opacity:1;fill-rule:nonzero;stroke:none"
             id="path142"
             inkscape:connector-curvature="0" /></g><path
           d="m 134.865,108.75 9.465,0 0,-35.232 -9.465,0 0,35.232 z m 0,13.868 9.465,0 0,-7.888 -9.465,0 0,7.888 z"
           style="fill:#cc0000;fill-opacity:1;fill-rule:nonzero;stroke:none"
           id="path144"
           inkscape:connector-curvature="0" /><g
           id="g146"
           transform="translate(166.0767,72.7227)"><path
             d="m 0,0 c -9.919,0 -11.695,6.437 -11.695,10.392 l 0,19.717 -3.941,0 0,5.911 3.941,0 0,5.988 9.523,1.112 0,-7.1 7.561,0 0,-5.911 -7.561,0 0,-17.485 c 0,-3.487 0.662,-6.312 5.264,-6.312 0.991,0 2.95,0.459 2.95,0.459 l 0,-5.849 C 4.083,0.334 2.102,0 0,0"
             style="fill:#cc0000;fill-opacity:1;fill-rule:nonzero;stroke:none"
             id="path148"
             inkscape:connector-curvature="0" /></g><g
           id="g150"
           transform="translate(188.752,60.8242)"><path
             d="m 0,0 -9.666,0 8.022,12.686 -13.865,35.232 10.244,0 9.407,-23.914 11.24,23.914 7.226,0 L 0,0 z"
             style="fill:#cc0000;fill-opacity:1;fill-rule:nonzero;stroke:none"
             id="path152"
             inkscape:connector-curvature="0" /></g><g
           id="g154"
           transform="translate(258.5493,91.0645)"><path
             d="m 0,0 c 0,5.195 -1.777,12.546 -8.156,12.616 -6.371,0 -8.15,-7.351 -8.15,-12.481 0,-5.199 1.779,-12.558 8.091,-12.628 6.438,0 8.215,7.361 8.215,12.556 L 0,0 z m 10.06,0.063 c 0,-6.108 -2.699,-18.405 -18.275,-18.405 -15.585,0 -18.208,12.297 -18.208,18.405 0,7.161 3.218,18.412 18.14,18.412 14.989,0 18.276,-11.251 18.276,-18.412 l 0.067,0 z"
             style="fill:#cc0000;fill-opacity:1;fill-rule:nonzero;stroke:none"
             id="path156"
             inkscape:connector-curvature="0" /></g><g
           id="g158"
           transform="translate(290.9492,119.0615)"><path
             d="m 0,0 c -3.418,0 -4.997,-2.766 -4.997,-5.314 l 0,-4.998 8.938,0 0,-5.917 -8.938,0 0,-29.315 -9.471,0 0,29.315 -4.855,0 0,5.917 4.855,0 0,4.202 c 0,7.428 4.603,12.097 13.027,12.097 2.951,0 5.841,-0.469 8.667,-1.257 l 0,-6.504 C 5.063,-0.718 2.366,0 0,0"
             style="fill:#cc0000;fill-opacity:1;fill-rule:nonzero;stroke:none"
             id="path160"
             inkscape:connector-curvature="0" /></g><g
           id="g162"
           transform="translate(338.3311,72.3369)"><path
             d="m 0,0 c -11.829,0 -19.064,5.909 -19.064,17.743 l 0,30.963 9.464,0 0,-28.531 c 0,-8.549 1.712,-13.87 9.869,-13.87 7.619,0 9.397,4.926 9.397,13.277 l 0,29.124 8.272,0 0,-30.963 C 17.938,10.51 15.642,0 0,0"
             style="fill:#cc0000;fill-opacity:1;fill-rule:nonzero;stroke:none"
             id="path164"
             inkscape:connector-curvature="0" /></g><g
           id="g166"
           transform="translate(377.8311,72.7227)"><path
             d="m 0,0 c -9.923,0 -11.702,6.437 -11.702,10.392 l 0,19.717 -3.939,0 0,5.911 3.939,0 0,5.988 9.532,1.112 0,-7.1 7.56,0 0,-5.911 -7.56,0 0,-17.485 c 0,-3.487 0.66,-6.312 5.257,-6.312 0.986,0 2.958,0.459 2.958,0.459 l 0,-5.849 C 4.073,0.334 2.106,0 0,0"
             style="fill:#cc0000;fill-opacity:1;fill-rule:nonzero;stroke:none"
             id="path168"
             inkscape:connector-curvature="0" /></g><g
           id="g170"
           transform="translate(412.5283,100.9238)"><path
             d="m 0,0 c -1.241,0.452 -2.565,0.718 -3.871,0.718 -4.014,0 -7.235,-2.362 -9.204,-5.785 l 0,-22.347 -9.532,0 0,35.232 9.532,0 -0.264,-6.58 0.129,0 c 2.238,4.343 6.44,7.367 11.435,7.367 l 1.711,0 L -0.064,0 0,0 z"
             style="fill:#cc0000;fill-opacity:1;fill-rule:nonzero;stroke:none"
             id="path172"
             inkscape:connector-curvature="0" /></g><g
           id="g174"
           transform="translate(430.2686,103.6211)"><path
             d="m 0,0 c -4.793,0 -6.508,-4.993 -6.832,-9.002 l 12.69,0 C 5.985,-5.129 4.93,0 0,0 m 15.114,-28.92 c -4.072,-1.191 -8.405,-1.978 -13.673,-1.978 -15.567,0 -18.198,12.288 -18.198,18.405 0,7.767 3.94,18.401 17.35,18.401 11.956,0 14.722,-9.656 14.457,-20.31 l -21.822,0 c 0.595,-6.64 4.544,-10.185 11.172,-10.185 3.818,0 7.178,0.913 10.65,2.372 l 0,-6.705 0.064,0 z"
             style="fill:#cc0000;fill-opacity:1;fill-rule:nonzero;stroke:none"
             id="path176"
             inkscape:connector-curvature="0" /></g><g
           id="g178"
           transform="translate(478.7715,74.2979)"><path
             d="m 0,0 c -3.488,-0.913 -7.165,-1.575 -10.913,-1.575 -15.574,0 -18.21,12.288 -18.21,18.405 0,7.16 3.223,18.401 18.143,18.401 2.633,0 5.531,-0.448 10.711,-1.314 l 0.07,-6.966 c -3.019,1.123 -6.179,2.104 -9.333,2.171 -6.706,0 -9.462,-6.187 -9.522,-11.956 0,-7.173 3.348,-12.43 10.908,-12.489 2.305,0 5.524,0.723 8.082,1.904 L -0.064,0 0,0 z"
             style="fill:#cc0000;fill-opacity:1;fill-rule:nonzero;stroke:none"
             id="path180"
             inkscape:connector-curvature="0" /></g><g
           id="g182"
           transform="translate(507.291,73.5098)"><path
             d="m 0,0 0,23.07 c 0,2.898 -0.913,5.456 -3.94,5.393 -3.871,0 -6.841,-3.281 -8.743,-6.316 l 0,-22.147 -9.532,0 0,50.683 9.532,0 0,-15.451 -0.324,-6.564 0.124,-0.064 c 2.7,4.324 7.101,7.416 12.231,7.416 6.705,0 10.184,-4.849 10.184,-10.585 L 9.532,0 0,0 z"
             style="fill:#cc0000;fill-opacity:1;fill-rule:nonzero;stroke:none"
             id="path184"
             inkscape:connector-curvature="0" /></g><g
           id="g186"
           transform="translate(538.3184,72.7227)"><path
             d="m 0,0 c -9.923,0 -11.702,6.437 -11.702,10.392 l 0,19.717 -3.941,0 0,5.911 3.941,0 0,5.988 9.532,1.112 0,-7.1 7.563,0 0,-5.911 -7.563,0 0,-17.485 c 0,-3.487 0.653,-6.312 5.254,-6.312 0.989,0 2.961,0.459 2.961,0.459 l 0,-5.849 C 4.073,0.334 2.104,0 0,0"
             style="fill:#cc0000;fill-opacity:1;fill-rule:nonzero;stroke:none"
             id="path188"
             inkscape:connector-curvature="0" /></g></g></g></g></svg>