<?xml version="1.0" encoding="UTF-8" standalone="no"?>
<!-- Created with Inkscape (http://www.inkscape.org/) -->

<svg
   xmlns:dc="http://purl.org/dc/elements/1.1/"
   xmlns:cc="http://creativecommons.org/ns#"
   xmlns:rdf="http://www.w3.org/1999/02/22-rdf-syntax-ns#"
   xmlns:svg="http://www.w3.org/2000/svg"
   xmlns="http://www.w3.org/2000/svg"
   xmlns:sodipodi="http://sodipodi.sourceforge.net/DTD/sodipodi-0.dtd"
   xmlns:inkscape="http://www.inkscape.org/namespaces/inkscape"
   id="svg2"
   version="1.1"
   inkscape:version="0.48.5 r10040"
   width="441.8125"
   height="59.2875"
   xml:space="preserve"
   sodipodi:docname="NWO_NL_CMYK.eps"><metadata
     id="metadata8"><rdf:RDF><cc:Work
         rdf:about=""><dc:format>image/svg+xml</dc:format><dc:type
           rdf:resource="http://purl.org/dc/dcmitype/StillImage" /><dc:title></dc:title></cc:Work></rdf:RDF></metadata><defs
     id="defs6" /><sodipodi:namedview
     pagecolor="#ffffff"
     bordercolor="#666666"
     borderopacity="1"
     objecttolerance="10"
     gridtolerance="10"
     guidetolerance="10"
     inkscape:pageopacity="0"
     inkscape:pageshadow="2"
     inkscape:window-width="640"
     inkscape:window-height="480"
     id="namedview4"
     showgrid="false"
     inkscape:zoom="0.85782996"
     inkscape:cx="220.90625"
     inkscape:cy="29.643749"
     inkscape:window-x="0"
     inkscape:window-y="0"
     inkscape:window-maximized="0"
     inkscape:current-layer="g10" /><g
     id="g10"
     inkscape:groupmode="layer"
     inkscape:label="ink_ext_XXXXXX"
     transform="matrix(1.25,0,0,-1.25,0,59.2875)"><g
       id="g12"
       transform="scale(0.1,0.1)"><path
         d="m 572.27,316.672 0,8.094 c 21.054,14.789 34.96,24.601 38.691,45.871 1.461,8.25 -0.852,18.504 -7.91,27.508 -19.223,24.601 -63.68,38.183 -103.063,45.148 -193.781,34.172 -378.406,-37.461 -392.375,-43.527 l -0.011,5.441 c 16.515,9.598 227.203,96.121 430.328,60.293 39.293,-6.914 75.922,-18.211 96.011,-43.914 7.918,-10.168 10.528,-21.035 8.715,-31.359 -4.801,-27.215 -42.015,-57.454 -70.386,-73.555 l 0,0"
         style="fill:#ed1c24;fill-opacity:1;fill-rule:nonzero;stroke:none"
         id="path14" /><path
         d="m 669.449,293.723 c 44.645,0 79.102,-35.215 79.102,-80.547 0,-46.867 -34.457,-82.11 -80,-82.11 -45.254,0 -79.406,34.598 -79.406,80.86 0,47.508 33.554,81.797 80.304,81.797 l 0,0 z m -1.191,28.945 c -63.223,0 -109.367,-46.563 -109.367,-110.742 0,-62.617 46.144,-109.492 107.851,-109.492 64.418,0 111.77,46.55 111.77,110.125 0,63.234 -47.051,110.109 -110.254,110.109 l 0,0"
         style="fill:#ed1c24;fill-opacity:1;fill-rule:evenodd;stroke:none"
         id="path16" /><path
         d="m 189.359,319.848 -27.855,0 0,-166.426 -137.8477,166.426 -23.6563,0 0,-214.563 27.5586,0 0,165.156 136.6324,-165.156 25.168,0 0,214.563"
         style="fill:#231f20;fill-opacity:1;fill-rule:evenodd;stroke:none"
         id="path18" /><path
         d="M 495.902,240.559 C 466.703,189.25 358.695,83.6055 358.695,83.6055 l -10.668,0 c 34.77,60.4885 47.504,157.1365 50.395,159.5705 l -0.539,1.297 c 0,0 -23.317,-46.27 -72.766,-96.524 C 276.84,98.8477 257.914,83.6055 257.914,83.6055 l -11.551,0 c 36.801,69.3165 60.395,146.6285 60.395,185.7615 0,11.25 -1.504,18.563 -7.692,18.563 -14.211,0 -29.382,-24.539 -37.777,-42.899 l -11.766,0 c 15.86,35.379 54.239,81.668 77.278,81.668 13.097,0 18.16,-16.133 18.16,-29.988 0,-72.625 -51.301,-167.227 -55.172,-171.074 0,-1.375 1.75,-0.989 1.75,-0.989 2.488,9.915 43.297,45.09 77.012,97.168 33.262,51.379 59.187,107.872 61.621,107.872 0.844,0.824 5.801,-9.004 5.801,-32.977 0,-82.734 -39.981,-161.875 -48.789,-171.32 0,-0.758 0.699,-1.075 1.328,-0.957 3.59,8.379 38.855,43.285 60.937,72.472 8.211,10.852 42.137,55.645 39.301,95.672 0,0 4.535,9.485 20.258,25.207 0,0 10.887,10.781 17.14,10.781 3.278,0 3.278,-7.882 3.278,-7.882 0,-25.829 -26.535,-67.848 -33.524,-80.125 l 0,0"
         style="fill:#231f20;fill-opacity:1;fill-rule:nonzero;stroke:none"
         id="path20" /><path
         d="m 854.465,0 10.4102,0 0,474.27 -10.4102,0 0,-474.27 z"
         style="fill:#231f20;fill-opacity:1;fill-rule:nonzero;stroke:none"
         id="path22" /><path
         d="m 978.012,405.902 21.769,0 49.299,-89.957 0.32,0 0,89.957 16.01,0 0,-111.726 -20.49,0 -50.584,91.875 -0.316,0 0,-91.875 -16.008,0 0,111.726"
         style="fill:#231f20;fill-opacity:1;fill-rule:nonzero;stroke:none"
         id="path24" /><path
         d="m 1145.07,342.836 c 0,12.484 -7.36,22.727 -20.33,22.727 -14.73,0 -20.8,-12.161 -21.93,-22.727 l 42.26,0 z m 9.76,-45.301 c -5.76,-2.078 -12.32,-5.277 -25.77,-5.277 -28.97,0 -42.25,17.605 -42.25,44.176 0,24.168 15.2,41.296 38.25,41.296 27.21,0 36.01,-19.847 36.01,-46.097 l -58.26,0 c 0,-16.168 12.65,-27.211 26.89,-27.211 9.93,0 21.45,5.121 25.13,8.164 l 0,-15.051"
         style="fill:#231f20;fill-opacity:1;fill-rule:nonzero;stroke:none"
         id="path26" /><path
         d="m 1214.34,304.422 c 16.97,0 24.01,16.805 24.01,30.41 0,15.207 -7.84,30.731 -24.17,30.731 -16.32,0 -22.73,-15.368 -22.41,-30.247 -0.32,-12.808 6.4,-30.894 22.57,-30.894 z m 24.65,1.277 -0.32,0 c -4,-6.078 -13.28,-13.441 -27.85,-13.441 -24.65,0 -35.05,21.93 -35.05,44.176 0,21.925 11.52,41.296 35.21,41.296 14.24,0 22.41,-5.605 27.05,-13.125 l 0.32,0 0,49.622 15.05,0 0,-120.051 -14.41,0 0,11.523"
         style="fill:#231f20;fill-opacity:1;fill-rule:nonzero;stroke:none"
         id="path28" /><path
         d="m 1331.79,342.836 c 0,12.484 -7.37,22.727 -20.33,22.727 -14.73,0 -20.81,-12.161 -21.93,-22.727 l 42.26,0 z m 9.76,-45.301 c -5.76,-2.078 -12.32,-5.277 -25.77,-5.277 -28.97,0 -42.25,17.605 -42.25,44.176 0,24.168 15.2,41.296 38.25,41.296 27.21,0 36.01,-19.847 36.01,-46.097 l -58.26,0 c 0,-16.168 12.65,-27.211 26.89,-27.211 9.93,0 21.45,5.121 25.13,8.164 l 0,-15.051"
         style="fill:#231f20;fill-opacity:1;fill-rule:nonzero;stroke:none"
         id="path30" /><path
         d="m 1367.92,375.809 14.09,0 0,-12.645 0.32,0 c 4,8.484 12.65,14.566 21.29,14.566 4.49,0 6.73,-0.48 9.93,-1.121 l 0,-13.445 c -2.72,1.121 -5.77,1.441 -8.33,1.441 -13.44,0 -22.25,-12.804 -22.25,-33.292 l 0,-37.137 -15.05,0 0,81.633"
         style="fill:#231f20;fill-opacity:1;fill-rule:nonzero;stroke:none"
         id="path32" /><path
         d="m 1432.09,294.176 15.0391,0 0,120.051 -15.0391,0 0,-120.051 z"
         style="fill:#231f20;fill-opacity:1;fill-rule:nonzero;stroke:none"
         id="path34" /><path
         d="m 1523.15,333.074 c -3.2,0 -6.41,0.317 -9.61,0.317 -8.16,0 -28.33,-1.282 -28.33,-15.684 0,-8.641 8.33,-13.285 15.21,-13.285 14.88,0 22.73,9.281 22.73,21.449 l 0,7.203 z m -44.66,36.973 c 7.52,4.48 16.49,7.683 26.89,7.683 23.37,0 32.81,-11.523 32.81,-33.773 l 0,-33.773 c 0,-9.282 0.32,-13.606 0.64,-16.008 l -14.08,0 0,10.566 -0.32,0 c -3.53,-4.965 -11.53,-12.484 -25.29,-12.484 -17.61,0 -29.94,7.68 -29.94,25.449 0,20.488 22.41,26.891 37.94,26.891 5.92,0 10.08,0 16.01,-0.321 0,14.082 -5.13,21.286 -20.17,21.286 -8.49,0 -17.61,-3.2 -23.69,-8.321 l -0.8,12.805"
         style="fill:#231f20;fill-opacity:1;fill-rule:nonzero;stroke:none"
         id="path36" /><path
         d="m 1563.6,375.809 14.57,0 0,-12.965 0.32,0 c 4.48,9.281 15.36,14.886 26.73,14.886 21.12,0 30.57,-13.125 30.57,-35.05 l 0,-48.504 -15.04,0 0,42.258 c 0,19.046 -4.16,28.336 -17.29,29.129 -17.13,0 -24.81,-13.762 -24.81,-33.614 l 0,-37.773 -15.05,0 0,81.633"
         style="fill:#231f20;fill-opacity:1;fill-rule:nonzero;stroke:none"
         id="path38" /><path
         d="m 1694.5,304.422 c 16.97,0 24.01,16.805 24.01,30.41 0,15.207 -7.84,30.731 -24.17,30.731 -16.33,0 -22.73,-15.368 -22.41,-30.247 -0.32,-12.808 6.41,-30.894 22.57,-30.894 z m 24.65,1.277 -0.33,0 c -3.99,-6.078 -13.28,-13.441 -27.84,-13.441 -24.66,0 -35.06,21.93 -35.06,44.176 0,21.925 11.53,41.296 35.22,41.296 14.25,0 22.41,-5.605 27.05,-13.125 l 0.32,0 0,49.622 15.04,0 0,-120.051 -14.4,0 0,11.523"
         style="fill:#231f20;fill-opacity:1;fill-rule:nonzero;stroke:none"
         id="path40" /><path
         d="m 1753.04,310.184 c 5.93,-3.844 14.42,-5.762 18.73,-5.762 6.89,0 15.37,2.879 15.37,11.683 0,14.887 -35.38,13.606 -35.38,36.497 0,16.964 12.65,25.128 28.82,25.128 7.04,0 12.8,-1.437 18.72,-3.203 l -1.28,-13.125 c -3.36,2.082 -12.32,4.161 -15.84,4.161 -7.68,0 -14.41,-3.2 -14.41,-9.922 0,-16.645 35.38,-11.844 35.38,-37.934 0,-17.445 -13.93,-25.449 -28.5,-25.449 -7.68,0 -15.52,0.801 -22.41,4.48 l 0.8,13.446"
         style="fill:#231f20;fill-opacity:1;fill-rule:nonzero;stroke:none"
         id="path42" /><path
         d="m 1874.18,342.836 c 0,12.484 -7.36,22.727 -20.32,22.727 -14.72,0 -20.81,-12.161 -21.93,-22.727 l 42.25,0 z m 9.77,-45.301 c -5.76,-2.078 -12.32,-5.277 -25.77,-5.277 -28.98,0 -42.26,17.605 -42.26,44.176 0,24.168 15.21,41.296 38.25,41.296 27.22,0 36.02,-19.847 36.02,-46.097 l -58.26,0 c 0,-16.168 12.65,-27.211 26.89,-27.211 9.93,0 21.45,5.121 25.13,8.164 l 0,-15.051"
         style="fill:#231f20;fill-opacity:1;fill-rule:nonzero;stroke:none"
         id="path44" /><path
         d="m 2004.26,306.34 c 25.77,0 36.82,21.449 36.82,43.699 0,22.731 -12.17,43.859 -36.82,43.699 -24.65,0.16 -36.81,-20.968 -36.81,-43.699 0,-22.25 11.04,-43.699 36.81,-43.699 z m 0,101.484 c 33.94,0 53.78,-24.652 53.78,-57.785 0,-33.934 -19.69,-57.781 -53.78,-57.781 -34.09,0 -53.78,23.847 -53.78,57.781 0,33.133 19.85,57.785 53.78,57.785"
         style="fill:#231f20;fill-opacity:1;fill-rule:nonzero;stroke:none"
         id="path46" /><path
         d="m 2079.28,375.809 14.09,0 0,-12.645 0.32,0 c 4,8.484 12.64,14.566 21.29,14.566 4.48,0 6.72,-0.48 9.93,-1.121 l 0,-13.445 c -2.73,1.121 -5.76,1.441 -8.33,1.441 -13.45,0 -22.25,-12.804 -22.25,-33.292 l 0,-37.137 -15.05,0 0,81.633"
         style="fill:#231f20;fill-opacity:1;fill-rule:nonzero;stroke:none"
         id="path48" /><path
         d="m 2198.67,334.035 c 0,16.961 -7.84,31.528 -23.85,31.528 -15.22,0 -22.73,-16.485 -22.73,-30.411 0,-15.367 8.64,-28.812 22.73,-28.812 14.08,0 23.85,12.484 23.85,27.695 z m 15.04,-36.34 c 0,-24.808 -12.81,-39.05 -42.09,-39.05 -8.65,0 -16.18,1.117 -29.3,5.601 l 1.6,13.926 c 11.52,-5.285 18.41,-7.363 29.45,-7.363 15.85,0 25.3,10.722 25.3,28.011 l 0,8.004 -0.33,0 c -6.4,-8.488 -16.96,-12.648 -27.37,-12.648 -23.37,0 -34.89,19.051 -34.89,40.176 0,20.968 11.84,43.378 36.49,43.378 14.41,0 22.42,-5.281 26.9,-14.085 l 0.31,0 0,12.164 13.93,0 0,-78.114"
         style="fill:#231f20;fill-opacity:1;fill-rule:nonzero;stroke:none"
         id="path50" /><path
         d="m 2287.79,333.074 c -3.2,0 -6.41,0.317 -9.61,0.317 -8.17,0 -28.33,-1.282 -28.33,-15.684 0,-8.641 8.32,-13.285 15.2,-13.285 14.89,0 22.74,9.281 22.74,21.449 l 0,7.203 z m -44.66,36.973 c 7.52,4.48 16.48,7.683 26.88,7.683 23.37,0 32.82,-11.523 32.82,-33.773 l 0,-33.773 c 0,-9.282 0.32,-13.606 0.64,-16.008 l -14.08,0 0,10.566 -0.32,0 c -3.53,-4.965 -11.53,-12.484 -25.3,-12.484 -17.6,0 -29.93,7.68 -29.93,25.449 0,20.488 22.42,26.891 37.94,26.891 5.92,0 10.08,0 16.01,-0.321 0,14.082 -5.13,21.286 -20.18,21.286 -8.47,0 -17.6,-3.2 -23.68,-8.321 l -0.8,12.805"
         style="fill:#231f20;fill-opacity:1;fill-rule:nonzero;stroke:none"
         id="path52" /><path
         d="m 2328.24,375.809 14.57,0 0,-12.965 0.32,0 c 4.48,9.281 15.36,14.886 26.73,14.886 21.12,0 30.56,-13.125 30.56,-35.05 l 0,-48.504 -15.03,0 0,42.258 c 0,19.046 -4.16,28.336 -17.29,29.129 -17.13,0 -24.81,-13.762 -24.81,-33.614 l 0,-37.773 -15.05,0 0,81.633"
         style="fill:#231f20;fill-opacity:1;fill-rule:nonzero;stroke:none"
         id="path54" /><path
         d="m 2427.92,375.809 15.05,0 0,-81.633 -15.05,0 0,81.633 z m 16.01,18.246 -16.96,0 0,16.968 16.96,0 0,-16.968"
         style="fill:#231f20;fill-opacity:1;fill-rule:nonzero;stroke:none"
         id="path56" /><path
         d="m 2464.39,310.184 c 5.93,-3.844 14.41,-5.762 18.73,-5.762 6.89,0 15.37,2.879 15.37,11.683 0,14.887 -35.38,13.606 -35.38,36.497 0,16.964 12.65,25.128 28.82,25.128 7.04,0 12.8,-1.437 18.72,-3.203 l -1.28,-13.125 c -3.36,2.082 -12.32,4.161 -15.84,4.161 -7.69,0 -14.41,-3.2 -14.41,-9.922 0,-16.645 35.38,-11.844 35.38,-37.934 0,-17.445 -13.93,-25.449 -28.5,-25.449 -7.68,0 -15.53,0.801 -22.41,4.48 l 0.8,13.446"
         style="fill:#231f20;fill-opacity:1;fill-rule:nonzero;stroke:none"
         id="path58" /><path
         d="m 2581.23,333.074 c -3.21,0 -6.41,0.317 -9.61,0.317 -8.17,0 -28.33,-1.282 -28.33,-15.684 0,-8.641 8.32,-13.285 15.2,-13.285 14.88,0 22.74,9.281 22.74,21.449 l 0,7.203 z m -44.66,36.973 c 7.52,4.48 16.48,7.683 26.88,7.683 23.37,0 32.81,-11.523 32.81,-33.773 l 0,-33.773 c 0,-9.282 0.33,-13.606 0.65,-16.008 l -14.08,0 0,10.566 -0.32,0 c -3.53,-4.965 -11.53,-12.484 -25.3,-12.484 -17.61,0 -29.93,7.68 -29.93,25.449 0,20.488 22.41,26.891 37.94,26.891 5.92,0 10.08,0 16.01,-0.321 0,14.082 -5.13,21.286 -20.18,21.286 -8.48,0 -17.61,-3.2 -23.68,-8.321 l -0.8,12.805"
         style="fill:#231f20;fill-opacity:1;fill-rule:nonzero;stroke:none"
         id="path60" /><path
         d="m 2665.05,363.645 -21.61,0 0,-44.661 c 0,-9.441 5.76,-14.562 12.65,-14.562 4.65,0 8.01,1.437 10.24,2.879 l 0,-12.801 c -3.36,-0.965 -7.99,-2.242 -12.8,-2.242 -15.53,0 -25.13,7.363 -25.13,23.687 l 0,47.7 -18.4,0 0,12.164 18.4,0 0,18.89 15.04,4.801 0,-23.691 21.61,0 0,-12.164"
         style="fill:#231f20;fill-opacity:1;fill-rule:nonzero;stroke:none"
         id="path62" /><path
         d="m 2685.84,375.809 15.04,0 0,-81.633 -15.04,0 0,81.633 z m 16,18.246 -16.96,0 0,16.968 16.96,0 0,-16.968"
         style="fill:#231f20;fill-opacity:1;fill-rule:nonzero;stroke:none"
         id="path64" /><path
         d="m 2781.22,342.836 c 0,12.484 -7.37,22.727 -20.33,22.727 -14.72,0 -20.81,-12.161 -21.93,-22.727 l 42.26,0 z m 9.76,-45.301 c -5.76,-2.078 -12.32,-5.277 -25.77,-5.277 -28.97,0 -42.26,17.605 -42.26,44.176 0,24.168 15.21,41.296 38.26,41.296 27.21,0 36.01,-19.847 36.01,-46.097 l -58.26,0 c 0,-16.168 12.65,-27.211 26.89,-27.211 9.93,0 21.45,5.121 25.13,8.164 l 0,-15.051"
         style="fill:#231f20;fill-opacity:1;fill-rule:nonzero;stroke:none"
         id="path66" /><path
         d="m 1012.91,84.1758 -17.93,0 -29.292,81.6332 16.484,0 22.088,-66.5863 0.32,0 22.57,66.5863 15.05,0 -29.29,-81.6332"
         style="fill:#231f20;fill-opacity:1;fill-rule:nonzero;stroke:none"
         id="path68" /><path
         d="m 1092.91,94.4219 c 17.6,0 25.44,16.0041 25.44,30.5701 0,15.528 -9.44,30.571 -25.44,30.571 -16.17,0 -25.61,-15.043 -25.61,-30.571 0,-14.566 7.84,-30.5701 25.61,-30.5701 z m 0,73.3081 c 24.8,0 41.45,-17.929 41.45,-42.738 0,-23.371 -16.96,-42.7342 -41.45,-42.7342 -24.65,0 -41.62,19.3632 -41.62,42.7342 0,24.809 16.64,42.738 41.62,42.738"
         style="fill:#231f20;fill-opacity:1;fill-rule:nonzero;stroke:none"
         id="path70" /><path
         d="m 1190.66,94.4219 c 17.61,0 25.45,16.0041 25.45,30.5701 0,15.528 -9.44,30.571 -25.45,30.571 -16.16,0 -25.61,-15.043 -25.61,-30.571 0,-14.566 7.85,-30.5701 25.61,-30.5701 z m 0,73.3081 c 24.81,0 41.46,-17.929 41.46,-42.738 0,-23.371 -16.96,-42.7342 -41.46,-42.7342 -24.64,0 -41.61,19.3632 -41.61,42.7342 0,24.809 16.64,42.738 41.61,42.738"
         style="fill:#231f20;fill-opacity:1;fill-rule:nonzero;stroke:none"
         id="path72" /><path
         d="m 1252.25,165.809 14.08,0 0,-12.645 0.33,0 c 3.99,8.484 12.64,14.566 21.28,14.566 4.49,0 6.73,-0.484 9.93,-1.121 l 0,-13.445 c -2.72,1.121 -5.77,1.441 -8.32,1.441 -13.45,0 -22.25,-12.804 -22.25,-33.292 l 0,-37.1372 -15.05,0 0,81.6332"
         style="fill:#231f20;fill-opacity:1;fill-rule:nonzero;stroke:none"
         id="path74" /><path
         d="m 1346.48,195.902 17.61,0 26.73,-95.718 0.32,0 23.85,95.718 22.73,0 24.17,-95.718 0.32,0 26.73,95.718 16.97,0 -34.42,-111.7262 -20.65,0 -24.33,97.6442 -0.31,0 -24.5,-97.6442 -21.45,0 -33.77,111.7262"
         style="fill:#231f20;fill-opacity:1;fill-rule:nonzero;stroke:none"
         id="path76" /><path
         d="m 1566.99,132.836 c 0,12.484 -7.37,22.727 -20.32,22.727 -14.73,0 -20.82,-12.161 -21.94,-22.727 l 42.26,0 z m 9.76,-45.3008 c -5.76,-2.0782 -12.32,-5.2774 -25.77,-5.2774 -28.97,0 -42.25,17.6055 -42.25,44.1762 0,24.168 15.2,41.296 38.25,41.296 27.21,0 36.01,-19.847 36.01,-46.097 l -58.26,0 c 0,-16.168 12.65,-27.2111 26.9,-27.2111 9.92,0 21.44,5.1211 25.12,8.1641 l 0,-15.0508"
         style="fill:#231f20;fill-opacity:1;fill-rule:nonzero;stroke:none"
         id="path78" /><path
         d="m 1646.51,153.645 -21.61,0 0,-44.661 c 0,-9.441 5.76,-14.5621 12.64,-14.5621 4.65,0 8.01,1.4375 10.25,2.8789 l 0,-12.8008 c -3.36,-0.9648 -8,-2.2422 -12.8,-2.2422 -15.53,0 -25.13,7.3633 -25.13,23.6872 l 0,47.7 -18.41,0 0,12.164 18.41,0 0,18.89 15.04,4.801 0,-23.691 21.61,0 0,-12.164"
         style="fill:#231f20;fill-opacity:1;fill-rule:nonzero;stroke:none"
         id="path80" /><path
         d="m 1718.19,132.836 c 0,12.484 -7.36,22.727 -20.32,22.727 -14.73,0 -20.81,-12.161 -21.94,-22.727 l 42.26,0 z m 9.76,-45.3008 c -5.76,-2.0782 -12.32,-5.2774 -25.77,-5.2774 -28.97,0 -42.25,17.6055 -42.25,44.1762 0,24.168 15.2,41.296 38.25,41.296 27.22,0 36.01,-19.847 36.01,-46.097 l -58.26,0 c 0,-16.168 12.65,-27.2111 26.9,-27.2111 9.92,0 21.44,5.1211 25.12,8.1641 l 0,-15.0508"
         style="fill:#231f20;fill-opacity:1;fill-rule:nonzero;stroke:none"
         id="path82" /><path
         d="m 1754.32,165.809 14.57,0 0,-12.965 0.32,0 c 4.49,9.281 15.37,14.886 26.73,14.886 21.13,0 30.57,-13.125 30.57,-35.05 l 0,-48.5042 -15.04,0 0,42.2582 c 0,19.046 -4.16,28.336 -17.29,29.129 -17.12,0 -24.81,-13.762 -24.81,-33.614 l 0,-37.7732 -15.05,0 0,81.6332"
         style="fill:#231f20;fill-opacity:1;fill-rule:nonzero;stroke:none"
         id="path84" /><path
         d="m 1846,100.184 c 5.93,-3.8442 14.42,-5.7621 18.73,-5.7621 6.89,0 15.37,2.8789 15.37,11.6831 0,14.887 -35.38,13.606 -35.38,36.497 0,16.964 12.65,25.128 28.82,25.128 7.04,0 12.8,-1.441 18.72,-3.203 l -1.28,-13.125 c -3.36,2.082 -12.32,4.161 -15.85,4.161 -7.67,0 -14.4,-3.2 -14.4,-9.922 0,-16.645 35.38,-11.844 35.38,-37.934 0,-17.4453 -13.93,-25.4492 -28.5,-25.4492 -7.68,0 -15.52,0.8008 -22.41,4.4805 l 0.8,13.4457"
         style="fill:#231f20;fill-opacity:1;fill-rule:nonzero;stroke:none"
         id="path86" /><path
         d="m 1966.19,152.043 c -5.77,2.402 -11.53,3.52 -16.33,3.52 -16.81,0 -26.25,-15.043 -26.25,-30.571 0,-14.566 7.84,-30.5701 27.21,-30.5701 5.12,0 11.52,1.6015 16.17,4.6445 l 1.11,-13.4492 c -6.24,-2.8828 -13.44,-3.3594 -18.89,-3.3594 -24.64,0 -41.61,19.3632 -41.61,42.7342 0,24.809 16.64,42.738 41.61,42.738 6.09,0 13.93,-1.441 18.26,-3.203 l -1.28,-12.484"
         style="fill:#231f20;fill-opacity:1;fill-rule:nonzero;stroke:none"
         id="path88" /><path
         d="m 1985.36,204.227 15.05,0 0,-50.106 0.32,0 c 5.44,8.649 14.88,13.609 26.25,13.609 21.12,0 30.56,-13.125 30.56,-35.05 l 0,-48.5042 -15.03,0 0,42.2582 c 0,19.046 -4.17,28.336 -17.29,29.129 -17.13,0 -24.81,-13.762 -24.81,-33.614 l 0,-37.7732 -15.05,0 0,120.0512"
         style="fill:#231f20;fill-opacity:1;fill-rule:nonzero;stroke:none"
         id="path90" /><path
         d="m 2131.63,123.074 c -3.21,0 -6.41,0.317 -9.61,0.317 -8.17,0 -28.33,-1.282 -28.33,-15.684 0,-8.6406 8.32,-13.2851 15.2,-13.2851 14.88,0 22.74,9.2811 22.74,21.4491 l 0,7.203 z m -44.66,36.973 c 7.52,4.48 16.48,7.683 26.88,7.683 23.37,0 32.82,-11.523 32.82,-33.773 l 0,-33.773 c 0,-9.2817 0.32,-13.6059 0.64,-16.0082 l -14.08,0 0,10.5664 -0.32,0 c -3.53,-4.9649 -11.53,-12.4844 -25.3,-12.4844 -17.6,0 -29.93,7.6797 -29.93,25.4492 0,20.488 22.41,26.891 37.94,26.891 5.92,0 10.08,0 16.01,-0.321 0,14.082 -5.13,21.286 -20.18,21.286 -8.48,0 -17.61,-3.2 -23.68,-8.321 l -0.8,12.805"
         style="fill:#231f20;fill-opacity:1;fill-rule:nonzero;stroke:none"
         id="path92" /><path
         d="m 2211.29,155.563 c -16.32,0 -24.17,-15.524 -24.17,-30.731 0,-13.605 7.05,-30.4101 24.02,-30.4101 16.16,0 22.88,18.0861 22.57,30.8941 0.31,14.723 -6.09,30.247 -22.42,30.247 z m -39.21,10.246 14.4,0 0,-11.524 0.32,0 c 4.01,6.082 13.29,13.445 27.7,13.445 23.69,0 35.21,-19.371 35.21,-41.296 0,-22.407 -10.41,-44.1762 -35.06,-44.1762 -14.4,0 -22.56,5.6016 -27.2,13.125 l -0.33,0 0,-44.8203 -15.04,0 0,115.2465"
         style="fill:#231f20;fill-opacity:1;fill-rule:nonzero;stroke:none"
         id="path94" /><path
         d="m 2309.06,155.563 c -16.33,0 -24.17,-15.524 -24.17,-30.731 0,-13.605 7.04,-30.4101 24.01,-30.4101 16.16,0 22.88,18.0861 22.57,30.8941 0.31,14.723 -6.08,30.247 -22.41,30.247 z m -39.22,10.246 14.4,0 0,-11.524 0.33,0 c 4,6.082 13.29,13.445 27.69,13.445 23.69,0 35.22,-19.371 35.22,-41.296 0,-22.407 -10.41,-44.1762 -35.06,-44.1762 -14.41,0 -22.57,5.6016 -27.21,13.125 l -0.32,0 0,-44.8203 -15.05,0 0,115.2465"
         style="fill:#231f20;fill-opacity:1;fill-rule:nonzero;stroke:none"
         id="path96" /><path
         d="m 2420.42,132.836 c 0,12.484 -7.37,22.727 -20.33,22.727 -14.72,0 -20.81,-12.161 -21.93,-22.727 l 42.26,0 z m 9.76,-45.3008 c -5.76,-2.0782 -12.32,-5.2774 -25.77,-5.2774 -28.98,0 -42.26,17.6055 -42.26,44.1762 0,24.168 15.21,41.296 38.26,41.296 27.21,0 36.01,-19.847 36.01,-46.097 l -58.26,0 c 0,-16.168 12.65,-27.2111 26.89,-27.2111 9.93,0 21.45,5.1211 25.13,8.1641 l 0,-15.0508"
         style="fill:#231f20;fill-opacity:1;fill-rule:nonzero;stroke:none"
         id="path98" /><path
         d="m 2458.48,84.1758 15.0508,0 0,120.051 -15.0508,0 0,-120.051 z"
         style="fill:#231f20;fill-opacity:1;fill-rule:nonzero;stroke:none"
         id="path100" /><path
         d="m 2502.96,165.809 15.05,0 0,-81.6332 -15.05,0 0,81.6332 z m 16.01,18.246 -16.96,0 0,16.968 16.96,0 0,-16.968"
         style="fill:#231f20;fill-opacity:1;fill-rule:nonzero;stroke:none"
         id="path102" /><path
         d="m 2563.44,184.055 -16.96,0 0,16.968 16.96,0 0,-16.968 z M 2530.63,62.2461 c 1.92,-0.3203 3.2,-0.4766 6.08,-0.4766 7.05,0 10.73,6.7188 10.73,17.2852 l 0,86.7543 15.05,0 0,-84.5121 c 0,-11.8477 -0.49,-32.6524 -23.06,-32.6524 -3.19,0 -7.2,0.1563 -9.28,0.6407 l 0.48,12.9609"
         style="fill:#231f20;fill-opacity:1;fill-rule:nonzero;stroke:none"
         id="path104" /><path
         d="m 2590,204.227 15.04,0 0,-71.547 32.82,33.129 20.49,0 -37.94,-36.172 42.74,-45.4612 -21.61,0 -36.5,41.9372 0,-41.9372 -15.04,0 0,120.0512"
         style="fill:#231f20;fill-opacity:1;fill-rule:nonzero;stroke:none"
         id="path106" /><path
         d="m 2772.9,96.3398 c 25.77,0 36.81,21.4492 36.81,43.6992 0,22.731 -12.17,43.859 -36.81,43.699 -24.65,0.16 -36.82,-20.968 -36.82,-43.699 0,-22.25 11.04,-43.6992 36.82,-43.6992 z m 0,101.4842 c 33.93,0 53.78,-24.652 53.78,-57.785 0,-33.934 -19.69,-57.7812 -53.78,-57.7812 -34.1,0 -53.78,23.8472 -53.78,57.7812 0,33.133 19.84,57.785 53.78,57.785"
         style="fill:#231f20;fill-opacity:1;fill-rule:nonzero;stroke:none"
         id="path108" /><path
         d="m 2847.92,165.809 14.57,0 0,-12.965 0.32,0 c 4.48,9.281 15.36,14.886 26.73,14.886 21.12,0 30.56,-13.125 30.56,-35.05 l 0,-48.5042 -15.04,0 0,42.2582 c 0,19.046 -4.16,28.336 -17.28,29.129 -17.13,0 -24.82,-13.762 -24.82,-33.614 l 0,-37.7732 -15.04,0 0,81.6332"
         style="fill:#231f20;fill-opacity:1;fill-rule:nonzero;stroke:none"
         id="path110" /><path
         d="m 2978.8,94.4219 c 16.98,0 24.02,16.8051 24.02,30.4101 0,15.207 -7.84,30.731 -24.17,30.731 -16.33,0 -22.74,-15.368 -22.41,-30.247 -0.33,-12.808 6.4,-30.8941 22.56,-30.8941 z m 24.65,1.2773 -0.32,0 c -3.99,-6.0781 -13.28,-13.4414 -27.84,-13.4414 -24.66,0 -35.06,21.9302 -35.06,44.1762 0,21.925 11.52,41.296 35.21,41.296 14.25,0 22.42,-5.605 27.06,-13.125 l 0.32,0 0,49.622 15.04,0 0,-120.0512 -14.41,0 0,11.5234"
         style="fill:#231f20;fill-opacity:1;fill-rule:nonzero;stroke:none"
         id="path112" /><path
         d="m 3096.26,132.836 c 0,12.484 -7.37,22.727 -20.33,22.727 -14.72,0 -20.81,-12.161 -21.93,-22.727 l 42.26,0 z m 9.76,-45.3008 c -5.76,-2.0782 -12.32,-5.2774 -25.77,-5.2774 -28.98,0 -42.26,17.6055 -42.26,44.1762 0,24.168 15.21,41.296 38.26,41.296 27.21,0 36.01,-19.847 36.01,-46.097 l -58.26,0 c 0,-16.168 12.65,-27.2111 26.89,-27.2111 9.93,0 21.45,5.1211 25.13,8.1641 l 0,-15.0508"
         style="fill:#231f20;fill-opacity:1;fill-rule:nonzero;stroke:none"
         id="path114" /><path
         d="m 3132.39,165.809 14.09,0 0,-12.645 0.31,0 c 4.01,8.484 12.65,14.566 21.29,14.566 4.48,0 6.73,-0.484 9.93,-1.121 l 0,-13.445 c -2.72,1.121 -5.76,1.441 -8.33,1.441 -13.44,0 -22.24,-12.804 -22.24,-33.292 l 0,-37.1372 -15.05,0 0,81.6332"
         style="fill:#231f20;fill-opacity:1;fill-rule:nonzero;stroke:none"
         id="path116" /><path
         d="m 3188.72,97.3008 47.06,56.3442 -44.83,0 0,12.164 62.27,0 0,-13.125 -47.06,-56.3442 48.83,0 0,-12.164 -66.27,0 0,13.125"
         style="fill:#231f20;fill-opacity:1;fill-rule:nonzero;stroke:none"
         id="path118" /><path
         d="m 3310.82,94.4219 c 17.59,0 25.44,16.0041 25.44,30.5701 0,15.528 -9.44,30.571 -25.44,30.571 -16.18,0 -25.62,-15.043 -25.62,-30.571 0,-14.566 7.84,-30.5701 25.62,-30.5701 z m 0,73.3081 c 24.8,0 41.45,-17.929 41.45,-42.738 0,-23.371 -16.97,-42.7342 -41.45,-42.7342 -24.66,0 -41.63,19.3632 -41.63,42.7342 0,24.809 16.66,42.738 41.63,42.738"
         style="fill:#231f20;fill-opacity:1;fill-rule:nonzero;stroke:none"
         id="path120" /><path
         d="m 3425.21,132.836 c 0,12.484 -7.36,22.727 -20.32,22.727 -14.73,0 -20.81,-12.161 -21.94,-22.727 l 42.26,0 z m 9.77,-45.3008 c -5.77,-2.0782 -12.33,-5.2774 -25.78,-5.2774 -28.97,0 -42.25,17.6055 -42.25,44.1762 0,24.168 15.2,41.296 38.25,41.296 27.22,0 36.02,-19.847 36.02,-46.097 l -58.27,0 c 0,-16.168 12.65,-27.2111 26.9,-27.2111 9.92,0 21.44,5.1211 25.13,8.1641 l 0,-15.0508"
         style="fill:#231f20;fill-opacity:1;fill-rule:nonzero;stroke:none"
         id="path122" /><path
         d="m 3461.35,204.227 15.05,0 0,-71.547 32.81,33.129 20.49,0 -37.94,-36.172 42.75,-45.4612 -21.61,0 -36.5,41.9372 0,-41.9372 -15.05,0 0,120.0512"
         style="fill:#231f20;fill-opacity:1;fill-rule:nonzero;stroke:none"
         id="path124" /></g></g></svg>