<?xml version="1.0" encoding="UTF-8" standalone="no"?>
<!-- Created with Inkscape (http://www.inkscape.org/) -->

<svg
   xmlns:dc="http://purl.org/dc/elements/1.1/"
   xmlns:cc="http://creativecommons.org/ns#"
   xmlns:rdf="http://www.w3.org/1999/02/22-rdf-syntax-ns#"
   xmlns:svg="http://www.w3.org/2000/svg"
   xmlns="http://www.w3.org/2000/svg"
   xmlns:sodipodi="http://sodipodi.sourceforge.net/DTD/sodipodi-0.dtd"
   xmlns:inkscape="http://www.inkscape.org/namespaces/inkscape"
   id="svg2"
   version="1.1"
   inkscape:version="0.48.5 r10040"
   width="358.95"
   height="59.2875"
   xml:space="preserve"
   sodipodi:docname="NWO_UK_CMYK.eps"><metadata
     id="metadata8"><rdf:RDF><cc:Work
         rdf:about=""><dc:format>image/svg+xml</dc:format><dc:type
           rdf:resource="http://purl.org/dc/dcmitype/StillImage" /><dc:title></dc:title></cc:Work></rdf:RDF></metadata><defs
     id="defs6" /><sodipodi:namedview
     pagecolor="#ffffff"
     bordercolor="#666666"
     borderopacity="1"
     objecttolerance="10"
     gridtolerance="10"
     guidetolerance="10"
     inkscape:pageopacity="0"
     inkscape:pageshadow="2"
     inkscape:window-width="1920"
     inkscape:window-height="1011"
     id="namedview4"
     showgrid="false"
     inkscape:zoom="1.0558573"
     inkscape:cx="179.47501"
     inkscape:cy="29.643749"
     inkscape:window-x="-8"
     inkscape:window-y="-8"
     inkscape:window-maximized="1"
     inkscape:current-layer="g10" /><g
     id="g10"
     inkscape:groupmode="layer"
     inkscape:label="ink_ext_XXXXXX"
     transform="matrix(1.25,0,0,-1.25,0,59.2875)"><g
       id="g12"
       transform="scale(0.1,0.1)"><path
         d="m 572.27,316.672 0,8.094 c 21.054,14.789 34.96,24.601 38.691,45.871 1.461,8.25 -0.852,18.504 -7.91,27.508 -19.223,24.601 -63.68,38.183 -103.063,45.148 -193.781,34.172 -378.406,-37.461 -392.375,-43.527 l -0.011,5.441 c 16.515,9.598 227.203,96.121 430.328,60.293 39.293,-6.914 75.922,-18.211 96.011,-43.914 7.918,-10.168 10.528,-21.035 8.715,-31.359 -4.801,-27.215 -42.015,-57.454 -70.386,-73.555 l 0,0"
         style="fill:#ed1c24;fill-opacity:1;fill-rule:nonzero;stroke:none"
         id="path14" /><path
         d="m 669.449,293.723 c 44.645,0 79.102,-35.215 79.102,-80.547 0,-46.867 -34.457,-82.11 -80,-82.11 -45.254,0 -79.406,34.598 -79.406,80.86 0,47.508 33.554,81.797 80.304,81.797 l 0,0 z m -1.191,28.945 c -63.223,0 -109.367,-46.563 -109.367,-110.742 0,-62.617 46.144,-109.492 107.851,-109.492 64.418,0 111.77,46.55 111.77,110.125 0,63.234 -47.051,110.109 -110.254,110.109 l 0,0"
         style="fill:#ed1c24;fill-opacity:1;fill-rule:evenodd;stroke:none"
         id="path16" /><path
         d="m 189.359,319.848 -27.855,0 0,-166.426 -137.8477,166.426 -23.6563,0 0,-214.563 27.5586,0 0,165.156 136.6324,-165.156 25.168,0 0,214.563"
         style="fill:#231f20;fill-opacity:1;fill-rule:evenodd;stroke:none"
         id="path18" /><path
         d="M 495.902,240.559 C 466.703,189.25 358.695,83.6055 358.695,83.6055 l -10.668,0 c 34.77,60.4885 47.504,157.1365 50.395,159.5705 l -0.539,1.297 c 0,0 -23.317,-46.27 -72.766,-96.524 C 276.84,98.8477 257.914,83.6055 257.914,83.6055 l -11.551,0 c 36.801,69.3165 60.395,146.6285 60.395,185.7615 0,11.25 -1.504,18.563 -7.692,18.563 -14.211,0 -29.382,-24.539 -37.777,-42.899 l -11.766,0 c 15.86,35.379 54.239,81.668 77.278,81.668 13.097,0 18.16,-16.133 18.16,-29.988 0,-72.625 -51.301,-167.227 -55.172,-171.074 0,-1.375 1.75,-0.989 1.75,-0.989 2.488,9.915 43.297,45.09 77.012,97.168 33.262,51.379 59.187,107.872 61.621,107.872 0.844,0.824 5.801,-9.004 5.801,-32.977 0,-82.734 -39.981,-161.875 -48.789,-171.32 0,-0.758 0.699,-1.075 1.328,-0.957 3.59,8.379 38.855,43.285 60.937,72.472 8.211,10.852 42.137,55.645 39.301,95.672 0,0 4.535,9.485 20.258,25.207 0,0 10.887,10.781 17.14,10.781 3.278,0 3.278,-7.882 3.278,-7.882 0,-25.829 -26.535,-67.848 -33.524,-80.125 l 0,0"
         style="fill:#231f20;fill-opacity:1;fill-rule:nonzero;stroke:none"
         id="path20" /><path
         d="m 854.465,0 10.4102,0 0,474.27 -10.4102,0 0,-474.27 z"
         style="fill:#231f20;fill-opacity:1;fill-rule:nonzero;stroke:none"
         id="path22" /><path
         d="m 978.012,405.902 21.769,0 49.299,-89.957 0.32,0 0,89.957 16.01,0 0,-111.726 -20.49,0 -50.584,91.875 -0.316,0 0,-91.875 -16.008,0 0,111.726"
         style="fill:#231f20;fill-opacity:1;fill-rule:nonzero;stroke:none"
         id="path24" /><path
         d="m 1145.07,342.836 c 0,12.484 -7.36,22.727 -20.33,22.727 -14.73,0 -20.8,-12.161 -21.93,-22.727 l 42.26,0 z m 9.76,-45.301 c -5.76,-2.078 -12.32,-5.277 -25.77,-5.277 -28.97,0 -42.25,17.605 -42.25,44.176 0,24.168 15.2,41.296 38.25,41.296 27.21,0 36.01,-19.847 36.01,-46.097 l -58.26,0 c 0,-16.168 12.65,-27.211 26.89,-27.211 9.93,0 21.45,5.121 25.13,8.164 l 0,-15.051"
         style="fill:#231f20;fill-opacity:1;fill-rule:nonzero;stroke:none"
         id="path26" /><path
         d="m 1224.59,363.645 -21.61,0 0,-44.661 c 0,-9.441 5.76,-14.562 12.64,-14.562 4.64,0 8.01,1.437 10.24,2.879 l 0,-12.801 c -3.35,-0.965 -8,-2.242 -12.8,-2.242 -15.53,0 -25.13,7.363 -25.13,23.687 l 0,47.7 -18.41,0 0,12.164 18.41,0 0,18.89 15.05,4.801 0,-23.691 21.61,0 0,-12.164"
         style="fill:#231f20;fill-opacity:1;fill-rule:nonzero;stroke:none"
         id="path28" /><path
         d="m 1243.44,414.227 15.05,0 0,-50.106 0.32,0 c 5.44,8.649 14.89,13.609 26.25,13.609 21.13,0 30.57,-13.125 30.57,-35.05 l 0,-48.504 -15.04,0 0,42.258 c 0,19.046 -4.16,28.336 -17.29,29.129 -17.13,0 -24.81,-13.762 -24.81,-33.614 l 0,-37.773 -15.05,0 0,120.051"
         style="fill:#231f20;fill-opacity:1;fill-rule:nonzero;stroke:none"
         id="path30" /><path
         d="m 1394.03,342.836 c 0,12.484 -7.36,22.727 -20.33,22.727 -14.73,0 -20.8,-12.161 -21.93,-22.727 l 42.26,0 z m 9.76,-45.301 c -5.76,-2.078 -12.32,-5.277 -25.77,-5.277 -28.97,0 -42.25,17.605 -42.25,44.176 0,24.168 15.2,41.296 38.25,41.296 27.21,0 36.01,-19.847 36.01,-46.097 l -58.26,0 c 0,-16.168 12.65,-27.211 26.89,-27.211 9.93,0 21.45,5.121 25.13,8.164 l 0,-15.051"
         style="fill:#231f20;fill-opacity:1;fill-rule:nonzero;stroke:none"
         id="path32" /><path
         d="m 1430.16,375.809 14.09,0 0,-12.645 0.32,0 c 4,8.484 12.65,14.566 21.29,14.566 4.48,0 6.72,-0.48 9.92,-1.121 l 0,-13.445 c -2.72,1.121 -5.76,1.441 -8.32,1.441 -13.45,0 -22.25,-12.804 -22.25,-33.292 l 0,-37.137 -15.05,0 0,81.633"
         style="fill:#231f20;fill-opacity:1;fill-rule:nonzero;stroke:none"
         id="path34" /><path
         d="m 1494.33,294.176 15.043,0 0,120.051 -15.043,0 0,-120.051 z"
         style="fill:#231f20;fill-opacity:1;fill-rule:nonzero;stroke:none"
         id="path36" /><path
         d="m 1585.39,333.074 c -3.21,0 -6.41,0.317 -9.61,0.317 -8.17,0 -28.33,-1.282 -28.33,-15.684 0,-8.641 8.32,-13.285 15.2,-13.285 14.88,0 22.74,9.281 22.74,21.449 l 0,7.203 z m -44.66,36.973 c 7.52,4.48 16.48,7.683 26.88,7.683 23.37,0 32.81,-11.523 32.81,-33.773 l 0,-33.773 c 0,-9.282 0.33,-13.606 0.65,-16.008 l -14.08,0 0,10.566 -0.32,0 c -3.53,-4.965 -11.53,-12.484 -25.3,-12.484 -17.61,0 -29.93,7.68 -29.93,25.449 0,20.488 22.41,26.891 37.94,26.891 5.92,0 10.08,0 16.01,-0.321 0,14.082 -5.13,21.286 -20.18,21.286 -8.48,0 -17.61,-3.2 -23.68,-8.321 l -0.8,12.805"
         style="fill:#231f20;fill-opacity:1;fill-rule:nonzero;stroke:none"
         id="path38" /><path
         d="m 1625.84,375.809 14.58,0 0,-12.965 0.32,0 c 4.48,9.281 15.36,14.886 26.73,14.886 21.12,0 30.56,-13.125 30.56,-35.05 l 0,-48.504 -15.04,0 0,42.258 c 0,19.046 -4.16,28.336 -17.28,29.129 -17.13,0 -24.82,-13.762 -24.82,-33.614 l 0,-37.773 -15.05,0 0,81.633"
         style="fill:#231f20;fill-opacity:1;fill-rule:nonzero;stroke:none"
         id="path40" /><path
         d="m 1756.73,304.422 c 16.98,0 24.02,16.805 24.02,30.41 0,15.207 -7.84,30.731 -24.17,30.731 -16.33,0 -22.74,-15.368 -22.41,-30.247 -0.33,-12.808 6.4,-30.894 22.56,-30.894 z m 24.65,1.277 -0.32,0 c -3.99,-6.078 -13.28,-13.441 -27.84,-13.441 -24.66,0 -35.06,21.93 -35.06,44.176 0,21.925 11.52,41.296 35.21,41.296 14.25,0 22.42,-5.605 27.05,-13.125 l 0.33,0 0,49.622 15.04,0 0,-120.051 -14.41,0 0,11.523"
         style="fill:#231f20;fill-opacity:1;fill-rule:nonzero;stroke:none"
         id="path42" /><path
         d="m 1815.28,310.184 c 5.93,-3.844 14.41,-5.762 18.73,-5.762 6.88,0 15.37,2.879 15.37,11.683 0,14.887 -35.38,13.606 -35.38,36.497 0,16.964 12.65,25.128 28.82,25.128 7.04,0 12.8,-1.437 18.72,-3.203 l -1.28,-13.125 c -3.36,2.082 -12.33,4.161 -15.85,4.161 -7.68,0 -14.4,-3.2 -14.4,-9.922 0,-16.645 35.38,-11.844 35.38,-37.934 0,-17.445 -13.93,-25.449 -28.5,-25.449 -7.69,0 -15.53,0.801 -22.41,4.48 l 0.8,13.446"
         style="fill:#231f20;fill-opacity:1;fill-rule:nonzero;stroke:none"
         id="path44" /><path
         d="m 1977.54,306.34 c 25.78,0 36.82,21.449 36.82,43.699 0,22.731 -12.17,43.859 -36.82,43.699 -24.64,0.16 -36.81,-20.968 -36.81,-43.699 0,-22.25 11.04,-43.699 36.81,-43.699 z m 0,101.484 c 33.94,0 53.78,-24.652 53.78,-57.785 0,-33.934 -19.68,-57.781 -53.78,-57.781 -34.09,0 -53.78,23.847 -53.78,57.781 0,33.133 19.85,57.785 53.78,57.785"
         style="fill:#231f20;fill-opacity:1;fill-rule:nonzero;stroke:none"
         id="path46" /><path
         d="m 2052.56,375.809 14.1,0 0,-12.645 0.31,0 c 4,8.484 12.64,14.566 21.29,14.566 4.48,0 6.73,-0.48 9.93,-1.121 l 0,-13.445 c -2.73,1.121 -5.76,1.441 -8.33,1.441 -13.45,0 -22.25,-12.804 -22.25,-33.292 l 0,-37.137 -15.05,0 0,81.633"
         style="fill:#231f20;fill-opacity:1;fill-rule:nonzero;stroke:none"
         id="path48" /><path
         d="m 2171.95,334.035 c 0,16.961 -7.84,31.528 -23.85,31.528 -15.21,0 -22.73,-16.485 -22.73,-30.411 0,-15.367 8.64,-28.812 22.73,-28.812 14.08,0 23.85,12.484 23.85,27.695 z m 15.04,-36.34 c 0,-24.808 -12.81,-39.05 -42.09,-39.05 -8.64,0 -16.17,1.117 -29.3,5.601 l 1.6,13.926 c 11.53,-5.285 18.41,-7.363 29.46,-7.363 15.85,0 25.29,10.722 25.29,28.011 l 0,8.004 -0.32,0 c -6.41,-8.488 -16.97,-12.648 -27.38,-12.648 -23.37,0 -34.89,19.051 -34.89,40.176 0,20.968 11.85,43.378 36.49,43.378 14.41,0 22.42,-5.281 26.9,-14.085 l 0.31,0 0,12.164 13.93,0 0,-78.114"
         style="fill:#231f20;fill-opacity:1;fill-rule:nonzero;stroke:none"
         id="path50" /><path
         d="m 2261.06,333.074 c -3.2,0 -6.41,0.317 -9.61,0.317 -8.16,0 -28.33,-1.282 -28.33,-15.684 0,-8.641 8.32,-13.285 15.21,-13.285 14.88,0 22.73,9.281 22.73,21.449 l 0,7.203 z m -44.66,36.973 c 7.52,4.48 16.49,7.683 26.89,7.683 23.37,0 32.81,-11.523 32.81,-33.773 l 0,-33.773 c 0,-9.282 0.32,-13.606 0.64,-16.008 l -14.08,0 0,10.566 -0.32,0 c -3.53,-4.965 -11.52,-12.484 -25.29,-12.484 -17.61,0 -29.94,7.68 -29.94,25.449 0,20.488 22.42,26.891 37.94,26.891 5.92,0 10.08,0 16.01,-0.321 0,14.082 -5.13,21.286 -20.18,21.286 -8.47,0 -17.6,-3.2 -23.68,-8.321 l -0.8,12.805"
         style="fill:#231f20;fill-opacity:1;fill-rule:nonzero;stroke:none"
         id="path52" /><path
         d="m 2301.52,375.809 14.57,0 0,-12.965 0.32,0 c 4.48,9.281 15.36,14.886 26.73,14.886 21.12,0 30.57,-13.125 30.57,-35.05 l 0,-48.504 -15.04,0 0,42.258 c 0,19.046 -4.16,28.336 -17.29,29.129 -17.13,0 -24.81,-13.762 -24.81,-33.614 l 0,-37.773 -15.05,0 0,81.633"
         style="fill:#231f20;fill-opacity:1;fill-rule:nonzero;stroke:none"
         id="path54" /><path
         d="m 2401.2,375.809 15.05,0 0,-81.633 -15.05,0 0,81.633 z m 16,18.246 -16.96,0 0,16.968 16.96,0 0,-16.968"
         style="fill:#231f20;fill-opacity:1;fill-rule:nonzero;stroke:none"
         id="path56" /><path
         d="m 2437.67,310.184 c 5.93,-3.844 14.42,-5.762 18.73,-5.762 6.89,0 15.37,2.879 15.37,11.683 0,14.887 -35.38,13.606 -35.38,36.497 0,16.964 12.65,25.128 28.82,25.128 7.04,0 12.8,-1.437 18.72,-3.203 l -1.28,-13.125 c -3.36,2.082 -12.32,4.161 -15.84,4.161 -7.68,0 -14.41,-3.2 -14.41,-9.922 0,-16.645 35.38,-11.844 35.38,-37.934 0,-17.445 -13.93,-25.449 -28.5,-25.449 -7.68,0 -15.52,0.801 -22.41,4.48 l 0.8,13.446"
         style="fill:#231f20;fill-opacity:1;fill-rule:nonzero;stroke:none"
         id="path58" /><path
         d="m 2554.5,333.074 c -3.21,0 -6.41,0.317 -9.61,0.317 -8.17,0 -28.33,-1.282 -28.33,-15.684 0,-8.641 8.32,-13.285 15.2,-13.285 14.89,0 22.74,9.281 22.74,21.449 l 0,7.203 z m -44.66,36.973 c 7.52,4.48 16.48,7.683 26.88,7.683 23.37,0 32.82,-11.523 32.82,-33.773 l 0,-33.773 c 0,-9.282 0.32,-13.606 0.64,-16.008 l -14.08,0 0,10.566 -0.32,0 c -3.53,-4.965 -11.53,-12.484 -25.3,-12.484 -17.6,0 -29.93,7.68 -29.93,25.449 0,20.488 22.41,26.891 37.94,26.891 5.92,0 10.08,0 16.01,-0.321 0,14.082 -5.13,21.286 -20.18,21.286 -8.48,0 -17.61,-3.2 -23.68,-8.321 l -0.8,12.805"
         style="fill:#231f20;fill-opacity:1;fill-rule:nonzero;stroke:none"
         id="path60" /><path
         d="m 2638.34,363.645 -21.62,0 0,-44.661 c 0,-9.441 5.77,-14.562 12.65,-14.562 4.65,0 8.01,1.437 10.24,2.879 l 0,-12.801 c -3.35,-0.965 -7.99,-2.242 -12.8,-2.242 -15.53,0 -25.13,7.363 -25.13,23.687 l 0,47.7 -18.4,0 0,12.164 18.4,0 0,18.89 15.04,4.801 0,-23.691 21.62,0 0,-12.164"
         style="fill:#231f20;fill-opacity:1;fill-rule:nonzero;stroke:none"
         id="path62" /><path
         d="m 2659.12,375.809 15.05,0 0,-81.633 -15.05,0 0,81.633 z m 16,18.246 -16.96,0 0,16.968 16.96,0 0,-16.968"
         style="fill:#231f20;fill-opacity:1;fill-rule:nonzero;stroke:none"
         id="path64" /><path
         d="m 2737.86,304.422 c 17.6,0 25.45,16.004 25.45,30.57 0,15.528 -9.45,30.571 -25.45,30.571 -16.18,0 -25.62,-15.043 -25.62,-30.571 0,-14.566 7.84,-30.57 25.62,-30.57 z m 0,73.308 c 24.8,0 41.45,-17.929 41.45,-42.738 0,-23.371 -16.97,-42.734 -41.45,-42.734 -24.66,0 -41.62,19.363 -41.62,42.734 0,24.809 16.65,42.738 41.62,42.738"
         style="fill:#231f20;fill-opacity:1;fill-rule:nonzero;stroke:none"
         id="path66" /><path
         d="m 2799.43,375.809 14.57,0 0,-12.965 0.32,0 c 4.48,9.281 15.36,14.886 26.73,14.886 21.12,0 30.57,-13.125 30.57,-35.05 l 0,-48.504 -15.04,0 0,42.258 c 0,19.046 -4.16,28.336 -17.29,29.129 -17.13,0 -24.81,-13.762 -24.81,-33.614 l 0,-37.773 -15.05,0 0,81.633"
         style="fill:#231f20;fill-opacity:1;fill-rule:nonzero;stroke:none"
         id="path68" /><path
         d="m 986.492,153.645 -19.207,0 0,12.164 19.207,0 0,7.523 c 0,19.848 5.125,32.813 27.378,32.813 3.84,0 7.04,-0.481 10.08,-0.957 l -0.64,-12.168 c -1.76,0.64 -4.64,0.96 -7.2,0.96 -12.97,0 -14.57,-8.324 -14.57,-19.371 l 0,-8.8 21.61,0 0,-12.164 -21.61,0 0,-69.4692 -15.048,0 0,69.4692"
         style="fill:#231f20;fill-opacity:1;fill-rule:nonzero;stroke:none"
         id="path70" /><path
         d="m 1075.15,94.4219 c 17.6,0 25.45,16.0041 25.45,30.5701 0,15.528 -9.45,30.571 -25.45,30.571 -16.17,0 -25.61,-15.043 -25.61,-30.571 0,-14.566 7.84,-30.5701 25.61,-30.5701 z m 0,73.3081 c 24.81,0 41.45,-17.929 41.45,-42.738 0,-23.371 -16.96,-42.7342 -41.45,-42.7342 -24.65,0 -41.62,19.3632 -41.62,42.7342 0,24.809 16.65,42.738 41.62,42.738"
         style="fill:#231f20;fill-opacity:1;fill-rule:nonzero;stroke:none"
         id="path72" /><path
         d="m 1136.72,165.809 14.09,0 0,-12.645 0.32,0 c 4,8.484 12.65,14.566 21.29,14.566 4.48,0 6.73,-0.484 9.92,-1.121 l 0,-13.445 c -2.72,1.121 -5.76,1.441 -8.32,1.441 -13.44,0 -22.25,-12.804 -22.25,-33.292 l 0,-37.1372 -15.05,0 0,81.6332"
         style="fill:#231f20;fill-opacity:1;fill-rule:nonzero;stroke:none"
         id="path74" /><path
         d="m 1295.63,179.094 c -8.17,3.203 -12.65,4.644 -20.97,4.644 -8.97,0 -19.53,-3.203 -19.53,-14.886 0,-21.45 48.02,-16.489 48.02,-53.301 0,-23.8518 -18.41,-33.2932 -40.82,-33.2932 -7.84,0 -15.52,2.2422 -22.89,4.6406 l 1.61,14.8866 c 5.43,-2.242 15.04,-5.4452 23.2,-5.4452 9.13,0 21.93,5.1212 21.93,18.2462 0,24.973 -48.02,18.094 -48.02,52.824 0,19.848 15.69,30.414 35.86,30.414 7.36,0 16.17,-1.285 23.85,-4.004 l -2.24,-14.726"
         style="fill:#231f20;fill-opacity:1;fill-rule:nonzero;stroke:none"
         id="path76" /><path
         d="m 1375.31,152.043 c -5.76,2.402 -11.53,3.52 -16.33,3.52 -16.81,0 -26.25,-15.043 -26.25,-30.571 0,-14.566 7.84,-30.5701 27.21,-30.5701 5.12,0 11.52,1.6015 16.17,4.6445 l 1.12,-13.4492 c -6.24,-2.8828 -13.45,-3.3594 -18.89,-3.3594 -24.65,0 -41.62,19.3632 -41.62,42.7342 0,24.809 16.65,42.738 41.62,42.738 6.08,0 13.93,-1.441 18.25,-3.203 l -1.28,-12.484"
         style="fill:#231f20;fill-opacity:1;fill-rule:nonzero;stroke:none"
         id="path78" /><path
         d="m 1396.41,165.809 15.04,0 0,-81.6332 -15.04,0 0,81.6332 z m 16,18.246 -16.97,0 0,16.968 16.97,0 0,-16.968"
         style="fill:#231f20;fill-opacity:1;fill-rule:nonzero;stroke:none"
         id="path80" /><path
         d="m 1491.78,132.836 c 0,12.484 -7.36,22.727 -20.32,22.727 -14.73,0 -20.81,-12.161 -21.93,-22.727 l 42.25,0 z m 9.77,-45.3008 c -5.76,-2.0782 -12.33,-5.2774 -25.77,-5.2774 -28.97,0 -42.26,17.6055 -42.26,44.1762 0,24.168 15.21,41.296 38.26,41.296 27.2,0 36.01,-19.847 36.01,-46.097 l -58.26,0 c 0,-16.168 12.64,-27.2111 26.89,-27.2111 9.92,0 21.45,5.1211 25.13,8.1641 l 0,-15.0508"
         style="fill:#231f20;fill-opacity:1;fill-rule:nonzero;stroke:none"
         id="path82" /><path
         d="m 1527.92,165.809 14.58,0 0,-12.965 0.32,0 c 4.48,9.281 15.36,14.886 26.73,14.886 21.12,0 30.56,-13.125 30.56,-35.05 l 0,-48.5042 -15.04,0 0,42.2582 c 0,19.046 -4.16,28.336 -17.28,29.129 -17.13,0 -24.82,-13.762 -24.82,-33.614 l 0,-37.7732 -15.05,0 0,81.6332"
         style="fill:#231f20;fill-opacity:1;fill-rule:nonzero;stroke:none"
         id="path84" /><path
         d="m 1669.06,153.645 -21.61,0 0,-44.661 c 0,-9.441 5.76,-14.5621 12.64,-14.5621 4.65,0 8.01,1.4375 10.25,2.8789 l 0,-12.8008 c -3.36,-0.9648 -8,-2.2422 -12.81,-2.2422 -15.52,0 -25.12,7.3633 -25.12,23.6872 l 0,47.7 -18.41,0 0,12.164 18.41,0 0,18.89 15.04,4.801 0,-23.691 21.61,0 0,-12.164"
         style="fill:#231f20;fill-opacity:1;fill-rule:nonzero;stroke:none"
         id="path86" /><path
         d="m 1689.84,165.809 15.05,0 0,-81.6332 -15.05,0 0,81.6332 z m 16,18.246 -16.96,0 0,16.968 16.96,0 0,-16.968"
         style="fill:#231f20;fill-opacity:1;fill-rule:nonzero;stroke:none"
         id="path88" /><path
         d="m 1796.59,165.809 15.05,0 0,-81.6332 -15.05,0 0,81.6332 z m 16,18.246 -16.96,0 0,16.968 16.96,0 0,-16.968 z m -70.43,-30.41 -19.21,0 0,12.164 19.21,0 0,7.523 c 0,19.848 5.13,32.813 27.38,32.813 3.83,0 7.04,-0.481 10.07,-0.957 l -0.63,-12.168 c -1.76,0.64 -4.64,0.96 -7.21,0.96 -12.96,0 -14.56,-8.324 -14.56,-19.371 l 0,-8.8 21.61,0 0,-12.164 -21.61,0 0,-69.4692 -15.05,0 0,69.4692"
         style="fill:#231f20;fill-opacity:1;fill-rule:nonzero;stroke:none"
         id="path90" /><path
         d="m 1890.98,152.043 c -5.76,2.402 -11.52,3.52 -16.33,3.52 -16.8,0 -26.25,-15.043 -26.25,-30.571 0,-14.566 7.85,-30.5701 27.21,-30.5701 5.13,0 11.52,1.6015 16.17,4.6445 l 1.13,-13.4492 c -6.25,-2.8828 -13.45,-3.3594 -18.9,-3.3594 -24.65,0 -41.61,19.3632 -41.61,42.7342 0,24.809 16.64,42.738 41.61,42.738 6.08,0 13.92,-1.441 18.25,-3.203 l -1.28,-12.484"
         style="fill:#231f20;fill-opacity:1;fill-rule:nonzero;stroke:none"
         id="path92" /><path
         d="m 1971.12,147.883 13.61,0 c 15.21,0 24.17,6.722 24.17,17.445 0,10.082 -7.68,16.492 -22.41,16.492 l -15.37,0 0,-33.937 z m -16.01,48.019 27.38,0 c 22.09,0 43.37,-3.523 43.37,-30.25 0,-13.609 -10.08,-23.214 -23.04,-25.457 l 0,-0.316 c 4.96,-1.918 7.36,-4.32 10.88,-11.203 l 21.13,-44.5002 -18.25,0 -17.12,38.7342 c -4.96,10.887 -10.25,10.887 -18.73,10.887 l -9.61,0 0,-49.6212 -16.01,0 0,111.7262"
         style="fill:#231f20;fill-opacity:1;fill-rule:nonzero;stroke:none"
         id="path94" /><path
         d="m 2105.22,132.836 c 0,12.484 -7.36,22.727 -20.32,22.727 -14.73,0 -20.81,-12.161 -21.94,-22.727 l 42.26,0 z m 9.77,-45.3008 c -5.77,-2.0782 -12.33,-5.2774 -25.78,-5.2774 -28.97,0 -42.25,17.6055 -42.25,44.1762 0,24.168 15.2,41.296 38.25,41.296 27.22,0 36.02,-19.847 36.02,-46.097 l -58.27,0 c 0,-16.168 12.65,-27.2111 26.9,-27.2111 9.92,0 21.44,5.1211 25.13,8.1641 l 0,-15.0508"
         style="fill:#231f20;fill-opacity:1;fill-rule:nonzero;stroke:none"
         id="path96" /><path
         d="m 2135.27,100.184 c 5.93,-3.8442 14.41,-5.7621 18.73,-5.7621 6.88,0 15.37,2.8789 15.37,11.6831 0,14.887 -35.38,13.606 -35.38,36.497 0,16.964 12.65,25.128 28.82,25.128 7.04,0 12.8,-1.441 18.72,-3.203 l -1.28,-13.125 c -3.36,2.082 -12.33,4.161 -15.84,4.161 -7.69,0 -14.41,-3.2 -14.41,-9.922 0,-16.645 35.38,-11.844 35.38,-37.934 0,-17.4453 -13.93,-25.4492 -28.5,-25.4492 -7.69,0 -15.53,0.8008 -22.41,4.4805 l 0.8,13.4457"
         style="fill:#231f20;fill-opacity:1;fill-rule:nonzero;stroke:none"
         id="path98" /><path
         d="m 2256.42,132.836 c 0,12.484 -7.36,22.727 -20.32,22.727 -14.73,0 -20.81,-12.161 -21.93,-22.727 l 42.25,0 z m 9.77,-45.3008 c -5.77,-2.0782 -12.33,-5.2774 -25.77,-5.2774 -28.98,0 -42.26,17.6055 -42.26,44.1762 0,24.168 15.2,41.296 38.25,41.296 27.22,0 36.02,-19.847 36.02,-46.097 l -58.26,0 c 0,-16.168 12.64,-27.2111 26.89,-27.2111 9.92,0 21.45,5.1211 25.13,8.1641 l 0,-15.0508"
         style="fill:#231f20;fill-opacity:1;fill-rule:nonzero;stroke:none"
         id="path100" /><path
         d="m 2341.06,123.074 c -3.2,0 -6.41,0.317 -9.61,0.317 -8.16,0 -28.33,-1.282 -28.33,-15.684 0,-8.6406 8.32,-13.2851 15.21,-13.2851 14.88,0 22.73,9.2811 22.73,21.4491 l 0,7.203 z m -44.66,36.973 c 7.52,4.48 16.49,7.683 26.89,7.683 23.37,0 32.81,-11.523 32.81,-33.773 l 0,-33.773 c 0,-9.2817 0.32,-13.6059 0.64,-16.0082 l -14.08,0 0,10.5664 -0.32,0 c -3.53,-4.9649 -11.52,-12.4844 -25.29,-12.4844 -17.61,0 -29.94,7.6797 -29.94,25.4492 0,20.488 22.42,26.891 37.94,26.891 5.92,0 10.08,0 16.01,-0.321 0,14.082 -5.13,21.286 -20.18,21.286 -8.47,0 -17.6,-3.2 -23.68,-8.321 l -0.8,12.805"
         style="fill:#231f20;fill-opacity:1;fill-rule:nonzero;stroke:none"
         id="path102" /><path
         d="m 2381.51,165.809 14.09,0 0,-12.645 0.31,0 c 4.01,8.484 12.65,14.566 21.29,14.566 4.48,0 6.73,-0.484 9.93,-1.121 l 0,-13.445 c -2.72,1.121 -5.76,1.441 -8.33,1.441 -13.44,0 -22.24,-12.804 -22.24,-33.292 l 0,-37.1372 -15.05,0 0,81.6332"
         style="fill:#231f20;fill-opacity:1;fill-rule:nonzero;stroke:none"
         id="path104" /><path
         d="m 2495.62,152.043 c -5.76,2.402 -11.52,3.52 -16.33,3.52 -16.8,0 -26.25,-15.043 -26.25,-30.571 0,-14.566 7.84,-30.5701 27.21,-30.5701 5.13,0 11.52,1.6015 16.17,4.6445 l 1.11,-13.4492 c -6.24,-2.8828 -13.43,-3.3594 -18.88,-3.3594 -24.65,0 -41.61,19.3632 -41.61,42.7342 0,24.809 16.64,42.738 41.61,42.738 6.08,0 13.92,-1.441 18.25,-3.203 l -1.28,-12.484"
         style="fill:#231f20;fill-opacity:1;fill-rule:nonzero;stroke:none"
         id="path106" /><path
         d="m 2514.79,204.227 15.05,0 0,-50.106 0.32,0 c 5.44,8.649 14.88,13.609 26.25,13.609 21.12,0 30.57,-13.125 30.57,-35.05 l 0,-48.5042 -15.04,0 0,42.2582 c 0,19.046 -4.16,28.336 -17.29,29.129 -17.13,0 -24.81,-13.762 -24.81,-33.614 l 0,-37.7732 -15.05,0 0,120.0512"
         style="fill:#231f20;fill-opacity:1;fill-rule:nonzero;stroke:none"
         id="path108" /></g></g></svg>