<?xml version="1.0" encoding="UTF-8" standalone="no"?>
<!-- Created with Inkscape (http://www.inkscape.org/) -->

<svg
   xmlns:dc="http://purl.org/dc/elements/1.1/"
   xmlns:cc="http://creativecommons.org/ns#"
   xmlns:rdf="http://www.w3.org/1999/02/22-rdf-syntax-ns#"
   xmlns:svg="http://www.w3.org/2000/svg"
   xmlns="http://www.w3.org/2000/svg"
   xmlns:sodipodi="http://sodipodi.sourceforge.net/DTD/sodipodi-0.dtd"
   xmlns:inkscape="http://www.inkscape.org/namespaces/inkscape"
   width="200mm"
   height="150mm"
   viewBox="0 0 200 150"
   version="1.1"
   id="svg14399"
   inkscape:version="0.92.2 (5c3e80d, 2017-08-06)"
   sodipodi:docname="slide_background_network.svg"
   inkscape:export-filename="C:\Users\mal\bafa2017.github.io\assets\_src\slide_background_network.png"
   inkscape:export-xdpi="150.02933"
   inkscape:export-ydpi="150.02933">
  <defs
     id="defs14393">
    <clipPath
       clipPathUnits="userSpaceOnUse"
       id="clipPath4692">
      <path
         d="m 2525.02,1532.96 c -0.04,0 -0.08,0 -0.11,0 -1.27,0.02 -2.47,0.41 -3.48,1.07 v 0 c -0.02,0.01 -0.03,0.02 -0.05,0.03 -0.85,0.57 -1.56,1.33 -2.07,2.23 v 0 c -0.01,0.02 -0.03,0.04 -0.04,0.07 -0.12,0.21 -0.22,0.43 -0.31,0.65 -0.19,0.46 -0.33,0.94 -0.41,1.45 -0.06,0.36 -0.09,0.72 -0.09,1.08 -0.01,3.16 2.27,5.93 5.48,6.48 0.37,0.06 0.74,0.09 1.1,0.09 3.15,0 5.93,-2.28 6.46,-5.49 0.06,-0.37 0.09,-0.73 0.09,-1.09 0,-0.31 -0.02,-0.62 -0.06,-0.93 -0.1,-0.66 -0.29,-1.29 -0.57,-1.88 -0.16,-0.34 -0.35,-0.67 -0.57,-0.98 -0.59,-0.84 -1.39,-1.55 -2.33,-2.04 -0.04,-0.02 -0.09,-0.05 -0.13,-0.07 -0.56,-0.27 -1.17,-0.47 -1.82,-0.58 -0.37,-0.06 -0.73,-0.09 -1.09,-0.09"
         id="path4690"
         inkscape:connector-curvature="0" />
    </clipPath>
    <linearGradient
       x1="0"
       y1="0"
       x2="1"
       y2="0"
       gradientUnits="userSpaceOnUse"
       gradientTransform="matrix(-5e-5,-1144.75,-1144.75,5e-5,1427.4,1814.39)"
       spreadMethod="pad"
       id="linearGradient4698">
      <stop
         style="stop-opacity:1;stop-color:#6c6d6f"
         offset="0"
         id="stop4694" />
      <stop
         style="stop-opacity:1;stop-color:#58595b"
         offset="1"
         id="stop4696" />
    </linearGradient>
    <clipPath
       clipPathUnits="userSpaceOnUse"
       id="clipPath4676">
      <path
         d="m 1936.13,1741.29 c -3.16,0 -5.94,2.28 -6.49,5.49 -0.06,0.36 -0.08,0.73 -0.08,1.08 0,3.17 2.28,5.95 5.49,6.5 0.37,0.06 0.73,0.09 1.09,0.09 3.17,0 5.95,-2.29 6.49,-5.5 0.06,-0.37 0.09,-0.73 0.09,-1.09 0,-1.65 -0.63,-3.2 -1.69,-4.38 0,-0.01 -0.01,-0.01 -0.01,-0.02 v 0 c -0.2,-0.22 -0.42,-0.44 -0.66,-0.63 -0.55,-0.47 -1.18,-0.85 -1.88,-1.11 0,0 -0.01,-0.01 -0.02,-0.01 v 0 c -0.27,-0.1 -0.56,-0.19 -0.86,-0.26 -0.12,-0.03 -0.25,-0.05 -0.38,-0.07 -0.36,-0.06 -0.73,-0.09 -1.09,-0.09"
         id="path4674"
         inkscape:connector-curvature="0" />
    </clipPath>
    <clipPath
       clipPathUnits="userSpaceOnUse"
       id="clipPath4660">
      <path
         d="m 2252.68,1277.66 c -0.2,0 -0.4,0.01 -0.59,0.03 v 0 c -0.66,0.06 -1.29,0.21 -1.88,0.46 -0.37,0.15 -0.73,0.34 -1.07,0.55 v 0 c -0.59,0.38 -1.12,0.86 -1.56,1.41 -0.2,0.24 -0.37,0.5 -0.53,0.77 v 0 c -0.41,0.68 -0.69,1.44 -0.82,2.26 -0.04,0.24 -0.07,0.48 -0.09,0.71 v 0 c 0,0.13 -0.01,0.25 -0.01,0.38 -0.01,3.16 2.27,5.96 5.49,6.49 0.36,0.07 0.73,0.1 1.09,0.1 3.15,0 5.94,-2.29 6.46,-5.51 0.07,-0.36 0.1,-0.72 0.1,-1.08 0,-0.79 -0.14,-1.57 -0.41,-2.28 v 0 c -0.02,-0.06 -0.04,-0.11 -0.06,-0.16 -0.37,-0.92 -0.95,-1.75 -1.68,-2.42 v 0 c -0.91,-0.82 -2.05,-1.4 -3.34,-1.62 -0.37,-0.06 -0.74,-0.09 -1.1,-0.09"
         id="path4658"
         inkscape:connector-curvature="0" />
    </clipPath>
    <clipPath
       clipPathUnits="userSpaceOnUse"
       id="clipPath4644">
      <path
         d="m 2246.21,1285.24 v 0 c -0.32,0.61 -0.55,1.28 -0.67,2 -0.03,0.21 -0.06,0.43 -0.07,0.64 -0.01,0.15 -0.02,0.29 -0.02,0.44 0.01,3.15 2.27,5.96 5.48,6.5 0.36,0.06 0.71,0.09 1.07,0.09 3.16,0 5.97,-2.3 6.51,-5.52 0.06,-0.36 0.09,-0.72 0.09,-1.08 0,-0.24 -0.02,-0.48 -0.04,-0.72 v 0 c -0.01,-0.1 -0.03,-0.2 -0.04,-0.3 v 0 c -1.12,2.14 -3.35,3.53 -5.81,3.53 -0.36,0 -0.73,-0.03 -1.09,-0.1 -2.87,-0.47 -4.99,-2.75 -5.41,-5.48"
         id="path4642"
         inkscape:connector-curvature="0" />
    </clipPath>
    <clipPath
       clipPathUnits="userSpaceOnUse"
       id="clipPath4628">
      <path
         d="m 1769.33,1129.92 c -3.16,0 -5.96,2.28 -6.48,5.49 -0.06,0.36 -0.09,0.73 -0.1,1.08 0,3.17 2.28,5.96 5.51,6.5 0.36,0.06 0.72,0.09 1.08,0.09 3.15,0 5.93,-2.28 6.48,-5.5 0.06,-0.37 0.09,-0.73 0.09,-1.08 0,-0.66 -0.1,-1.31 -0.29,-1.92 -0.3,-1.01 -0.85,-1.93 -1.58,-2.68 -0.94,-0.96 -2.18,-1.65 -3.62,-1.89 -0.36,-0.06 -0.73,-0.09 -1.09,-0.09"
         id="path4626"
         inkscape:connector-curvature="0" />
    </clipPath>
    <clipPath
       clipPathUnits="userSpaceOnUse"
       id="clipPath4612">
      <path
         d="m 2075.03,1462.16 c -0.32,0 -0.63,0.02 -0.94,0.07 -0.8,0.11 -1.56,0.37 -2.24,0.75 -0.92,0.5 -1.71,1.22 -2.3,2.1 -0.5,0.75 -0.86,1.62 -1.02,2.58 -0.06,0.36 -0.09,0.72 -0.09,1.07 0,3.15 2.27,5.96 5.5,6.49 0.36,0.07 0.72,0.09 1.08,0.09 3.15,0 5.93,-2.29 6.48,-5.51 0.06,-0.36 0.09,-0.72 0.09,-1.07 0,-0.18 -0.01,-0.36 -0.03,-0.54 -0.08,-1.06 -0.43,-2.07 -0.98,-2.95 0,-0.01 -0.01,-0.02 -0.02,-0.04 v 0 c -0.55,-0.86 -1.29,-1.59 -2.18,-2.12 -0.02,-0.01 -0.03,-0.02 -0.04,-0.03 v 0 c -0.37,-0.21 -0.75,-0.39 -1.16,-0.53 -0.34,-0.12 -0.7,-0.21 -1.07,-0.27 -0.36,-0.06 -0.72,-0.09 -1.08,-0.09"
         id="path4610"
         inkscape:connector-curvature="0" />
    </clipPath>
    <clipPath
       clipPathUnits="userSpaceOnUse"
       id="clipPath4596">
      <path
         d="m 2442.13,1801.4 -5.07,5.62 -2.32,7.2 5.07,-5.61 2.32,-7.21"
         id="path4594"
         inkscape:connector-curvature="0" />
    </clipPath>
    <linearGradient
       x1="0"
       y1="0"
       x2="1"
       y2="0"
       gradientUnits="userSpaceOnUse"
       gradientTransform="matrix(-5e-5,-1144.75,-1144.75,5e-5,1427.4,1814.39)"
       spreadMethod="pad"
       id="linearGradient4602">
      <stop
         style="stop-opacity:1;stop-color:#848586"
         offset="0"
         id="stop4598" />
      <stop
         style="stop-opacity:1;stop-color:#6c6d6f"
         offset="1"
         id="stop4600" />
    </linearGradient>
    <clipPath
       clipPathUnits="userSpaceOnUse"
       id="clipPath4580">
      <path
         d="m 2521.59,1545.14 -8.65,26.78 11,-25.9 v 0 c -0.86,-0.15 -1.65,-0.45 -2.35,-0.88"
         id="path4578"
         inkscape:connector-curvature="0" />
    </clipPath>
    <clipPath
       clipPathUnits="userSpaceOnUse"
       id="clipPath4564">
      <path
         d="m 2523.94,1546.02 -11,25.9 -75.88,235.1 5.07,-5.62 82.41,-255.31 c -0.2,-0.02 -0.4,-0.04 -0.6,-0.07 m -84.13,262.59 -5.07,5.61 -0.52,1.62 h 3.25 l 2.34,-7.23"
         id="path4562"
         inkscape:connector-curvature="0" />
    </clipPath>
    <linearGradient
       x1="0"
       y1="0"
       x2="1"
       y2="0"
       gradientUnits="userSpaceOnUse"
       gradientTransform="matrix(-5e-5,-1144.75,-1144.75,5e-5,1427.4,1814.39)"
       spreadMethod="pad"
       id="linearGradient4570">
      <stop
         style="stop-opacity:1;stop-color:#a9a9a8"
         offset="0"
         id="stop4566" />
      <stop
         style="stop-opacity:1;stop-color:#8a8b8a"
         offset="1"
         id="stop4568" />
    </linearGradient>
    <clipPath
       clipPathUnits="userSpaceOnUse"
       id="clipPath4548">
      <path
         d="m 1942.12,1750.62 c -0.06,0.12 -0.12,0.23 -0.18,0.35 l 0.92,0.24 -0.74,-0.59"
         id="path4546"
         inkscape:connector-curvature="0" />
    </clipPath>
    <clipPath
       clipPathUnits="userSpaceOnUse"
       id="clipPath4532">
      <path
         d="m 1941.94,1750.97 c -0.44,0.82 -1.04,1.53 -1.76,2.09 l 79.13,62.78 h 5.01 l -81.46,-64.63 -0.92,-0.24"
         id="path4530"
         inkscape:connector-curvature="0" />
    </clipPath>
    <clipPath
       clipPathUnits="userSpaceOnUse"
       id="clipPath4516">
      <path
         d="m 2177.1,1062.83 h -2.5 l 74.54,215.87 c 0.34,-0.21 0.7,-0.4 1.07,-0.55 l -73.11,-215.32"
         id="path4514"
         inkscape:connector-curvature="0" />
    </clipPath>
    <linearGradient
       x1="0"
       y1="0"
       x2="1"
       y2="0"
       gradientUnits="userSpaceOnUse"
       gradientTransform="matrix(-5e-5,-1144.75,-1144.75,5e-5,1427.4,1814.39)"
       spreadMethod="pad"
       id="linearGradient4522">
      <stop
         style="stop-opacity:1;stop-color:#767779"
         offset="0"
         id="stop4518" />
      <stop
         style="stop-opacity:1;stop-color:#5e5f62"
         offset="1"
         id="stop4520" />
    </linearGradient>
    <clipPath
       clipPathUnits="userSpaceOnUse"
       id="clipPath4500">
      <path
         d="m 2177.9,1062.83 h -0.8 l 73.11,215.32 c 0.59,-0.25 1.22,-0.4 1.88,-0.46 l -74.19,-214.86"
         id="path4498"
         inkscape:connector-curvature="0" />
    </clipPath>
    <clipPath
       clipPathUnits="userSpaceOnUse"
       id="clipPath4484">
      <path
         d="m 2174.6,1062.83 h -0.79 l 73.77,217.28 c 0.44,-0.55 0.97,-1.03 1.56,-1.41 l -74.54,-215.87"
         id="path4482"
         inkscape:connector-curvature="0" />
    </clipPath>
    <clipPath
       clipPathUnits="userSpaceOnUse"
       id="clipPath4468">
      <path
         d="m 1896.42,1062.83 h -6.08 l -116.3,69.07 c 0.73,0.75 1.28,1.67 1.58,2.68 l 120.8,-71.75"
         id="path4466"
         inkscape:connector-curvature="0" />
    </clipPath>
    <clipPath
       clipPathUnits="userSpaceOnUse"
       id="clipPath4452">
      <path
         d="m 2095.96,1237.6 -0.04,0.34 3.04,0.93 0.03,-0.31 -3.03,-0.96"
         id="path4450"
         inkscape:connector-curvature="0" />
    </clipPath>
    <linearGradient
       x1="0"
       y1="0"
       x2="1"
       y2="0"
       gradientUnits="userSpaceOnUse"
       gradientTransform="matrix(-5e-5,-1144.75,-1144.75,5e-5,1427.4,1814.39)"
       spreadMethod="pad"
       id="linearGradient4458">
      <stop
         style="stop-opacity:1;stop-color:#6f7173"
         offset="0"
         id="stop4454" />
      <stop
         style="stop-opacity:1;stop-color:#5a5b5d"
         offset="1"
         id="stop4456" />
    </linearGradient>
    <clipPath
       clipPathUnits="userSpaceOnUse"
       id="clipPath4436">
      <path
         d="m 2096.23,1234.79 -0.27,2.81 3.03,0.96 0.27,-2.85 -3.03,-0.92"
         id="path4434"
         inkscape:connector-curvature="0" />
    </clipPath>
    <clipPath
       clipPathUnits="userSpaceOnUse"
       id="clipPath4420">
      <path
         d="m 2095.92,1237.94 -0.27,2.82 3.03,0.96 0.28,-2.85 -3.04,-0.93"
         id="path4418"
         inkscape:connector-curvature="0" />
    </clipPath>
    <clipPath
       clipPathUnits="userSpaceOnUse"
       id="clipPath4404">
      <path
         d="m 2116.1,1062.83 h -3.13 l -16.74,171.96 3.03,0.92 16.84,-172.88 m -20.45,177.93 -21.56,221.47 c 0.31,-0.05 0.62,-0.07 0.94,-0.07 0.36,0 0.72,0.03 1.08,0.09 0.37,0.06 0.73,0.15 1.07,0.27 l 21.5,-220.8 -3.03,-0.96"
         id="path4402"
         inkscape:connector-curvature="0" />
    </clipPath>
    <clipPath
       clipPathUnits="userSpaceOnUse"
       id="clipPath4388">
      <path
         d="m 2603.71,1446.97 -1.47,1.68 2.93,1.36 1.48,-1.69 -2.94,-1.35"
         id="path4386"
         inkscape:connector-curvature="0" />
    </clipPath>
    <clipPath
       clipPathUnits="userSpaceOnUse"
       id="clipPath4372">
      <path
         d="m 2604.36,1446.22 -0.65,0.75 2.94,1.35 0.63,-0.74 -2.92,-1.36"
         id="path4370"
         inkscape:connector-curvature="0" />
    </clipPath>
    <clipPath
       clipPathUnits="userSpaceOnUse"
       id="clipPath4356">
      <path
         d="m 2602.24,1448.65 -0.67,0.77 2.94,1.34 0.66,-0.75 -2.93,-1.36"
         id="path4354"
         inkscape:connector-curvature="0" />
    </clipPath>
    <clipPath
       clipPathUnits="userSpaceOnUse"
       id="clipPath4340">
      <path
         d="m 2693.32,1344.23 -2.68,3.07 0.63,3.99 2.68,-3.07 -0.63,-3.99"
         id="path4338"
         inkscape:connector-curvature="0" />
    </clipPath>
    <clipPath
       clipPathUnits="userSpaceOnUse"
       id="clipPath4324">
      <path
         d="m 2694.9,1342.42 -1.58,1.81 0.63,3.99 0.95,-1.09 v -4.71 m -4.26,4.88 -86.28,98.92 2.92,1.36 83.99,-96.29 -0.63,-3.99 m -89.07,102.12 -73.51,84.28 c 0.94,0.49 1.74,1.2 2.33,2.04 l 74.12,-84.98 -2.94,-1.34"
         id="path4322"
         inkscape:connector-curvature="0" />
    </clipPath>
    <clipPath
       clipPathUnits="userSpaceOnUse"
       id="clipPath4308">
      <path
         d="m 2592.63,1634.73 -2.14,2.36 1.82,2.64 2.14,-2.37 -1.82,-2.63"
         id="path4306"
         inkscape:connector-curvature="0" />
    </clipPath>
    <clipPath
       clipPathUnits="userSpaceOnUse"
       id="clipPath4292">
      <path
         d="m 2594.45,1637.36 -2.14,2.37 102.59,148.61 v -5.47 l -100.45,-145.51"
         id="path4290"
         inkscape:connector-curvature="0" />
    </clipPath>
    <clipPath
       clipPathUnits="userSpaceOnUse"
       id="clipPath4276">
      <path
         d="m 2529.93,1543.91 c -0.7,0.78 -1.57,1.39 -2.55,1.76 l 63.11,91.42 2.14,-2.36 -62.7,-90.82"
         id="path4274"
         inkscape:connector-curvature="0" />
    </clipPath>
    <clipPath
       clipPathUnits="userSpaceOnUse"
       id="clipPath4260">
      <path
         d="m 2531.53,1538.6 c 0.04,0.31 0.06,0.62 0.06,0.93 v 0 0 0 0 0 0 0 0 0 c 0,0.08 0,0.16 0,0.23 l 3.8,-0.78 -3.86,-0.38"
         id="path4258"
         inkscape:connector-curvature="0" />
    </clipPath>
    <clipPath
       clipPathUnits="userSpaceOnUse"
       id="clipPath4244">
      <path
         d="m 2667.52,1551.78 -2.61,2.89 3.87,0.37 2.6,-2.88 -3.86,-0.38"
         id="path4242"
         inkscape:connector-curvature="0" />
    </clipPath>
    <clipPath
       clipPathUnits="userSpaceOnUse"
       id="clipPath4228">
      <path
         d="m 2671.38,1552.16 -2.6,2.88 26.12,2.53 v -3.13 l -23.52,-2.28"
         id="path4226"
         inkscape:connector-curvature="0" />
    </clipPath>
    <clipPath
       clipPathUnits="userSpaceOnUse"
       id="clipPath4212">
      <path
         d="m 2535.39,1538.98 -3.8,0.78 c -0.01,0.28 -0.04,0.57 -0.09,0.86 -0.06,0.37 -0.16,0.74 -0.28,1.09 l 133.69,12.96 2.61,-2.89 -132.13,-12.8"
         id="path4210"
         inkscape:connector-curvature="0" />
    </clipPath>
    <clipPath
       clipPathUnits="userSpaceOnUse"
       id="clipPath4196">
      <path
         d="m 2549.62,1422.31 -0.37,1.67 2.87,1.34 0.38,-1.7 -2.88,-1.31"
         id="path4194"
         inkscape:connector-curvature="0" />
    </clipPath>
    <clipPath
       clipPathUnits="userSpaceOnUse"
       id="clipPath4180">
      <path
         d="m 2606.65,1448.32 -1.48,1.69 89.73,41.77 v -3.22 l -88.25,-40.24"
         id="path4178"
         inkscape:connector-curvature="0" />
    </clipPath>
    <clipPath
       clipPathUnits="userSpaceOnUse"
       id="clipPath4164">
      <path
         d="m 2354.13,1333.16 195.12,90.82 0.37,-1.67 -195.49,-89.15 m 198.37,90.46 -0.38,1.7 50.12,23.33 1.47,-1.68 -51.21,-23.35"
         id="path4162"
         inkscape:connector-curvature="0" />
    </clipPath>
    <clipPath
       clipPathUnits="userSpaceOnUse"
       id="clipPath4148">
      <path
         d="m 2258.56,1287.59 c 0.02,0.24 0.04,0.48 0.04,0.72 v 0 0 0 0 0 0 0 0 c 0,0.13 -0.01,0.25 -0.01,0.38 l 2.27,1.06 -2.3,-2.16"
         id="path4146"
         inkscape:connector-curvature="0" />
    </clipPath>
    <clipPath
       clipPathUnits="userSpaceOnUse"
       id="clipPath4132">
      <path
         d="m 2549.94,1420.89 -0.32,1.42 2.88,1.31 0.31,-1.39 -2.87,-1.34"
         id="path4130"
         inkscape:connector-curvature="0" />
    </clipPath>
    <clipPath
       clipPathUnits="userSpaceOnUse"
       id="clipPath4116">
      <path
         d="m 2607.28,1447.58 -0.63,0.74 88.25,40.24 v -0.19 l -87.62,-40.79"
         id="path4114"
         inkscape:connector-curvature="0" />
    </clipPath>
    <clipPath
       clipPathUnits="userSpaceOnUse"
       id="clipPath4100">
      <path
         d="m 2259.14,1285.51 c -0.13,0.64 -0.34,1.23 -0.62,1.78 0.01,0.1 0.03,0.2 0.04,0.3 l 2.3,2.16 93.27,43.41 195.49,89.15 0.32,-1.42 -290.8,-135.38 m 293.67,136.72 -0.31,1.39 51.21,23.35 0.65,-0.75 -51.55,-23.99"
         id="path4098"
         inkscape:connector-curvature="0" />
    </clipPath>
    <clipPath
       clipPathUnits="userSpaceOnUse"
       id="clipPath4084">
      <path
         d="m 2258.48,1289.55 c -0.11,0.6 -0.31,1.17 -0.57,1.69 l 3.03,2.85 8.85,4.03 -7.1,-6.66 -4.21,-1.91"
         id="path4082"
         inkscape:connector-curvature="0" />
    </clipPath>
    <clipPath
       clipPathUnits="userSpaceOnUse"
       id="clipPath4068">
      <path
         d="m 2257.77,1291.5 c -0.17,0.31 -0.36,0.6 -0.58,0.88 l 3.05,1.39 -2.47,-2.27"
         id="path4066"
         inkscape:connector-curvature="0" />
    </clipPath>
    <clipPath
       clipPathUnits="userSpaceOnUse"
       id="clipPath4052">
      <path
         d="m 2549.25,1423.98 -0.32,1.43 2.88,1.32 0.31,-1.41 -2.87,-1.34"
         id="path4050"
         inkscape:connector-curvature="0" />
    </clipPath>
    <clipPath
       clipPathUnits="userSpaceOnUse"
       id="clipPath4036">
      <path
         d="m 2605.17,1450.01 -0.66,0.75 90.39,41.22 v -0.2 l -89.73,-41.77"
         id="path4034"
         inkscape:connector-curvature="0" />
    </clipPath>
    <clipPath
       clipPathUnits="userSpaceOnUse"
       id="clipPath4020">
      <path
         d="m 2257.91,1291.24 c -0.04,0.09 -0.09,0.17 -0.14,0.26 l 2.47,2.27 0.7,0.32 -3.03,-2.85 m 4.78,0.22 7.1,6.66 279.14,127.29 0.32,-1.43 -195.12,-90.82 -91.44,-41.7 m 289.43,133.86 -0.31,1.41 49.76,22.69 0.67,-0.77 -50.12,-23.33"
         id="path4018"
         inkscape:connector-curvature="0" />
    </clipPath>
    <clipPath
       clipPathUnits="userSpaceOnUse"
       id="clipPath4004">
      <path
         d="m 2693.95,1348.22 -2.68,3.07 3.63,22.95 v -20 l -0.95,-6.02"
         id="path4002"
         inkscape:connector-curvature="0" />
    </clipPath>
    <clipPath
       clipPathUnits="userSpaceOnUse"
       id="clipPath3988">
      <path
         d="m 2648.88,1062.83 h -3.15 l 44.91,284.47 2.68,-3.07 -44.44,-281.4"
         id="path3986"
         inkscape:connector-curvature="0" />
    </clipPath>
    <clipPath
       clipPathUnits="userSpaceOnUse"
       id="clipPath3972">
      <path
         d="m 2694.9,1502.88 -163.94,33.84 c 0.28,0.59 0.47,1.22 0.57,1.88 l 3.86,0.38 159.51,-32.93 v -3.17"
         id="path3970"
         inkscape:connector-curvature="0" />
    </clipPath>
    <clipPath
       clipPathUnits="userSpaceOnUse"
       id="clipPath3956">
      <path
         d="m 2694.9,1521.46 -27.38,30.32 3.86,0.38 23.52,-26.04 v -4.66 m -29.99,33.21 -72.28,80.06 1.82,2.63 74.33,-82.32 -3.87,-0.37 m -227.85,252.35 -7.96,8.82 h 4.17 l 1.47,-1.62 2.32,-7.2"
         id="path3954"
         inkscape:connector-curvature="0" />
    </clipPath>
    <clipPath
       clipPathUnits="userSpaceOnUse"
       id="clipPath3940">
      <path
         d="m 2590.49,1637.09 -148.36,164.31 -2.32,7.21 152.5,-168.88 -1.82,-2.64"
         id="path3938"
         inkscape:connector-curvature="0" />
    </clipPath>
    <clipPath
       clipPathUnits="userSpaceOnUse"
       id="clipPath3924">
      <path
         d="m 2301.6,1502.81 0.75,3.26 2.25,0.35 -0.76,-3.26 -2.24,-0.35"
         id="path3922"
         inkscape:connector-curvature="0" />
    </clipPath>
    <clipPath
       clipPathUnits="userSpaceOnUse"
       id="clipPath3908">
      <path
         d="m 2254.99,1294.19 c -0.46,0.23 -0.94,0.41 -1.44,0.53 l 48.05,208.09 2.24,0.35 -48.85,-208.97 m 47.36,211.88 71.53,309.77 h 3.05 l -72.33,-309.42 -2.25,-0.35"
         id="path3906"
         inkscape:connector-curvature="0" />
    </clipPath>
    <clipPath
       clipPathUnits="userSpaceOnUse"
       id="clipPath3892">
      <path
         d="m 2303.84,1503.16 0.76,3.26 1.05,0.17 -0.75,-3.26 -1.06,-0.17"
         id="path3890"
         inkscape:connector-curvature="0" />
    </clipPath>
    <clipPath
       clipPathUnits="userSpaceOnUse"
       id="clipPath3876">
      <path
         d="m 2256.38,1293.24 c -0.23,0.2 -0.46,0.38 -0.71,0.55 l 1.06,0.97 -0.35,-1.52"
         id="path3874"
         inkscape:connector-curvature="0" />
    </clipPath>
    <clipPath
       clipPathUnits="userSpaceOnUse"
       id="clipPath3860">
      <path
         d="m 2255.67,1293.79 c -0.22,0.14 -0.45,0.28 -0.68,0.4 l 48.85,208.97 1.06,0.17 -48.17,-208.57 -1.06,-0.97 m 48.93,212.63 72.33,309.42 h 0.14 l -71.42,-309.25 -1.05,-0.17"
         id="path3858"
         inkscape:connector-curvature="0" />
    </clipPath>
    <clipPath
       clipPathUnits="userSpaceOnUse"
       id="clipPath3844">
      <path
         d="m 2300.54,1502.64 0.76,3.26 1.05,0.17 -0.75,-3.26 -1.06,-0.17"
         id="path3842"
         inkscape:connector-curvature="0" />
    </clipPath>
    <clipPath
       clipPathUnits="userSpaceOnUse"
       id="clipPath3828">
      <path
         d="m 2253.55,1294.72 c -0.5,0.13 -1.02,0.19 -1.55,0.19 -0.01,0 -0.01,0 -0.02,0 l 48.56,207.73 1.06,0.17 -48.05,-208.09 m 47.75,211.18 72.44,309.94 h 0.14 l -71.53,-309.77 -1.05,-0.17"
         id="path3826"
         inkscape:connector-curvature="0" />
    </clipPath>
    <clipPath
       clipPathUnits="userSpaceOnUse"
       id="clipPath3812">
      <path
         d="M 2521.09,1544.8 2406,1815.84 h 3.37 l 103.57,-243.92 8.65,-26.78 c -0.17,-0.11 -0.34,-0.22 -0.5,-0.34"
         id="path3810"
         inkscape:connector-curvature="0" />
    </clipPath>
    <clipPath
       clipPathUnits="userSpaceOnUse"
       id="clipPath3796">
      <path
         d="m 1942.72,1747.98 c -0.01,0.32 -0.04,0.64 -0.09,0.97 -0.1,0.59 -0.27,1.15 -0.51,1.67 l 0.74,0.59 248.77,64.63 h 12.3 l -261.21,-67.86"
         id="path3794"
         inkscape:connector-curvature="0" />
    </clipPath>
    <clipPath
       clipPathUnits="userSpaceOnUse"
       id="clipPath3780">
      <path
         d="m 2103.21,1502.06 -1.84,2.69 1.41,1.79 1.84,-2.69 -1.41,-1.79"
         id="path3778"
         inkscape:connector-curvature="0" />
    </clipPath>
    <clipPath
       clipPathUnits="userSpaceOnUse"
       id="clipPath3764">
      <path
         d="m 2102.61,1501.3 -1.84,2.69 0.6,0.76 1.84,-2.69 -0.6,-0.76"
         id="path3762"
         inkscape:connector-curvature="0" />
    </clipPath>
    <clipPath
       clipPathUnits="userSpaceOnUse"
       id="clipPath3748">
      <path
         d="m 2104.62,1503.85 -1.84,2.69 0.6,0.76 1.84,-2.68 -0.6,-0.77"
         id="path3746"
         inkscape:connector-curvature="0" />
    </clipPath>
    <clipPath
       clipPathUnits="userSpaceOnUse"
       id="clipPath3732">
      <path
         d="m 2080.18,1472.79 c -0.66,0.83 -1.49,1.49 -2.45,1.93 l 23.04,29.27 1.84,-2.69 -22.43,-28.51 m 25.04,31.83 -1.84,2.68 242.81,308.54 h 3.96 l -244.93,-311.22"
         id="path3730"
         inkscape:connector-curvature="0" />
    </clipPath>
    <clipPath
       clipPathUnits="userSpaceOnUse"
       id="clipPath3716">
      <path
         d="m 2246.44,1291.79 -2.54,2.58 -2.91,4.27 5.94,-6.17 c -0.18,-0.22 -0.34,-0.45 -0.49,-0.68"
         id="path3714"
         inkscape:connector-curvature="0" />
    </clipPath>
    <linearGradient
       x1="0"
       y1="0"
       x2="1"
       y2="0"
       gradientUnits="userSpaceOnUse"
       gradientTransform="matrix(-5e-5,-1144.75,-1144.75,5e-5,1427.4,1814.39)"
       spreadMethod="pad"
       id="linearGradient3722">
      <stop
         style="stop-opacity:1;stop-color:#6d6e70"
         offset="0"
         id="stop3718" />
      <stop
         style="stop-opacity:1;stop-color:#595a5c"
         offset="1"
         id="stop3720" />
    </linearGradient>
    <clipPath
       clipPathUnits="userSpaceOnUse"
       id="clipPath3700">
      <path
         d="m 2243.9,1294.37 -165.52,168.71 c 0.89,0.53 1.63,1.26 2.18,2.12 l 160.43,-166.56 2.91,-4.27"
         id="path3698"
         inkscape:connector-curvature="0" />
    </clipPath>
    <clipPath
       clipPathUnits="userSpaceOnUse"
       id="clipPath3684">
      <path
         d="m 2246.1,1291.16 -2.2,3.21 2.54,-2.58 c -0.12,-0.21 -0.24,-0.42 -0.34,-0.63"
         id="path3682"
         inkscape:connector-curvature="0" />
    </clipPath>
    <clipPath
       clipPathUnits="userSpaceOnUse"
       id="clipPath3668">
      <path
         d="m 2245.55,1289.41 -167.21,173.64 c 0.01,0.01 0.02,0.02 0.04,0.03 l 165.52,-168.71 2.2,-3.21 c -0.26,-0.55 -0.45,-1.14 -0.55,-1.75"
         id="path3666"
         inkscape:connector-curvature="0" />
    </clipPath>
    <clipPath
       clipPathUnits="userSpaceOnUse"
       id="clipPath3652">
      <path
         d="m 2247.12,1292.7 -6.5,9.46 5.64,-5.75 1.89,-2.77 c -0.38,-0.28 -0.73,-0.59 -1.03,-0.94"
         id="path3650"
         inkscape:connector-curvature="0" />
    </clipPath>
    <clipPath
       clipPathUnits="userSpaceOnUse"
       id="clipPath3636">
      <path
         d="m 2246.93,1292.47 -5.94,6.17 -7.05,10.32 6.68,-6.8 6.5,-9.46 c -0.07,-0.07 -0.13,-0.15 -0.19,-0.23"
         id="path3634"
         inkscape:connector-curvature="0" />
    </clipPath>
    <clipPath
       clipPathUnits="userSpaceOnUse"
       id="clipPath3620">
      <path
         d="m 2248.15,1293.64 -1.89,2.77 2.38,-2.43 c -0.17,-0.11 -0.33,-0.22 -0.49,-0.34"
         id="path3618"
         inkscape:connector-curvature="0" />
    </clipPath>
    <clipPath
       clipPathUnits="userSpaceOnUse"
       id="clipPath3604">
      <path
         d="m 2240.99,1298.64 -160.43,166.56 c 0.01,0.02 0.02,0.03 0.02,0.04 l 153.36,-156.28 7.05,-10.32"
         id="path3602"
         inkscape:connector-curvature="0" />
    </clipPath>
    <clipPath
       clipPathUnits="userSpaceOnUse"
       id="clipPath3588">
      <path
         d="m 2122.11,1474.57 -1.95,2.83 2.27,0.36 1.94,-2.84 -2.26,-0.35"
         id="path3586"
         inkscape:connector-curvature="0" />
    </clipPath>
    <clipPath
       clipPathUnits="userSpaceOnUse"
       id="clipPath3572">
      <path
         d="m 2120.99,1474.39 -1.94,2.84 1.11,0.17 1.95,-2.83 -1.12,-0.18"
         id="path3570"
         inkscape:connector-curvature="0" />
    </clipPath>
    <clipPath
       clipPathUnits="userSpaceOnUse"
       id="clipPath3556">
      <path
         d="m 2124.37,1474.92 -1.94,2.84 1.13,0.18 1.95,-2.84 -1.14,-0.18"
         id="path3554"
         inkscape:connector-curvature="0" />
    </clipPath>
    <clipPath
       clipPathUnits="userSpaceOnUse"
       id="clipPath3540">
      <path
         d="m 2081.56,1468.19 c 0.02,0.18 0.03,0.36 0.03,0.54 v 0 0 0 0 0 0 c 0,0.35 -0.03,0.71 -0.09,1.07 -0.09,0.51 -0.23,1 -0.42,1.45 l 37.97,5.98 1.94,-2.84 -39.43,-6.2 m 43.95,6.91 -1.95,2.84 177.74,27.96 -0.76,-3.26 -175.03,-27.54 m 179.39,28.23 0.75,3.26 212.83,33.48 c -0.02,-0.17 -0.02,-0.35 -0.02,-0.53 v 0 0 0 0 0 0 0 0 0 c 0,-0.36 0.03,-0.72 0.09,-1.08 0.08,-0.51 0.22,-0.99 0.41,-1.45 l -214.06,-33.68"
         id="path3538"
         inkscape:connector-curvature="0" />
    </clipPath>
    <clipPath
       clipPathUnits="userSpaceOnUse"
       id="clipPath3524">
      <path
         d="m 1947.3,1728.9 -8.82,12.82 c 0.7,0.26 1.33,0.64 1.88,1.11 l 6.94,-13.93"
         id="path3522"
         inkscape:connector-curvature="0" />
    </clipPath>
    <clipPath
       clipPathUnits="userSpaceOnUse"
       id="clipPath3508">
      <path
         d="m 1947.52,1728.45 -9.06,13.26 c 0.01,0 0.02,0.01 0.02,0.01 l 8.82,-12.82 0.22,-0.45"
         id="path3506"
         inkscape:connector-curvature="0" />
    </clipPath>
    <clipPath
       clipPathUnits="userSpaceOnUse"
       id="clipPath3492">
      <path
         d="m 2070.78,1473.76 -133.18,267.69 c 0.3,0.07 0.59,0.16 0.86,0.26 l 9.06,-13.26 126.04,-253.3 c -1.06,-0.24 -2,-0.73 -2.78,-1.39"
         id="path3490"
         inkscape:connector-curvature="0" />
    </clipPath>
    <clipPath
       clipPathUnits="userSpaceOnUse"
       id="clipPath3476">
      <path
         d="m 1774.8,1140.14 c -0.58,0.88 -1.37,1.6 -2.28,2.11 l 297.03,322.83 c 0.59,-0.88 1.38,-1.6 2.3,-2.1 L 1774.8,1140.14"
         id="path3474"
         inkscape:connector-curvature="0" />
    </clipPath>
    <clipPath
       clipPathUnits="userSpaceOnUse"
       id="clipPath3460">
      <path
         d="m 1775.89,1136.94 c -0.01,0.21 -0.04,0.42 -0.07,0.64 -0.14,0.83 -0.43,1.59 -0.84,2.27 l 320.94,98.09 0.04,-0.34 -320.07,-100.66 m 323.1,101.62 -0.03,0.31 35.99,11 -35.96,-11.31"
         id="path3458"
         inkscape:connector-curvature="0" />
    </clipPath>
    <clipPath
       clipPathUnits="userSpaceOnUse"
       id="clipPath3444">
      <path
         d="m 1775.89,1136.89 c 0,0.01 0,0.03 0,0.05 l 320.07,100.66 0.27,-2.81 -320.34,-97.9 m 323.37,98.82 -0.27,2.85 35.96,11.31 111.19,33.98 c 0.02,-0.23 0.05,-0.47 0.09,-0.71 0.13,-0.82 0.41,-1.58 0.82,-2.26 l -147.79,-45.17"
         id="path3442"
         inkscape:connector-curvature="0" />
    </clipPath>
    <clipPath
       clipPathUnits="userSpaceOnUse"
       id="clipPath3428">
      <path
         d="m 1774.98,1139.85 c -0.01,0.02 -0.02,0.04 -0.03,0.05 l 320.7,100.86 0.27,-2.82 -320.94,-98.09 m 323.98,99.02 -0.28,2.85 146.79,46.16 c 0.01,-0.21 0.04,-0.43 0.07,-0.64 0.12,-0.72 0.35,-1.39 0.67,-2 -0.02,-0.13 -0.04,-0.26 -0.05,-0.4 l -111.21,-34.97 -35.99,-11"
         id="path3426"
         inkscape:connector-curvature="0" />
    </clipPath>
    <clipPath
       clipPathUnits="userSpaceOnUse"
       id="clipPath3412">
      <path
         d="m 2246.26,1296.41 -5.64,5.75 -118.51,172.41 2.26,0.35 121.89,-178.51 m -126.1,180.99 -16.95,24.66 1.41,1.79 17.81,-26.09 -2.27,-0.36 m -18.79,27.35 -154.07,224.15 -6.94,13.93 c 0.24,0.19 0.46,0.41 0.66,0.63 l 161.76,-236.92 -1.41,-1.79"
         id="path3410"
         inkscape:connector-curvature="0" />
    </clipPath>
    <clipPath
       clipPathUnits="userSpaceOnUse"
       id="clipPath3396">
      <path
         d="m 2240.62,1302.16 -6.68,6.8 -112.95,165.43 1.12,0.18 118.51,-172.41 m -121.57,175.07 -16.44,24.07 0.6,0.76 16.95,-24.66 -1.11,-0.17 m -18.28,26.76 -153.25,224.46 -0.22,0.45 154.07,-224.15 -0.6,-0.76"
         id="path3394"
         inkscape:connector-curvature="0" />
    </clipPath>
    <clipPath
       clipPathUnits="userSpaceOnUse"
       id="clipPath3380">
      <path
         d="m 2248.64,1293.98 -2.38,2.43 -121.89,178.51 1.14,0.18 124.16,-180.62 c -0.36,-0.14 -0.7,-0.31 -1.03,-0.5 m -126.21,183.78 -17.81,26.09 0.6,0.77 18.34,-26.68 -1.13,-0.18 m -19.65,28.78 -161.76,236.92 c 0,0.01 0.01,0.01 0.01,0.02 l 162.35,-236.18 -0.6,-0.76"
         id="path3378"
         inkscape:connector-curvature="0" />
    </clipPath>
    <clipPath
       clipPathUnits="userSpaceOnUse"
       id="clipPath3364">
      <path
         d="m 2279.88,1311.84 239.43,224.45 c 0.51,-0.9 1.22,-1.66 2.07,-2.23 l -241.5,-222.22"
         id="path3362"
         inkscape:connector-curvature="0" />
    </clipPath>
    <clipPath
       clipPathUnits="userSpaceOnUse"
       id="clipPath3348">
      <path
         d="m 2258.59,1288.69 c -0.02,0.23 -0.04,0.47 -0.08,0.7 -0.01,0.06 -0.02,0.11 -0.03,0.16 l 4.21,1.91 -1.83,-1.71 -2.27,-1.06 m 2.35,5.4 18.94,17.75 241.5,222.22 c 0.02,-0.01 0.03,-0.02 0.05,-0.03 l -251.64,-235.91 -8.85,-4.03"
         id="path3346"
         inkscape:connector-curvature="0" />
    </clipPath>
    <clipPath
       clipPathUnits="userSpaceOnUse"
       id="clipPath3332">
      <path
         d="m 2257.19,1292.38 c -0.25,0.31 -0.52,0.6 -0.81,0.86 l 0.35,1.52 262.54,241.6 c 0.01,-0.03 0.03,-0.05 0.04,-0.07 l -239.43,-224.45 -19.64,-18.07 -3.05,-1.39"
         id="path3330"
         inkscape:connector-curvature="0" />
    </clipPath>
    <clipPath
       clipPathUnits="userSpaceOnUse"
       id="clipPath3316">
      <path
         d="m 2633.09,1062.83 h -3.18 l -79.97,358.06 2.87,1.34 80.28,-359.4 m -84.16,362.58 -24.02,107.55 c 0.03,0 0.07,0 0.11,0 0.36,0 0.72,0.03 1.09,0.09 0.65,0.11 1.26,0.31 1.82,0.58 l 23.88,-106.9 -2.88,-1.32"
         id="path3314"
         inkscape:connector-curvature="0" />
    </clipPath>
    <clipPath
       clipPathUnits="userSpaceOnUse"
       id="clipPath3300">
      <path
         d="m 2582.42,1062.83 h -4.69 l -318.93,218.96 c 0.02,0.05 0.04,0.1 0.06,0.16 l 323.56,-219.12"
         id="path3298"
         inkscape:connector-curvature="0" />
    </clipPath>
    <clipPath
       clipPathUnits="userSpaceOnUse"
       id="clipPath3284">
      <path
         d="m 2577.73,1062.83 h -0.84 l -319.77,216.54 c 0.73,0.67 1.31,1.5 1.68,2.42 l 318.93,-218.96"
         id="path3282"
         inkscape:connector-curvature="0" />
    </clipPath>
    <clipPath
       clipPathUnits="userSpaceOnUse"
       id="clipPath3268">
      <path
         d="m 2583.21,1062.83 h -0.79 l -323.56,219.12 c 0.27,0.71 0.41,1.49 0.41,2.28 v 0 0 0 0 0 0 0 0 0 0 0 0 0 0 0 0 c 0,0.35 -0.03,0.71 -0.09,1.06 l 324.03,-222.46"
         id="path3266"
         inkscape:connector-curvature="0" />
    </clipPath>
  </defs>
  <sodipodi:namedview
     id="base"
     pagecolor="#ffffff"
     bordercolor="#666666"
     borderopacity="1.0"
     inkscape:pageopacity="0.0"
     inkscape:pageshadow="2"
     inkscape:zoom="1.4"
     inkscape:cx="454.36284"
     inkscape:cy="273.35499"
     inkscape:document-units="mm"
     inkscape:current-layer="layer2"
     showgrid="false"
     inkscape:snap-page="true"
     inkscape:snap-global="false"
     inkscape:window-width="1920"
     inkscape:window-height="1011"
     inkscape:window-x="-8"
     inkscape:window-y="-8"
     inkscape:window-maximized="1" />
  <metadata
     id="metadata14396">
    <rdf:RDF>
      <cc:Work
         rdf:about="">
        <dc:format>image/svg+xml</dc:format>
        <dc:type
           rdf:resource="http://purl.org/dc/dcmitype/StillImage" />
        <dc:title></dc:title>
      </cc:Work>
    </rdf:RDF>
  </metadata>
  <g
     inkscape:label="background"
     inkscape:groupmode="layer"
     id="layer1"
     transform="translate(0,-147)"
     sodipodi:insensitive="true"
     style="display:none">
    <rect
       style="opacity:1;vector-effect:none;fill:#f0f0f0;fill-opacity:1;fill-rule:nonzero;stroke:none;stroke-width:1;stroke-linecap:butt;stroke-linejoin:round;stroke-miterlimit:4;stroke-dasharray:none;stroke-dashoffset:0;stroke-opacity:1;paint-order:normal"
       id="rect16315"
       width="200"
       height="150"
       x="0"
       y="147" />
  </g>
  <g
     inkscape:groupmode="layer"
     id="layer2"
     inkscape:label="net">
    <g
       id="g16434"
       transform="translate(0,23.812509)">
      <circle
         r="0.90203458"
         cy="70.156822"
         cx="178.02333"
         id="path16317"
         style="opacity:1;vector-effect:none;fill:#7d7d7d;fill-opacity:1;fill-rule:nonzero;stroke:none;stroke-width:0.14882812;stroke-linecap:butt;stroke-linejoin:round;stroke-miterlimit:4;stroke-dasharray:none;stroke-dashoffset:0;stroke-opacity:1;paint-order:normal" />
      <circle
         style="opacity:1;vector-effect:none;fill:#7d7d7d;fill-opacity:1;fill-rule:nonzero;stroke:none;stroke-width:0.14882812;stroke-linecap:butt;stroke-linejoin:round;stroke-miterlimit:4;stroke-dasharray:none;stroke-dashoffset:0;stroke-opacity:1;paint-order:normal"
         id="circle16319"
         cx="160.82541"
         cy="54.659801"
         r="0.90203458" />
      <circle
         r="0.90203458"
         cy="36.327957"
         cx="180.29118"
         id="circle16321"
         style="opacity:1;vector-effect:none;fill:#7d7d7d;fill-opacity:1;fill-rule:nonzero;stroke:none;stroke-width:0.14882812;stroke-linecap:butt;stroke-linejoin:round;stroke-miterlimit:4;stroke-dasharray:none;stroke-dashoffset:0;stroke-opacity:1;paint-order:normal" />
      <circle
         style="opacity:1;vector-effect:none;fill:#7d7d7d;fill-opacity:1;fill-rule:nonzero;stroke:none;stroke-width:0.1488281;stroke-linecap:butt;stroke-linejoin:round;stroke-miterlimit:4;stroke-dasharray:none;stroke-dashoffset:0;stroke-opacity:1;paint-order:normal"
         id="circle16323"
         cx="166.11708"
         cy="88.866646"
         r="0.90203458" />
      <circle
         r="0.90203458"
         cy="115.70296"
         cx="183.69298"
         id="circle16325"
         style="opacity:1;vector-effect:none;fill:#7d7d7d;fill-opacity:1;fill-rule:nonzero;stroke:none;stroke-width:0.14882812;stroke-linecap:butt;stroke-linejoin:round;stroke-miterlimit:4;stroke-dasharray:none;stroke-dashoffset:0;stroke-opacity:1;paint-order:normal" />
      <circle
         style="opacity:1;vector-effect:none;fill:#7d7d7d;fill-opacity:1;fill-rule:nonzero;stroke:none;stroke-width:0.14882812;stroke-linecap:butt;stroke-linejoin:round;stroke-miterlimit:4;stroke-dasharray:none;stroke-dashoffset:0;stroke-opacity:1;paint-order:normal"
         id="circle16327"
         cx="200.13495"
         cy="7.0348053"
         r="0.90203458" />
      <path
         inkscape:connection-start="#circle16327"
         inkscape:connector-curvature="0"
         inkscape:connector-type="polyline"
         id="path16329"
         d="M 199.62558,7.7792523 180.6768,35.473215"
         style="fill:none;fill-rule:evenodd;stroke:#c8c8c8;stroke-width:0.26458332px;stroke-linecap:butt;stroke-linejoin:miter;stroke-opacity:1" />
      <path
         inkscape:connection-end="#path16317"
         inkscape:connection-start="#circle16319"
         inkscape:connector-curvature="0"
         inkscape:connector-type="polyline"
         id="path16331"
         d="m 161.49551,55.263629 15.85772,14.289366"
         style="fill:none;fill-rule:evenodd;stroke:#c8c8c8;stroke-width:0.26458332px;stroke-linecap:butt;stroke-linejoin:miter;stroke-opacity:1" />
      <path
         inkscape:connection-end="#circle16323"
         inkscape:connection-start="#path16317"
         inkscape:connector-curvature="0"
         inkscape:connector-type="polyline"
         id="path16333"
         d="m 177.53906,70.917826 -10.9377,17.187816"
         style="fill:none;fill-rule:evenodd;stroke:#c8c8c8;stroke-width:0.26458332px;stroke-linecap:butt;stroke-linejoin:miter;stroke-opacity:1" />
      <path
         inkscape:connection-end="#path16317"
         inkscape:connection-start="#circle16321"
         inkscape:connector-curvature="0"
         inkscape:connector-type="polyline"
         id="path16335"
         d="m 180.23085,37.227955 -2.14718,32.02887"
         style="fill:none;fill-rule:evenodd;stroke:#c8c8c8;stroke-width:0.26458332px;stroke-linecap:butt;stroke-linejoin:miter;stroke-opacity:1" />
      <path
         inkscape:connection-end="#circle16325"
         inkscape:connection-start="#path16317"
         inkscape:connector-curvature="0"
         inkscape:connector-type="polyline"
         id="path16337"
         d="m 178.13476,71.051943 5.44679,43.755897"
         style="display:inline;fill:none;fill-rule:evenodd;stroke:#c8c8c8;stroke-width:0.26458332px;stroke-linecap:butt;stroke-linejoin:miter;stroke-opacity:1" />
      <path
         inkscape:connection-start="#circle16327"
         inkscape:connector-curvature="0"
         inkscape:connector-type="polyline"
         id="path16339"
         d="M 199.83364,7.8850142 178.08366,69.256826"
         style="fill:none;fill-rule:evenodd;stroke:#c8c8c8;stroke-width:0.26458332px;stroke-linecap:butt;stroke-linejoin:miter;stroke-opacity:1" />
      <path
         inkscape:connection-end="#circle16323"
         inkscape:connection-start="#circle16321"
         inkscape:connector-curvature="0"
         inkscape:connector-type="polyline"
         id="path16341"
         d="m 180.05623,37.198839 -13.7042,50.796925"
         style="fill:none;fill-rule:evenodd;stroke:#c8c8c8;stroke-width:0.26458332px;stroke-linecap:butt;stroke-linejoin:miter;stroke-opacity:1" />
      <path
         inkscape:connection-end="#circle16325"
         inkscape:connection-start="#circle16319"
         inkscape:connector-curvature="0"
         inkscape:connector-type="polyline"
         id="path16343"
         d="m 161.14184,55.5045 22.2347,59.35376"
         style="display:inline;fill:none;fill-rule:evenodd;stroke:#c8c8c8;stroke-width:0.26458332px;stroke-linecap:butt;stroke-linejoin:miter;stroke-opacity:1" />
      <path
         inkscape:connection-end="#circle16327"
         inkscape:connection-start="#circle16319"
         inkscape:connector-curvature="0"
         inkscape:connector-type="polyline"
         id="path16345"
         d="M 161.39961,53.964141 199.56075,7.7304657"
         style="fill:none;fill-rule:evenodd;stroke:#c8c8c8;stroke-width:0.26458332px;stroke-linecap:butt;stroke-linejoin:miter;stroke-opacity:1" />
      <path
         inkscape:connection-end="#circle16325"
         inkscape:connection-start="#circle16327"
         inkscape:connector-curvature="0"
         inkscape:connector-type="polyline"
         id="path16347"
         d="M 200,7.9266766 183.82792,114.81109"
         style="fill:none;fill-rule:evenodd;stroke:#c8c8c8;stroke-width:0.26458332px;stroke-linecap:butt;stroke-linejoin:miter;stroke-opacity:1" />
      <circle
         style="opacity:1;vector-effect:none;fill:#7d7d7d;fill-opacity:1;fill-rule:nonzero;stroke:none;stroke-width:0.1488281;stroke-linecap:butt;stroke-linejoin:round;stroke-miterlimit:4;stroke-dasharray:none;stroke-dashoffset:0;stroke-opacity:1;paint-order:normal"
         id="circle16323-8"
         cx="204.8631"
         cy="65.711311"
         r="0.90203458" />
      <circle
         style="opacity:1;vector-effect:none;fill:#7d7d7d;fill-opacity:1;fill-rule:nonzero;stroke:none;stroke-width:0.1488281;stroke-linecap:butt;stroke-linejoin:round;stroke-miterlimit:4;stroke-dasharray:none;stroke-dashoffset:0;stroke-opacity:1;paint-order:normal"
         id="circle16323-3"
         cx="202.78423"
         cy="126.56548"
         r="0.90203458" />
      <path
         inkscape:connection-end="#circle16323-8"
         inkscape:connection-start="#path16317"
         inkscape:connector-curvature="0"
         inkscape:connector-type="polyline"
         id="path16404"
         d="M 178.91323,70.009428 203.9732,65.858706"
         style="fill:none;fill-rule:evenodd;stroke:#c8c8c8;stroke-width:0.26458332px;stroke-linecap:butt;stroke-linejoin:miter;stroke-opacity:1" />
      <path
         inkscape:connection-end="#circle16325"
         inkscape:connection-start="#circle16323-3"
         inkscape:connector-curvature="0"
         inkscape:connector-type="polyline"
         id="path16406"
         d="m 202.00022,126.1194 -17.52324,-9.97036"
         style="fill:none;fill-rule:evenodd;stroke:#c8c8c8;stroke-width:0.26458332px;stroke-linecap:butt;stroke-linejoin:miter;stroke-opacity:1" />
      <path
         inkscape:connection-end="#circle16323-8"
         inkscape:connection-start="#circle16319"
         inkscape:connector-curvature="0"
         inkscape:connector-type="polyline"
         id="path16408"
         d="M 161.70031,54.879363 203.9882,65.49175"
         style="fill:none;fill-rule:evenodd;stroke:#c8c8c8;stroke-width:0.26458332px;stroke-linecap:butt;stroke-linejoin:miter;stroke-opacity:1" />
      <path
         inkscape:connection-end="#circle16323-3"
         inkscape:connection-start="#circle16323"
         inkscape:connector-curvature="0"
         inkscape:connector-type="polyline"
         id="path16410"
         d="m 166.746,89.513262 35.40931,36.405608"
         style="fill:none;fill-rule:evenodd;stroke:#c8c8c8;stroke-width:0.26458332px;stroke-linecap:butt;stroke-linejoin:miter;stroke-opacity:1" />
    </g>
  </g>
</svg>
