<?xml version="1.0" encoding="UTF-8" standalone="no"?>
<!-- Created with Inkscape (http://www.inkscape.org/) -->

<svg
   xmlns:dc="http://purl.org/dc/elements/1.1/"
   xmlns:cc="http://creativecommons.org/ns#"
   xmlns:rdf="http://www.w3.org/1999/02/22-rdf-syntax-ns#"
   xmlns:svg="http://www.w3.org/2000/svg"
   xmlns="http://www.w3.org/2000/svg"
   xmlns:sodipodi="http://sodipodi.sourceforge.net/DTD/sodipodi-0.dtd"
   xmlns:inkscape="http://www.inkscape.org/namespaces/inkscape"
   id="svg2"
   version="1.1"
   inkscape:version="0.48.5 r10040"
   width="919.83807"
   height="919.83807"
   xml:space="preserve"
   sodipodi:docname="team.svg"
   inkscape:export-filename="C:\Users\mal\bafa2017.github.io\assets\images\team.png"
   inkscape:export-xdpi="19.57"
   inkscape:export-ydpi="19.57"><metadata
     id="metadata8"><rdf:RDF><cc:Work
         rdf:about=""><dc:format>image/svg+xml</dc:format><dc:type
           rdf:resource="http://purl.org/dc/dcmitype/StillImage" /><dc:title></dc:title></cc:Work></rdf:RDF></metadata><defs
     id="defs6"><linearGradient
       id="linearGradient5977"><stop
         style="stop-color:#9b9b9b;stop-opacity:1;"
         offset="0"
         id="stop5979" /><stop
         style="stop-color:#828282;stop-opacity:0;"
         offset="1"
         id="stop5981" /></linearGradient><clipPath
       clipPathUnits="userSpaceOnUse"
       id="clipPath18"><path
         d="M 0,800 800,800 800,0 0,0 0,800 z"
         id="path20"
         inkscape:connector-curvature="0" /></clipPath><clipPath
       clipPathUnits="userSpaceOnUse"
       id="clipPath150"><path
         d="M 0,800 800,800 800,0 0,0 0,800 z"
         id="path152"
         inkscape:connector-curvature="0" /></clipPath><clipPath
       clipPathUnits="userSpaceOnUse"
       id="clipPath182"><path
         d="m 459.025,564.839 41.686,0 0,-14.611 -41.686,0 0,14.611 z"
         id="path184"
         inkscape:connector-curvature="0" /></clipPath><clipPath
       clipPathUnits="userSpaceOnUse"
       id="clipPath210"><path
         d="m 459.025,556.645 41.686,0 0,-26.697 -41.686,0 0,26.697 z"
         id="path212"
         inkscape:connector-curvature="0" /></clipPath><clipPath
       clipPathUnits="userSpaceOnUse"
       id="clipPath226"><path
         d="m 475.916,512.474 7.902,0 0,-0.256 -7.902,0 0,0.256 z"
         id="path228"
         inkscape:connector-curvature="0" /></clipPath><clipPath
       clipPathUnits="userSpaceOnUse"
       id="clipPath266"><path
         d="m 289.025,564.839 41.686,0 0,-14.611 -41.686,0 0,14.611 z"
         id="path268"
         inkscape:connector-curvature="0" /></clipPath><clipPath
       clipPathUnits="userSpaceOnUse"
       id="clipPath290"><path
         d="m 305.916,512.474 7.902,0 0,-0.256 -7.902,0 0,0.256 z"
         id="path292"
         inkscape:connector-curvature="0" /></clipPath><clipPath
       clipPathUnits="userSpaceOnUse"
       id="clipPath354"><path
         d="m 194.025,478.839 41.686,0 0,-14.611 -41.686,0 0,14.611 z"
         id="path356"
         inkscape:connector-curvature="0" /></clipPath><clipPath
       clipPathUnits="userSpaceOnUse"
       id="clipPath378"><path
         d="m 194.025,470.645 41.686,0 0,-26.697 -41.686,0 0,26.697 z"
         id="path380"
         inkscape:connector-curvature="0" /></clipPath><clipPath
       clipPathUnits="userSpaceOnUse"
       id="clipPath394"><path
         d="m 210.916,426.474 7.902,0 0,-0.256 -7.902,0 0,0.256 z"
         id="path396"
         inkscape:connector-curvature="0" /></clipPath><clipPath
       clipPathUnits="userSpaceOnUse"
       id="clipPath446"><path
         d="m 129.209,376.363 36.916,0 0,-12.825 -36.916,0 0,12.825 z"
         id="path448"
         inkscape:connector-curvature="0" /></clipPath><clipPath
       clipPathUnits="userSpaceOnUse"
       id="clipPath506"><path
         d="m 545.209,478.363 36.916,0 0,-12.825 -36.916,0 0,12.825 z"
         id="path508"
         inkscape:connector-curvature="0" /></clipPath><clipPath
       clipPathUnits="userSpaceOnUse"
       id="clipPath570"><path
         d="m 626.49,394.838 41.686,0 0,-14.61 -41.686,0 0,14.61 z"
         id="path572"
         inkscape:connector-curvature="0" /></clipPath><clipPath
       clipPathUnits="userSpaceOnUse"
       id="clipPath598"><path
         d="m 626.49,386.644 41.686,0 0,-26.697 -41.686,0 0,26.697 z"
         id="path600"
         inkscape:connector-curvature="0" /></clipPath><clipPath
       clipPathUnits="userSpaceOnUse"
       id="clipPath614"><path
         d="m 643.381,342.473 7.902,0 0,-0.256 -7.902,0 0,0.256 z"
         id="path616"
         inkscape:connector-curvature="0" /></clipPath><clipPath
       clipPathUnits="userSpaceOnUse"
       id="clipPath662"><path
         d="m 372.49,474.837 41.686,0 0,-14.611 -41.686,0 0,14.611 z"
         id="path664"
         inkscape:connector-curvature="0" /></clipPath><clipPath
       clipPathUnits="userSpaceOnUse"
       id="clipPath694"><path
         d="m 372.49,466.643 41.686,0 0,-26.697 -41.686,0 0,26.697 z"
         id="path696"
         inkscape:connector-curvature="0" /></clipPath><clipPath
       clipPathUnits="userSpaceOnUse"
       id="clipPath710"><path
         d="m 389.381,422.472 7.902,0 0,-0.256 -7.902,0 0,0.256 z"
         id="path712"
         inkscape:connector-curvature="0" /></clipPath><clipPath
       clipPathUnits="userSpaceOnUse"
       id="clipPath746"><path
         d="m 505.209,346.363 36.916,0 0,-12.825 -36.916,0 0,12.825 z"
         id="path748"
         inkscape:connector-curvature="0" /></clipPath><clipPath
       clipPathUnits="userSpaceOnUse"
       id="clipPath784"><path
         d="m 505.209,334.145 36.916,0 0,-24.931 -36.916,0 0,24.931 z"
         id="path786"
         inkscape:connector-curvature="0" /></clipPath><clipPath
       clipPathUnits="userSpaceOnUse"
       id="clipPath844"><path
         d="m 262.588,360.352 41.685,0 0,-14.61 -41.685,0 0,14.61 z"
         id="path846"
         inkscape:connector-curvature="0" /></clipPath><clipPath
       clipPathUnits="userSpaceOnUse"
       id="clipPath884"><path
         d="m 262.588,352.158 41.685,0 0,-26.696 -41.685,0 0,26.696 z"
         id="path886"
         inkscape:connector-curvature="0" /></clipPath><clipPath
       clipPathUnits="userSpaceOnUse"
       id="clipPath900"><path
         d="m 279.479,307.987 7.903,0 0,-0.256 -7.903,0 0,0.256 z"
         id="path902"
         inkscape:connector-curvature="0" /></clipPath><clipPath
       clipPathUnits="userSpaceOnUse"
       id="clipPath960"><path
         d="m 369.444,334.809 41.686,0 0,-14.611 -41.686,0 0,14.611 z"
         id="path962"
         inkscape:connector-curvature="0" /></clipPath><clipPath
       clipPathUnits="userSpaceOnUse"
       id="clipPath988"><path
         d="m 369.444,326.614 41.686,0 0,-26.696 -41.686,0 0,26.696 z"
         id="path990"
         inkscape:connector-curvature="0" /></clipPath><clipPath
       clipPathUnits="userSpaceOnUse"
       id="clipPath1004"><path
         d="m 386.335,282.443 7.903,0 0,-0.256 -7.903,0 0,0.256 z"
         id="path1006"
         inkscape:connector-curvature="0" /></clipPath></defs><sodipodi:namedview
     pagecolor="#ffffff"
     bordercolor="#666666"
     borderopacity="1"
     objecttolerance="10"
     gridtolerance="10"
     guidetolerance="10"
     inkscape:pageopacity="0"
     inkscape:pageshadow="2"
     inkscape:window-width="1920"
     inkscape:window-height="1011"
     id="namedview4"
     showgrid="false"
     fit-margin-top="0"
     fit-margin-left="0"
     fit-margin-right="0"
     fit-margin-bottom="0"
     inkscape:zoom="0.3337544"
     inkscape:cx="509.13152"
     inkscape:cy="327.98398"
     inkscape:window-x="-8"
     inkscape:window-y="-8"
     inkscape:window-maximized="1"
     inkscape:current-layer="g10" /><g
     id="g10"
     inkscape:groupmode="layer"
     inkscape:label="04"
     transform="matrix(1.25,0,0,-1.25,-40.081025,1010.1525)"
     style="display:inline"><path
       transform="matrix(0.8,0,0,-0.8,-11.080663,795.54847)"
       d="m 973.76993,444.20209 c 0,254.00627 -205.91277,459.91903 -459.91904,459.91903 -254.00627,0 -459.919036,-205.91276 -459.919036,-459.91903 0,-254.00627 205.912766,-459.919039 459.919036,-459.919039 254.00627,0 459.91904,205.912769 459.91904,459.919039 z"
       sodipodi:ry="459.91904"
       sodipodi:rx="459.91904"
       sodipodi:cy="444.20209"
       sodipodi:cx="513.85089"
       id="path4814"
       style="fill:#f0f0f0;fill-opacity:1;fill-rule:nonzero;stroke:none"
       sodipodi:type="arc" /><g
       id="g4429"><g
         transform="translate(460.4512,550.3652)"
         id="g154"><path
           inkscape:connector-curvature="0"
           id="path156"
           style="fill:#ffdecc;fill-opacity:1;fill-rule:evenodd;stroke:none"
           d="m 0,0 c -42.928,-18.818 -55.805,-28.85 -60.896,-33.355 -7.844,-6.941 -12.182,-32.816 -16.809,-54.784 l 97.121,0 97.119,0 c -4.625,21.968 -8.965,47.843 -16.808,54.784 -5.088,4.505 -17.495,14.279 -60.424,33.1 L 0,0 z" /></g><g
         transform="translate(460.4502,550.3652)"
         id="g158"><path
           inkscape:connector-curvature="0"
           id="path160"
           style="fill:#333333;fill-opacity:1;fill-rule:evenodd;stroke:none"
           d="m 0,0 c -42.927,-18.818 -55.804,-28.85 -60.895,-33.355 -7.844,-6.941 -12.182,-32.816 -16.809,-54.784 l 97.121,0 97.119,0 c -4.625,21.968 -8.965,47.843 -16.808,54.784 -5.088,4.505 -17.495,14.279 -60.424,33.1 L 0,0 z" /></g><g
         transform="translate(459.0254,587.8818)"
         id="g162"><path
           inkscape:connector-curvature="0"
           id="path164"
           style="fill:#f6c89d;fill-opacity:1;fill-rule:evenodd;stroke:none"
           d="m 0,0 0,-31.858 0,-15.727 c 11.463,-13.554 30.221,-14.041 41.686,0 l 0,15.727 0,31.858 C 41.686,25.693 0,25.693 0,0" /></g><g
         transform="translate(436.4023,617.7949)"
         id="g166"><path
           inkscape:connector-curvature="0"
           id="path168"
           style="fill:#f6c89d;fill-opacity:1;fill-rule:evenodd;stroke:none"
           d="m 0,0 c 3.67,1.211 8.342,-2.957 10.432,-9.305 2.091,-6.349 0.81,-12.476 -2.863,-13.685 -3.67,-1.208 -8.341,2.956 -10.43,9.308 C -4.955,-7.333 -3.672,-1.208 0,0" /></g><g
         transform="translate(523.1504,617.7949)"
         id="g170"><path
           inkscape:connector-curvature="0"
           id="path172"
           style="fill:#f6c89d;fill-opacity:1;fill-rule:evenodd;stroke:none"
           d="m 0,0 c -3.674,1.211 -8.346,-2.957 -10.436,-9.305 -2.091,-6.349 -0.806,-12.476 2.862,-13.685 3.674,-1.208 8.345,2.956 10.435,9.308 C 4.951,-7.333 3.668,-1.208 0,0" /></g><g
         transform="translate(459.0254,556.0234)"
         id="g174"><path
           inkscape:connector-curvature="0"
           id="path176"
           style="fill:#ffffff;fill-opacity:1;fill-rule:evenodd;stroke:none"
           d="M 0,0 -1.822,-7.089 3.277,-43.999 20.951,-26.075 0,0 z" /></g><g
         id="g178"><g
           id="g180" /><g
           id="g186"><g
             style="opacity:0.19999701"
             id="g188"
             clip-path="url(#clipPath182)"><g
               id="g190"
               transform="translate(459.0254,564.8389)"><path
                 inkscape:connector-curvature="0"
                 id="path192"
                 style="fill:#000000;fill-opacity:1;fill-rule:nonzero;stroke:none"
                 d="m 0,0 0,-1.504 c 0,0 10.648,-12.639 20.805,-13.095 10.156,-0.456 20.881,12.237 20.881,12.237 l 0,2.31" /></g></g></g></g><g
         transform="translate(479.9023,673.3115)"
         id="g194"><path
           inkscape:connector-curvature="0"
           id="path196"
           style="fill:#f6c89d;fill-opacity:1;fill-rule:evenodd;stroke:none"
           d="m 0,0 c -64.125,0 -39.547,-87.837 -35.358,-94.566 4.618,-7.421 25,-23.779 35.358,-23.779 10.361,0 30.74,16.358 35.361,23.779 C 39.551,-87.837 64.127,0 0,0" /></g><g
         transform="translate(525.4355,613.1436)"
         id="g198"><path
           inkscape:connector-curvature="0"
           id="path200"
           style="fill:#80604a;fill-opacity:1;fill-rule:nonzero;stroke:none"
           d="m 0,0 c 3.342,16.335 1.184,54.385 -11.534,53.12 -11.823,12.019 -53.025,14.233 -64.31,1.265 -25.835,-4.974 -13.847,-54.605 -13.847,-54.605 0.808,-4.822 1.92,-9.247 3.056,-12.952 1.731,0.121 3.462,0.228 5.201,0.32 -1.873,3.413 -3.423,6.92 -4.023,9.494 -0.341,1.465 -1.094,6.809 -1.046,7.976 0.363,8.925 6.824,34.917 17.944,36.957 4.336,0.795 15.168,-8.961 22.272,-8.948 7.465,0.197 16.842,10.024 21.676,9.369 C -13.054,40.43 -3.25,16.563 -3.353,5.043 -3.363,3.562 -5.23,-5.283 -8.027,-11.543 c 1.862,0.098 3.716,0.213 5.567,0.344 0.944,3.324 1.833,7.112 2.508,11.181 L 0,0 z" /></g><g
         transform="translate(500.7109,556.0234)"
         id="g202"><path
           inkscape:connector-curvature="0"
           id="path204"
           style="fill:#ffffff;fill-opacity:1;fill-rule:evenodd;stroke:none"
           d="M 0,0 1.437,-6.972 -3.354,-44.368 -20.734,-26.075 0,0 z" /></g><g
         id="g206"><g
           id="g208" /><g
           id="g214"><g
             style="opacity:0.05000311"
             id="g216"
             clip-path="url(#clipPath210)"><g
               id="g218"
               transform="translate(459.0254,556.0234)"><path
                 inkscape:connector-curvature="0"
                 id="path220"
                 style="fill:#000000;fill-opacity:1;fill-rule:nonzero;stroke:none"
                 d="M 0,0 20.951,-26.075 41.686,0 l 0,0.621 L 20.951,-25.338 0,0.621 0,0 z" /></g></g></g></g><g
         id="g222"><g
           id="g224" /><g
           id="g230"><g
             style="opacity:0.10000598"
             id="g232"
             clip-path="url(#clipPath226)"><g
               id="g234"
               transform="translate(475.9531,512.4736)"><path
                 inkscape:connector-curvature="0"
                 id="path236"
                 style="fill:#000000;fill-opacity:1;fill-rule:evenodd;stroke:none"
                 d="m 0,0 7.828,0 0.037,-0.256 -7.902,0 L 0,0 z" /></g></g></g></g><g
         transform="translate(481.4648,589.1885)"
         id="g238"><path
           inkscape:connector-curvature="0"
           id="path240"
           style="fill:#80604a;fill-opacity:1;fill-rule:evenodd;stroke:none"
           d="m 0,0 c -0.892,0.009 -1.562,-1.304 -1.562,-1.304 0,0 -0.669,1.313 -1.561,1.304 -3.674,-0.039 -18.742,-1.52 -23.129,-7.104 0,0 21.306,0.369 22.474,0.714 1.168,0.346 2.216,2.656 2.216,2.656 0,0 1.049,-2.31 2.217,-2.656 C 1.822,-6.735 23.129,-7.104 23.129,-7.104 18.742,-1.52 3.674,-0.039 0,0" /></g><g
         transform="translate(290.4512,550.3652)"
         id="g242"><path
           inkscape:connector-curvature="0"
           id="path244"
           style="fill:#ffdecc;fill-opacity:1;fill-rule:evenodd;stroke:none"
           d="m 0,0 c -42.928,-18.818 -55.805,-28.85 -60.896,-33.355 -7.844,-6.941 -12.182,-32.816 -16.809,-54.784 l 97.121,0 97.119,0 c -4.625,21.968 -8.965,47.843 -16.808,54.784 -5.088,4.505 -17.495,14.279 -60.424,33.1 L 0,0 z" /></g><g
         transform="translate(290.4502,550.3652)"
         id="g246"><path
           inkscape:connector-curvature="0"
           id="path248"
           style="fill:#c93838;fill-opacity:1;fill-rule:evenodd;stroke:none"
           d="m 0,0 c -42.927,-18.818 -55.804,-28.85 -60.895,-33.355 -7.844,-6.941 -12.182,-32.816 -16.809,-54.784 l 97.121,0 97.119,0 c -4.625,21.968 -8.965,47.843 -16.808,54.784 -5.088,4.505 -17.495,14.279 -60.424,33.1 L 0,0 z" /></g><g
         transform="translate(289.0254,587.8818)"
         id="g250"><path
           inkscape:connector-curvature="0"
           id="path252"
           style="fill:#f6d1af;fill-opacity:1;fill-rule:evenodd;stroke:none"
           d="m 0,0 0,-31.858 0,-15.727 c 11.463,-13.554 30.221,-14.041 41.686,0 l 0,15.727 0,31.858 C 41.686,25.693 0,25.693 0,0" /></g><g
         transform="translate(266.4023,617.7949)"
         id="g254"><path
           inkscape:connector-curvature="0"
           id="path256"
           style="fill:#f6d1af;fill-opacity:1;fill-rule:evenodd;stroke:none"
           d="m 0,0 c 3.67,1.211 8.342,-2.957 10.432,-9.305 2.091,-6.349 0.81,-12.476 -2.863,-13.685 -3.67,-1.208 -8.341,2.956 -10.43,9.308 C -4.955,-7.333 -3.672,-1.208 0,0" /></g><g
         transform="translate(353.1504,617.7949)"
         id="g258"><path
           inkscape:connector-curvature="0"
           id="path260"
           style="fill:#f6d1af;fill-opacity:1;fill-rule:evenodd;stroke:none"
           d="m 0,0 c -3.674,1.211 -8.346,-2.957 -10.436,-9.305 -2.091,-6.349 -0.806,-12.476 2.862,-13.685 3.674,-1.208 8.345,2.956 10.435,9.308 C 4.951,-7.333 3.668,-1.208 0,0" /></g><g
         id="g262"><g
           id="g264" /><g
           id="g270"><g
             style="opacity:0.19999701"
             id="g272"
             clip-path="url(#clipPath266)"><g
               id="g274"
               transform="translate(289.0254,564.8389)"><path
                 inkscape:connector-curvature="0"
                 id="path276"
                 style="fill:#000000;fill-opacity:1;fill-rule:nonzero;stroke:none"
                 d="m 0,0 0,-1.504 c 0,0 10.648,-12.639 20.805,-13.095 10.156,-0.456 20.881,12.237 20.881,12.237 l 0,2.31" /></g></g></g></g><g
         transform="translate(309.9023,673.3115)"
         id="g278"><path
           inkscape:connector-curvature="0"
           id="path280"
           style="fill:#f6d1af;fill-opacity:1;fill-rule:evenodd;stroke:none"
           d="m 0,0 c -64.125,0 -39.547,-87.837 -35.358,-94.566 4.618,-7.421 25,-23.779 35.358,-23.779 10.361,0 30.74,16.358 35.361,23.779 C 39.551,-87.837 64.127,0 0,0" /></g><g
         transform="translate(305.8418,654.5107)"
         id="g282"><path
           inkscape:connector-curvature="0"
           id="path284"
           style="fill:#343434;fill-opacity:1;fill-rule:nonzero;stroke:none"
           d="M 0,0 C -0.359,0.113 -0.72,0.217 -1.08,0.322 -0.545,0.192 -0.008,0.053 0.529,-0.098 0.353,-0.062 0.177,-0.032 0,0 m 32.826,16.749 c -21.658,17.042 -55.098,6.881 -65.195,-7.32 -12.638,-17.773 -8.168,-44.756 -5.176,-65.032 -0.002,0.031 -10e-4,0.058 -0.002,0.088 0.034,-0.204 0.075,-0.411 0.131,-0.629 0.043,-0.165 0.402,-0.632 0.473,-0.76 0.105,-0.192 0.89,0.016 1.15,0.142 0.096,0.044 0.138,0.168 0.143,0.272 0.121,1.789 0.011,5.336 0.007,5.376 -0.237,2.789 -0.843,5.476 -1.252,8.203 2.027,12.783 8.026,15.469 11.17,30.886 0.664,1.03 1.377,2.029 2.123,3.002 0.86,1.118 1.748,2.195 2.787,3.151 0.545,0.332 1.071,0.693 1.579,1.087 11.654,4.269 23.672,-0.852 34.675,-5.342 4.206,-1.717 4.829,5.753 9.467,6.113 1.983,0.155 6.081,-6.562 7.748,-6.365 16.516,1.949 9.608,-23.089 12.168,-34.657 -0.351,-2.008 -0.728,-4.016 -0.904,-6.078 -0.004,-0.04 -0.111,-3.587 0.008,-5.376 0.006,-0.104 0.047,-0.228 0.142,-0.272 0.26,-0.126 1.045,-0.334 1.151,-0.142 0.07,0.128 0.429,0.595 0.472,0.76 0.198,0.772 0.239,1.423 0.276,2.198 0.135,1.01 0.312,2.094 0.445,3.185 3.342,12.518 9.484,62.135 -13.586,67.51" /></g><g
         id="g286"><g
           id="g288" /><g
           id="g294"><g
             style="opacity:0.10000598"
             id="g296"
             clip-path="url(#clipPath290)"><g
               id="g298"
               transform="translate(305.9531,512.4736)"><path
                 inkscape:connector-curvature="0"
                 id="path300"
                 style="fill:#000000;fill-opacity:1;fill-rule:evenodd;stroke:none"
                 d="m 0,0 7.828,0 0.037,-0.256 -7.902,0 L 0,0 z" /></g></g></g></g><g
         transform="translate(322.2759,665.3301)"
         id="g302"><path
           inkscape:connector-curvature="0"
           id="path304"
           style="fill:#343434;fill-opacity:1;fill-rule:nonzero;stroke:none"
           d="m 0,0 c 0,0 -18.666,13 -35.333,6 -16.667,-7 -31.333,-9.667 -35,-5 0,0 -10.333,-21.667 9,-33 C -42,-43.333 -20,-34.333 -13.667,-27.333 -7.333,-20.333 3,-9 8.667,-11.333 14.333,-13.667 0,0 0,0" /></g><g
         transform="translate(195.4512,464.3652)"
         id="g306"><path
           inkscape:connector-curvature="0"
           id="path308"
           style="fill:#ffdecc;fill-opacity:1;fill-rule:evenodd;stroke:none"
           d="m 0,0 c -42.928,-18.818 -55.805,-28.85 -60.896,-33.355 -7.844,-6.941 -12.182,-32.816 -16.809,-54.784 l 97.121,0 97.119,0 c -4.625,21.968 -8.965,47.843 -16.808,54.784 -5.088,4.505 -17.495,14.279 -60.424,33.1 L 0,0 z" /></g><g
         transform="translate(195.4502,464.3652)"
         id="g310"><path
           inkscape:connector-curvature="0"
           id="path312"
           style="fill:#ededed;fill-opacity:1;fill-rule:evenodd;stroke:none"
           d="m 0,0 c -42.927,-18.818 -55.804,-28.85 -60.895,-33.355 -7.844,-6.941 -12.182,-32.816 -16.809,-54.784 l 97.121,0 97.119,0 c -4.625,21.968 -8.965,47.843 -16.808,54.784 -5.088,4.505 -17.495,14.279 -60.424,33.1 L 0,0 z" /></g><g
         transform="translate(194.0254,501.8818)"
         id="g314"><path
           inkscape:connector-curvature="0"
           id="path316"
           style="fill:#f6c8ac;fill-opacity:1;fill-rule:evenodd;stroke:none"
           d="m 0,0 0,-31.858 0,-15.727 c 11.463,-13.554 30.221,-14.041 41.686,0 l 0,15.727 0,31.858 C 41.686,25.693 0,25.693 0,0" /></g><g
         transform="translate(171.4023,531.7949)"
         id="g318"><path
           inkscape:connector-curvature="0"
           id="path320"
           style="fill:#f6c8ac;fill-opacity:1;fill-rule:evenodd;stroke:none"
           d="m 0,0 c 3.67,1.211 8.342,-2.957 10.432,-9.305 2.091,-6.349 0.81,-12.476 -2.863,-13.685 -3.67,-1.208 -8.341,2.956 -10.43,9.308 C -4.955,-7.333 -3.672,-1.208 0,0" /></g><g
         transform="translate(258.1504,531.7949)"
         id="g322"><path
           inkscape:connector-curvature="0"
           id="path324"
           style="fill:#f6c8ac;fill-opacity:1;fill-rule:evenodd;stroke:none"
           d="m 0,0 c -3.674,1.211 -8.346,-2.957 -10.436,-9.305 -2.091,-6.349 -0.806,-12.476 2.862,-13.685 3.674,-1.208 8.345,2.956 10.435,9.308 C 4.951,-7.333 3.668,-1.208 0,0" /></g><g
         transform="translate(214.9766,443.9482)"
         id="g326"><path
           inkscape:connector-curvature="0"
           id="path328"
           style="fill:#343434;fill-opacity:1;fill-rule:evenodd;stroke:none"
           d="m 0,0 c 0,0 -29.088,-6.942 -29.088,-8.703 0,-1.761 11.068,-59.019 11.068,-59.019 l 39.491,0 4.527,58.767 L 0,0 z" /></g><g
         transform="translate(194.0254,463.7402)"
         id="g330"><path
           inkscape:connector-curvature="0"
           id="path332"
           style="fill:#1a1a1a;fill-opacity:1;fill-rule:evenodd;stroke:none"
           d="m 0,0 0,-9.443 9.055,-78.071 -15.571,0 -17.127,34.772 16.35,10.9 -19.98,9.341 L -8.9,-3.99 0,0 z" /></g><g
         transform="translate(235.7109,463.6914)"
         id="g334"><path
           inkscape:connector-curvature="0"
           id="path336"
           style="fill:#1b1b1b;fill-opacity:1;fill-rule:evenodd;stroke:none"
           d="m 0,0 0,-9.395 -9.143,-78.07 15.569,0 17.127,34.772 -16.348,10.9 19.979,9.341 L 10.855,-4.82 0,0 z" /></g><g
         transform="translate(205.9043,434.2949)"
         id="g338"><path
           inkscape:connector-curvature="0"
           id="path340"
           style="fill:#268085;fill-opacity:1;fill-rule:evenodd;stroke:none"
           d="m 0,0 5.049,-7.821 7.828,0 L 17.928,0 9.072,9.653 0,0 z" /></g><g
         transform="translate(210.9531,426.4736)"
         id="g342"><path
           inkscape:connector-curvature="0"
           id="path344"
           style="fill:#268085;fill-opacity:1;fill-rule:evenodd;stroke:none"
           d="m 0,0 -7.187,-50.247 22.205,0 L 7.828,0 0,0 z" /></g><g
         transform="translate(194.0254,470.0234)"
         id="g346"><path
           inkscape:connector-curvature="0"
           id="path348"
           style="fill:#343434;fill-opacity:1;fill-rule:evenodd;stroke:none"
           d="M 0,0 -1.822,-7.089 3.277,-43.999 20.951,-26.075 0,0 z" /></g><g
         id="g350"><g
           id="g352" /><g
           id="g358"><g
             style="opacity:0.19999701"
             id="g360"
             clip-path="url(#clipPath354)"><g
               id="g362"
               transform="translate(194.0254,478.8389)"><path
                 inkscape:connector-curvature="0"
                 id="path364"
                 style="fill:#000000;fill-opacity:1;fill-rule:nonzero;stroke:none"
                 d="m 0,0 0,-1.504 c 0,0 10.648,-12.639 20.805,-13.095 10.156,-0.456 20.881,12.237 20.881,12.237 l 0,2.31" /></g></g></g></g><g
         transform="translate(214.9023,587.3115)"
         id="g366"><path
           inkscape:connector-curvature="0"
           id="path368"
           style="fill:#f6c8ac;fill-opacity:1;fill-rule:evenodd;stroke:none"
           d="m 0,0 c -64.125,0 -39.547,-87.837 -35.358,-94.566 4.618,-7.421 25,-23.779 35.358,-23.779 10.361,0 30.74,16.358 35.361,23.779 C 39.551,-87.837 64.127,0 0,0" /></g><g
         transform="translate(235.7109,470.0234)"
         id="g370"><path
           inkscape:connector-curvature="0"
           id="path372"
           style="fill:#343434;fill-opacity:1;fill-rule:evenodd;stroke:none"
           d="M 0,0 1.437,-6.972 -3.354,-44.368 -20.734,-26.075 0,0 z" /></g><g
         id="g374"><g
           id="g376" /><g
           id="g382"><g
             style="opacity:0.05000311"
             id="g384"
             clip-path="url(#clipPath378)"><g
               id="g386"
               transform="translate(194.0254,470.0234)"><path
                 inkscape:connector-curvature="0"
                 id="path388"
                 style="fill:#000000;fill-opacity:1;fill-rule:nonzero;stroke:none"
                 d="M 0,0 20.951,-26.075 41.686,0 l 0,0.621 L 20.951,-25.338 0,0.621 0,0 z" /></g></g></g></g><g
         id="g390"><g
           id="g392" /><g
           id="g398"><g
             style="opacity:0.10000598"
             id="g400"
             clip-path="url(#clipPath394)"><g
               id="g402"
               transform="translate(210.9531,426.4736)"><path
                 inkscape:connector-curvature="0"
                 id="path404"
                 style="fill:#000000;fill-opacity:1;fill-rule:evenodd;stroke:none"
                 d="m 0,0 7.828,0 0.037,-0.256 -7.902,0 L 0,0 z" /></g></g></g></g><g
         transform="translate(256.606,522.3047)"
         id="g406"><path
           inkscape:connector-curvature="0"
           id="path408"
           style="fill:#605343;fill-opacity:1;fill-rule:nonzero;stroke:none"
           d="m 0,0 c -0.324,-1.198 -0.658,-2.262 -0.658,-2.262 0,0 -5.75,-19.573 -10.665,-25.637 -9.517,-11.739 -21.936,-19.009 -30.4,-19.058 -8.318,-0.048 -20.575,6.557 -30.194,18.035 -3.806,4.541 -10.791,24.989 -10.908,26.66 -0.074,1.041 -0.323,2.084 -0.548,3.124 -1.286,0.039 -1.326,-8.681 -1.326,-8.681 1.941,-10.155 3.31,-16.847 7.297,-22.42 6.368,-8.9 24.347,-22.973 35.263,-22.973 10.921,0 28.897,14.071 35.263,22.973 4.019,5.62 5.118,13.098 7.33,23.645 0,0 0.544,6.513 -0.454,6.594" /></g><g
         transform="translate(234.5659,496.0605)"
         id="g410"><path
           inkscape:connector-curvature="0"
           id="path412"
           style="fill:#605343;fill-opacity:1;fill-rule:evenodd;stroke:none"
           d="m 0,0 c -1.478,3.121 -13.442,7.345 -15.591,8.136 -2.153,0.793 -3.677,-1.966 -3.677,-1.966 0,0 -1.525,2.759 -3.676,1.966 C -25.095,7.345 -37.059,3.121 -38.538,0 c -1.477,-3.122 -2.197,-5.284 -2.197,-7.423 l 0,-9.744 c 0,0 2.119,-0.136 3.34,0.79 1.223,0.923 2.614,3.548 2.614,6.815 0,3.266 2.402,5.893 5.317,6.486 3.078,0.624 10.196,1.813 10.196,3.747 0,-1.934 7.613,-3.275 10.196,-3.747 2.926,-0.534 5.318,-3.22 5.318,-6.486 0,-3.267 1.39,-5.892 2.611,-6.815 1.224,-0.926 3.341,-0.79 3.341,-0.79 l 0,9.744 C 2.198,-5.284 1.479,-3.122 0,0" /></g><g
         transform="translate(195.8833,536.9941)"
         id="g414"><path
           inkscape:connector-curvature="0"
           id="path416"
           style="fill:#268085;fill-opacity:1;fill-rule:evenodd;stroke:none"
           d="m 0,0 c -6.617,0.353 -15.382,-0.481 -17,-1.037 -2.081,-0.72 -2.146,-0.904 -2.292,-2.597 -0.143,-1.69 0.078,-3.147 1.273,-3.58 1.642,-0.591 1.587,-2.856 2.487,-9.353 0.809,-5.915 3.089,-10.587 13.474,-11.413 0.53,-0.046 1.045,-0.063 1.545,-0.069 l 0.031,1.651 c -4.771,-0.039 -10.08,1.767 -11.866,5.456 -2.507,5.176 -2.858,15.634 0.636,17.825 1.508,0.946 6.51,1.599 11.685,1.363 L 0,0 z M 19.893,-3.347 C 17.591,-3.402 8.169,-0.685 1.468,-0.107 0.992,-0.062 0.503,-0.026 0,0 L -0.027,-1.754 C 5.42,-2.003 11.06,-3.237 12.991,-6.145 16.161,-10.917 10.465,-22.582 5.314,-25.18 3.75,-25.969 1.686,-26.376 -0.482,-26.398 l -0.031,-1.651 c 9.021,-0.013 12.355,6.49 13.467,8.661 2.096,4.084 1.663,9.715 6.826,9.725 5.156,0.013 4.481,-5.515 6.324,-9.595 0.994,-2.2 3.922,-8.956 13.282,-8.691 l 0.025,1.645 c -2.308,-0.036 -4.504,0.362 -6.113,1.189 -4.991,2.574 -9.984,14.212 -6.517,18.996 2.086,2.889 7.683,4.152 13.082,4.443 l 0.028,1.75 C 39.478,0.052 39.071,0.022 38.675,-0.016 32.638,-0.565 25.319,-3.205 19.893,-3.347 m 19.493,-24.602 c 0.358,0.01 0.733,0.032 1.115,0.064 10.433,0.872 13.002,5.561 14.172,11.479 1.292,6.504 1.374,8.766 3.055,9.363 1.228,0.443 1.529,1.897 1.494,3.592 -0.045,1.687 -0.098,1.871 -2.133,2.576 -1.61,0.562 -10.516,1.369 -17.198,0.949 l -0.028,-1.75 c 5.263,0.286 10.342,-0.346 11.811,-1.3 3.35,-2.168 2.372,-12.634 -0.451,-17.82 -1.958,-3.6 -7.141,-5.431 -11.812,-5.508 l -0.025,-1.645 z" /></g><g
         transform="translate(134.0737,481.3091)"
         id="g418"><path
           inkscape:connector-curvature="0"
           id="path420"
           style="fill:#bf9741;fill-opacity:1;fill-rule:evenodd;stroke:none"
           d="m 0,0 c 3.945,7.265 35.394,13.672 48.223,-12.158 12.833,-25.829 6.369,-34.878 13.444,-43.994 7.081,-9.118 -9.613,-79.693 -49.139,-79.464 -42.25,0.246 -51.465,67.746 -43.059,81.423 C -22.122,-40.521 -29.469,0.019 0,0" /></g><g
         transform="translate(165.0771,361.1797)"
         id="g422"><path
           inkscape:connector-curvature="0"
           id="path424"
           style="fill:#7491a0;fill-opacity:1;fill-rule:evenodd;stroke:none"
           d="m 0,0 c -0.358,-0.561 -35.554,-1.123 -35.944,-1.679 -11.052,-15.766 -34.935,-18.675 -53.926,-22.922 -18.898,-4.224 -19.627,-28.231 -19.658,-44.219 l 184.236,0 C 74.68,-52.832 74.327,-28.914 55.046,-24.601 35.767,-20.29 10.485,-16.484 0,0" /></g><g
         transform="translate(166.1475,359.6172)"
         id="g426"><path
           inkscape:connector-curvature="0"
           id="path428"
           style="fill:#ffffff;fill-opacity:1;fill-rule:evenodd;stroke:none"
           d="m 0,0 0,-8.68 -8.99,-58.58 -19.16,0 -8.91,57.949 0,9.121 c 0.02,0.02 0.03,0.05 0.05,0.07 C -36.62,0.439 -1.43,1 -1.07,1.56 -0.73,1.03 -0.38,0.51 0,0" /></g><g
         transform="translate(129.209,398.8574)"
         id="g430"><path
           inkscape:connector-curvature="0"
           id="path432"
           style="fill:#f6dbc2;fill-opacity:1;fill-rule:evenodd;stroke:none"
           d="m 0,0 0,-30.279 0,-14.944 c 9.248,-18.921 25.851,-19.412 36.916,0 l 0,14.944 0,30.279 C 36.916,24.417 0,24.417 0,0" /></g><g
         transform="translate(196.3584,419.9727)"
         id="g434"><path
           inkscape:connector-curvature="0"
           id="path436"
           style="fill:#f6dbc2;fill-opacity:1;fill-rule:evenodd;stroke:none"
           d="m 0,0 c -3.688,1.66 -8.896,-2.415 -11.634,-9.097 -2.74,-6.688 -1.972,-13.453 1.716,-15.112 3.689,-1.66 8.899,2.411 11.637,9.097 C 4.456,-8.427 3.688,-1.663 0,0" /></g><g
         transform="translate(99.0098,419.9727)"
         id="g438"><path
           inkscape:connector-curvature="0"
           id="path440"
           style="fill:#f6dbc2;fill-opacity:1;fill-rule:evenodd;stroke:none"
           d="m 0,0 c 3.688,1.66 8.896,-2.411 11.637,-9.097 2.736,-6.688 1.968,-13.453 -1.72,-15.112 -3.688,-1.66 -8.896,2.411 -11.636,9.097 C -4.456,-8.427 -3.685,-1.663 0,0" /></g><g
         id="g442"><g
           id="g444" /><g
           id="g450"><g
             style="opacity:0.19999701"
             id="g452"
             clip-path="url(#clipPath446)"><g
               id="g454"
               transform="translate(129.209,376.3633)"><path
                 inkscape:connector-curvature="0"
                 id="path456"
                 style="fill:#000000;fill-opacity:1;fill-rule:evenodd;stroke:none"
                 d="m 0,0 0,-1.259 c 0,0 11.582,-11.566 18.286,-11.566 6.702,0 18.63,11.695 18.63,11.695 L 36.916,0 0,0 z" /></g></g></g></g><g
         transform="translate(147.7041,367.5762)"
         id="g458"><path
           inkscape:connector-curvature="0"
           id="path460"
           style="fill:#f6dbc2;fill-opacity:1;fill-rule:evenodd;stroke:none"
           d="m 0,0 c -11.463,0 -35.68,18.895 -43.164,45.953 -7.56,27.326 6.676,66.519 43.164,66.519 36.485,0 50.724,-39.193 43.161,-66.519 C 35.673,18.895 11.46,0 0,0" /></g><g
         transform="translate(155.1206,446.1621)"
         id="g462"><path
           inkscape:connector-curvature="0"
           id="path464"
           style="fill:#bf9741;fill-opacity:1;fill-rule:evenodd;stroke:none"
           d="m 0,0 c 8.953,-18.771 12.586,-24.312 24.49,-19.356 11.903,4.953 9.644,-8.935 7.479,-18.843 10.542,13.383 9.303,26.093 6.026,39.014 C 34.401,14.976 16.277,36.52 -0.723,36.123 -9.96,37.094 -23.939,35.947 -38.811,25.229 -64.779,6.513 -56.106,-35.537 -49.112,-40.496 -55.888,-1.549 -39.297,-9.478 -27.85,10.895 -24.089,19.853 -9.73,20.406 0,0" /></g><g
         transform="translate(138.1475,292.377)"
         id="g466"><path
           inkscape:connector-curvature="0"
           id="path468"
           style="fill:#ededed;fill-opacity:1;fill-rule:evenodd;stroke:none"
           d="m 0,0 -15.57,0 -1.07,-0.02 -16.06,14.65 16.35,10.9 -19.98,9.35 13.23,20.54 5.14,7.97 8.9,3.99 0,-9.45 L -0.15,-0.02 0,0 z" /></g><g
         transform="translate(173.3574,318.5371)"
         id="g470"><path
           inkscape:connector-curvature="0"
           id="path472"
           style="fill:#ededed;fill-opacity:1;fill-rule:evenodd;stroke:none"
           d="m 0,0 16.34,-10.9 -16.09,-15.28 -1.03,0.02 -15.57,0 0.15,-0.02 8.99,58.58 0,9.39 L 3.65,36.97 8.44,28.85 19.97,9.34 0,0 z" /></g><g
         transform="translate(524.0547,569.1421)"
         id="g474"><path
           inkscape:connector-curvature="0"
           id="path476"
           style="fill:#605343;fill-opacity:1;fill-rule:evenodd;stroke:none"
           d="m 0,0 c 2.169,7.265 19.456,13.672 26.509,-12.158 7.054,-25.829 3.502,-34.878 7.39,-43.994 3.894,-9.118 -5.285,-79.693 -27.012,-79.464 -23.227,0.246 -28.292,67.746 -23.671,81.423 C -12.162,-40.521 -16.2,0.019 0,0" /></g><g
         transform="translate(600.4941,569.1421)"
         id="g478"><path
           inkscape:connector-curvature="0"
           id="path480"
           style="fill:#605343;fill-opacity:1;fill-rule:evenodd;stroke:none"
           d="m 0,0 c -2.169,7.265 -19.456,13.672 -26.509,-12.158 -7.054,-25.829 -3.502,-34.878 -7.39,-43.994 -3.894,-9.118 5.285,-79.693 27.012,-79.464 23.227,0.246 28.292,67.746 23.671,81.423 C 12.162,-40.521 16.2,0.019 0,0" /></g><g
         transform="translate(581.0771,463.1797)"
         id="g482"><path
           inkscape:connector-curvature="0"
           id="path484"
           style="fill:#c93838;fill-opacity:1;fill-rule:evenodd;stroke:none"
           d="m 0,0 c -0.358,-0.561 -35.554,-1.123 -35.944,-1.679 -11.052,-15.766 -34.935,-18.675 -53.926,-22.922 -18.898,-4.224 -19.627,-28.231 -19.658,-44.219 l 184.236,0 C 74.68,-52.832 74.327,-28.914 55.046,-24.601 35.767,-20.29 10.485,-16.484 0,0" /></g><g
         transform="translate(582.1475,461.6172)"
         id="g486"><path
           inkscape:connector-curvature="0"
           id="path488"
           style="fill:#c93838;fill-opacity:1;fill-rule:evenodd;stroke:none"
           d="m 0,0 0,-8.68 -8.989,-58.58 -19.16,0 -8.911,57.949 0,9.121 c 0.02,0.02 0.03,0.05 0.05,0.07 C -36.62,0.439 -1.43,1 -1.069,1.56 -0.729,1.03 -0.38,0.51 0,0" /></g><g
         transform="translate(545.209,500.8574)"
         id="g490"><path
           inkscape:connector-curvature="0"
           id="path492"
           style="fill:#f6dcb9;fill-opacity:1;fill-rule:evenodd;stroke:none"
           d="m 0,0 0,-30.279 0,-14.944 c 9.248,-18.921 25.851,-19.412 36.916,0 l 0,14.944 0,30.279 C 36.916,24.417 0,24.417 0,0" /></g><g
         transform="translate(612.3584,521.9727)"
         id="g494"><path
           inkscape:connector-curvature="0"
           id="path496"
           style="fill:#f6dcb9;fill-opacity:1;fill-rule:evenodd;stroke:none"
           d="m 0,0 c -3.688,1.66 -8.896,-2.415 -11.634,-9.097 -2.74,-6.688 -1.972,-13.453 1.716,-15.112 3.689,-1.66 8.899,2.411 11.637,9.097 C 4.456,-8.427 3.688,-1.663 0,0" /></g><g
         transform="translate(515.0098,521.9727)"
         id="g498"><path
           inkscape:connector-curvature="0"
           id="path500"
           style="fill:#f6dcb9;fill-opacity:1;fill-rule:evenodd;stroke:none"
           d="m 0,0 c 3.688,1.66 8.896,-2.411 11.637,-9.097 2.736,-6.688 1.968,-13.453 -1.72,-15.112 -3.688,-1.66 -8.896,2.411 -11.636,9.097 C -4.456,-8.427 -3.685,-1.663 0,0" /></g><g
         id="g502"><g
           id="g504" /><g
           id="g510"><g
             style="opacity:0.19999701"
             id="g512"
             clip-path="url(#clipPath506)"><g
               id="g514"
               transform="translate(545.209,478.3633)"><path
                 inkscape:connector-curvature="0"
                 id="path516"
                 style="fill:#000000;fill-opacity:1;fill-rule:evenodd;stroke:none"
                 d="m 0,0 0,-1.259 c 0,0 11.582,-11.566 18.286,-11.566 6.702,0 18.63,11.695 18.63,11.695 L 36.916,0 0,0 z" /></g></g></g></g><g
         transform="translate(563.7041,469.5762)"
         id="g518"><path
           inkscape:connector-curvature="0"
           id="path520"
           style="fill:#f6dcb9;fill-opacity:1;fill-rule:evenodd;stroke:none"
           d="m 0,0 c -11.463,0 -35.68,18.895 -43.164,45.953 -7.56,27.326 6.676,66.519 43.164,66.519 36.485,0 50.724,-39.193 43.161,-66.519 C 35.673,18.895 11.46,0 0,0" /></g><g
         transform="translate(609.1152,548.9771)"
         id="g522"><path
           inkscape:connector-curvature="0"
           id="path524"
           style="fill:#605343;fill-opacity:1;fill-rule:evenodd;stroke:none"
           d="m 0,0 c -3.594,14.161 -21.717,35.705 -38.717,35.308 -2.448,0.257 -5.237,0.357 -8.279,0.178 -3.043,0.179 -5.832,0.079 -8.28,-0.178 -17,0.397 -35.123,-21.147 -38.717,-35.308 -2.888,-11.384 -4.188,-22.605 2.753,-34.267 1.249,-3.519 2.722,-6.044 4.133,-7.044 -1.559,8.957 -1.878,15.431 -1.312,20.344 1.3,1.94 3.731,2.543 7.93,0.796 11.904,-4.956 15.537,0.586 24.49,19.356 2.746,5.759 4.859,12.55 9.003,12.55 4.143,-10e-4 6.256,-6.791 9.002,-12.55 8.953,-18.77 12.586,-24.312 24.49,-19.356 4.198,1.747 6.629,1.144 7.93,-0.796 0.566,-4.913 0.247,-11.387 -1.312,-20.344 1.41,1 2.884,3.525 4.133,7.044 C 4.187,-22.605 2.888,-11.384 0,0" /></g><g
         transform="translate(554.1475,394.377)"
         id="g526"><path
           inkscape:connector-curvature="0"
           id="path528"
           style="fill:#ededed;fill-opacity:1;fill-rule:evenodd;stroke:none"
           d="m 0,0 -15.569,0 -1.071,-0.02 -16.06,14.65 16.35,10.9 -19.979,9.35 13.229,20.54 5.14,7.97 8.9,3.99 0,-9.45 L -0.149,-0.02 0,0 z" /></g><g
         transform="translate(589.3574,420.5371)"
         id="g530"><path
           inkscape:connector-curvature="0"
           id="path532"
           style="fill:#ededed;fill-opacity:1;fill-rule:evenodd;stroke:none"
           d="m 0,0 16.34,-10.9 -16.09,-15.28 -1.029,0.02 -15.571,0 0.151,-0.02 8.989,58.58 0,9.39 L 3.65,36.97 8.44,28.85 19.971,9.34 0,0 z" /></g><g
         transform="translate(627.916,380.3643)"
         id="g534"><path
           inkscape:connector-curvature="0"
           id="path536"
           style="fill:#ffdecc;fill-opacity:1;fill-rule:evenodd;stroke:none"
           d="m 0,0 c -42.928,-18.818 -55.805,-28.85 -60.896,-33.355 -7.844,-6.941 -12.182,-32.816 -16.809,-54.784 l 97.121,0 97.119,0 c -4.625,21.968 -8.965,47.843 -16.808,54.784 -5.088,4.505 -17.495,14.279 -60.424,33.1 L 0,0 z" /></g><g
         transform="translate(627.915,380.3643)"
         id="g538"><path
           inkscape:connector-curvature="0"
           id="path540"
           style="fill:#ffffff;fill-opacity:1;fill-rule:evenodd;stroke:none"
           d="m 0,0 c -42.927,-18.818 -55.804,-28.85 -60.895,-33.355 -7.844,-6.941 -12.182,-32.816 -16.809,-54.784 l 97.121,0 97.119,0 c -4.625,21.968 -8.965,47.843 -16.808,54.784 -5.088,4.505 -17.495,14.279 -60.424,33.1 L 0,0 z" /></g><g
         transform="translate(626.4902,417.8809)"
         id="g542"><path
           inkscape:connector-curvature="0"
           id="path544"
           style="fill:#dbb18a;fill-opacity:1;fill-rule:evenodd;stroke:none"
           d="m 0,0 0,-31.858 0,-15.727 c 11.463,-13.554 30.221,-14.041 41.686,0 l 0,15.727 0,31.858 C 41.686,25.693 0,25.693 0,0" /></g><g
         transform="translate(603.8672,447.7939)"
         id="g546"><path
           inkscape:connector-curvature="0"
           id="path548"
           style="fill:#f6d1af;fill-opacity:1;fill-rule:evenodd;stroke:none"
           d="m 0,0 c 3.67,1.211 8.342,-2.957 10.432,-9.305 2.091,-6.349 0.81,-12.476 -2.863,-13.685 -3.67,-1.208 -8.341,2.956 -10.43,9.308 C -4.955,-7.333 -3.672,-1.208 0,0" /></g><g
         transform="translate(690.6152,447.7939)"
         id="g550"><path
           inkscape:connector-curvature="0"
           id="path552"
           style="fill:#f6d1af;fill-opacity:1;fill-rule:evenodd;stroke:none"
           d="m 0,0 c -3.674,1.211 -8.346,-2.957 -10.436,-9.305 -2.091,-6.349 -0.806,-12.476 2.862,-13.685 3.674,-1.208 8.345,2.956 10.435,9.308 C 4.951,-7.333 3.668,-1.208 0,0" /></g><g
         transform="translate(638.3691,350.2939)"
         id="g554"><path
           inkscape:connector-curvature="0"
           id="path556"
           style="fill:#343434;fill-opacity:1;fill-rule:evenodd;stroke:none"
           d="m 0,0 5.049,-7.821 7.828,0 L 17.928,0 9.072,9.653 0,0 z" /></g><g
         transform="translate(643.418,342.4727)"
         id="g558"><path
           inkscape:connector-curvature="0"
           id="path560"
           style="fill:#343434;fill-opacity:1;fill-rule:evenodd;stroke:none"
           d="m 0,0 -7.187,-50.247 22.205,0 L 7.828,0 0,0 z" /></g><g
         transform="translate(626.4902,386.0225)"
         id="g562"><path
           inkscape:connector-curvature="0"
           id="path564"
           style="fill:#ededed;fill-opacity:1;fill-rule:evenodd;stroke:none"
           d="M 0,0 -1.822,-7.089 3.277,-43.999 20.951,-26.075 0,0 z" /></g><g
         id="g566"><g
           id="g568" /><g
           id="g574"><g
             style="opacity:0.19999701"
             id="g576"
             clip-path="url(#clipPath570)"><g
               id="g578"
               transform="translate(626.4902,394.8379)"><path
                 inkscape:connector-curvature="0"
                 id="path580"
                 style="fill:#000000;fill-opacity:1;fill-rule:nonzero;stroke:none"
                 d="m 0,0 0,-1.504 c 0,0 10.648,-12.639 20.805,-13.095 10.156,-0.456 20.881,12.237 20.881,12.237 l 0,2.31" /></g></g></g></g><g
         transform="translate(647.3672,503.3105)"
         id="g582"><path
           inkscape:connector-curvature="0"
           id="path584"
           style="fill:#dbb18a;fill-opacity:1;fill-rule:evenodd;stroke:none"
           d="m 0,0 c -64.125,0 -39.547,-87.837 -35.358,-94.566 4.618,-7.421 25,-23.779 35.358,-23.779 10.361,0 30.74,16.358 35.361,23.779 C 39.551,-87.837 64.127,0 0,0" /></g><g
         transform="translate(652.2178,484.5098)"
         id="g586"><path
           inkscape:connector-curvature="0"
           id="path588"
           style="fill:#343434;fill-opacity:1;fill-rule:nonzero;stroke:none"
           d="M 0,0 C 0.36,0.113 0.72,0.217 1.08,0.322 0.545,0.192 0.009,0.053 -0.528,-0.098 -0.353,-0.062 -0.177,-0.032 0,0 m -32.825,16.749 c 21.657,17.042 64.357,14.606 74.455,0.405 -4.074,-14.276 -1.092,-52.481 -4.084,-72.757 10e-4,0.031 0,0.058 0.002,0.088 -0.035,-0.204 -0.076,-0.411 -0.131,-0.629 -0.043,-0.165 -0.403,-0.632 -0.474,-0.76 -0.105,-0.192 -0.889,0.016 -1.15,0.142 -0.095,0.044 -0.138,0.168 -0.142,0.272 -0.121,1.789 -0.011,5.336 -0.007,5.376 0.236,2.789 0.843,5.476 1.252,8.203 -2.028,12.783 -8.026,15.469 -11.17,30.886 -0.665,1.03 -1.377,2.029 -2.123,3.002 -0.86,1.118 -1.749,2.195 -2.788,3.151 -0.544,0.332 -1.071,0.693 -1.578,1.087 -11.655,4.269 -11.271,1.096 -22.273,-3.394 -4.207,-1.717 -16.027,-5.028 -20.668,-4.667 -1.981,0.154 -8.804,0.794 -8.95,2.467 -8.716,-13.467 -9.608,-23.089 -12.167,-34.657 0.35,-2.008 0.728,-4.016 0.903,-6.078 0.005,-0.04 0.112,-3.587 -0.007,-5.376 -0.006,-0.104 -0.048,-0.228 -0.142,-0.272 -0.26,-0.126 -1.045,-0.334 -1.151,-0.142 -0.07,0.128 -0.43,0.595 -0.473,0.76 -0.198,0.772 -0.238,1.423 -0.276,2.198 -0.134,1.01 -0.311,2.094 -0.445,3.185 -3.342,12.518 -9.484,62.135 13.587,67.51" /></g><g
         transform="translate(668.1758,386.0225)"
         id="g590"><path
           inkscape:connector-curvature="0"
           id="path592"
           style="fill:#ededed;fill-opacity:1;fill-rule:evenodd;stroke:none"
           d="M 0,0 1.437,-6.972 -3.354,-44.368 -20.734,-26.075 0,0 z" /></g><g
         id="g594"><g
           id="g596" /><g
           id="g602"><g
             style="opacity:0.05000311"
             id="g604"
             clip-path="url(#clipPath598)"><g
               id="g606"
               transform="translate(626.4902,386.0225)"><path
                 inkscape:connector-curvature="0"
                 id="path608"
                 style="fill:#000000;fill-opacity:1;fill-rule:nonzero;stroke:none"
                 d="M 0,0 20.951,-26.075 41.686,0 l 0,0.621 L 20.951,-25.338 0,0.621 0,0 z" /></g></g></g></g><g
         id="g610"><g
           id="g612" /><g
           id="g618"><g
             style="opacity:0.10000598"
             id="g620"
             clip-path="url(#clipPath614)"><g
               id="g622"
               transform="translate(643.418,342.4727)"><path
                 inkscape:connector-curvature="0"
                 id="path624"
                 style="fill:#000000;fill-opacity:1;fill-rule:evenodd;stroke:none"
                 d="m 0,0 7.828,0 0.037,-0.256 -7.902,0 L 0,0 z" /></g></g></g></g><g
         transform="translate(373.916,460.3633)"
         id="g626"><path
           inkscape:connector-curvature="0"
           id="path628"
           style="fill:#ffdecc;fill-opacity:1;fill-rule:evenodd;stroke:none"
           d="m 0,0 c -42.928,-18.818 -55.805,-28.85 -60.896,-33.355 -7.844,-6.941 -12.182,-32.816 -16.809,-54.784 l 97.121,0 97.119,0 c -4.625,21.968 -8.965,47.843 -16.808,54.784 -5.088,4.505 -17.495,14.279 -60.424,33.1 L 0,0 z" /></g><g
         transform="translate(373.915,460.3633)"
         id="g630"><path
           inkscape:connector-curvature="0"
           id="path632"
           style="fill:#7491a0;fill-opacity:1;fill-rule:evenodd;stroke:none"
           d="m 0,0 c -42.927,-18.818 -55.804,-28.85 -60.895,-33.355 -7.844,-6.941 -12.182,-32.816 -16.809,-54.784 l 97.121,0 97.119,0 c -4.625,21.968 -8.965,47.843 -16.808,54.784 -5.088,4.505 -17.495,14.279 -60.424,33.1 L 0,0 z" /></g><g
         transform="translate(372.4902,497.8799)"
         id="g634"><path
           inkscape:connector-curvature="0"
           id="path636"
           style="fill:#f6d9c7;fill-opacity:1;fill-rule:evenodd;stroke:none"
           d="m 0,0 0,-31.858 0,-15.727 c 11.463,-13.554 30.221,-14.041 41.686,0 l 0,15.727 0,31.858 C 41.686,25.693 0,25.693 0,0" /></g><g
         transform="translate(349.8672,527.793)"
         id="g638"><path
           inkscape:connector-curvature="0"
           id="path640"
           style="fill:#f6d9c7;fill-opacity:1;fill-rule:evenodd;stroke:none"
           d="m 0,0 c 3.67,1.211 8.342,-2.957 10.432,-9.305 2.091,-6.349 0.81,-12.476 -2.863,-13.685 -3.67,-1.208 -8.341,2.956 -10.43,9.308 C -4.955,-7.333 -3.672,-1.208 0,0" /></g><g
         transform="translate(436.6152,527.793)"
         id="g642"><path
           inkscape:connector-curvature="0"
           id="path644"
           style="fill:#f6d9c7;fill-opacity:1;fill-rule:evenodd;stroke:none"
           d="m 0,0 c -3.674,1.211 -8.346,-2.957 -10.436,-9.305 -2.091,-6.349 -0.806,-12.476 2.862,-13.685 3.674,-1.208 8.345,2.956 10.435,9.308 C 4.951,-7.333 3.668,-1.208 0,0" /></g><g
         transform="translate(384.3691,430.293)"
         id="g646"><path
           inkscape:connector-curvature="0"
           id="path648"
           style="fill:#343434;fill-opacity:1;fill-rule:evenodd;stroke:none"
           d="m 0,0 5.049,-7.821 7.828,0 L 17.928,0 9.072,9.653 0,0 z" /></g><g
         transform="translate(389.418,422.4717)"
         id="g650"><path
           inkscape:connector-curvature="0"
           id="path652"
           style="fill:#343434;fill-opacity:1;fill-rule:evenodd;stroke:none"
           d="m 0,0 -7.187,-50.247 22.205,0 L 7.828,0 0,0 z" /></g><g
         transform="translate(372.4902,466.0215)"
         id="g654"><path
           inkscape:connector-curvature="0"
           id="path656"
           style="fill:#ededed;fill-opacity:1;fill-rule:evenodd;stroke:none"
           d="M 0,0 -1.822,-7.089 3.277,-43.999 20.951,-26.075 0,0 z" /></g><g
         id="g658"><g
           id="g660" /><g
           id="g666"><g
             style="opacity:0.19999701"
             id="g668"
             clip-path="url(#clipPath662)"><g
               id="g670"
               transform="translate(372.4902,474.8369)"><path
                 inkscape:connector-curvature="0"
                 id="path672"
                 style="fill:#000000;fill-opacity:1;fill-rule:nonzero;stroke:none"
                 d="m 0,0 0,-1.504 c 0,0 10.648,-12.639 20.805,-13.095 10.156,-0.456 20.881,12.237 20.881,12.237 l 0,2.31" /></g></g></g></g><g
         transform="translate(393.3672,583.3096)"
         id="g674"><path
           inkscape:connector-curvature="0"
           id="path676"
           style="fill:#f6d9c7;fill-opacity:1;fill-rule:evenodd;stroke:none"
           d="m 0,0 c -64.125,0 -39.547,-87.837 -35.358,-94.566 4.618,-7.421 25,-23.779 35.358,-23.779 10.361,0 30.74,16.358 35.361,23.779 C 39.551,-87.837 64.127,0 0,0" /></g><g
         transform="translate(390.1152,564.5088)"
         id="g678"><path
           inkscape:connector-curvature="0"
           id="path680"
           style="fill:#bf9741;fill-opacity:1;fill-rule:nonzero;stroke:none"
           d="M 0,0 C -0.361,0.113 -0.721,0.217 -1.08,0.322 -0.545,0.192 -0.01,0.053 0.527,-0.098 0.352,-0.062 0.176,-0.032 0,0 M 32.824,16.749 C 10.732,36.237 -32.533,11.354 -42.63,-2.848 c 4.074,-14.276 2.091,-32.479 5.084,-52.755 -10e-4,0.031 0,0.058 -0.002,0.088 0.035,-0.204 0.076,-0.411 0.131,-0.629 0.042,-0.165 0.403,-0.632 0.473,-0.76 0.106,-0.192 0.89,0.016 1.151,0.142 0.094,0.044 0.137,0.168 0.141,0.272 0.121,1.789 0.012,5.336 0.008,5.376 -0.236,2.789 0.16,5.624 -0.249,8.351 2.028,12.783 0.391,13.318 7.375,26.083 0.589,1.076 4.327,5.44 4.834,5.834 11.655,4.269 15.718,-2.844 26.719,-7.334 4.207,-1.717 10.543,-1.833 15.197,-1.833 7.25,0 14.276,7.961 14.422,9.634 8.715,-13.467 9.608,-23.089 12.166,-34.657 -0.349,-2.008 -0.728,-4.016 -0.902,-6.078 -0.006,-0.04 -0.113,-3.587 0.006,-5.376 0.006,-0.104 0.049,-0.228 0.142,-0.272 0.26,-0.126 1.045,-0.334 1.151,-0.142 0.07,0.128 0.431,0.595 0.474,0.76 0.198,0.772 0.237,1.423 0.276,2.198 0.133,1.01 0.31,2.094 0.445,3.185 3.342,12.518 9.483,62.135 -13.588,67.51" /></g><g
         transform="translate(218.5039,574.0645)"
         id="g682"><path
           inkscape:connector-curvature="0"
           id="path684"
           style="fill:#605343;fill-opacity:1;fill-rule:nonzero;stroke:none"
           d="M 0,0 C 0.371,0.113 0.739,0.217 1.107,0.322 0.559,0.192 0.01,0.053 -0.54,-0.098 -0.36,-0.062 -0.18,-0.032 0,0 m -33.628,16.749 c 22.633,19.488 66.958,-5.395 77.303,-19.597 -4.174,-14.276 -2.143,-32.479 -5.208,-52.755 0.001,0.031 0,0.058 0.002,0.088 -0.036,-0.204 -0.078,-0.411 -0.135,-0.629 -0.043,-0.165 -0.413,-0.632 -0.485,-0.76 -0.108,-0.192 -0.911,0.016 -1.178,0.142 -0.097,0.044 -0.141,0.168 -0.145,0.272 -0.124,1.789 -0.012,5.336 -0.008,5.376 0.242,2.789 -0.164,5.624 0.254,8.351 -2.077,12.783 -0.399,13.318 -7.555,26.083 -0.604,1.076 -4.433,5.44 -4.952,5.834 -11.941,4.269 -16.103,-2.844 -27.374,-7.334 -4.31,-1.717 -10.802,-1.833 -15.57,-1.833 -7.427,0 -14.625,7.961 -14.775,9.634 -8.929,-13.467 -9.843,-23.089 -12.464,-34.657 0.358,-2.008 0.746,-4.016 0.924,-6.078 0.006,-0.04 0.116,-3.587 -0.006,-5.376 -0.006,-0.104 -0.05,-0.228 -0.146,-0.272 -0.266,-0.126 -1.071,-0.334 -1.179,-0.142 -0.071,0.128 -0.442,0.595 -0.486,0.76 -0.202,0.772 -0.242,1.423 -0.282,2.198 -0.136,1.01 -0.318,2.094 -0.456,3.185 -3.424,12.518 -9.715,62.135 13.921,67.51" /></g><g
         transform="translate(414.1758,466.0215)"
         id="g686"><path
           inkscape:connector-curvature="0"
           id="path688"
           style="fill:#ededed;fill-opacity:1;fill-rule:evenodd;stroke:none"
           d="M 0,0 1.437,-6.972 -3.354,-44.368 -20.734,-26.075 0,0 z" /></g><g
         id="g690"><g
           id="g692" /><g
           id="g698"><g
             style="opacity:0.05000311"
             id="g700"
             clip-path="url(#clipPath694)"><g
               id="g702"
               transform="translate(372.4902,466.0215)"><path
                 inkscape:connector-curvature="0"
                 id="path704"
                 style="fill:#000000;fill-opacity:1;fill-rule:nonzero;stroke:none"
                 d="M 0,0 20.951,-26.075 41.686,0 l 0,0.621 L 20.951,-25.338 0,0.621 0,0 z" /></g></g></g></g><g
         id="g706"><g
           id="g708" /><g
           id="g714"><g
             style="opacity:0.10000598"
             id="g716"
             clip-path="url(#clipPath710)"><g
               id="g718"
               transform="translate(389.418,422.4717)"><path
                 inkscape:connector-curvature="0"
                 id="path720"
                 style="fill:#000000;fill-opacity:1;fill-rule:evenodd;stroke:none"
                 d="m 0,0 7.828,0 0.037,-0.256 -7.902,0 L 0,0 z" /></g></g></g></g><g
         transform="translate(506.7402,450.7505)"
         id="g722"><path
           inkscape:connector-curvature="0"
           id="path724"
           style="fill:#806049;fill-opacity:1;fill-rule:evenodd;stroke:none"
           d="m 0,0 c 4.545,7.896 40.769,14.86 55.547,-13.213 14.781,-28.072 7.336,-37.907 15.485,-47.815 8.156,-9.909 0.48,-32.648 -5.186,-34.64 -5.666,-1.992 -3.393,-9.858 -0.628,-13.236 11.791,-14.424 -5.259,-38.735 -50.787,-38.487 -48.666,0.267 -58.215,28.542 -45.739,37.362 4.069,2.88 5.646,8.403 1.19,13.268 -4.456,4.868 -14.732,22.999 -5.049,37.863 C -25.481,-44.039 -33.944,0.021 0,0" /></g><g
         transform="translate(541.0771,335.1797)"
         id="g726"><path
           inkscape:connector-curvature="0"
           id="path728"
           style="fill:#268085;fill-opacity:1;fill-rule:evenodd;stroke:none"
           d="m 0,0 c -0.358,-0.561 -35.554,-1.123 -35.944,-1.679 -11.052,-15.766 -34.935,-22.675 -53.926,-26.922 -18.898,-4.224 -19.627,-28.231 -19.658,-44.219 l 184.236,0 C 74.68,-56.832 74.327,-32.914 55.046,-28.601 35.767,-24.29 10.485,-16.484 0,0" /></g><g
         transform="translate(505.209,368.8574)"
         id="g730"><path
           inkscape:connector-curvature="0"
           id="path732"
           style="fill:#f5d5c1;fill-opacity:1;fill-rule:evenodd;stroke:none"
           d="m 0,0 0,-30.279 0,-14.944 c 9.248,-18.921 25.851,-19.412 36.916,0 l 0,14.944 0,30.279 C 36.916,24.417 0,24.417 0,0" /></g><g
         transform="translate(572.3584,389.9727)"
         id="g734"><path
           inkscape:connector-curvature="0"
           id="path736"
           style="fill:#f5d5c1;fill-opacity:1;fill-rule:evenodd;stroke:none"
           d="m 0,0 c -3.688,1.66 -8.896,-2.415 -11.634,-9.097 -2.74,-6.688 -1.972,-13.453 1.716,-15.112 3.689,-1.66 8.899,2.411 11.637,9.097 C 4.456,-8.427 3.688,-1.663 0,0" /></g><g
         transform="translate(475.0098,389.9727)"
         id="g738"><path
           inkscape:connector-curvature="0"
           id="path740"
           style="fill:#f5d5c1;fill-opacity:1;fill-rule:evenodd;stroke:none"
           d="m 0,0 c 3.688,1.66 8.896,-2.411 11.637,-9.097 2.736,-6.688 1.968,-13.453 -1.72,-15.112 -3.688,-1.66 -8.896,2.411 -11.636,9.097 C -4.456,-8.427 -3.685,-1.663 0,0" /></g><g
         id="g742"><g
           id="g744" /><g
           id="g750"><g
             style="opacity:0.19999701"
             id="g752"
             clip-path="url(#clipPath746)"><g
               id="g754"
               transform="translate(505.209,346.3633)"><path
                 inkscape:connector-curvature="0"
                 id="path756"
                 style="fill:#000000;fill-opacity:1;fill-rule:evenodd;stroke:none"
                 d="m 0,0 0,-1.259 c 0,0 11.582,-11.566 18.286,-11.566 6.702,0 18.63,11.695 18.63,11.695 L 36.916,0 0,0 z" /></g></g></g></g><g
         transform="translate(523.7041,337.5762)"
         id="g758"><path
           inkscape:connector-curvature="0"
           id="path760"
           style="fill:#f5d5c1;fill-opacity:1;fill-rule:evenodd;stroke:none"
           d="m 0,0 c -11.463,0 -35.68,18.895 -43.164,45.953 -7.56,27.326 6.676,66.519 43.164,66.519 36.485,0 50.724,-39.193 43.161,-66.519 C 35.673,18.895 11.46,0 0,0" /></g><g
         transform="translate(515.1172,416.1621)"
         id="g762"><path
           inkscape:connector-curvature="0"
           id="path764"
           style="fill:#80604a;fill-opacity:1;fill-rule:evenodd;stroke:none"
           d="m 0,0 c -8.953,-18.771 -12.586,-24.312 -24.49,-19.356 -11.903,4.953 -9.644,-8.935 -7.479,-18.843 -10.542,13.383 -9.303,26.093 -6.026,39.014 3.594,14.161 21.718,35.705 38.718,35.308 C 9.96,37.094 23.939,35.947 38.811,25.229 64.779,6.513 56.106,-35.537 49.112,-40.496 55.888,-1.549 39.297,-9.478 27.85,10.895 24.089,19.853 9.73,20.406 0,0" /></g><path
         inkscape:connector-curvature="0"
         id="path766"
         style="fill:#ffffff;fill-opacity:1;fill-rule:evenodd;stroke:none"
         d="m 521.256,262.359 3.784,0 0,46.704 -3.784,0 0,-46.704 z" /><g
         transform="translate(505.209,333.5381)"
         id="g768"><path
           inkscape:connector-curvature="0"
           id="path770"
           style="fill:#ffffff;fill-opacity:1;fill-rule:evenodd;stroke:none"
           d="M 0,0 -13.175,-12.043 3.579,-38.042 18.04,-24.324 0,0 z" /></g><g
         transform="translate(542.125,333.6289)"
         id="g772"><path
           inkscape:connector-curvature="0"
           id="path774"
           style="fill:#ffffff;fill-opacity:1;fill-rule:evenodd;stroke:none"
           d="M 0,0 13.174,-12.554 -4.419,-38.133 -18.876,-24.415 0,0 z" /></g><g
         transform="translate(504.1582,397.5059)"
         id="g776"><path
           inkscape:connector-curvature="0"
           id="path778"
           style="fill:#268085;fill-opacity:1;fill-rule:evenodd;stroke:none"
           d="m 0,0 c -6.645,0.354 -15.447,-0.483 -17.072,-1.041 -2.09,-0.724 -2.155,-0.908 -2.302,-2.608 -0.144,-1.698 0.077,-3.162 1.277,-3.596 1.651,-0.593 1.596,-2.868 2.5,-9.393 0.813,-5.94 3.101,-10.633 13.532,-11.463 0.532,-0.045 1.047,-0.062 1.551,-0.068 l 0.032,1.658 c -4.792,-0.039 -10.123,1.775 -11.917,5.48 -2.518,5.198 -2.871,15.7 0.638,17.901 1.514,0.949 6.537,1.606 11.735,1.368 L 0,0 z M 19.979,-3.36 C 17.667,-3.416 8.204,-0.687 1.476,-0.106 0.997,-0.062 0.508,-0.025 0,0 l -0.026,-1.762 c 5.469,-0.249 11.133,-1.488 13.073,-4.409 3.184,-4.791 -2.536,-16.508 -7.709,-19.117 -1.572,-0.791 -3.644,-1.2 -5.82,-1.223 l -0.032,-1.658 c 9.059,-0.013 12.407,6.52 13.524,8.699 2.105,4.101 1.671,9.756 6.855,9.766 5.178,0.013 4.5,-5.538 6.353,-9.636 0.999,-2.21 3.937,-8.994 13.337,-8.728 l 0.024,1.652 c -2.315,-0.037 -4.521,0.362 -6.136,1.193 -5.014,2.586 -10.028,14.273 -6.546,19.078 2.094,2.902 7.716,4.169 13.138,4.461 l 0.028,1.759 C 39.646,0.053 39.239,0.022 38.841,-0.016 32.779,-0.567 25.428,-3.219 19.979,-3.36 m 19.576,-24.708 c 0.361,0.009 0.736,0.033 1.121,0.064 10.476,0.876 13.057,5.584 14.233,11.528 1.296,6.532 1.38,8.803 3.067,9.403 1.234,0.445 1.536,1.904 1.501,3.607 -0.045,1.695 -0.099,1.879 -2.142,2.587 -1.617,0.566 -10.562,1.376 -17.272,0.954 l -0.028,-1.759 c 5.286,0.288 10.385,-0.347 11.861,-1.304 3.364,-2.177 2.382,-12.69 -0.452,-17.897 -1.966,-3.615 -7.174,-5.454 -11.865,-5.531 l -0.024,-1.652 z" /></g><g
         id="g780"><g
           id="g782" /><g
           id="g788"><g
             style="opacity:0.05000311"
             id="g790"
             clip-path="url(#clipPath784)"><g
               id="g792"
               transform="translate(505.209,333.5381)"><path
                 inkscape:connector-curvature="0"
                 id="path794"
                 style="fill:#000000;fill-opacity:1;fill-rule:evenodd;stroke:none"
                 d="M 0,0 18.04,-24.324 36.916,0.091 36.896,0.606 18.04,-23.638 0,0.606 0,0 z" /></g></g></g></g><g
         transform="translate(264.0151,345.8799)"
         id="g796"><path
           inkscape:connector-curvature="0"
           id="path798"
           style="fill:#ffdecc;fill-opacity:1;fill-rule:evenodd;stroke:none"
           d="m 0,0 c -42.928,-18.819 -55.806,-28.851 -60.896,-33.357 -7.844,-6.94 -12.183,-32.816 -16.81,-54.784 l 97.121,0 97.12,0 c -4.626,21.968 -8.965,47.844 -16.809,54.784 -5.088,4.506 -17.494,14.279 -60.423,33.101 L 0,0 z" /></g><g
         transform="translate(264.0137,345.8799)"
         id="g800"><path
           inkscape:connector-curvature="0"
           id="path802"
           style="fill:#333333;fill-opacity:1;fill-rule:evenodd;stroke:none"
           d="m 0,0 c -42.927,-18.819 -55.805,-28.851 -60.894,-33.357 -7.845,-6.94 -12.183,-32.816 -16.81,-54.784 l 97.12,0 97.121,0 c -4.627,21.968 -8.966,47.844 -16.809,54.784 -5.089,4.506 -17.494,14.279 -60.424,33.101 L 0,0 z" /></g><g
         transform="translate(262.5884,383.3945)"
         id="g804"><path
           inkscape:connector-curvature="0"
           id="path806"
           style="fill:#ffdbba;fill-opacity:1;fill-rule:evenodd;stroke:none"
           d="m 0,0 0,-31.858 0,-15.727 c 11.462,-13.553 30.22,-14.041 41.685,0 l 0,15.727 0,31.858 C 41.685,25.693 0,25.693 0,0" /></g><g
         transform="translate(239.9658,413.3076)"
         id="g808"><path
           inkscape:connector-curvature="0"
           id="path810"
           style="fill:#ffdbba;fill-opacity:1;fill-rule:evenodd;stroke:none"
           d="m 0,0 c 3.67,1.212 8.342,-2.957 10.432,-9.305 2.09,-6.348 0.81,-12.477 -2.863,-13.685 -3.67,-1.208 -8.341,2.956 -10.431,9.308 C -4.955,-7.333 -3.671,-1.208 0,0" /></g><g
         transform="translate(326.7129,413.3076)"
         id="g812"><path
           inkscape:connector-curvature="0"
           id="path814"
           style="fill:#ffdbba;fill-opacity:1;fill-rule:evenodd;stroke:none"
           d="m 0,0 c -3.674,1.212 -8.345,-2.957 -10.435,-9.305 -2.091,-6.348 -0.808,-12.477 2.862,-13.685 3.674,-1.208 8.345,2.956 10.435,9.308 C 4.952,-7.333 3.669,-1.208 0,0" /></g><g
         transform="translate(283.5396,325.4619)"
         id="g816"><path
           inkscape:connector-curvature="0"
           id="path818"
           style="fill:#ffffff;fill-opacity:1;fill-rule:evenodd;stroke:none"
           d="m 0,0 c 0,0 -29.087,-6.943 -29.087,-8.704 0,-1.76 11.068,-59.019 11.068,-59.019 l 39.491,0 4.526,58.767 L 0,0 z" /></g><g
         transform="translate(262.5884,345.2529)"
         id="g820"><path
           inkscape:connector-curvature="0"
           id="path822"
           style="fill:#605f5b;fill-opacity:1;fill-rule:evenodd;stroke:none"
           d="m 0,0 0,-9.443 9.055,-78.071 -15.57,0 -17.127,34.772 16.349,10.9 -19.98,9.342 L -8.9,-3.99 0,0 z" /></g><g
         transform="translate(304.2734,345.2051)"
         id="g824"><path
           inkscape:connector-curvature="0"
           id="path826"
           style="fill:#605f5b;fill-opacity:1;fill-rule:evenodd;stroke:none"
           d="m 0,0 0,-9.396 -9.142,-78.07 15.569,0 17.126,34.772 -16.347,10.9 19.978,9.342 L 10.856,-4.821 0,0 z" /></g><g
         transform="translate(274.4687,315.8086)"
         id="g828"><path
           inkscape:connector-curvature="0"
           id="path830"
           style="fill:#c93838;fill-opacity:1;fill-rule:evenodd;stroke:none"
           d="m 0,0 5.047,-7.821 7.829,0 L 17.927,0 9.071,9.653 0,0 z" /></g><g
         transform="translate(279.5156,307.9873)"
         id="g832"><path
           inkscape:connector-curvature="0"
           id="path834"
           style="fill:#c93838;fill-opacity:1;fill-rule:evenodd;stroke:none"
           d="m 0,0 -7.187,-50.248 22.205,0 L 7.83,0 0,0 z" /></g><g
         transform="translate(262.5884,351.5361)"
         id="g836"><path
           inkscape:connector-curvature="0"
           id="path838"
           style="fill:#ededed;fill-opacity:1;fill-rule:evenodd;stroke:none"
           d="m 0,0 -1.822,-7.088 5.1,-36.911 17.673,17.925 L 0,0 z" /></g><g
         id="g840"><g
           id="g842" /><g
           id="g848"><g
             style="opacity:0.19999701"
             id="g850"
             clip-path="url(#clipPath844)"><g
               id="g852"
               transform="translate(262.5884,360.3516)"><path
                 inkscape:connector-curvature="0"
                 id="path854"
                 style="fill:#000000;fill-opacity:1;fill-rule:nonzero;stroke:none"
                 d="m 0,0 0,-1.503 c 0,0 10.649,-12.64 20.805,-13.095 10.156,-0.455 20.88,12.238 20.88,12.238 l 0,2.308" /></g></g></g></g><g
         transform="translate(316.4521,465.2266)"
         id="g856"><path
           inkscape:connector-curvature="0"
           id="path858"
           style="fill:#755a48;fill-opacity:1;fill-rule:evenodd;stroke:none"
           d="m 0,0 c 9.542,-1.521 14.818,-8.062 17.079,-16.94 5.879,-23.11 -6.431,-73.227 -49.047,-73.825 -21.975,-0.309 -37.805,5.28 -43.57,23.068 -5.77,17.787 -8.135,46.449 4.4,62.514 C -55.368,15.029 -22.267,15.219 0,0" /></g><g
         transform="translate(283.4658,468.8237)"
         id="g860"><path
           inkscape:connector-curvature="0"
           id="path862"
           style="fill:#ffdbba;fill-opacity:1;fill-rule:evenodd;stroke:none"
           d="m 0,0 c -64.125,0 -39.547,-87.836 -35.358,-94.566 4.618,-7.421 24.999,-23.777 35.358,-23.777 10.361,0 30.74,16.356 35.36,23.777 C 39.55,-87.836 64.126,0 0,0" /></g><g
         transform="translate(252.4419,441.2329)"
         id="g864"><path
           inkscape:connector-curvature="0"
           id="path866"
           style="fill:#755a48;fill-opacity:1;fill-rule:evenodd;stroke:none"
           d="M 0,0 C 11.418,-6.943 20.255,3.416 30.566,-1.026 40.879,-5.469 68.773,15.901 74.861,-31.041 84.618,3.003 69.826,27.331 32.616,28.951 -7.125,30.68 -23.217,-5.539 -12.231,-39.357 -12.951,-21.036 -8.47,-9.05 0,0" /></g><g
         transform="translate(251.416,444.27)"
         id="g868"><path
           inkscape:connector-curvature="0"
           id="path870"
           style="fill:#755a48;fill-opacity:1;fill-rule:nonzero;stroke:none"
           d="m 0,0 c 0.277,-5.9 10.254,-6.777 14.505,-7.092 4.001,-0.297 7.852,0.388 11.69,1.485 4.679,1.337 10.606,3.024 14.394,6.164 0.364,0.301 0.183,1.027 -0.291,1.104 C 33.104,2.814 25.647,-3.087 18.373,-3.768 12.681,-4.3 5.202,-3.505 0.718,0.297 0.458,0.517 -0.019,0.395 0,0" /></g><g
         transform="translate(263.8833,414.9941)"
         id="g872"><path
           inkscape:connector-curvature="0"
           id="path874"
           style="fill:#c93838;fill-opacity:1;fill-rule:evenodd;stroke:none"
           d="m 0,0 c -6.617,0.353 -15.382,-0.481 -17,-1.037 -2.081,-0.72 -2.146,-0.904 -2.292,-2.597 -0.143,-1.69 0.078,-3.147 1.273,-3.58 1.642,-0.591 1.587,-2.856 2.487,-9.353 0.809,-5.915 3.089,-10.587 13.474,-11.413 0.53,-0.046 1.045,-0.063 1.545,-0.069 l 0.031,1.651 c -4.771,-0.039 -10.08,1.767 -11.866,5.456 -2.507,5.175 -2.858,15.634 0.636,17.825 1.508,0.946 6.51,1.599 11.685,1.363 L 0,0 z M 19.893,-3.347 C 17.591,-3.402 8.169,-0.685 1.468,-0.107 0.992,-0.062 0.503,-0.026 0,0 L -0.027,-1.754 C 5.42,-2.003 11.06,-3.237 12.991,-6.145 16.161,-10.917 10.465,-22.582 5.314,-25.18 3.75,-25.969 1.686,-26.376 -0.482,-26.398 l -0.031,-1.651 c 9.021,-0.013 12.355,6.49 13.467,8.661 2.096,4.083 1.663,9.715 6.826,9.725 5.156,0.013 4.481,-5.515 6.324,-9.595 0.994,-2.2 3.922,-8.956 13.282,-8.691 l 0.025,1.645 c -2.308,-0.036 -4.504,0.362 -6.113,1.189 -4.991,2.574 -9.984,14.212 -6.517,18.996 2.086,2.889 7.683,4.152 13.082,4.443 l 0.028,1.75 C 39.478,0.052 39.071,0.022 38.675,-0.016 32.638,-0.565 25.319,-3.205 19.893,-3.347 m 19.493,-24.602 c 0.358,0.01 0.733,0.032 1.115,0.064 10.433,0.872 13.002,5.561 14.172,11.479 1.292,6.504 1.374,8.766 3.055,9.363 1.228,0.443 1.529,1.897 1.494,3.592 -0.045,1.687 -0.098,1.871 -2.133,2.576 -1.61,0.562 -10.516,1.369 -17.198,0.949 l -0.028,-1.75 c 5.263,0.286 10.342,-0.346 11.811,-1.3 3.35,-2.168 2.372,-12.634 -0.451,-17.82 -1.958,-3.6 -7.141,-5.431 -11.812,-5.508 l -0.025,-1.645 z" /></g><g
         transform="translate(304.2734,351.5361)"
         id="g876"><path
           inkscape:connector-curvature="0"
           id="path878"
           style="fill:#ededed;fill-opacity:1;fill-rule:evenodd;stroke:none"
           d="M 0,0 1.439,-6.972 -3.353,-44.367 -20.734,-26.074 0,0 z" /></g><g
         id="g880"><g
           id="g882" /><g
           id="g888"><g
             style="opacity:0.05000311"
             id="g890"
             clip-path="url(#clipPath884)"><g
               id="g892"
               transform="translate(262.5884,351.5361)"><path
                 inkscape:connector-curvature="0"
                 id="path894"
                 style="fill:#000000;fill-opacity:1;fill-rule:nonzero;stroke:none"
                 d="M 0,0 20.951,-26.074 41.685,0 l 0,0.622 L 20.951,-25.337 0,0.622 0,0 z" /></g></g></g></g><g
         id="g896"><g
           id="g898" /><g
           id="g904"><g
             style="opacity:0.10000598"
             id="g906"
             clip-path="url(#clipPath900)"><g
               id="g908"
               transform="translate(279.5156,307.9873)"><path
                 inkscape:connector-curvature="0"
                 id="path910"
                 style="fill:#000000;fill-opacity:1;fill-rule:evenodd;stroke:none"
                 d="m 0,0 7.83,0 0.037,-0.256 -7.904,0 L 0,0 z" /></g></g></g></g><g
         transform="translate(370.8711,320.335)"
         id="g912"><path
           inkscape:connector-curvature="0"
           id="path914"
           style="fill:#ffdecc;fill-opacity:1;fill-rule:evenodd;stroke:none"
           d="m 0,0 c -42.928,-18.818 -55.806,-28.85 -60.896,-33.355 -7.844,-6.941 -12.183,-32.816 -16.809,-54.784 l 97.12,0 97.12,0 c -4.626,21.968 -8.966,47.843 -16.809,54.784 -5.088,4.505 -17.494,14.279 -60.423,33.1 L 0,0 z" /></g><g
         transform="translate(370.8696,320.335)"
         id="g916"><path
           inkscape:connector-curvature="0"
           id="path918"
           style="fill:#333333;fill-opacity:1;fill-rule:evenodd;stroke:none"
           d="m 0,0 c -42.927,-18.818 -55.804,-28.85 -60.895,-33.355 -7.844,-6.941 -12.182,-32.816 -16.809,-54.784 l 97.121,0 97.12,0 c -4.626,21.968 -8.966,47.843 -16.81,54.784 -5.088,4.505 -17.493,14.279 -60.423,33.1 L 0,0 z" /></g><g
         transform="translate(369.4443,357.8516)"
         id="g920"><path
           inkscape:connector-curvature="0"
           id="path922"
           style="fill:#f6c5a0;fill-opacity:1;fill-rule:evenodd;stroke:none"
           d="m 0,0 0,-31.858 0,-15.727 c 11.463,-13.554 30.221,-14.041 41.686,0 l 0,15.727 0,31.858 C 41.686,25.693 0,25.693 0,0" /></g><g
         transform="translate(346.8223,387.7646)"
         id="g924"><path
           inkscape:connector-curvature="0"
           id="path926"
           style="fill:#f6c5a0;fill-opacity:1;fill-rule:evenodd;stroke:none"
           d="m 0,0 c 3.67,1.211 8.341,-2.957 10.432,-9.306 2.09,-6.348 0.81,-12.475 -2.863,-13.684 -3.67,-1.208 -8.342,2.956 -10.431,9.307 C -4.955,-7.334 -3.672,-1.209 0,0" /></g><g
         transform="translate(433.5693,387.7646)"
         id="g928"><path
           inkscape:connector-curvature="0"
           id="path930"
           style="fill:#f6c5a0;fill-opacity:1;fill-rule:evenodd;stroke:none"
           d="m 0,0 c -3.674,1.211 -8.345,-2.957 -10.436,-9.306 -2.09,-6.348 -0.806,-12.475 2.863,-13.684 3.674,-1.208 8.345,2.956 10.434,9.307 C 4.952,-7.334 3.669,-1.209 0,0" /></g><g
         transform="translate(390.3965,299.918)"
         id="g932"><path
           inkscape:connector-curvature="0"
           id="path934"
           style="fill:#9fbac4;fill-opacity:1;fill-rule:evenodd;stroke:none"
           d="m 0,0 c 0,0 -29.088,-6.942 -29.088,-8.703 0,-1.761 11.068,-59.019 11.068,-59.019 l 39.491,0 4.526,58.767 L 0,0 z" /></g><g
         transform="translate(369.4443,319.71)"
         id="g936"><path
           inkscape:connector-curvature="0"
           id="path938"
           style="fill:#1a1a1a;fill-opacity:1;fill-rule:evenodd;stroke:none"
           d="m 0,0 0,-9.443 9.055,-78.071 -15.57,0 -17.127,34.772 16.35,10.9 -19.981,9.341 L -8.9,-3.99 0,0 z" /></g><g
         transform="translate(411.1299,319.6611)"
         id="g940"><path
           inkscape:connector-curvature="0"
           id="path942"
           style="fill:#1b1b1b;fill-opacity:1;fill-rule:evenodd;stroke:none"
           d="m 0,0 0,-9.395 -9.143,-78.07 15.57,0 17.126,34.772 -16.347,10.9 19.978,9.341 L 10.855,-4.82 0,0 z" /></g><g
         transform="translate(381.3242,290.2646)"
         id="g944"><path
           inkscape:connector-curvature="0"
           id="path946"
           style="fill:#28a8e3;fill-opacity:1;fill-rule:evenodd;stroke:none"
           d="m 0,0 5.048,-7.821 7.829,0 L 17.927,0 9.072,9.653 0,0 z" /></g><g
         transform="translate(386.3721,282.4434)"
         id="g948"><path
           inkscape:connector-curvature="0"
           id="path950"
           style="fill:#28a8e3;fill-opacity:1;fill-rule:evenodd;stroke:none"
           d="m 0,0 -7.187,-50.247 22.205,0 L 7.829,0 0,0 z" /></g><g
         transform="translate(369.4443,325.9932)"
         id="g952"><path
           inkscape:connector-curvature="0"
           id="path954"
           style="fill:#ffffff;fill-opacity:1;fill-rule:evenodd;stroke:none"
           d="m 0,0 -1.822,-7.089 5.1,-36.91 17.674,17.924 L 0,0 z" /></g><g
         id="g956"><g
           id="g958" /><g
           id="g964"><g
             style="opacity:0.19999701"
             id="g966"
             clip-path="url(#clipPath960)"><g
               id="g968"
               transform="translate(369.4443,334.8086)"><path
                 inkscape:connector-curvature="0"
                 id="path970"
                 style="fill:#000000;fill-opacity:1;fill-rule:nonzero;stroke:none"
                 d="m 0,0 0,-1.504 c 0,0 10.649,-12.639 20.805,-13.095 10.157,-0.456 20.881,12.237 20.881,12.237 l 0,2.31" /></g></g></g></g><g
         transform="translate(390.3223,443.2812)"
         id="g972"><path
           inkscape:connector-curvature="0"
           id="path974"
           style="fill:#f6c5a0;fill-opacity:1;fill-rule:evenodd;stroke:none"
           d="m 0,0 c -64.125,0 -39.547,-87.837 -35.359,-94.566 4.618,-7.421 25,-23.779 35.359,-23.779 10.361,0 30.739,16.358 35.36,23.779 C 39.55,-87.837 64.126,0 0,0" /></g><g
         transform="translate(386.2617,424.4805)"
         id="g976"><path
           inkscape:connector-curvature="0"
           id="path978"
           style="fill:#605343;fill-opacity:1;fill-rule:nonzero;stroke:none"
           d="M 0,0 C -0.36,0.113 -0.72,0.217 -1.08,0.322 -0.545,0.192 -0.009,0.053 0.528,-0.098 0.352,-0.062 0.176,-0.032 0,0 m 32.825,16.749 c -21.657,17.042 -55.098,6.881 -65.195,-7.32 -12.637,-17.773 -8.168,-44.756 -5.176,-65.032 -10e-4,0.031 0,0.058 -10e-4,0.088 0.034,-0.204 0.075,-0.412 0.13,-0.63 0.043,-0.165 0.403,-0.631 0.474,-0.759 0.105,-0.192 0.89,0.016 1.15,0.142 0.095,0.044 0.137,0.168 0.142,0.272 0.121,1.789 0.012,5.336 0.008,5.376 -0.237,2.789 -0.844,5.476 -1.253,8.203 2.027,12.782 8.026,15.469 11.171,30.886 0.664,1.03 1.377,2.029 2.123,3.002 0.859,1.118 1.748,2.195 2.786,3.151 0.546,0.332 1.072,0.693 1.579,1.087 11.655,4.269 23.673,-0.852 34.675,-5.342 4.207,-1.717 8.926,-3.747 13.566,-3.387 1.981,0.155 3.504,1.462 3.65,3.135 5.267,-15.774 9.608,-23.09 12.167,-34.657 -0.35,-2.009 -0.728,-4.016 -0.903,-6.078 -0.005,-0.04 -0.112,-3.587 0.007,-5.376 0.006,-0.104 0.048,-0.228 0.142,-0.272 0.26,-0.126 1.045,-0.334 1.151,-0.142 0.07,0.128 0.43,0.594 0.473,0.759 0.198,0.773 0.238,1.423 0.276,2.199 0.134,1.01 0.311,2.094 0.445,3.185 3.342,12.518 9.484,62.135 -13.587,67.51" /></g><g
         transform="translate(411.1299,325.9932)"
         id="g980"><path
           inkscape:connector-curvature="0"
           id="path982"
           style="fill:#ffffff;fill-opacity:1;fill-rule:evenodd;stroke:none"
           d="M 0,0 1.438,-6.972 -3.354,-44.368 -20.733,-26.075 0,0 z" /></g><g
         id="g984"><g
           id="g986" /><g
           id="g992"><g
             style="opacity:0.05000311"
             id="g994"
             clip-path="url(#clipPath988)"><g
               id="g996"
               transform="translate(369.4443,325.9932)"><path
                 inkscape:connector-curvature="0"
                 id="path998"
                 style="fill:#000000;fill-opacity:1;fill-rule:nonzero;stroke:none"
                 d="M 0,0 20.952,-26.075 41.686,0 l 0,0.621 L 20.952,-25.338 0,0.621 0,0 z" /></g></g></g></g><g
         id="g1000"><g
           id="g1002" /><g
           id="g1008"><g
             style="opacity:0.10000598"
             id="g1010"
             clip-path="url(#clipPath1004)"><g
               id="g1012"
               transform="translate(386.3721,282.4434)"><path
                 inkscape:connector-curvature="0"
                 id="path1014"
                 style="fill:#000000;fill-opacity:1;fill-rule:evenodd;stroke:none"
                 d="m 0,0 7.829,0 0.037,-0.256 -7.903,0 L 0,0 z" /></g></g></g></g></g></g></svg>