<?xml version="1.0" encoding="UTF-8" standalone="no"?>
<!-- Created with Inkscape (http://www.inkscape.org/) -->

<svg
   xmlns:dc="http://purl.org/dc/elements/1.1/"
   xmlns:cc="http://creativecommons.org/ns#"
   xmlns:rdf="http://www.w3.org/1999/02/22-rdf-syntax-ns#"
   xmlns:svg="http://www.w3.org/2000/svg"
   xmlns="http://www.w3.org/2000/svg"
   xmlns:sodipodi="http://sodipodi.sourceforge.net/DTD/sodipodi-0.dtd"
   xmlns:inkscape="http://www.inkscape.org/namespaces/inkscape"
   id="svg2"
   version="1.1"
   inkscape:version="0.48.5 r10040"
   width="281.30386"
   height="67.334503"
   xml:space="preserve"
   sodipodi:docname="UU-logo2011_CMYK.eps"><metadata
     id="metadata8"><rdf:RDF><cc:Work
         rdf:about=""><dc:format>image/svg+xml</dc:format><dc:type
           rdf:resource="http://purl.org/dc/dcmitype/StillImage" /><dc:title></dc:title></cc:Work></rdf:RDF></metadata><defs
     id="defs6"><clipPath
       clipPathUnits="userSpaceOnUse"
       id="clipPath58"><path
         d="m 673.125,883.875 5.113,6.551 8.66,1.054 6.536,-5.136 43.207,0 6.547,5.136 8.636,-1.054 5.133,-6.539 41.965,-10.348 7.57,3.422 8.141,-3.094 3.414,-7.59 38.219,-20.043 8.172,1.489 7.16,-4.926 1.5,-8.203 32.355,-28.633 8.281,-0.527 5.762,-6.504 -0.488,-8.301 24.512,-35.508 7.941,-2.48 4.062,-7.715 -2.472,-7.93 15.324,-40.41 7.129,-4.297 2.07,-8.457 -4.289,-7.109 5.188,-42.891 5.879,-5.879 0,-8.73 -5.879,-5.86 -5.188,-42.851 4.309,-7.11 -2.071,-8.476 -7.128,-4.278 -15.325,-40.41 2.473,-7.929 -4.063,-7.735 -7.921,-2.461 -24.551,-35.547 0.488,-8.32 -5.762,-6.504 -8.281,-0.488 -32.312,-28.633 -1.504,-8.183 -7.149,-4.961 -8.183,1.523 -38.27,-20.078 -3.402,-7.598 -8.141,-3.086 -7.582,3.418 -41.906,-10.351 -5.129,-6.543 -8.648,-1.035 -6.532,5.136 -43.218,0 -6.539,-5.136 -8.645,1.035 -5.125,6.543 -41.961,10.351 -7.574,-3.418 -8.141,3.086 -3.422,7.598 -38.215,20.039 -8.171,-1.504 -7.172,4.961 -1.492,8.184 -32.356,28.652 -8.285,0.488 -5.781,6.504 0.492,8.32 -24.512,35.489 -7.945,2.48 -4.043,7.715 2.473,7.949 -15.329,40.41 -7.109,4.278 -2.09,8.476 4.297,7.09 -5.211,42.91 -5.875,5.86 0,8.73 5.875,5.879 5.199,42.832 -4.3,7.129 2.089,8.457 7.11,4.297 15.324,40.41 -2.477,7.93 4.047,7.715 7.934,2.48 24.551,35.547 -0.5,8.301 5.781,6.504 8.285,0.527 32.313,28.613 1.492,8.184 7.176,4.945 8.168,-1.508 38.265,20.082 3.414,7.59 8.141,3.094 7.574,-3.422 41.918,10.336 z"
         id="path60"
         inkscape:connector-curvature="0" /></clipPath><clipPath
       clipPathUnits="userSpaceOnUse"
       id="clipPath176"><path
         d="m 715.063,354.262 c 148.75,0 269.328,120.586 269.328,269.336 0,148.73 -120.578,269.34 -269.328,269.34 -148.758,0 -269.344,-120.61 -269.344,-269.34 0,-148.75 120.586,-269.336 269.344,-269.336 z"
         id="path178"
         inkscape:connector-curvature="0" /></clipPath><clipPath
       clipPathUnits="userSpaceOnUse"
       id="clipPath250"><path
         d="m 715.063,354.262 c 148.75,0 269.328,120.586 269.328,269.336 0,148.73 -120.578,269.34 -269.328,269.34 -148.758,0 -269.344,-120.61 -269.344,-269.34 0,-148.75 120.586,-269.336 269.344,-269.336 z"
         id="path252"
         inkscape:connector-curvature="0" /></clipPath><clipPath
       clipPathUnits="userSpaceOnUse"
       id="clipPath256"><path
         d="m 807.457,368.188 -66.598,150.8 11.137,-164.492"
         id="path258"
         inkscape:connector-curvature="0" /></clipPath><clipPath
       clipPathUnits="userSpaceOnUse"
       id="clipPath266"><path
         d="m 715.063,354.262 c 148.75,0 269.328,120.586 269.328,269.336 0,148.73 -120.578,269.34 -269.328,269.34 -148.758,0 -269.344,-120.61 -269.344,-269.34 0,-148.75 120.586,-269.336 269.344,-269.336 z"
         id="path268"
         inkscape:connector-curvature="0" /></clipPath></defs><sodipodi:namedview
     pagecolor="#ffffff"
     bordercolor="#666666"
     borderopacity="1"
     objecttolerance="10"
     gridtolerance="10"
     guidetolerance="10"
     inkscape:pageopacity="0"
     inkscape:pageshadow="2"
     inkscape:window-width="1920"
     inkscape:window-height="1011"
     id="namedview4"
     showgrid="false"
     fit-margin-top="0"
     fit-margin-left="0"
     fit-margin-right="0"
     fit-margin-bottom="0"
     inkscape:zoom="0.93826396"
     inkscape:cx="146.25387"
     inkscape:cy="35.442252"
     inkscape:window-x="-8"
     inkscape:window-y="-8"
     inkscape:window-maximized="1"
     inkscape:current-layer="g10" /><g
     id="g10"
     inkscape:groupmode="layer"
     inkscape:label="ink_ext_XXXXXX"
     transform="matrix(1.25,0,0,-1.25,-55.714875,111.61725)"><g
       id="g12"
       transform="scale(0.1,0.1)"><path
         d="m 1155.36,685.66 48.71,0 0,-7.336 -1.33,0 c -15.02,0 -17.31,-6.582 -17.31,-15.625 l 0,-46.828 c 0,-41.93 -30.44,-49.801 -52.83,-49.801 -33.86,0 -55.29,14.637 -55.29,43.418 l 0,56.051 c 0,9.387 -2.62,12.785 -13.16,12.785 l -3.21,0 0,7.336 58.9,0 0,-7.336 -3.2,0 c -7.91,0 -13.38,-3.574 -13.38,-12.785 l 0,-56.051 c 0,-22.953 16.95,-30.82 34.04,-30.82 24.67,0 36.88,13.906 36.88,34.609 l 0,45.672 c 0,13.34 -3.78,19.375 -15.44,19.375 l -3.38,0 0,7.336"
         style="fill:#231f20;fill-opacity:1;fill-rule:nonzero;stroke:none"
         id="path14"
         inkscape:connector-curvature="0" /><path
         d="m 1292.46,585.785 c 0,-9.199 3.35,-11.074 10.72,-11.074 l 0,-6.035 -44.41,0 0,6.035 c 7.72,0.547 10.74,5.832 10.74,21.25 l 0,16.359 c 0,15.047 -4.15,20.879 -11.65,20.879 -5.84,0 -12.05,-2.824 -19.96,-8.281 l 0,-38.184 c 0,-8.457 3.59,-12.023 11.09,-12.023 l 1.69,0 0,-6.035 -47.57,0 0,6.035 1.11,0 c 7.92,0 10.73,3.379 10.73,13.156 l 0,36.668 c 0,4.141 -2.25,6.582 -8.85,8.457 l -3.92,1.133 0,4.523 32.14,10.887 3.58,0 0,-16.707 c 13.71,9.012 25.76,14.668 34.78,14.668 13.75,0 19.78,-9.805 19.78,-32.344 l 0,-29.367"
         style="fill:#231f20;fill-opacity:1;fill-rule:nonzero;stroke:none"
         id="path16"
         inkscape:connector-curvature="0" /><path
         d="m 1353.77,679.449 c 0,-7.531 -7.16,-12.793 -14.85,-12.793 -8.67,0 -15.04,5.465 -15.04,12.793 0,6.766 7.14,12.793 15.04,12.793 8.6,0 14.85,-5.656 14.85,-12.793 z m 8.83,-110.773 -47,0 0,6.035 2.07,0 c 7.72,0 10.52,3.379 10.52,13.156 l 0,36.082 c 0,4.914 -1.13,6.242 -6.4,8.106 l -6.19,2.273 0,4.504 32.15,10.703 3.42,0 0,-63 c 0,-7.703 3.14,-11.824 11.43,-11.824 l 0,-6.035"
         style="fill:#231f20;fill-opacity:1;fill-rule:nonzero;stroke:none"
         id="path18"
         inkscape:connector-curvature="0" /><path
         d="m 1364.68,645.406 47.77,0 0,-6.027 -6.58,0 c -3.98,0 -5.62,-3.555 -2.44,-10.516 l 16.71,-37.453 14.66,33.125 c 4.34,9.793 2.1,13.543 -11.06,14.844 l 0,6.027 37.4,0 0,-6.027 c -9.79,-0.926 -12.21,-3.379 -15.79,-11.258 l -26.87,-60.754 -11.29,0 -28.02,60.352 c -3.55,7.726 -6.24,10.734 -14.49,11.66 l 0,6.027"
         style="fill:#231f20;fill-opacity:1;fill-rule:nonzero;stroke:none"
         id="path20"
         inkscape:connector-curvature="0" /><path
         d="m 1512.68,615.328 c -0.17,14.461 -5.26,23.32 -13.36,23.32 -7.71,0 -14.67,-9.972 -13.35,-23.32 l 26.71,0 z m 24.26,-24.844 c -10.55,-14.824 -25.75,-23.867 -40.23,-23.867 -20.54,0 -34.41,15.809 -34.41,38.535 0,24.844 16.72,42.344 40.22,42.344 9.99,0 17.84,-3.207 23.68,-9.043 11.14,-11.086 5.85,-21.625 12.43,-25.031 l 0,-5.43 -52.1,0 c 1.51,-15.625 12.03,-27.449 23.12,-27.449 6.96,0 13.72,3.914 22.95,13.543 l 4.34,-3.602"
         style="fill:#231f20;fill-opacity:1;fill-rule:nonzero;stroke:none"
         id="path22"
         inkscape:connector-curvature="0" /><path
         d="m 1600.87,568.676 -52.24,0 0,6.035 1.31,0 c 7.69,0 10.49,3.379 10.49,13.156 l 0,30.664 c 0,8.457 -1.12,10.332 -6.76,12.586 l -5.04,2.082 0,4.707 30.8,11.629 3.97,0 0,-21.043 0.4,0 c 6.93,13.535 9.93,19.004 16.33,19.004 1.34,0 2.83,-0.207 3.75,-0.578 l 14.85,-5.469 c -2.23,-7.879 -5.25,-14.648 -9,-19.914 -5.85,2.25 -12.8,4.68 -15.25,4.68 -3.75,0 -6.96,-2.606 -11.08,-8.457 l 0,-30.438 c 0,-9.043 2.83,-12.609 12.61,-12.609 l 4.86,0 0,-6.035"
         style="fill:#231f20;fill-opacity:1;fill-rule:nonzero;stroke:none"
         id="path24"
         inkscape:connector-curvature="0" /><path
         d="m 1630.62,590.871 6.02,0 c 3.2,-10.535 11.48,-16.16 19.55,-16.16 5.27,0 9.74,3.957 9.74,8.633 0,12.98 -35.31,17.48 -35.31,40.265 0,14.297 11.86,23.887 29.48,23.887 7.17,0 13.21,-1.133 21.1,-3.965 l 0.36,-20.121 -6.05,0 c -3.37,10.344 -9.58,15.969 -17.65,15.969 -4.89,0 -8.64,-3.008 -8.64,-7.129 0,-15.422 37.04,-15.996 37.04,-41.766 0,-13.898 -9.96,-23.683 -24.44,-23.683 -13.01,0 -17.31,2.648 -19.95,2.648 -1.11,0 -2.23,-0.773 -3.75,-2.453 l -5.45,0 -2.05,23.875"
         style="fill:#231f20;fill-opacity:1;fill-rule:nonzero;stroke:none"
         id="path26"
         inkscape:connector-curvature="0" /><path
         d="m 1739.88,679.449 c 0,-7.531 -7.13,-12.793 -14.87,-12.793 -8.63,0 -15.02,5.465 -15.02,12.793 0,6.766 7.13,12.793 15.02,12.793 8.66,0 14.87,-5.656 14.87,-12.793 z m 8.85,-110.773 -47.05,0 0,6.035 2.1,0 c 7.69,0 10.52,3.379 10.52,13.156 l 0,36.082 c 0,4.914 -1.08,6.242 -6.38,8.106 l -6.24,2.273 0,4.504 32.17,10.703 3.38,0 0,-63 c 0,-7.703 3.2,-11.824 11.5,-11.824 l 0,-6.035"
         style="fill:#231f20;fill-opacity:1;fill-rule:nonzero;stroke:none"
         id="path28"
         inkscape:connector-curvature="0" /><path
         d="m 1791.26,589.535 c 0,-6.953 3.17,-9.941 8.63,-9.941 4.5,0 8.79,2.832 14.28,9.402 l 2.63,-5.293 c -5.63,-10.125 -16.91,-17.086 -27.28,-17.086 -12.77,0 -21.25,7.168 -21.25,23.301 l 0,45.156 -9.96,0 0,4.891 c 11.28,4.695 24.08,18.418 27.46,28.945 l 5.49,0 0,-23.504 24.61,0 -2.83,-10.332 -21.78,0 0,-45.539"
         style="fill:#231f20;fill-opacity:1;fill-rule:nonzero;stroke:none"
         id="path30"
         inkscape:connector-curvature="0" /><path
         d="m 1876.79,615.328 c -0.18,14.461 -5.28,23.32 -13.32,23.32 -7.75,0 -14.71,-9.972 -13.34,-23.32 l 26.66,0 z m 24.26,-24.844 c -10.51,-14.824 -25.76,-23.867 -40.28,-23.867 -20.45,0 -34.39,15.809 -34.39,38.535 0,24.844 16.76,42.344 40.23,42.344 10,0 17.9,-3.207 23.74,-9.043 11.07,-11.086 5.83,-21.625 12.4,-25.031 l 0,-5.43 -52.1,0 c 1.48,-15.625 12.03,-27.449 23.11,-27.449 7.01,0 13.77,3.914 22.96,13.543 l 4.33,-3.602"
         style="fill:#231f20;fill-opacity:1;fill-rule:nonzero;stroke:none"
         id="path32"
         inkscape:connector-curvature="0" /><path
         d="m 1949.61,679.449 c 0,-7.531 -7.16,-12.793 -14.86,-12.793 -8.66,0 -15.06,5.465 -15.06,12.793 0,6.766 7.14,12.793 15.06,12.793 8.65,0 14.86,-5.656 14.86,-12.793 z m 8.85,-110.773 -47.04,0 0,6.035 2.08,0 c 7.74,0 10.53,3.379 10.53,13.156 l 0,36.082 c 0,4.914 -1.11,6.242 -6.41,8.106 l -6.2,2.273 0,4.504 32.17,10.703 3.38,0 0,-63 c 0,-7.703 3.19,-11.824 11.49,-11.824 l 0,-6.035"
         style="fill:#231f20;fill-opacity:1;fill-rule:nonzero;stroke:none"
         id="path34"
         inkscape:connector-curvature="0" /><path
         d="m 2000.94,589.535 c 0,-6.953 3.19,-9.941 8.64,-9.941 4.51,0 8.86,2.832 14.3,9.402 l 2.62,-5.293 c -5.64,-10.125 -16.92,-17.086 -27.25,-17.086 -12.79,0 -21.26,7.168 -21.26,23.301 l 0,45.156 -9.96,0 0,4.891 c 11.26,4.695 24.05,18.418 27.46,28.945 l 5.45,0 0,-23.504 24.6,0 -2.83,-10.332 -21.77,0 0,-45.539"
         style="fill:#231f20;fill-opacity:1;fill-rule:nonzero;stroke:none"
         id="path36"
         inkscape:connector-curvature="0" /><path
         d="m 2168.44,686.148 48.75,0 0,-7.324 -1.34,0 c -15.02,0 -17.3,-6.574 -17.3,-15.617 l 0,-46.805 c 0,-41.953 -30.45,-49.824 -52.82,-49.824 -33.87,0 -55.31,14.637 -55.31,43.418 l 0,56.035 c 0,9.422 -2.61,12.793 -13.16,12.793 l -3.2,0 0,7.324 58.86,0 0,-7.324 -3.16,0 c -7.95,0 -13.36,-3.566 -13.36,-12.793 l 0,-56.035 c 0,-22.941 16.89,-30.84 34,-30.84 24.65,0 36.9,13.895 36.9,34.598 l 0,45.695 c 0,13.348 -3.78,19.375 -15.45,19.375 l -3.41,0 0,7.324"
         style="fill:#231f20;fill-opacity:1;fill-rule:nonzero;stroke:none"
         id="path38"
         inkscape:connector-curvature="0" /><path
         d="m 2247.07,590.043 c 0,-6.965 3.16,-9.93 8.63,-9.93 4.5,0 8.83,2.801 14.29,9.383 l 2.64,-5.262 c -5.64,-10.148 -16.93,-17.113 -27.28,-17.113 -12.77,0 -21.28,7.172 -21.28,23.324 l 0,45.106 -9.94,0 0,4.933 c 11.28,4.676 24.11,18.418 27.47,28.934 l 5.47,0 0,-23.508 24.6,0 -2.81,-10.359 -21.79,0 0,-45.508"
         style="fill:#231f20;fill-opacity:1;fill-rule:nonzero;stroke:none"
         id="path40"
         inkscape:connector-curvature="0" /><path
         d="m 2333.57,569.195 -52.31,0 0,6.004 1.32,0 c 7.73,0 10.53,3.379 10.53,13.145 l 0,30.664 c 0,8.457 -1.11,10.363 -6.75,12.609 l -5.1,2.086 0,4.68 30.84,11.66 3.98,0 0,-21.047 0.37,0 c 6.94,13.539 9.96,18.988 16.37,18.988 1.29,0 2.82,-0.199 3.74,-0.558 l 14.85,-5.469 c -2.24,-7.91 -5.25,-14.637 -8.97,-19.922 -5.88,2.266 -12.83,4.699 -15.3,4.699 -3.75,0 -6.91,-2.648 -11.06,-8.457 l 0,-30.48 c 0,-9.043 2.82,-12.598 12.61,-12.598 l 4.88,0 0,-6.004"
         style="fill:#231f20;fill-opacity:1;fill-rule:nonzero;stroke:none"
         id="path42"
         inkscape:connector-curvature="0" /><path
         d="m 2408.99,615.805 c -0.19,14.492 -5.26,23.32 -13.38,23.32 -7.69,0 -14.63,-9.93 -13.34,-23.32 l 26.72,0 z M 2433.22,591 c -10.49,-14.824 -25.74,-23.879 -40.24,-23.879 -20.49,0 -34.4,15.793 -34.4,38.547 0,24.824 16.77,42.316 40.22,42.316 10,0 17.9,-3.203 23.71,-9.035 11.11,-11.082 5.85,-21.621 12.44,-25.008 l 0,-5.449 -52.1,0 c 1.5,-15.617 12.02,-27.453 23.13,-27.453 6.94,0 13.71,3.926 22.96,13.555 l 4.28,-3.594"
         style="fill:#231f20;fill-opacity:1;fill-rule:nonzero;stroke:none"
         id="path44"
         inkscape:connector-curvature="0" /><path
         d="m 2524.07,587.242 c -8.65,-13.156 -21.84,-20.121 -38.36,-20.121 -22.94,0 -39.51,15.625 -39.51,37.25 0,24.625 21.28,43.613 48.7,43.613 16.18,0 28.42,-6.769 28.42,-15.988 0,-5.625 -3.75,-9.414 -9.62,-9.414 -13.13,0 -15.93,16.746 -26.85,16.746 -9.41,0 -15.84,-11.461 -15.84,-28.375 0,-20.324 9.63,-34.043 23.53,-34.043 8.48,0 16.35,4.305 24.07,13.348 l 5.46,-3.016"
         style="fill:#231f20;fill-opacity:1;fill-rule:nonzero;stroke:none"
         id="path46"
         inkscape:connector-curvature="0" /><path
         d="m 2564.86,588.168 c 0,-11.836 3.21,-12.969 9.78,-12.969 l 1.88,0 0,-6.004 -47.61,0 0,6.004 2.69,0 c 9.6,0 10.33,3.77 10.33,13.742 l 0,82.176 c 0,5.43 -0.96,6.758 -6.03,8.457 l -5.46,1.875 0,4.336 29.92,9.211 4.5,0 0,-61.293 c 10.55,7.328 24.05,14.281 33.84,14.281 13.78,0 20.53,-11.074 20.53,-33.273 l 0,-24.852 c 0,-11.105 1.29,-14.66 8.46,-14.66 l 1.85,0 0,-6.004 -44.38,0 0,6.004 1.51,0 c 7.9,0 9.6,3.039 9.6,13.742 l 0,28.387 c 0,10.137 -4.7,16.543 -12.21,16.543 -5.11,0 -12.61,-2.801 -19.2,-7.137 l 0,-38.566"
         style="fill:#231f20;fill-opacity:1;fill-rule:nonzero;stroke:none"
         id="path48"
         inkscape:connector-curvature="0" /><path
         d="m 2670.57,590.043 c 0,-6.965 3.19,-9.93 8.63,-9.93 4.53,0 8.82,2.801 14.31,9.383 l 2.64,-5.262 c -5.66,-10.148 -16.95,-17.113 -27.29,-17.113 -12.78,0 -21.25,7.172 -21.25,23.324 l 0,45.106 -9.95,0 0,4.933 c 11.29,4.676 24.07,18.418 27.43,28.934 l 5.48,0 0,-23.508 24.59,0 -2.76,-10.359 -21.83,0 0,-45.508"
         style="fill:#231f20;fill-opacity:1;fill-rule:nonzero;stroke:none"
         id="path50"
         inkscape:connector-curvature="0" /><path
         d="m 673.125,883.875 5.113,6.551 8.66,1.054 6.536,-5.136 43.207,0 6.547,5.136 8.636,-1.054 5.133,-6.539 41.965,-10.348 7.57,3.422 8.141,-3.094 3.414,-7.59 38.219,-20.043 8.172,1.489 7.16,-4.926 1.5,-8.203 32.355,-28.633 8.281,-0.527 5.762,-6.504 -0.488,-8.301 24.512,-35.508 7.941,-2.48 4.062,-7.715 -2.472,-7.93 15.324,-40.41 7.129,-4.297 2.07,-8.457 -4.289,-7.109 5.188,-42.891 5.879,-5.879 0,-8.73 -5.879,-5.86 -5.188,-42.851 4.309,-7.11 -2.071,-8.476 -7.128,-4.278 -15.325,-40.41 2.473,-7.929 -4.063,-7.735 -7.921,-2.461 -24.551,-35.547 0.488,-8.32 -5.762,-6.504 -8.281,-0.488 -32.312,-28.633 -1.504,-8.183 -7.149,-4.961 -8.183,1.523 -38.27,-20.078 -3.402,-7.598 -8.141,-3.086 -7.582,3.418 -41.906,-10.351 -5.129,-6.543 -8.648,-1.035 -6.532,5.136 -43.218,0 -6.539,-5.136 -8.645,1.035 -5.125,6.543 -41.961,10.351 -7.574,-3.418 -8.141,3.086 -3.422,7.598 -38.215,20.039 -8.171,-1.504 -7.172,4.961 -1.492,8.184 -32.356,28.652 -8.285,0.488 -5.781,6.504 0.492,8.32 -24.512,35.489 -7.945,2.48 -4.043,7.715 2.473,7.949 -15.329,40.41 -7.109,4.278 -2.09,8.476 4.297,7.09 -5.211,42.91 -5.875,5.86 0,8.73 5.875,5.879 5.199,42.832 -4.3,7.129 2.089,8.457 7.11,4.297 15.324,40.41 -2.477,7.93 4.047,7.715 7.934,2.48 24.551,35.547 -0.5,8.301 5.781,6.504 8.285,0.527 32.313,28.613 1.492,8.184 7.176,4.945 8.168,-1.508 38.265,20.082 3.414,7.59 8.141,3.094 7.574,-3.422 41.918,10.336"
         style="fill:#fcd205;fill-opacity:1;fill-rule:nonzero;stroke:none"
         id="path52"
         inkscape:connector-curvature="0" /><g
         id="g54"><g
           id="g56"
           clip-path="url(#clipPath58)"><path
             d="m 761.52,858.41 c 2.101,-1.265 5.605,-3.101 8.265,-3.742 3.031,-0.734 6.371,-0.93 7.242,2.602 0.844,3.46 -3.468,4.851 -7.531,7.23 -4.07,2.379 -7.953,5.738 -6.183,12.996 1.984,8.059 11.011,9.817 18.105,8.078 4.168,-1.035 7.836,-2.941 11.316,-5.359 l -4.449,-6.246 c -2.269,1.527 -5.531,3.011 -7.523,3.508 -4.668,1.136 -6.813,-0.118 -7.387,-2.508 -0.367,-1.512 0.395,-3.078 4.508,-5.063 9.055,-4.511 10.711,-8.988 9.43,-14.254 -2.27,-9.242 -10.555,-10.961 -18.891,-8.914 -3.895,0.946 -7.746,2.821 -11.133,4.969 l 4.231,6.703"
             style="fill:#ffffff;fill-opacity:1;fill-rule:nonzero;stroke:none"
             id="path62"
             inkscape:connector-curvature="0" /><path
             d="m 761.52,858.41 c 2.101,-1.265 5.605,-3.101 8.265,-3.742 3.031,-0.734 6.371,-0.93 7.242,2.602 0.844,3.46 -3.468,4.851 -7.531,7.23 -4.07,2.379 -7.953,5.738 -6.183,12.996 1.984,8.059 11.011,9.817 18.105,8.078 4.168,-1.035 7.836,-2.941 11.316,-5.359 l -4.449,-6.246 c -2.269,1.527 -5.531,3.011 -7.523,3.508 -4.668,1.136 -6.813,-0.118 -7.387,-2.508 -0.367,-1.512 0.395,-3.078 4.508,-5.063 9.055,-4.511 10.711,-8.988 9.43,-14.254 -2.27,-9.242 -10.555,-10.961 -18.891,-8.914 -3.895,0.946 -7.746,2.821 -11.133,4.969 l 4.231,6.703 z"
             style="fill:none;stroke:#ffffff;stroke-width:4;stroke-linecap:butt;stroke-linejoin:miter;stroke-miterlimit:4;stroke-opacity:1;stroke-dasharray:none"
             id="path64"
             inkscape:connector-curvature="0" /><path
             d="m 825.488,834.047 c 5.121,-2.695 11.098,-1.406 15.024,6.074 3.937,7.524 1.605,13.156 -3.524,15.844 -5.078,2.672 -11.031,1.398 -14.968,-6.113 -3.938,-7.504 -1.622,-13.149 3.468,-15.805 z m 15.282,28.992 c 11.597,-6.086 14.132,-17.801 8.937,-27.723 -5.219,-9.941 -16.305,-14.492 -27.898,-8.418 -11.653,6.114 -14.192,17.832 -8.981,27.77 5.207,9.922 16.297,14.477 27.942,8.371"
             style="fill:#ffffff;fill-opacity:1;fill-rule:nonzero;stroke:none"
             id="path66"
             inkscape:connector-curvature="0" /><path
             d="m 825.488,834.047 c 5.121,-2.695 11.098,-1.406 15.024,6.074 3.937,7.524 1.605,13.156 -3.524,15.844 -5.078,2.672 -11.031,1.398 -14.968,-6.113 -3.938,-7.504 -1.622,-13.149 3.468,-15.805 z m 15.282,28.992 c 11.597,-6.086 14.132,-17.801 8.937,-27.723 -5.219,-9.941 -16.305,-14.492 -27.898,-8.418 -11.653,6.114 -14.192,17.832 -8.981,27.77 5.207,9.922 16.297,14.477 27.942,8.371 z"
             style="fill:none;stroke:#ffffff;stroke-width:4;stroke-linecap:butt;stroke-linejoin:miter;stroke-miterlimit:4;stroke-opacity:1;stroke-dasharray:none"
             id="path68"
             inkscape:connector-curvature="0" /><path
             d="m 885.391,834.184 -25.059,-30.723 c 6.578,-5.332 12.848,-10.977 18.809,-16.992 l 6.058,6.015 c -3.91,3.946 -7.976,7.754 -12.168,11.446 l 20.403,23.457"
             style="fill:#ffffff;fill-opacity:1;fill-rule:nonzero;stroke:none"
             id="path70"
             inkscape:connector-curvature="0" /><path
             d="m 885.391,834.184 -25.059,-30.723 c 6.578,-5.332 12.848,-10.977 18.809,-16.992 l 6.058,6.015 c -3.91,3.946 -7.976,7.754 -12.168,11.446 l 20.403,23.457"
             style="fill:none;stroke:#ffffff;stroke-width:4;stroke-linecap:butt;stroke-linejoin:miter;stroke-miterlimit:4;stroke-opacity:1;stroke-dasharray:none"
             id="path72"
             inkscape:connector-curvature="0" /><path
             d="m 970.172,714.613 -37.5,-13.32 c -0.996,2.812 -2.141,5.781 -3.293,8.594 l 37.023,14.785"
             style="fill:#ffffff;fill-opacity:1;fill-rule:nonzero;stroke:none"
             id="path74"
             inkscape:connector-curvature="0" /><path
             d="m 970.172,714.613 -37.5,-13.32 c -0.996,2.812 -2.141,5.781 -3.293,8.594 l 37.023,14.785"
             style="fill:none;stroke:#ffffff;stroke-width:4;stroke-linecap:butt;stroke-linejoin:miter;stroke-miterlimit:4;stroke-opacity:1;stroke-dasharray:none"
             id="path76"
             inkscape:connector-curvature="0" /><path
             d="m 984.984,645.902 -30.664,6.192 -0.019,0.097 28.379,12.93 -1.797,10.41 -37.07,-19.336 c 0.539,-3.613 0.929,-7.187 1.281,-10.8 l 40.496,-9.532"
             style="fill:#ffffff;fill-opacity:1;fill-rule:nonzero;stroke:none"
             id="path78"
             inkscape:connector-curvature="0" /><path
             d="m 984.984,645.902 -30.664,6.192 -0.019,0.097 28.379,12.93 -1.797,10.41 -37.07,-19.336 c 0.539,-3.613 0.929,-7.187 1.281,-10.8 l 40.496,-9.532"
             style="fill:none;stroke:#ffffff;stroke-width:4;stroke-linecap:butt;stroke-linejoin:miter;stroke-miterlimit:4;stroke-opacity:1;stroke-dasharray:none"
             id="path80"
             inkscape:connector-curvature="0" /><path
             d="m 953.754,605.688 c -1.016,-2.247 -2.391,-5.938 -2.715,-8.653 -0.371,-3.105 -0.176,-6.445 3.438,-6.875 3.546,-0.43 4.414,4.024 6.269,8.36 1.887,4.296 4.738,8.574 12.18,7.675 8.23,-0.976 11.062,-9.746 10.183,-16.992 -0.507,-4.297 -1.992,-8.125 -3.945,-11.894 l -6.758,3.671 c 1.25,2.422 2.344,5.84 2.578,7.911 0.567,4.746 -0.945,6.738 -3.359,7.011 -1.551,0.196 -3.016,-0.742 -4.5,-5.097 -3.398,-9.512 -7.637,-11.7 -13,-11.055 -9.453,1.133 -12.156,9.16 -11.141,17.676 0.477,3.984 1.856,8.027 3.594,11.621 l 7.176,-3.359"
             style="fill:#ffffff;fill-opacity:1;fill-rule:nonzero;stroke:none"
             id="path82"
             inkscape:connector-curvature="0" /><path
             d="m 953.754,605.688 c -1.016,-2.247 -2.391,-5.938 -2.715,-8.653 -0.371,-3.105 -0.176,-6.445 3.438,-6.875 3.546,-0.43 4.414,4.024 6.269,8.36 1.887,4.296 4.738,8.574 12.18,7.675 8.23,-0.976 11.062,-9.746 10.183,-16.992 -0.507,-4.297 -1.992,-8.125 -3.945,-11.894 l -6.758,3.671 c 1.25,2.422 2.344,5.84 2.578,7.911 0.567,4.746 -0.945,6.738 -3.359,7.011 -1.551,0.196 -3.016,-0.742 -4.5,-5.097 -3.398,-9.512 -7.637,-11.7 -13,-11.055 -9.453,1.133 -12.156,9.16 -11.141,17.676 0.477,3.984 1.856,8.027 3.594,11.621 l 7.176,-3.359 z"
             style="fill:none;stroke:#ffffff;stroke-width:4;stroke-linecap:butt;stroke-linejoin:miter;stroke-miterlimit:4;stroke-opacity:1;stroke-dasharray:none"
             id="path84"
             inkscape:connector-curvature="0" /><path
             d="m 962.367,513.051 -9.168,4.082 c 1.336,2.969 2.637,6.035 3.848,9.101 l -27.609,11.153 c 1.132,2.812 2.238,5.801 3.234,8.613 l 28.074,-10.059 c 1.074,3.047 2.129,6.114 3.098,9.18 l 9.5,-2.988"
             style="fill:#ffffff;fill-opacity:1;fill-rule:nonzero;stroke:none"
             id="path86"
             inkscape:connector-curvature="0" /><path
             d="m 962.367,513.051 -9.168,4.082 c 1.336,2.969 2.637,6.035 3.848,9.101 l -27.609,11.153 c 1.132,2.812 2.238,5.801 3.234,8.613 l 28.074,-10.059 c 1.074,3.047 2.129,6.114 3.098,9.18 l 9.5,-2.988"
             style="fill:none;stroke:#ffffff;stroke-width:4;stroke-linecap:butt;stroke-linejoin:miter;stroke-miterlimit:4;stroke-opacity:1;stroke-dasharray:none"
             id="path88"
             inkscape:connector-curvature="0" /><path
             d="m 934.781,465.277 -32.238,23.321 c 1.75,2.441 3.555,5.097 5.207,7.597 l 33.184,-22.07"
             style="fill:#ffffff;fill-opacity:1;fill-rule:nonzero;stroke:none"
             id="path90"
             inkscape:connector-curvature="0" /><path
             d="m 934.781,465.277 -32.238,23.321 c 1.75,2.441 3.555,5.097 5.207,7.597 l 33.184,-22.07"
             style="fill:none;stroke:#ffffff;stroke-width:4;stroke-linecap:butt;stroke-linejoin:miter;stroke-miterlimit:4;stroke-opacity:1;stroke-dasharray:none"
             id="path92"
             inkscape:connector-curvature="0" /><path
             d="m 882.602,410.805 -6.207,7.812 c 2.582,2.051 5.136,4.121 7.648,6.27 l -19.262,22.734 c 2.309,1.953 4.668,4.082 6.879,6.113 l 20.156,-21.953 c 2.399,2.188 4.739,4.414 6.997,6.699 l 7.031,-7.109"
             style="fill:#ffffff;fill-opacity:1;fill-rule:nonzero;stroke:none"
             id="path94"
             inkscape:connector-curvature="0" /><path
             d="m 882.602,410.805 -6.207,7.812 c 2.582,2.051 5.136,4.121 7.648,6.27 l -19.262,22.734 c 2.309,1.953 4.668,4.082 6.879,6.113 l 20.156,-21.953 c 2.399,2.188 4.739,4.414 6.997,6.699 l 7.031,-7.109"
             style="fill:none;stroke:#ffffff;stroke-width:4;stroke-linecap:butt;stroke-linejoin:miter;stroke-miterlimit:4;stroke-opacity:1;stroke-dasharray:none"
             id="path96"
             inkscape:connector-curvature="0" /><path
             d="m 836.055,381.215 -17.77,35.703 c 2.699,1.367 5.504,2.832 8.141,4.316 l 19.156,-34.98"
             style="fill:#ffffff;fill-opacity:1;fill-rule:nonzero;stroke:none"
             id="path98"
             inkscape:connector-curvature="0" /><path
             d="m 836.055,381.215 -17.77,35.703 c 2.699,1.367 5.504,2.832 8.141,4.316 l 19.156,-34.98"
             style="fill:none;stroke:#ffffff;stroke-width:4;stroke-linecap:butt;stroke-linejoin:miter;stroke-miterlimit:4;stroke-opacity:1;stroke-dasharray:none"
             id="path100"
             inkscape:connector-curvature="0" /><path
             d="m 760.281,356.508 -6.867,39.18 c 7.793,1.308 15.527,3.027 23.152,5.156 l 2.938,-10.078 c 4.148,1.152 8.262,2.441 12.348,3.828 l 2.019,7.773 5.992,-13.457 -7.836,-25.039 -31.746,-7.363"
             style="fill:#ffffff;fill-opacity:1;fill-rule:nonzero;stroke:none"
             id="path102"
             inkscape:connector-curvature="0" /><path
             d="m 760.281,356.508 -6.867,39.18 c 7.793,1.308 15.527,3.027 23.152,5.156 l 2.938,-10.078 c 4.148,1.152 8.262,2.441 12.348,3.828 l 2.019,7.773 5.992,-13.457 -7.836,-25.039 -31.746,-7.363 z"
             style="fill:none;stroke:#ffffff;stroke-width:4;stroke-linecap:butt;stroke-linejoin:miter;stroke-miterlimit:4;stroke-opacity:1;stroke-dasharray:none"
             id="path104"
             inkscape:connector-curvature="0" /><path
             d="m 645.203,361.879 10.348,38.476 c 2.922,-0.781 6.027,-1.503 8.98,-2.167 l -8.832,-38.907"
             style="fill:#ffffff;fill-opacity:1;fill-rule:nonzero;stroke:none"
             id="path106"
             inkscape:connector-curvature="0" /><path
             d="m 645.203,361.879 10.348,38.476 c 2.922,-0.781 6.027,-1.503 8.98,-2.167 l -8.832,-38.907"
             style="fill:none;stroke:#ffffff;stroke-width:4;stroke-linecap:butt;stroke-linejoin:miter;stroke-miterlimit:4;stroke-opacity:1;stroke-dasharray:none"
             id="path108"
             inkscape:connector-curvature="0" /><path
             d="m 600.234,378.246 16.993,35.977 c -7.664,3.593 -15.122,7.578 -22.356,11.972 l -4.433,-7.304 c 4.753,-2.891 9.613,-5.606 14.562,-8.164 l -14.348,-27.793"
             style="fill:#ffffff;fill-opacity:1;fill-rule:nonzero;stroke:none"
             id="path110"
             inkscape:connector-curvature="0" /><path
             d="m 600.234,378.246 16.993,35.977 c -7.664,3.593 -15.122,7.578 -22.356,11.972 l -4.433,-7.304 c 4.753,-2.891 9.613,-5.606 14.562,-8.164 l -14.348,-27.793"
             style="fill:none;stroke:#ffffff;stroke-width:4;stroke-linecap:butt;stroke-linejoin:miter;stroke-miterlimit:4;stroke-opacity:1;stroke-dasharray:none"
             id="path112"
             inkscape:connector-curvature="0" /><path
             d="m 544.887,412.914 25.047,30.82 c -6.579,5.313 -12.868,10.977 -18.829,16.993 l -6.054,-6.036 c 3.926,-3.964 7.984,-7.753 12.176,-11.425 l -20.454,-23.379"
             style="fill:#ffffff;fill-opacity:1;fill-rule:nonzero;stroke:none"
             id="path114"
             inkscape:connector-curvature="0" /><path
             d="m 544.887,412.914 25.047,30.82 c -6.579,5.313 -12.868,10.977 -18.829,16.993 l -6.054,-6.036 c 3.926,-3.964 7.984,-7.753 12.176,-11.425 l -20.454,-23.379"
             style="fill:none;stroke:#ffffff;stroke-width:4;stroke-linecap:butt;stroke-linejoin:miter;stroke-miterlimit:4;stroke-opacity:1;stroke-dasharray:none"
             id="path116"
             inkscape:connector-curvature="0" /><path
             d="m 481.324,486.762 40.281,10.429 c 1.981,-3.027 4.032,-6.015 6.153,-8.945 l -23.789,-34.297 -6.473,8.321 19.113,24.609 -0.054,0.078 -29.989,-8.809"
             style="fill:#ffffff;fill-opacity:1;fill-rule:nonzero;stroke:none"
             id="path118"
             inkscape:connector-curvature="0" /><path
             d="m 481.324,486.762 40.281,10.429 c 1.981,-3.027 4.032,-6.015 6.153,-8.945 l -23.789,-34.297 -6.473,8.321 19.113,24.609 -0.054,0.078 -29.989,-8.809"
             style="fill:none;stroke:#ffffff;stroke-width:4;stroke-linecap:butt;stroke-linejoin:miter;stroke-miterlimit:4;stroke-opacity:1;stroke-dasharray:none"
             id="path120"
             inkscape:connector-curvature="0" /><path
             d="m 495.461,528.285 c -0.152,2.461 -0.641,6.406 -1.617,8.945 -1.114,2.93 -2.864,5.782 -6.242,4.493 -3.34,-1.27 -2.036,-5.625 -1.68,-10.313 0.363,-4.707 -0.195,-9.805 -7.172,-12.461 -7.758,-2.969 -14.336,3.477 -16.941,10.274 -1.539,4.023 -2.028,8.125 -2.036,12.382 l 7.684,-0.136 c 0.027,-2.715 0.652,-6.231 1.395,-8.184 1.699,-4.472 3.961,-5.527 6.25,-4.629 1.457,0.547 2.304,2.051 1.601,6.582 -1.433,10.02 1.305,13.907 6.363,15.84 8.907,3.399 15.004,-2.422 18.079,-10.449 1.433,-3.75 2.085,-7.969 2.25,-11.973 l -7.934,-0.371"
             style="fill:#ffffff;fill-opacity:1;fill-rule:nonzero;stroke:none"
             id="path122"
             inkscape:connector-curvature="0" /><path
             d="m 495.461,528.285 c -0.152,2.461 -0.641,6.406 -1.617,8.945 -1.114,2.93 -2.864,5.782 -6.242,4.493 -3.34,-1.27 -2.036,-5.625 -1.68,-10.313 0.363,-4.707 -0.195,-9.805 -7.172,-12.461 -7.758,-2.969 -14.336,3.477 -16.941,10.274 -1.539,4.023 -2.028,8.125 -2.036,12.382 l 7.684,-0.136 c 0.027,-2.715 0.652,-6.231 1.395,-8.184 1.699,-4.472 3.961,-5.527 6.25,-4.629 1.457,0.547 2.304,2.051 1.601,6.582 -1.433,10.02 1.305,13.907 6.363,15.84 8.907,3.399 15.004,-2.422 18.079,-10.449 1.433,-3.75 2.085,-7.969 2.25,-11.973 l -7.934,-0.371 z"
             style="fill:none;stroke:#ffffff;stroke-width:4;stroke-linecap:butt;stroke-linejoin:miter;stroke-miterlimit:4;stroke-opacity:1;stroke-dasharray:none"
             id="path124"
             inkscape:connector-curvature="0" /><path
             d="m 444.789,606.43 9.902,0.625 c 0.211,-3.262 0.489,-6.563 0.836,-9.864 l 29.633,2.989 c 0.32,-2.989 0.723,-6.172 1.149,-9.141 l -29.532,-4.16 c 0.453,-3.184 0.965,-6.387 1.539,-9.551 l -9.847,-1.777"
             style="fill:#ffffff;fill-opacity:1;fill-rule:nonzero;stroke:none"
             id="path126"
             inkscape:connector-curvature="0" /><path
             d="m 444.789,606.43 9.902,0.625 c 0.211,-3.262 0.489,-6.563 0.836,-9.864 l 29.633,2.989 c 0.32,-2.989 0.723,-6.172 1.149,-9.141 l -29.532,-4.16 c 0.453,-3.184 0.965,-6.387 1.539,-9.551 l -9.847,-1.777"
             style="fill:none;stroke:#ffffff;stroke-width:4;stroke-linecap:butt;stroke-linejoin:miter;stroke-miterlimit:4;stroke-opacity:1;stroke-dasharray:none"
             id="path128"
             inkscape:connector-curvature="0" /><path
             d="m 488.484,668.813 c -0.863,-3.536 -1.394,-6.875 -1.89,-10.333 0,0 -6.125,-1.66 -8.973,-2.714 -3.465,-1.25 -6.707,-3.301 -7.199,-5.957 -0.109,-0.528 -0.133,-1.153 -0.168,-1.485 l 14.937,-1.465 c -0.304,-3.046 -0.55,-6.093 -0.738,-9.16 l -38.297,2.188 c 0.328,5.449 0.824,10.84 1.477,16.25 0.93,7.676 4.703,13.984 11.68,13.476 5.714,-0.39 9.339,-4.258 9.46,-10.39 l 0.188,-0.039 c 1.492,1.757 2.832,2.441 5.242,3.808 3.781,2.188 14.281,5.821 14.281,5.821"
             style="fill:#ffffff;fill-opacity:1;fill-rule:nonzero;stroke:none"
             id="path130"
             inkscape:connector-curvature="0" /><path
             d="m 488.484,668.813 c -0.863,-3.536 -1.394,-6.875 -1.89,-10.333 0,0 -6.125,-1.66 -8.973,-2.714 -3.465,-1.25 -6.707,-3.301 -7.199,-5.957 -0.109,-0.528 -0.133,-1.153 -0.168,-1.485 l 14.937,-1.465 c -0.304,-3.046 -0.55,-6.093 -0.738,-9.16 l -38.297,2.188 c 0.328,5.449 0.824,10.84 1.477,16.25 0.93,7.676 4.703,13.984 11.68,13.476 5.714,-0.39 9.339,-4.258 9.46,-10.39 l 0.188,-0.039 c 1.492,1.757 2.832,2.441 5.242,3.808 3.781,2.188 14.281,5.821 14.281,5.821 z"
             style="fill:none;stroke:#ffffff;stroke-width:4;stroke-linecap:butt;stroke-linejoin:miter;stroke-miterlimit:4;stroke-opacity:1;stroke-dasharray:none"
             id="path132"
             inkscape:connector-curvature="0" /><path
             d="m 463.844,725.023 43.027,-1.171 c -1.539,-3.184 -3.008,-6.446 -4.406,-9.688 l -9.059,0.41 c -1.711,-4.16 -3.308,-8.379 -4.785,-12.656 l 7.07,-5.703 c -1.078,-3.242 -2.078,-6.524 -3.011,-9.844 l -32.586,28.77"
             style="fill:#ffffff;fill-opacity:1;fill-rule:nonzero;stroke:none"
             id="path134"
             inkscape:connector-curvature="0" /><path
             d="m 463.844,725.023 43.027,-1.171 c -1.539,-3.184 -3.008,-6.446 -4.406,-9.688 l -9.059,0.41 c -1.711,-4.16 -3.308,-8.379 -4.785,-12.656 l 7.07,-5.703 c -1.078,-3.242 -2.078,-6.524 -3.011,-9.844 l -32.586,28.77"
             style="fill:none;stroke:#ffffff;stroke-width:4;stroke-linecap:butt;stroke-linejoin:miter;stroke-miterlimit:4;stroke-opacity:1;stroke-dasharray:none"
             id="path136"
             inkscape:connector-curvature="0" /><path
             d="m 530.16,821.508 29.082,-9.727 -16.797,20.586 7.91,6.231 23.723,-31.914 c -2.711,-2.09 -5.379,-4.239 -7.988,-6.446 l -28.059,9.278 17.727,-18.536 c -2.02,-1.933 -3.996,-3.867 -5.945,-5.878 l -28.469,27.753"
             style="fill:#ffffff;fill-opacity:1;fill-rule:nonzero;stroke:none"
             id="path138"
             inkscape:connector-curvature="0" /><path
             d="m 530.16,821.508 29.082,-9.727 -16.797,20.586 7.91,6.231 23.723,-31.914 c -2.711,-2.09 -5.379,-4.239 -7.988,-6.446 l -28.059,9.278 17.727,-18.536 c -2.02,-1.933 -3.996,-3.867 -5.945,-5.878 l -28.469,27.753"
             style="fill:none;stroke:#ffffff;stroke-width:4;stroke-linecap:butt;stroke-linejoin:miter;stroke-miterlimit:4;stroke-opacity:1;stroke-dasharray:none"
             id="path140"
             inkscape:connector-curvature="0" /><path
             d="m 604.551,833.988 c 5.133,2.715 7.457,8.34 3.515,15.844 -3.949,7.496 -9.902,8.785 -15.031,6.074 -5.082,-2.66 -7.422,-8.301 -3.48,-15.804 3.937,-7.481 9.898,-8.77 14.996,-6.114 z m -15.203,29.051 c 11.597,6.098 22.679,1.531 27.898,-8.391 5.203,-9.937 2.688,-21.636 -8.926,-27.75 -11.648,-6.093 -22.734,-1.543 -27.937,8.399 -5.215,9.922 -2.68,21.637 8.965,27.742"
             style="fill:#ffffff;fill-opacity:1;fill-rule:nonzero;stroke:none"
             id="path142"
             inkscape:connector-curvature="0" /><path
             d="m 604.551,833.988 c 5.133,2.715 7.457,8.34 3.515,15.844 -3.949,7.496 -9.902,8.785 -15.031,6.074 -5.082,-2.66 -7.422,-8.301 -3.48,-15.804 3.937,-7.481 9.898,-8.77 14.996,-6.114 z m -15.203,29.051 c 11.597,6.098 22.679,1.531 27.898,-8.391 5.203,-9.937 2.688,-21.636 -8.926,-27.75 -11.648,-6.093 -22.734,-1.543 -27.937,8.399 -5.215,9.922 -2.68,21.637 8.965,27.742 z"
             style="fill:none;stroke:#ffffff;stroke-width:4;stroke-linecap:butt;stroke-linejoin:miter;stroke-miterlimit:4;stroke-opacity:1;stroke-dasharray:none"
             id="path144"
             inkscape:connector-curvature="0" /><path
             d="m 647.043,853.102 c 2.449,-0.133 6.41,-0.133 9.062,0.519 3.032,0.758 6.075,2.141 5.211,5.676 -0.867,3.457 -5.336,2.695 -10.039,2.894 -4.711,0.211 -9.711,1.387 -11.511,8.633 -2.008,8.063 5.195,13.805 12.269,15.582 4.172,1.032 8.309,1.032 12.516,0.516 l -1.035,-7.606 c -2.723,0.293 -6.289,0.098 -8.286,-0.394 -4.664,-1.16 -5.984,-3.27 -5.386,-5.645 0.371,-1.515 1.789,-2.539 6.344,-2.398 10.113,0.223 13.656,-2.969 14.964,-8.227 2.301,-9.25 -4.234,-14.617 -12.562,-16.691 -3.902,-0.957 -8.18,-1.094 -12.164,-0.762 l 0.617,7.903"
             style="fill:#ffffff;fill-opacity:1;fill-rule:nonzero;stroke:none"
             id="path146"
             inkscape:connector-curvature="0" /><path
             d="m 647.043,853.102 c 2.449,-0.133 6.41,-0.133 9.062,0.519 3.032,0.758 6.075,2.141 5.211,5.676 -0.867,3.457 -5.336,2.695 -10.039,2.894 -4.711,0.211 -9.711,1.387 -11.511,8.633 -2.008,8.063 5.195,13.805 12.269,15.582 4.172,1.032 8.309,1.032 12.516,0.516 l -1.035,-7.606 c -2.723,0.293 -6.289,0.098 -8.286,-0.394 -4.664,-1.16 -5.984,-3.27 -5.386,-5.645 0.371,-1.515 1.789,-2.539 6.344,-2.398 10.113,0.223 13.656,-2.969 14.964,-8.227 2.301,-9.25 -4.234,-14.617 -12.562,-16.691 -3.902,-0.957 -8.18,-1.094 -12.164,-0.762 l 0.617,7.903 z"
             style="fill:none;stroke:#ffffff;stroke-width:4;stroke-linecap:butt;stroke-linejoin:miter;stroke-miterlimit:4;stroke-opacity:1;stroke-dasharray:none"
             id="path148"
             inkscape:connector-curvature="0" /></g></g><path
         d="m 715.063,863.66 c 5.375,0 9.738,4.352 9.738,9.735 0,5.371 -4.363,9.718 -9.738,9.718 -5.383,0 -9.735,-4.347 -9.735,-9.718 0,-5.383 4.352,-9.735 9.735,-9.735"
         style="fill:#ffffff;fill-opacity:1;fill-rule:nonzero;stroke:none"
         id="path150"
         inkscape:connector-curvature="0" /><path
         d="m 715.063,863.66 c 5.375,0 9.738,4.352 9.738,9.735 0,5.371 -4.363,9.718 -9.738,9.718 -5.383,0 -9.735,-4.347 -9.735,-9.718 0,-5.383 4.352,-9.735 9.735,-9.735 z"
         style="fill:none;stroke:#ffffff;stroke-width:4;stroke-linecap:butt;stroke-linejoin:miter;stroke-miterlimit:4;stroke-opacity:1;stroke-dasharray:none"
         id="path152"
         inkscape:connector-curvature="0" /><path
         d="m 912.66,759.926 c 3.039,-4.434 9.121,-5.547 13.535,-2.481 4.426,3.047 5.52,9.102 2.473,13.516 -3.039,4.434 -9.094,5.527 -13.516,2.48 -4.433,-3.046 -5.539,-9.101 -2.492,-13.515"
         style="fill:#ffffff;fill-opacity:1;fill-rule:nonzero;stroke:none"
         id="path154"
         inkscape:connector-curvature="0" /><path
         d="m 912.66,759.926 c 3.039,-4.434 9.121,-5.547 13.535,-2.481 4.426,3.047 5.52,9.102 2.473,13.516 -3.039,4.434 -9.094,5.527 -13.516,2.48 -4.433,-3.046 -5.539,-9.101 -2.492,-13.515 z"
         style="fill:none;stroke:#ffffff;stroke-width:4;stroke-linecap:butt;stroke-linejoin:miter;stroke-miterlimit:4;stroke-opacity:1;stroke-dasharray:none"
         id="path156"
         inkscape:connector-curvature="0" /><path
         d="m 715.063,383.539 c 5.375,0 9.738,-4.355 9.738,-9.746 0,-5.391 -4.363,-9.727 -9.738,-9.727 -5.383,0 -9.735,4.336 -9.735,9.727 0,5.391 4.352,9.746 9.735,9.746"
         style="fill:#ffffff;fill-opacity:1;fill-rule:nonzero;stroke:none"
         id="path158"
         inkscape:connector-curvature="0" /><path
         d="m 715.063,383.539 c 5.375,0 9.738,-4.355 9.738,-9.746 0,-5.391 -4.363,-9.727 -9.738,-9.727 -5.383,0 -9.735,4.336 -9.735,9.727 0,5.391 4.352,9.746 9.735,9.746 z"
         style="fill:none;stroke:#ffffff;stroke-width:4;stroke-linecap:butt;stroke-linejoin:miter;stroke-miterlimit:4;stroke-opacity:1;stroke-dasharray:none"
         id="path160"
         inkscape:connector-curvature="0" /><path
         d="m 517.445,759.926 c 3.051,4.414 1.95,10.469 -2.472,13.515 -4.426,3.047 -10.485,1.954 -13.535,-2.48 -3.047,-4.414 -1.942,-10.469 2.484,-13.516 4.414,-3.066 10.476,-1.953 13.523,2.481"
         style="fill:#ffffff;fill-opacity:1;fill-rule:nonzero;stroke:none"
         id="path162"
         inkscape:connector-curvature="0" /><path
         d="m 517.445,759.926 c 3.051,4.414 1.95,10.469 -2.472,13.515 -4.426,3.047 -10.485,1.954 -13.535,-2.48 -3.047,-4.414 -1.942,-10.469 2.484,-13.516 4.414,-3.066 10.476,-1.953 13.523,2.481 z"
         style="fill:none;stroke:#ffffff;stroke-width:4;stroke-linecap:butt;stroke-linejoin:miter;stroke-miterlimit:4;stroke-opacity:1;stroke-dasharray:none"
         id="path164"
         inkscape:connector-curvature="0" /><path
         d="m 740.859,518.988 65.633,-148.75 8.141,3.086"
         style="fill:#fcd205;fill-opacity:1;fill-rule:nonzero;stroke:none"
         id="path166"
         inkscape:connector-curvature="0" /><path
         d="m 610.176,663.305 -154.512,29.472 -1.055,-0.527 -2.089,-8.457"
         style="fill:#fcd205;fill-opacity:1;fill-rule:nonzero;stroke:none"
         id="path168"
         inkscape:connector-curvature="0" /><path
         d="m 478.613,752.602 -4.047,-7.715 0.532,-1.328 135.078,-80.254"
         style="fill:#fcd205;fill-opacity:1;fill-rule:nonzero;stroke:none"
         id="path170"
         inkscape:connector-curvature="0" /><g
         id="g172"><g
           id="g174"
           clip-path="url(#clipPath176)"><path
             d="m 686.492,893.703 28.571,-162.371 28.558,162.371"
             style="fill:#231f20;fill-opacity:1;fill-rule:nonzero;stroke:none"
             id="path180"
             inkscape:connector-curvature="0" /><path
             d="M 751.996,892.695 740.859,728.207 807.457,879.023"
             style="fill:#231f20;fill-opacity:1;fill-rule:nonzero;stroke:none"
             id="path182"
             inkscape:connector-curvature="0" /><path
             d="M 815.277,876.055 765.129,718.988 865.875,849.5"
             style="fill:#231f20;fill-opacity:1;fill-rule:nonzero;stroke:none"
             id="path184"
             inkscape:connector-curvature="0" /><path
             d="M 872.793,844.711 786.508,704.242 915.543,806.82"
             style="fill:#231f20;fill-opacity:1;fill-rule:nonzero;stroke:none"
             id="path186"
             inkscape:connector-curvature="0" /><path
             d="M 921.109,800.551 803.727,684.789 953.57,753.539"
             style="fill:#231f20;fill-opacity:1;fill-rule:nonzero;stroke:none"
             id="path188"
             inkscape:connector-curvature="0" /><path
             d="M 957.465,746.078 815.801,661.82 977.73,692.68"
             style="fill:#231f20;fill-opacity:1;fill-rule:nonzero;stroke:none"
             id="path190"
             inkscape:connector-curvature="0" /><path
             d="M 979.762,684.496 822.02,636.566 986.637,627.797"
             style="fill:#231f20;fill-opacity:1;fill-rule:nonzero;stroke:none"
             id="path192"
             inkscape:connector-curvature="0" /><path
             d="M 986.637,619.398 822.02,610.609 979.762,562.68"
             style="fill:#231f20;fill-opacity:1;fill-rule:nonzero;stroke:none"
             id="path194"
             inkscape:connector-curvature="0" /><path
             d="m 977.73,554.535 -161.929,30.86 141.664,-84.297"
             style="fill:#231f20;fill-opacity:1;fill-rule:nonzero;stroke:none"
             id="path196"
             inkscape:connector-curvature="0" /><path
             d="M 953.57,493.637 803.727,562.387 921.109,446.645"
             style="fill:#231f20;fill-opacity:1;fill-rule:nonzero;stroke:none"
             id="path198"
             inkscape:connector-curvature="0" /><path
             d="M 915.543,440.355 786.508,542.973 872.793,402.484"
             style="fill:#231f20;fill-opacity:1;fill-rule:nonzero;stroke:none"
             id="path200"
             inkscape:connector-curvature="0" /><path
             d="M 865.875,397.68 765.129,528.188 815.277,371.137"
             style="fill:#231f20;fill-opacity:1;fill-rule:nonzero;stroke:none"
             id="path202"
             inkscape:connector-curvature="0" /><path
             d="M 743.621,353.5 715.063,515.863 686.492,353.5"
             style="fill:#231f20;fill-opacity:1;fill-rule:nonzero;stroke:none"
             id="path204"
             inkscape:connector-curvature="0" /><path
             d="m 678.129,354.496 11.141,164.492 -66.598,-150.8"
             style="fill:#231f20;fill-opacity:1;fill-rule:nonzero;stroke:none"
             id="path206"
             inkscape:connector-curvature="0" /><path
             d="M 614.84,371.137 665,528.188 564.254,397.68"
             style="fill:#231f20;fill-opacity:1;fill-rule:nonzero;stroke:none"
             id="path208"
             inkscape:connector-curvature="0" /><path
             d="M 557.313,402.484 643.617,542.973 514.555,440.355"
             style="fill:#231f20;fill-opacity:1;fill-rule:nonzero;stroke:none"
             id="path210"
             inkscape:connector-curvature="0" /><path
             d="M 509.008,446.645 626.402,562.387 476.547,493.637"
             style="fill:#231f20;fill-opacity:1;fill-rule:nonzero;stroke:none"
             id="path212"
             inkscape:connector-curvature="0" /><path
             d="m 472.637,501.098 141.679,84.297 -161.949,-30.86"
             style="fill:#231f20;fill-opacity:1;fill-rule:nonzero;stroke:none"
             id="path214"
             inkscape:connector-curvature="0" /><path
             d="m 450.355,562.68 157.75,47.929 -164.632,8.789"
             style="fill:#231f20;fill-opacity:1;fill-rule:nonzero;stroke:none"
             id="path216"
             inkscape:connector-curvature="0" /><path
             d="m 443.473,627.797 164.632,8.769 -157.75,47.93"
             style="fill:#231f20;fill-opacity:1;fill-rule:nonzero;stroke:none"
             id="path218"
             inkscape:connector-curvature="0" /><path
             d="M 452.367,692.68 614.316,661.82 472.637,746.078"
             style="fill:#231f20;fill-opacity:1;fill-rule:nonzero;stroke:none"
             id="path220"
             inkscape:connector-curvature="0" /><path
             d="M 476.547,753.539 626.402,684.789 509.008,800.551"
             style="fill:#231f20;fill-opacity:1;fill-rule:nonzero;stroke:none"
             id="path222"
             inkscape:connector-curvature="0" /><path
             d="M 514.555,806.82 643.617,704.242 557.313,844.711"
             style="fill:#231f20;fill-opacity:1;fill-rule:nonzero;stroke:none"
             id="path224"
             inkscape:connector-curvature="0" /><path
             d="M 564.254,849.5 665,718.988 614.84,876.055"
             style="fill:#231f20;fill-opacity:1;fill-rule:nonzero;stroke:none"
             id="path226"
             inkscape:connector-curvature="0" /><path
             d="M 622.672,879.023 689.27,728.207 678.129,892.695"
             style="fill:#231f20;fill-opacity:1;fill-rule:nonzero;stroke:none"
             id="path228"
             inkscape:connector-curvature="0" /><path
             d="m 885.391,834.184 -25.059,-30.723 c 6.578,-5.332 12.848,-10.977 18.809,-16.992 l 6.058,6.015 c -3.91,3.946 -7.976,7.754 -12.168,11.446 l 20.403,23.457"
             style="fill:#ffffff;fill-opacity:1;fill-rule:nonzero;stroke:none"
             id="path230"
             inkscape:connector-curvature="0" /><path
             d="m 970.172,714.613 -37.5,-13.32 c -0.996,2.812 -2.141,5.781 -3.293,8.594 l 37.023,14.785"
             style="fill:#ffffff;fill-opacity:1;fill-rule:nonzero;stroke:none"
             id="path232"
             inkscape:connector-curvature="0" /><path
             d="m 984.984,645.902 -30.664,6.192 -0.019,0.097 28.379,12.93 -1.797,10.41 -37.07,-19.336 c 0.539,-3.613 0.929,-7.187 1.281,-10.8 l 40.496,-9.532"
             style="fill:#ffffff;fill-opacity:1;fill-rule:nonzero;stroke:none"
             id="path234"
             inkscape:connector-curvature="0" /><path
             d="m 962.367,513.051 -9.168,4.082 c 1.336,2.969 2.637,6.035 3.848,9.101 l -27.609,11.153 c 1.132,2.812 2.238,5.801 3.234,8.613 l 28.074,-10.059 c 1.074,3.047 2.129,6.114 3.098,9.18 l 9.5,-2.988"
             style="fill:#ffffff;fill-opacity:1;fill-rule:nonzero;stroke:none"
             id="path236"
             inkscape:connector-curvature="0" /><path
             d="m 934.781,465.277 -32.238,23.321 c 1.75,2.441 3.555,5.097 5.207,7.597 l 33.184,-22.07"
             style="fill:#ffffff;fill-opacity:1;fill-rule:nonzero;stroke:none"
             id="path238"
             inkscape:connector-curvature="0" /><path
             d="m 882.602,410.805 -6.207,7.812 c 2.582,2.051 5.136,4.121 7.648,6.27 l -19.262,22.734 c 2.309,1.953 4.668,4.082 6.879,6.113 l 20.156,-21.953 c 2.399,2.188 4.739,4.414 6.997,6.699 l 7.031,-7.109"
             style="fill:#ffffff;fill-opacity:1;fill-rule:nonzero;stroke:none"
             id="path240"
             inkscape:connector-curvature="0" /><path
             d="m 836.055,381.215 -17.77,35.703 c 2.699,1.367 5.504,2.832 8.141,4.316 l 19.156,-34.98"
             style="fill:#ffffff;fill-opacity:1;fill-rule:nonzero;stroke:none"
             id="path242"
             inkscape:connector-curvature="0" /><path
             d="m 807.457,368.188 -66.598,150.8 11.137,-164.492"
             style="fill:#231f20;fill-opacity:1;fill-rule:nonzero;stroke:none"
             id="path244"
             inkscape:connector-curvature="0" /></g></g><g
         id="g246"><g
           id="g248"
           clip-path="url(#clipPath250)"><g
             id="g254"
             clip-path="url(#clipPath256)"><path
               d="m 785.121,369.789 -3.683,13.516 c 2.66,0.742 5.628,1.621 8.39,2.48 l -4.219,-15.879 -0.488,-0.117 z m 6.906,-5.918 7.836,25.039 -5.992,13.457 -2.019,-7.773 c -4.086,-1.387 -8.2,-2.676 -12.348,-3.828 l -2.938,10.078 c -7.625,-2.129 -15.359,-3.848 -23.152,-5.156 l 1.406,-8.418 c 4.782,0.8 9.543,1.738 14.864,2.988 l 1.671,-6.641 c -4.992,-1.152 -9.406,-2.051 -13.835,-2.832 l 1.253,-7.578 c 4.672,0.801 9.192,1.738 14.434,2.93 l 1.629,-6.485 c -5.793,-1.347 -10.969,-2.382 -16.164,-3.261 l 1.609,-9.883"
               style="fill:#ffffff;fill-opacity:1;fill-rule:nonzero;stroke:none"
               id="path260"
               inkscape:connector-curvature="0" /></g></g></g><g
         id="g262"><g
           id="g264"
           clip-path="url(#clipPath266)"><path
             d="m 645.203,361.879 10.348,38.476 c 2.922,-0.781 6.027,-1.503 8.98,-2.167 l -8.832,-38.907"
             style="fill:#ffffff;fill-opacity:1;fill-rule:nonzero;stroke:none"
             id="path270"
             inkscape:connector-curvature="0" /><path
             d="m 600.234,378.246 16.993,35.977 c -7.664,3.593 -15.122,7.578 -22.356,11.972 l -4.433,-7.304 c 4.753,-2.891 9.613,-5.606 14.562,-8.164 l -14.348,-27.793"
             style="fill:#ffffff;fill-opacity:1;fill-rule:nonzero;stroke:none"
             id="path272"
             inkscape:connector-curvature="0" /><path
             d="m 544.887,412.914 25.047,30.82 c -6.579,5.313 -12.868,10.977 -18.829,16.993 l -6.054,-6.036 c 3.926,-3.964 7.984,-7.753 12.176,-11.425 l -20.454,-23.379"
             style="fill:#ffffff;fill-opacity:1;fill-rule:nonzero;stroke:none"
             id="path274"
             inkscape:connector-curvature="0" /><path
             d="m 481.324,486.762 40.281,10.429 c 1.981,-3.027 4.032,-6.015 6.153,-8.945 l -23.789,-34.297 -6.473,8.321 19.113,24.609 -0.054,0.078 -29.989,-8.809"
             style="fill:#ffffff;fill-opacity:1;fill-rule:nonzero;stroke:none"
             id="path276"
             inkscape:connector-curvature="0" /><path
             d="m 444.789,606.43 9.902,0.625 c 0.211,-3.262 0.489,-6.563 0.836,-9.864 l 29.633,2.989 c 0.32,-2.989 0.723,-6.172 1.149,-9.141 l -29.532,-4.16 c 0.453,-3.184 0.965,-6.387 1.539,-9.551 l -9.847,-1.777"
             style="fill:#ffffff;fill-opacity:1;fill-rule:nonzero;stroke:none"
             id="path278"
             inkscape:connector-curvature="0" /><path
             d="m 454.277,654.242 c -0.16,-1.445 -0.191,-2.89 -0.355,-4.472 l 9.547,-0.957 c 0.121,1.328 0.304,2.91 0.461,4.296 0.285,2.383 -0.196,6.036 -4.067,6.465 -3.152,0.371 -5.14,-1.328 -5.586,-5.332 z m -8.375,2.031 1.731,-0.136 c 0.93,7.676 4.703,13.984 11.68,13.476 5.714,-0.39 9.339,-4.258 9.46,-10.39 l 0.188,-0.039 c 1.492,1.757 2.832,2.441 5.242,3.808 3.781,2.188 14.281,5.821 14.281,5.821 -0.863,-3.536 -1.394,-6.875 -1.89,-10.333 0,0 -6.125,-1.66 -8.973,-2.714 -3.465,-1.25 -6.707,-3.301 -7.199,-5.957 -0.109,-0.528 -0.133,-1.153 -0.168,-1.485 l 14.937,-1.465 c -0.304,-3.046 -0.55,-6.093 -0.738,-9.16 l -40.14,2.324"
             style="fill:#ffffff;fill-opacity:1;fill-rule:nonzero;stroke:none"
             id="path280"
             inkscape:connector-curvature="0" /><path
             d="m 469.977,716.508 12.48,-9.59 c 1.012,2.832 2.074,5.605 3.188,8.418 l -15.629,1.289 -0.039,-0.117 z m -6.133,8.515 43.027,-1.171 c -1.539,-3.184 -3.008,-6.446 -4.406,-9.688 l -9.059,0.41 c -1.711,-4.16 -3.308,-8.379 -4.785,-12.656 l 7.07,-5.703 c -1.078,-3.242 -2.078,-6.524 -3.011,-9.844 l -32.586,28.77"
             style="fill:#ffffff;fill-opacity:1;fill-rule:nonzero;stroke:none"
             id="path282"
             inkscape:connector-curvature="0" /><path
             d="m 530.16,821.508 29.082,-9.727 -16.797,20.586 7.91,6.231 23.723,-31.914 c -2.711,-2.09 -5.379,-4.239 -7.988,-6.446 l -28.059,9.278 17.727,-18.536 c -2.02,-1.933 -3.996,-3.867 -5.945,-5.878 l -28.469,27.753"
             style="fill:#ffffff;fill-opacity:1;fill-rule:nonzero;stroke:none"
             id="path284"
             inkscape:connector-curvature="0" /><path
             d="m 761.52,858.41 c 2.101,-1.265 5.605,-3.101 8.265,-3.742 3.031,-0.734 6.371,-0.93 7.242,2.602 0.844,3.46 -3.468,4.851 -7.531,7.23 -4.07,2.379 -7.953,5.738 -6.183,12.996 1.984,8.059 11.011,9.817 18.105,8.078 4.168,-1.035 7.836,-2.941 11.316,-5.359 l -4.449,-6.246 c -2.269,1.527 -5.531,3.011 -7.523,3.508 -4.668,1.136 -6.813,-0.118 -7.387,-2.508 -0.367,-1.512 0.395,-3.078 4.508,-5.063 9.055,-4.511 10.711,-8.988 9.43,-14.254 -2.27,-9.242 -10.555,-10.961 -18.891,-8.914 -3.895,0.946 -7.746,2.821 -11.133,4.969 l 4.231,6.703"
             style="fill:#ffffff;fill-opacity:1;fill-rule:nonzero;stroke:none"
             id="path286"
             inkscape:connector-curvature="0" /><path
             d="m 825.488,834.047 c 5.121,-2.695 11.098,-1.406 15.024,6.074 3.937,7.524 1.605,13.156 -3.524,15.844 -5.078,2.672 -11.031,1.398 -14.968,-6.113 -3.938,-7.504 -1.622,-13.149 3.468,-15.805 z m 15.282,28.992 c 11.597,-6.086 14.132,-17.801 8.937,-27.723 -5.219,-9.941 -16.305,-14.492 -27.898,-8.418 -11.653,6.114 -14.192,17.832 -8.981,27.77 5.207,9.922 16.297,14.477 27.942,8.371"
             style="fill:#ffffff;fill-opacity:1;fill-rule:nonzero;stroke:none"
             id="path288"
             inkscape:connector-curvature="0" /><path
             d="m 953.754,605.688 c -1.016,-2.247 -2.391,-5.938 -2.715,-8.653 -0.371,-3.105 -0.176,-6.445 3.438,-6.875 3.546,-0.43 4.414,4.024 6.269,8.36 1.887,4.296 4.738,8.574 12.18,7.675 8.23,-0.976 11.062,-9.746 10.183,-16.992 -0.507,-4.297 -1.992,-8.125 -3.945,-11.894 l -6.758,3.671 c 1.25,2.422 2.344,5.84 2.578,7.911 0.567,4.746 -0.945,6.738 -3.359,7.011 -1.551,0.196 -3.016,-0.742 -4.5,-5.097 -3.398,-9.512 -7.637,-11.7 -13,-11.055 -9.453,1.133 -12.156,9.16 -11.141,17.676 0.477,3.984 1.856,8.027 3.594,11.621 l 7.176,-3.359"
             style="fill:#ffffff;fill-opacity:1;fill-rule:nonzero;stroke:none"
             id="path290"
             inkscape:connector-curvature="0" /><path
             d="m 495.461,528.285 c -0.152,2.461 -0.641,6.406 -1.617,8.945 -1.114,2.93 -2.864,5.782 -6.242,4.493 -3.34,-1.27 -2.036,-5.625 -1.68,-10.313 0.363,-4.707 -0.195,-9.805 -7.172,-12.461 -7.758,-2.969 -14.336,3.477 -16.941,10.274 -1.539,4.023 -2.028,8.125 -2.036,12.382 l 7.684,-0.136 c 0.027,-2.715 0.652,-6.231 1.395,-8.184 1.699,-4.472 3.961,-5.527 6.25,-4.629 1.457,0.547 2.304,2.051 1.601,6.582 -1.433,10.02 1.305,13.907 6.363,15.84 8.907,3.399 15.004,-2.422 18.079,-10.449 1.433,-3.75 2.085,-7.969 2.25,-11.973 l -7.934,-0.371"
             style="fill:#ffffff;fill-opacity:1;fill-rule:nonzero;stroke:none"
             id="path292"
             inkscape:connector-curvature="0" /><path
             d="m 604.551,833.988 c 5.133,2.715 7.457,8.34 3.515,15.844 -3.949,7.496 -9.902,8.785 -15.031,6.074 -5.082,-2.66 -7.422,-8.301 -3.48,-15.804 3.937,-7.481 9.898,-8.77 14.996,-6.114 z m -15.203,29.051 c 11.597,6.098 22.679,1.531 27.898,-8.391 5.203,-9.937 2.688,-21.636 -8.926,-27.75 -11.648,-6.093 -22.734,-1.543 -27.937,8.399 -5.215,9.922 -2.68,21.637 8.965,27.742"
             style="fill:#ffffff;fill-opacity:1;fill-rule:nonzero;stroke:none"
             id="path294"
             inkscape:connector-curvature="0" /><path
             d="m 647.043,853.102 c 2.449,-0.133 6.41,-0.133 9.062,0.519 3.032,0.758 6.075,2.141 5.211,5.676 -0.867,3.457 -5.336,2.695 -10.039,2.894 -4.711,0.211 -9.711,1.387 -11.511,8.633 -2.008,8.063 5.195,13.805 12.269,15.582 4.172,1.032 8.309,1.032 12.516,0.516 l -1.035,-7.606 c -2.723,0.293 -6.289,0.098 -8.286,-0.394 -4.664,-1.16 -5.984,-3.27 -5.386,-5.645 0.371,-1.515 1.789,-2.539 6.344,-2.398 10.113,0.223 13.656,-2.969 14.964,-8.227 2.301,-9.25 -4.234,-14.617 -12.562,-16.691 -3.902,-0.957 -8.18,-1.094 -12.164,-0.762 l 0.617,7.903"
             style="fill:#ffffff;fill-opacity:1;fill-rule:nonzero;stroke:none"
             id="path296"
             inkscape:connector-curvature="0" /><path
             d="m 715.063,863.66 c 5.375,0 9.738,4.352 9.738,9.735 0,5.371 -4.363,9.718 -9.738,9.718 -5.383,0 -9.735,-4.347 -9.735,-9.718 0,-5.383 4.352,-9.735 9.735,-9.735"
             style="fill:#ffffff;fill-opacity:1;fill-rule:nonzero;stroke:none"
             id="path298"
             inkscape:connector-curvature="0" /><path
             d="m 912.66,759.926 c 3.039,-4.434 9.121,-5.547 13.535,-2.481 4.426,3.047 5.52,9.102 2.473,13.516 -3.039,4.434 -9.094,5.527 -13.516,2.48 -4.433,-3.046 -5.539,-9.101 -2.492,-13.515"
             style="fill:#ffffff;fill-opacity:1;fill-rule:nonzero;stroke:none"
             id="path300"
             inkscape:connector-curvature="0" /><path
             d="m 715.063,383.539 c 5.375,0 9.738,-4.355 9.738,-9.746 0,-5.391 -4.363,-9.727 -9.738,-9.727 -5.383,0 -9.735,4.336 -9.735,9.727 0,5.391 4.352,9.746 9.735,9.746"
             style="fill:#ffffff;fill-opacity:1;fill-rule:nonzero;stroke:none"
             id="path302"
             inkscape:connector-curvature="0" /><path
             d="m 517.445,759.926 c 3.051,4.414 1.95,10.469 -2.472,13.515 -4.426,3.047 -10.485,1.954 -13.535,-2.48 -3.047,-4.414 -1.942,-10.469 2.484,-13.516 4.414,-3.066 10.476,-1.953 13.523,2.481"
             style="fill:#ffffff;fill-opacity:1;fill-rule:nonzero;stroke:none"
             id="path304"
             inkscape:connector-curvature="0" /></g></g><path
         d="m 751.996,586.684 c -3.035,-3.106 -7.25,-5.02 -11.922,-5.02 l -9.804,0 c -5.489,0 -10.364,-2.656 -13.407,-6.758 l -3.609,0 c -3.035,4.102 -7.918,6.758 -13.406,6.758 l -9.793,0 c -9.215,0 -16.68,7.461 -16.68,16.68 l 0,66.953"
         style="fill:#ed1639;fill-opacity:1;fill-rule:nonzero;stroke:none"
         id="path306"
         inkscape:connector-curvature="0" /><path
         d="m 673.375,665.297 83.379,0 0,-66.953 c 0,-4.571 -1.809,-8.653 -4.758,-11.66"
         style="fill:#ffffff;fill-opacity:1;fill-rule:nonzero;stroke:none"
         id="path308"
         inkscape:connector-curvature="0" /><path
         d="m 752.504,661.02 -74.883,0 0,-62.461 c 0,-6.817 5.567,-12.403 12.434,-12.403 l 9.793,0 c 5.976,0 11.261,-2.5 15.078,-6.484 l 0.265,0 c 3.832,3.984 9.11,6.484 15.079,6.484 l 9.804,0 c 6.867,0 12.43,5.586 12.43,12.403 l 0,62.461 z m 8.601,-62.461 c 0,-11.602 -9.425,-20.996 -21.031,-20.996 l -9.804,0 c -5.149,0 -9.563,-3.145 -11.454,-7.598 l -7.515,0 c -1.883,4.453 -6.297,7.598 -11.453,7.598 l -9.793,0 c -11.617,0 -21.032,9.394 -21.032,20.996 l 0,71.093 92.082,0 0,-71.093"
         style="fill:#231f20;fill-opacity:1;fill-rule:nonzero;stroke:none"
         id="path310"
         inkscape:connector-curvature="0" /></g></g></svg>