<?xml version="1.0" encoding="UTF-8" standalone="no"?>
<!-- Created with Inkscape (http://www.inkscape.org/) -->

<svg
   xmlns:dc="http://purl.org/dc/elements/1.1/"
   xmlns:cc="http://creativecommons.org/ns#"
   xmlns:rdf="http://www.w3.org/1999/02/22-rdf-syntax-ns#"
   xmlns:svg="http://www.w3.org/2000/svg"
   xmlns="http://www.w3.org/2000/svg"
   xmlns:sodipodi="http://sodipodi.sourceforge.net/DTD/sodipodi-0.dtd"
   xmlns:inkscape="http://www.inkscape.org/namespaces/inkscape"
   id="svg2"
   version="1.1"
   inkscape:version="0.48.5 r10040"
   width="167.81989"
   height="38.665051"
   xml:space="preserve"
   sodipodi:docname="ZonMw.eps"><metadata
     id="metadata8"><rdf:RDF><cc:Work
         rdf:about=""><dc:format>image/svg+xml</dc:format><dc:type
           rdf:resource="http://purl.org/dc/dcmitype/StillImage" /><dc:title></dc:title></cc:Work></rdf:RDF></metadata><defs
     id="defs6" /><sodipodi:namedview
     pagecolor="#ffffff"
     bordercolor="#666666"
     borderopacity="1"
     objecttolerance="10"
     gridtolerance="10"
     guidetolerance="10"
     inkscape:pageopacity="0"
     inkscape:pageshadow="2"
     inkscape:window-width="1920"
     inkscape:window-height="1011"
     id="namedview4"
     showgrid="false"
     fit-margin-top="0"
     fit-margin-left="0"
     fit-margin-right="0"
     fit-margin-bottom="0"
     inkscape:zoom="5.2741642"
     inkscape:cx="66.185581"
     inkscape:cy="15.867009"
     inkscape:window-x="-8"
     inkscape:window-y="-8"
     inkscape:window-maximized="1"
     inkscape:current-layer="g10" /><g
     id="g10"
     inkscape:groupmode="layer"
     inkscape:label="ink_ext_XXXXXX"
     transform="matrix(1.25,0,0,-1.25,-17.716364,56.381819)"><g
       id="g12"
       transform="scale(0.1,0.1)"><path
         d="m 906.711,296.559 c 0,-13.77 -0.766,-25.508 -7.656,-32.383 -3.828,-3.821 -8.918,-5.86 -15.547,-5.86 -6.645,0 -11.488,2.039 -15.293,5.86 -6.899,6.875 -7.656,18.613 -7.656,32.383 0,13.777 0.757,25.242 7.656,32.136 3.805,3.821 8.648,5.86 15.293,5.86 6.629,0 11.719,-2.039 15.547,-5.86 6.89,-6.894 7.656,-18.359 7.656,-32.136 m 33.144,0 c 0,23.964 -3.058,39.011 -15.042,51.504 -8.153,8.671 -21.676,16.328 -41.305,16.328 -19.629,0 -32.895,-7.657 -41.059,-16.328 -11.988,-12.493 -15.039,-27.54 -15.039,-51.504 0,-24.231 3.051,-39.278 15.039,-51.77 8.164,-8.66 21.43,-16.316 41.059,-16.316 19.629,0 33.152,7.656 41.305,16.316 11.984,12.492 15.042,27.539 15.042,51.77"
         style="fill:#77661f;fill-opacity:1;fill-rule:nonzero;stroke:none"
         id="path14"
         inkscape:connector-curvature="0" /><path
         d="m 1417.92,241.441 -23.98,71.954 -23.95,-71.79 c -2.75,-8.152 -9.12,-13.093 -17.35,-13.093 -8.2,0 -14.92,5.41 -17.32,12.929 l -31.14,101.532 c -0.47,1.535 -0.73,3.156 -0.73,4.836 0,6.687 3.96,12.429 9.67,15.058 2.1,0.965 4.43,1.524 6.92,1.524 2.47,0 4.81,-0.559 6.9,-1.524 4.59,-2.109 8.04,-6.269 9.2,-11.281 l 18.53,-70.82 27.02,82.101 24.24,0 27.26,-82.101 18.3,70.05 c 0.12,0.75 0.33,1.473 0.58,2.207 1.47,4.403 4.75,7.969 8.96,9.852 2.05,0.91 4.31,1.426 6.69,1.426 2.42,0 4.69,-0.516 6.76,-1.434 5.78,-2.578 9.81,-8.371 9.81,-15.129 0,-1.074 -0.1,-2.129 -0.32,-3.164 l -0.99,-3.32 -30.53,-99.793 c -2.15,-7.551 -8.99,-12.949 -17.23,-12.949 -8.2,0 -14.6,5.027 -17.3,12.929"
         style="fill:#77661f;fill-opacity:1;fill-rule:nonzero;stroke:none"
         id="path16"
         inkscape:connector-curvature="0" /><path
         d="m 735.969,261.586 55.281,0 c 8.266,-0.496 14.949,-7.332 14.949,-15.75 0,-4.797 -2.168,-9.023 -5.48,-11.906 -2.758,-2.391 -6.348,-3.926 -10.336,-3.926 l -76.223,-0.078 c -11.199,0.48 -19.789,9.453 -20.265,20.265 l 0,1.719 c 0.171,3.836 1.324,7.715 3.464,10.906 l 61.801,96.797 -51.199,0 c -4.066,0 -7.691,1.582 -10.461,4.024 -0.973,0.859 -1.812,1.828 -2.527,2.851 -1.785,2.532 -2.864,5.617 -2.864,8.965 0,3.36 1.079,6.426 2.864,8.965 0.715,1.035 1.554,1.992 2.527,2.852 2.77,2.453 6.461,4.003 10.488,4.003 l 73.328,0 c 11.172,-0.457 20.145,-9.617 20.145,-20.906 0,-3.828 -1.106,-7.422 -2.871,-10.48 l -62.621,-98.301"
         style="fill:#77661f;fill-opacity:1;fill-rule:nonzero;stroke:none"
         id="path18"
         inkscape:connector-curvature="0" /><path
         d="m 1201.61,304.086 8.78,18.215 28.86,60.008 c 0.13,0.343 0.49,0.976 0.49,0.976 3.02,5.871 9.03,9.641 15.77,9.641 9.77,0 17.74,-7.969 17.78,-17.774 l 0,-130.851 c 0,-8.914 -7.34,-15.938 -15.94,-15.938 -8.58,0 -15.97,7.004 -15.97,15.918 l -0.02,75.059 -28.99,-57.508 -21.51,0 -29.19,57.527 0,-75.117 c -0.06,-8.894 -7.38,-15.879 -15.98,-15.879 -2.44,0 -4.73,0.567 -6.8,1.555 -5.35,2.52 -9.08,7.93 -9.16,14.227 l 0,130.957 c 0.12,9.843 7.89,17.824 17.78,17.824 6.95,0 13.22,-4.094 16.13,-10.293 l 37.97,-78.547"
         style="fill:#77661f;fill-opacity:1;fill-rule:nonzero;stroke:none"
         id="path20"
         inkscape:connector-curvature="0" /><path
         d="m 1078.06,230.004 c 5.72,2.609 9.7,8.371 9.7,15.059 l 0,69.863 c 0,14.543 -2.8,27.031 -13.51,37.734 -7.4,7.395 -18.11,11.731 -31.37,11.731 -12.04,0 -24.07,-4.465 -32.71,-13.36 -0.32,1.551 0.19,-0.293 -0.44,1.766 -1.38,4.473 -4.64,8.117 -8.83,10.07 -2.13,0.985 -4.482,1.551 -6.994,1.551 -2.5,0 -4.875,-0.566 -6.98,-1.551 -5.656,-2.637 -9.571,-8.371 -9.571,-15 l 0,-102.832 0,0.028 c 0,-6.688 3.961,-12.45 9.688,-15.059 2.098,-0.957 4.41,-1.504 6.875,-1.504 2.449,0 4.766,0.547 6.872,1.504 5.7,2.609 9.69,8.371 9.69,15.059 l 0.02,-0.02 0,65.293 c 0,18.105 11.73,24.23 22.19,24.23 10.44,0 21.92,-6.125 21.92,-24.23 l 0.01,-65.273 c 0,-6.688 4,-12.45 9.73,-15.059 2.09,-0.945 4.4,-1.492 6.86,-1.492 2.43,0 4.77,0.547 6.86,1.492 l -0.01,0"
         style="fill:#77661f;fill-opacity:1;fill-rule:nonzero;stroke:none"
         id="path22"
         inkscape:connector-curvature="0" /><path
         d="m 503.129,299.223 -0.703,-4.246 120.324,0 0,4.246 -119.621,0"
         style="fill:#00adef;fill-opacity:1;fill-rule:nonzero;stroke:none"
         id="path24"
         inkscape:connector-curvature="0" /><path
         d="m 453.895,450.414 c 0,0 -1.977,2.336 -10.375,-1.914 -16.551,-7.598 -28.153,-17.996 -45.192,-31.211 -23.43,-18.894 -44.359,-37.187 -62.332,-53.613 -9.719,9.855 -21.387,17.531 -34.566,22.277 -21.543,7.762 -44.5,6.805 -64.645,-2.656 -9.156,-4.317 -17.269,-10.266 -24.187,-17.434 -6.051,9.367 -11.43,18.867 -15.289,27.942 -17.911,37.246 -8.586,51.609 -5.661,54.902 -8.429,-8.625 -83.441,-89.719 -32.07,-201.641 9.633,-21.601 23.383,-37.988 29.852,-45.019 l -0.032,-0.02 c 0.364,-0.402 3.668,-3.769 3.668,-3.769 0,0 -0.039,0.019 -0.097,0.117 45.953,-48.203 112.519,-66.934 175,-51.184 0.269,0.059 0.551,0.059 0.808,0.118 l -0.007,0.078 c 10.925,2.804 21.757,6.543 32.3,11.504 18.942,8.918 35.516,21.3 51.989,38.593 1.379,1.184 2.14,2.09 2.14,2.09 0,0 32.008,29.766 44.289,80.832 1.231,4.949 2.172,9.785 2.973,14.571 l -184.832,0 c -0.141,-3.489 -0.559,-6.973 -1.453,-10.422 -2.149,-8.321 -6.488,-15.645 -12.27,-21.68 10.645,-9.355 22.633,-19.141 34.606,-27.363 -6.84,-7.188 -14.914,-13.133 -24.035,-17.422 -4.278,-2.02 -8.719,-3.563 -13.227,-4.785 -11.762,22.968 -22.652,50.871 -31.402,81.933 3.218,-3.328 11.082,-11.308 21.5,-21.015 3.961,4.023 6.918,8.945 8.359,14.562 2.164,8.406 0.934,17.149 -3.484,24.629 -1.528,2.586 -3.465,4.805 -5.563,6.824 -14.371,-14.461 -22.414,-23.328 -22.414,-23.328 -0.008,0.008 -9.496,9.707 -21.785,24.11 -11.242,-10.125 -14.199,-27.129 -6.223,-40.645 1.614,-2.723 3.657,-5.027 5.899,-7.117 9.648,10.605 17.586,18.933 20.672,22.156 -7.45,-30.371 -11.871,-57.832 -13.313,-80.535 -0.68,0.223 -1.367,0.379 -2.035,0.625 -13.531,4.883 -25.465,12.879 -35.211,23.242 5.898,7.274 12.32,14.774 18.59,21.883 -3.524,3.242 -6.731,6.855 -9.238,11.094 -12.282,20.82 -7.528,47.023 10.046,62.414 -7.371,9.199 -15.027,19.433 -21.878,29.902 6.82,7.149 14.839,13.055 23.929,17.324 19.621,9.239 41.996,10.145 63.008,2.578 12.852,-4.621 24.238,-12.089 33.711,-21.699 -12.02,-11.027 -22.707,-21.222 -31.738,-30.058 3.086,-3.02 5.929,-6.309 8.179,-10.118 4.18,-7.062 6.387,-14.882 6.746,-22.843 l 185.383,0 -0.468,-3.868 c 15.738,94.954 -48.625,155.059 -48.625,155.059 M 204.527,190.113 c 17,-14.133 36.45,-25 55.493,-30.761 1.019,-1.848 2.109,-3.516 3.347,-4.825 -21.316,7.762 -41.289,19.766 -58.84,35.586 m 65.391,-37.765 0.027,0.109 c -2.894,0.898 -5.367,3.016 -7.418,6.199 25.422,-7.187 51.864,-7.441 76.653,-0.906 6.777,-5.656 13.425,-9.387 19.726,-10.566 -29.898,-5.989 -60.449,-4.004 -88.988,5.164 m 176.41,41.445 c -14.598,-14.363 -29.449,-25.105 -46.172,-32.977 -10.668,-5.011 -21.617,-8.769 -32.695,-11.562 -8.051,-1.699 -16.992,1.668 -26.238,9.129 7.472,2.09 14.828,4.719 21.918,8.047 16.5,7.765 30.789,18.398 42.687,31.066 14.813,-5.293 29.391,-7.793 40.5,-3.703 m -130.937,22.375 c 9.437,4.434 17.769,10.594 24.82,18.047 6.375,-4.824 35.066,-25.285 63.457,-35.93 -11.598,-12.195 -25.469,-22.422 -41.441,-29.93 -7.418,-3.488 -15.118,-6.25 -22.969,-8.359 -12.309,10.633 -25.098,28.406 -37.039,51.375 4.48,1.242 8.898,2.785 13.172,4.797 m -47.032,76.602 c 8.649,-30.254 19.352,-57.473 30.938,-80.051 -14.199,-3.465 -29.192,-2.918 -43.676,1.504 1.387,22.218 5.629,49.082 12.738,78.547 m -12.871,-80.723 c 14.867,-4.445 30.239,-4.895 44.789,-1.242 11.825,-22.657 24.512,-40.371 36.825,-51.387 -24.524,-6.16 -50.622,-5.691 -75.641,1.699 -0.066,0.02 -0.133,0.039 -0.191,0.059 -5.082,10.039 -7.051,27.715 -5.782,50.871 m -40.59,25.039 c 9.942,-10.5 22.079,-18.625 35.84,-23.586 0.867,-0.301 1.762,-0.527 2.641,-0.809 -1.262,-22.492 0.57,-39.902 5.316,-50.644 -23.175,7.422 -46.836,22.363 -65.675,41.531 2.097,7.297 10.875,19.836 21.878,33.508"
         style="fill:#00adef;fill-opacity:1;fill-rule:nonzero;stroke:none"
         id="path26"
         inkscape:connector-curvature="0" /></g></g></svg>